G04 #@! TF.FileFunction,Soldermask,Bot*
%FSLAX46Y46*%
G04 Gerber Fmt 4.6, Leading zero omitted, Abs format (unit mm)*
G04 Created by KiCad (PCBNEW 4.0.7) date 03/19/18 23:09:54*
%MOMM*%
%LPD*%
G01*
G04 APERTURE LIST*
%ADD10C,0.100000*%
%ADD11C,0.150000*%
%ADD12C,2.900000*%
%ADD13R,2.900000X2.900000*%
%ADD14R,4.400000X4.400000*%
%ADD15C,4.400000*%
%ADD16R,2.800000X2.800000*%
%ADD17C,2.800000*%
%ADD18R,3.400000X3.400000*%
%ADD19C,3.400000*%
%ADD20C,4.100000*%
%ADD21C,6.800000*%
G04 APERTURE END LIST*
D10*
D11*
X195000000Y-35000000D02*
X120000000Y-35000000D01*
X195000000Y-135000000D02*
X195000000Y-35000000D01*
X120000000Y-35000000D02*
X120000000Y-135000000D01*
X120000000Y-135000000D02*
X195000000Y-135000000D01*
D12*
X178300000Y-93900000D03*
X160200000Y-75800000D03*
D13*
X171600000Y-75800000D03*
D12*
X160200000Y-93900000D03*
D14*
X131000000Y-54500000D03*
D15*
X141000000Y-54500000D03*
D14*
X131000000Y-85500000D03*
D15*
X141000000Y-85500000D03*
D14*
X131000000Y-116500000D03*
D15*
X141000000Y-116500000D03*
D14*
X158100000Y-112900000D03*
D15*
X168100000Y-112900000D03*
D16*
X188300000Y-112800000D03*
D17*
X180800000Y-112800000D03*
D18*
X159200000Y-40600000D03*
D19*
X164280000Y-40600000D03*
D18*
X172200000Y-40600000D03*
D19*
X177280000Y-40600000D03*
D18*
X159200000Y-51100000D03*
D19*
X164280000Y-51100000D03*
D18*
X172300000Y-51700000D03*
D19*
X177380000Y-51700000D03*
D18*
X185900000Y-51900000D03*
D19*
X190980000Y-51900000D03*
D18*
X171300000Y-64600000D03*
D19*
X176380000Y-64600000D03*
D18*
X162200000Y-130000000D03*
D19*
X157120000Y-130000000D03*
D18*
X172800000Y-130000000D03*
D19*
X167720000Y-130000000D03*
D18*
X183400000Y-130000000D03*
D19*
X178320000Y-130000000D03*
D20*
X189600000Y-74700000D03*
X189600000Y-94100000D03*
X187040000Y-79740000D03*
X192150000Y-79740000D03*
X187060000Y-89060000D03*
X192160000Y-89060000D03*
D21*
X123500000Y-38500000D03*
X123500000Y-131500000D03*
X191400000Y-38500000D03*
X191500000Y-131500000D03*
M02*
