G04 #@! TF.FileFunction,Legend,Top*
%FSLAX46Y46*%
G04 Gerber Fmt 4.6, Leading zero omitted, Abs format (unit mm)*
G04 Created by KiCad (PCBNEW 4.0.7) date 03/19/18 23:09:54*
%MOMM*%
%LPD*%
G01*
G04 APERTURE LIST*
%ADD10C,0.100000*%
%ADD11C,0.200000*%
%ADD12C,0.300000*%
%ADD13C,0.150000*%
%ADD14C,0.120000*%
G04 APERTURE END LIST*
D10*
D11*
X182500000Y-132700000D02*
X184300000Y-132700000D01*
X172000000Y-132700000D02*
X173800000Y-132700000D01*
X161300000Y-132700000D02*
X163100000Y-132700000D01*
X177400000Y-132700000D02*
X179200000Y-132700000D01*
X178300000Y-131800000D02*
X178300000Y-133600000D01*
X167700000Y-131800000D02*
X167700000Y-133600000D01*
X166800000Y-132700000D02*
X168600000Y-132700000D01*
X156200000Y-132700000D02*
X158000000Y-132700000D01*
X157100000Y-131800000D02*
X157100000Y-133600000D01*
X127671428Y-132752381D02*
X127671428Y-133466667D01*
X127623808Y-133609524D01*
X127528570Y-133704762D01*
X127385713Y-133752381D01*
X127290475Y-133752381D01*
X128290475Y-133752381D02*
X128195237Y-133704762D01*
X128147618Y-133657143D01*
X128099999Y-133561905D01*
X128099999Y-133276190D01*
X128147618Y-133180952D01*
X128195237Y-133133333D01*
X128290475Y-133085714D01*
X128433333Y-133085714D01*
X128528571Y-133133333D01*
X128576190Y-133180952D01*
X128623809Y-133276190D01*
X128623809Y-133561905D01*
X128576190Y-133657143D01*
X128528571Y-133704762D01*
X128433333Y-133752381D01*
X128290475Y-133752381D01*
X129004761Y-133704762D02*
X129099999Y-133752381D01*
X129290475Y-133752381D01*
X129385714Y-133704762D01*
X129433333Y-133609524D01*
X129433333Y-133561905D01*
X129385714Y-133466667D01*
X129290475Y-133419048D01*
X129147618Y-133419048D01*
X129052380Y-133371429D01*
X129004761Y-133276190D01*
X129004761Y-133228571D01*
X129052380Y-133133333D01*
X129147618Y-133085714D01*
X129290475Y-133085714D01*
X129385714Y-133133333D01*
X130242857Y-133704762D02*
X130147619Y-133752381D01*
X129957142Y-133752381D01*
X129861904Y-133704762D01*
X129814285Y-133609524D01*
X129814285Y-133228571D01*
X129861904Y-133133333D01*
X129957142Y-133085714D01*
X130147619Y-133085714D01*
X130242857Y-133133333D01*
X130290476Y-133228571D01*
X130290476Y-133323810D01*
X129814285Y-133419048D01*
X130147619Y-132704762D02*
X130004761Y-132847619D01*
X131814286Y-133228571D02*
X131480952Y-133228571D01*
X131480952Y-133752381D02*
X131480952Y-132752381D01*
X131957143Y-132752381D01*
X132719048Y-133704762D02*
X132623810Y-133752381D01*
X132433333Y-133752381D01*
X132338095Y-133704762D01*
X132290476Y-133609524D01*
X132290476Y-133228571D01*
X132338095Y-133133333D01*
X132433333Y-133085714D01*
X132623810Y-133085714D01*
X132719048Y-133133333D01*
X132766667Y-133228571D01*
X132766667Y-133323810D01*
X132290476Y-133419048D01*
X133195238Y-133752381D02*
X133195238Y-133085714D01*
X133195238Y-133276190D02*
X133242857Y-133180952D01*
X133290476Y-133133333D01*
X133385714Y-133085714D01*
X133480953Y-133085714D01*
X133814286Y-133085714D02*
X133814286Y-133752381D01*
X133814286Y-133180952D02*
X133861905Y-133133333D01*
X133957143Y-133085714D01*
X134100001Y-133085714D01*
X134195239Y-133133333D01*
X134242858Y-133228571D01*
X134242858Y-133752381D01*
X135147620Y-133752381D02*
X135147620Y-133228571D01*
X135100001Y-133133333D01*
X135004763Y-133085714D01*
X134814286Y-133085714D01*
X134719048Y-133133333D01*
X135147620Y-133704762D02*
X135052382Y-133752381D01*
X134814286Y-133752381D01*
X134719048Y-133704762D01*
X134671429Y-133609524D01*
X134671429Y-133514286D01*
X134719048Y-133419048D01*
X134814286Y-133371429D01*
X135052382Y-133371429D01*
X135147620Y-133323810D01*
X135623810Y-133085714D02*
X135623810Y-133752381D01*
X135623810Y-133180952D02*
X135671429Y-133133333D01*
X135766667Y-133085714D01*
X135909525Y-133085714D01*
X136004763Y-133133333D01*
X136052382Y-133228571D01*
X136052382Y-133752381D01*
X136957144Y-133752381D02*
X136957144Y-132752381D01*
X136957144Y-133704762D02*
X136861906Y-133752381D01*
X136671429Y-133752381D01*
X136576191Y-133704762D01*
X136528572Y-133657143D01*
X136480953Y-133561905D01*
X136480953Y-133276190D01*
X136528572Y-133180952D01*
X136576191Y-133133333D01*
X136671429Y-133085714D01*
X136861906Y-133085714D01*
X136957144Y-133133333D01*
X137576191Y-133752381D02*
X137480953Y-133704762D01*
X137433334Y-133657143D01*
X137385715Y-133561905D01*
X137385715Y-133276190D01*
X137433334Y-133180952D01*
X137480953Y-133133333D01*
X137576191Y-133085714D01*
X137719049Y-133085714D01*
X137814287Y-133133333D01*
X137861906Y-133180952D01*
X137909525Y-133276190D01*
X137909525Y-133561905D01*
X137861906Y-133657143D01*
X137814287Y-133704762D01*
X137719049Y-133752381D01*
X137576191Y-133752381D01*
X139623811Y-132800000D02*
X139528573Y-132752381D01*
X139385716Y-132752381D01*
X139242858Y-132800000D01*
X139147620Y-132895238D01*
X139100001Y-132990476D01*
X139052382Y-133180952D01*
X139052382Y-133323810D01*
X139100001Y-133514286D01*
X139147620Y-133609524D01*
X139242858Y-133704762D01*
X139385716Y-133752381D01*
X139480954Y-133752381D01*
X139623811Y-133704762D01*
X139671430Y-133657143D01*
X139671430Y-133323810D01*
X139480954Y-133323810D01*
X140242858Y-133752381D02*
X140147620Y-133704762D01*
X140100001Y-133657143D01*
X140052382Y-133561905D01*
X140052382Y-133276190D01*
X140100001Y-133180952D01*
X140147620Y-133133333D01*
X140242858Y-133085714D01*
X140385716Y-133085714D01*
X140480954Y-133133333D01*
X140528573Y-133180952D01*
X140576192Y-133276190D01*
X140576192Y-133561905D01*
X140528573Y-133657143D01*
X140480954Y-133704762D01*
X140385716Y-133752381D01*
X140242858Y-133752381D01*
X140433335Y-132704762D02*
X140290477Y-132847619D01*
X141004763Y-133752381D02*
X141004763Y-133085714D01*
X141004763Y-133180952D02*
X141052382Y-133133333D01*
X141147620Y-133085714D01*
X141290478Y-133085714D01*
X141385716Y-133133333D01*
X141433335Y-133228571D01*
X141433335Y-133752381D01*
X141433335Y-133228571D02*
X141480954Y-133133333D01*
X141576192Y-133085714D01*
X141719049Y-133085714D01*
X141814287Y-133133333D01*
X141861906Y-133228571D01*
X141861906Y-133752381D01*
X142719049Y-133704762D02*
X142623811Y-133752381D01*
X142433334Y-133752381D01*
X142338096Y-133704762D01*
X142290477Y-133609524D01*
X142290477Y-133228571D01*
X142338096Y-133133333D01*
X142433334Y-133085714D01*
X142623811Y-133085714D01*
X142719049Y-133133333D01*
X142766668Y-133228571D01*
X142766668Y-133323810D01*
X142290477Y-133419048D01*
X143100001Y-133085714D02*
X143623811Y-133085714D01*
X143100001Y-133752381D01*
X143623811Y-133752381D01*
X144766668Y-133752381D02*
X144766668Y-132752381D01*
X145004763Y-132752381D01*
X145147621Y-132800000D01*
X145242859Y-132895238D01*
X145290478Y-132990476D01*
X145338097Y-133180952D01*
X145338097Y-133323810D01*
X145290478Y-133514286D01*
X145242859Y-133609524D01*
X145147621Y-133704762D01*
X145004763Y-133752381D01*
X144766668Y-133752381D01*
X145766668Y-133752381D02*
X145766668Y-133085714D01*
X145861906Y-132704762D02*
X145719049Y-132847619D01*
X146671430Y-133752381D02*
X146671430Y-133228571D01*
X146623811Y-133133333D01*
X146528573Y-133085714D01*
X146338096Y-133085714D01*
X146242858Y-133133333D01*
X146671430Y-133704762D02*
X146576192Y-133752381D01*
X146338096Y-133752381D01*
X146242858Y-133704762D01*
X146195239Y-133609524D01*
X146195239Y-133514286D01*
X146242858Y-133419048D01*
X146338096Y-133371429D01*
X146576192Y-133371429D01*
X146671430Y-133323810D01*
X147052382Y-133085714D02*
X147576192Y-133085714D01*
X147052382Y-133752381D01*
X147576192Y-133752381D01*
X149433335Y-132847619D02*
X149480954Y-132800000D01*
X149576192Y-132752381D01*
X149814288Y-132752381D01*
X149909526Y-132800000D01*
X149957145Y-132847619D01*
X150004764Y-132942857D01*
X150004764Y-133038095D01*
X149957145Y-133180952D01*
X149385716Y-133752381D01*
X150004764Y-133752381D01*
X150623811Y-132752381D02*
X150719050Y-132752381D01*
X150814288Y-132800000D01*
X150861907Y-132847619D01*
X150909526Y-132942857D01*
X150957145Y-133133333D01*
X150957145Y-133371429D01*
X150909526Y-133561905D01*
X150861907Y-133657143D01*
X150814288Y-133704762D01*
X150719050Y-133752381D01*
X150623811Y-133752381D01*
X150528573Y-133704762D01*
X150480954Y-133657143D01*
X150433335Y-133561905D01*
X150385716Y-133371429D01*
X150385716Y-133133333D01*
X150433335Y-132942857D01*
X150480954Y-132847619D01*
X150528573Y-132800000D01*
X150623811Y-132752381D01*
X151909526Y-133752381D02*
X151338097Y-133752381D01*
X151623811Y-133752381D02*
X151623811Y-132752381D01*
X151528573Y-132895238D01*
X151433335Y-132990476D01*
X151338097Y-133038095D01*
X152480954Y-133180952D02*
X152385716Y-133133333D01*
X152338097Y-133085714D01*
X152290478Y-132990476D01*
X152290478Y-132942857D01*
X152338097Y-132847619D01*
X152385716Y-132800000D01*
X152480954Y-132752381D01*
X152671431Y-132752381D01*
X152766669Y-132800000D01*
X152814288Y-132847619D01*
X152861907Y-132942857D01*
X152861907Y-132990476D01*
X152814288Y-133085714D01*
X152766669Y-133133333D01*
X152671431Y-133180952D01*
X152480954Y-133180952D01*
X152385716Y-133228571D01*
X152338097Y-133276190D01*
X152290478Y-133371429D01*
X152290478Y-133561905D01*
X152338097Y-133657143D01*
X152385716Y-133704762D01*
X152480954Y-133752381D01*
X152671431Y-133752381D01*
X152766669Y-133704762D01*
X152814288Y-133657143D01*
X152861907Y-133561905D01*
X152861907Y-133371429D01*
X152814288Y-133276190D01*
X152766669Y-133228571D01*
X152671431Y-133180952D01*
D12*
X127478571Y-37878571D02*
X127478571Y-36378571D01*
X128049999Y-36378571D01*
X128192857Y-36450000D01*
X128264285Y-36521429D01*
X128335714Y-36664286D01*
X128335714Y-36878571D01*
X128264285Y-37021429D01*
X128192857Y-37092857D01*
X128049999Y-37164286D01*
X127478571Y-37164286D01*
X129264285Y-36378571D02*
X129549999Y-36378571D01*
X129692857Y-36450000D01*
X129835714Y-36592857D01*
X129907142Y-36878571D01*
X129907142Y-37378571D01*
X129835714Y-37664286D01*
X129692857Y-37807143D01*
X129549999Y-37878571D01*
X129264285Y-37878571D01*
X129121428Y-37807143D01*
X128978571Y-37664286D01*
X128907142Y-37378571D01*
X128907142Y-36878571D01*
X128978571Y-36592857D01*
X129121428Y-36450000D01*
X129264285Y-36378571D01*
X130407143Y-36378571D02*
X130764286Y-37878571D01*
X131050000Y-36807143D01*
X131335714Y-37878571D01*
X131692857Y-36378571D01*
X132264286Y-37092857D02*
X132764286Y-37092857D01*
X132978572Y-37878571D02*
X132264286Y-37878571D01*
X132264286Y-36378571D01*
X132978572Y-36378571D01*
X134478572Y-37878571D02*
X133978572Y-37164286D01*
X133621429Y-37878571D02*
X133621429Y-36378571D01*
X134192857Y-36378571D01*
X134335715Y-36450000D01*
X134407143Y-36521429D01*
X134478572Y-36664286D01*
X134478572Y-36878571D01*
X134407143Y-37021429D01*
X134335715Y-37092857D01*
X134192857Y-37164286D01*
X133621429Y-37164286D01*
X137121429Y-37878571D02*
X136621429Y-37164286D01*
X136264286Y-37878571D02*
X136264286Y-36378571D01*
X136835714Y-36378571D01*
X136978572Y-36450000D01*
X137050000Y-36521429D01*
X137121429Y-36664286D01*
X137121429Y-36878571D01*
X137050000Y-37021429D01*
X136978572Y-37092857D01*
X136835714Y-37164286D01*
X136264286Y-37164286D01*
X137764286Y-37092857D02*
X138264286Y-37092857D01*
X138478572Y-37878571D02*
X137764286Y-37878571D01*
X137764286Y-36378571D01*
X138478572Y-36378571D01*
X139978572Y-37735714D02*
X139907143Y-37807143D01*
X139692857Y-37878571D01*
X139550000Y-37878571D01*
X139335715Y-37807143D01*
X139192857Y-37664286D01*
X139121429Y-37521429D01*
X139050000Y-37235714D01*
X139050000Y-37021429D01*
X139121429Y-36735714D01*
X139192857Y-36592857D01*
X139335715Y-36450000D01*
X139550000Y-36378571D01*
X139692857Y-36378571D01*
X139907143Y-36450000D01*
X139978572Y-36521429D01*
X140407143Y-36378571D02*
X141264286Y-36378571D01*
X140835715Y-37878571D02*
X140835715Y-36378571D01*
X141764286Y-37878571D02*
X141764286Y-36378571D01*
X142978572Y-37092857D02*
X142478572Y-37092857D01*
X142478572Y-37878571D02*
X142478572Y-36378571D01*
X143192858Y-36378571D01*
X143764286Y-37878571D02*
X143764286Y-36378571D01*
X144478572Y-37092857D02*
X144978572Y-37092857D01*
X145192858Y-37878571D02*
X144478572Y-37878571D01*
X144478572Y-36378571D01*
X145192858Y-36378571D01*
X146692858Y-37878571D02*
X146192858Y-37164286D01*
X145835715Y-37878571D02*
X145835715Y-36378571D01*
X146407143Y-36378571D01*
X146550001Y-36450000D01*
X146621429Y-36521429D01*
X146692858Y-36664286D01*
X146692858Y-36878571D01*
X146621429Y-37021429D01*
X146550001Y-37092857D01*
X146407143Y-37164286D01*
X145835715Y-37164286D01*
X148978572Y-37092857D02*
X149192858Y-37164286D01*
X149264286Y-37235714D01*
X149335715Y-37378571D01*
X149335715Y-37592857D01*
X149264286Y-37735714D01*
X149192858Y-37807143D01*
X149050000Y-37878571D01*
X148478572Y-37878571D01*
X148478572Y-36378571D01*
X148978572Y-36378571D01*
X149121429Y-36450000D01*
X149192858Y-36521429D01*
X149264286Y-36664286D01*
X149264286Y-36807143D01*
X149192858Y-36950000D01*
X149121429Y-37021429D01*
X148978572Y-37092857D01*
X148478572Y-37092857D01*
X150264286Y-36378571D02*
X150550000Y-36378571D01*
X150692858Y-36450000D01*
X150835715Y-36592857D01*
X150907143Y-36878571D01*
X150907143Y-37378571D01*
X150835715Y-37664286D01*
X150692858Y-37807143D01*
X150550000Y-37878571D01*
X150264286Y-37878571D01*
X150121429Y-37807143D01*
X149978572Y-37664286D01*
X149907143Y-37378571D01*
X149907143Y-36878571D01*
X149978572Y-36592857D01*
X150121429Y-36450000D01*
X150264286Y-36378571D01*
X151478572Y-37450000D02*
X152192858Y-37450000D01*
X151335715Y-37878571D02*
X151835715Y-36378571D01*
X152335715Y-37878571D01*
X153692858Y-37878571D02*
X153192858Y-37164286D01*
X152835715Y-37878571D02*
X152835715Y-36378571D01*
X153407143Y-36378571D01*
X153550001Y-36450000D01*
X153621429Y-36521429D01*
X153692858Y-36664286D01*
X153692858Y-36878571D01*
X153621429Y-37021429D01*
X153550001Y-37092857D01*
X153407143Y-37164286D01*
X152835715Y-37164286D01*
X154335715Y-37878571D02*
X154335715Y-36378571D01*
X154692858Y-36378571D01*
X154907143Y-36450000D01*
X155050001Y-36592857D01*
X155121429Y-36735714D01*
X155192858Y-37021429D01*
X155192858Y-37235714D01*
X155121429Y-37521429D01*
X155050001Y-37664286D01*
X154907143Y-37807143D01*
X154692858Y-37878571D01*
X154335715Y-37878571D01*
D13*
X195000000Y-35000000D02*
X120000000Y-35000000D01*
X195000000Y-135000000D02*
X195000000Y-35000000D01*
X120000000Y-35000000D02*
X120000000Y-135000000D01*
X120000000Y-135000000D02*
X195000000Y-135000000D01*
X183550000Y-70550000D02*
X154950000Y-70550000D01*
X154950000Y-99150000D02*
X154950000Y-70550000D01*
X183550000Y-99150000D02*
X183550000Y-70550000D01*
X183550000Y-99150000D02*
X154950000Y-99150000D01*
D10*
X169450000Y-77550000D02*
X168450000Y-77550000D01*
X168950000Y-78050000D02*
X168950000Y-77050000D01*
X162600000Y-92150000D02*
X161600000Y-92150000D01*
X176243021Y-92151270D02*
G75*
G03X176900000Y-92100000I306979J301270D01*
G01*
X176256979Y-92148730D02*
G75*
G03X175600000Y-92200000I-306979J-301270D01*
G01*
X162456979Y-77548730D02*
G75*
G03X161800000Y-77600000I-306979J-301270D01*
G01*
X162443021Y-77551270D02*
G75*
G03X163100000Y-77500000I306979J301270D01*
G01*
D14*
X151090000Y-54500000D02*
G75*
G03X151090000Y-54500000I-15090000J0D01*
G01*
X136000000Y-39450000D02*
X136000000Y-69550000D01*
X136040000Y-39450000D02*
X136040000Y-69550000D01*
X136080000Y-39450000D02*
X136080000Y-69550000D01*
X136120000Y-39450000D02*
X136120000Y-69550000D01*
X136160000Y-39450000D02*
X136160000Y-69550000D01*
X136200000Y-39451000D02*
X136200000Y-69549000D01*
X136240000Y-39451000D02*
X136240000Y-69549000D01*
X136280000Y-39452000D02*
X136280000Y-69548000D01*
X136320000Y-39453000D02*
X136320000Y-69547000D01*
X136360000Y-39454000D02*
X136360000Y-69546000D01*
X136400000Y-39455000D02*
X136400000Y-69545000D01*
X136440000Y-39456000D02*
X136440000Y-69544000D01*
X136480000Y-39457000D02*
X136480000Y-69543000D01*
X136520000Y-39458000D02*
X136520000Y-69542000D01*
X136560000Y-39460000D02*
X136560000Y-69540000D01*
X136600000Y-39461000D02*
X136600000Y-69539000D01*
X136640000Y-39463000D02*
X136640000Y-69537000D01*
X136680000Y-39465000D02*
X136680000Y-69535000D01*
X136721000Y-39467000D02*
X136721000Y-69533000D01*
X136761000Y-39469000D02*
X136761000Y-69531000D01*
X136801000Y-39471000D02*
X136801000Y-69529000D01*
X136841000Y-39473000D02*
X136841000Y-69527000D01*
X136881000Y-39475000D02*
X136881000Y-69525000D01*
X136921000Y-39478000D02*
X136921000Y-69522000D01*
X136961000Y-39480000D02*
X136961000Y-69520000D01*
X137001000Y-39483000D02*
X137001000Y-69517000D01*
X137041000Y-39485000D02*
X137041000Y-69515000D01*
X137081000Y-39488000D02*
X137081000Y-69512000D01*
X137121000Y-39491000D02*
X137121000Y-69509000D01*
X137161000Y-39494000D02*
X137161000Y-69506000D01*
X137201000Y-39497000D02*
X137201000Y-69503000D01*
X137241000Y-39501000D02*
X137241000Y-69499000D01*
X137281000Y-39504000D02*
X137281000Y-69496000D01*
X137321000Y-39507000D02*
X137321000Y-69493000D01*
X137361000Y-39511000D02*
X137361000Y-69489000D01*
X137401000Y-39515000D02*
X137401000Y-69485000D01*
X137441000Y-39518000D02*
X137441000Y-69482000D01*
X137481000Y-39522000D02*
X137481000Y-69478000D01*
X137521000Y-39526000D02*
X137521000Y-69474000D01*
X137561000Y-39530000D02*
X137561000Y-69470000D01*
X137601000Y-39535000D02*
X137601000Y-69465000D01*
X137641000Y-39539000D02*
X137641000Y-69461000D01*
X137681000Y-39543000D02*
X137681000Y-69457000D01*
X137721000Y-39548000D02*
X137721000Y-69452000D01*
X137761000Y-39552000D02*
X137761000Y-69448000D01*
X137801000Y-39557000D02*
X137801000Y-69443000D01*
X137841000Y-39562000D02*
X137841000Y-69438000D01*
X137881000Y-39567000D02*
X137881000Y-69433000D01*
X137921000Y-39572000D02*
X137921000Y-69428000D01*
X137961000Y-39577000D02*
X137961000Y-69423000D01*
X138001000Y-39583000D02*
X138001000Y-69417000D01*
X138041000Y-39588000D02*
X138041000Y-69412000D01*
X138081000Y-39594000D02*
X138081000Y-69406000D01*
X138121000Y-39599000D02*
X138121000Y-69401000D01*
X138161000Y-39605000D02*
X138161000Y-69395000D01*
X138201000Y-39611000D02*
X138201000Y-69389000D01*
X138241000Y-39617000D02*
X138241000Y-69383000D01*
X138281000Y-39623000D02*
X138281000Y-69377000D01*
X138321000Y-39629000D02*
X138321000Y-69371000D01*
X138361000Y-39635000D02*
X138361000Y-69365000D01*
X138401000Y-39642000D02*
X138401000Y-69358000D01*
X138441000Y-39648000D02*
X138441000Y-69352000D01*
X138481000Y-39655000D02*
X138481000Y-69345000D01*
X138521000Y-39661000D02*
X138521000Y-69339000D01*
X138561000Y-39668000D02*
X138561000Y-69332000D01*
X138601000Y-39675000D02*
X138601000Y-69325000D01*
X138641000Y-39682000D02*
X138641000Y-69318000D01*
X138681000Y-39689000D02*
X138681000Y-69311000D01*
X138721000Y-39697000D02*
X138721000Y-69303000D01*
X138761000Y-39704000D02*
X138761000Y-69296000D01*
X138801000Y-39712000D02*
X138801000Y-69288000D01*
X138841000Y-39719000D02*
X138841000Y-52320000D01*
X138841000Y-56680000D02*
X138841000Y-69281000D01*
X138881000Y-39727000D02*
X138881000Y-52320000D01*
X138881000Y-56680000D02*
X138881000Y-69273000D01*
X138921000Y-39735000D02*
X138921000Y-52320000D01*
X138921000Y-56680000D02*
X138921000Y-69265000D01*
X138961000Y-39743000D02*
X138961000Y-52320000D01*
X138961000Y-56680000D02*
X138961000Y-69257000D01*
X139001000Y-39751000D02*
X139001000Y-52320000D01*
X139001000Y-56680000D02*
X139001000Y-69249000D01*
X139041000Y-39759000D02*
X139041000Y-52320000D01*
X139041000Y-56680000D02*
X139041000Y-69241000D01*
X139081000Y-39767000D02*
X139081000Y-52320000D01*
X139081000Y-56680000D02*
X139081000Y-69233000D01*
X139121000Y-39776000D02*
X139121000Y-52320000D01*
X139121000Y-56680000D02*
X139121000Y-69224000D01*
X139161000Y-39784000D02*
X139161000Y-52320000D01*
X139161000Y-56680000D02*
X139161000Y-69216000D01*
X139201000Y-39793000D02*
X139201000Y-52320000D01*
X139201000Y-56680000D02*
X139201000Y-69207000D01*
X139241000Y-39801000D02*
X139241000Y-52320000D01*
X139241000Y-56680000D02*
X139241000Y-69199000D01*
X139281000Y-39810000D02*
X139281000Y-52320000D01*
X139281000Y-56680000D02*
X139281000Y-69190000D01*
X139321000Y-39819000D02*
X139321000Y-52320000D01*
X139321000Y-56680000D02*
X139321000Y-69181000D01*
X139361000Y-39828000D02*
X139361000Y-52320000D01*
X139361000Y-56680000D02*
X139361000Y-69172000D01*
X139401000Y-39838000D02*
X139401000Y-52320000D01*
X139401000Y-56680000D02*
X139401000Y-69162000D01*
X139441000Y-39847000D02*
X139441000Y-52320000D01*
X139441000Y-56680000D02*
X139441000Y-69153000D01*
X139481000Y-39856000D02*
X139481000Y-52320000D01*
X139481000Y-56680000D02*
X139481000Y-69144000D01*
X139521000Y-39866000D02*
X139521000Y-52320000D01*
X139521000Y-56680000D02*
X139521000Y-69134000D01*
X139561000Y-39875000D02*
X139561000Y-52320000D01*
X139561000Y-56680000D02*
X139561000Y-69125000D01*
X139601000Y-39885000D02*
X139601000Y-52320000D01*
X139601000Y-56680000D02*
X139601000Y-69115000D01*
X139641000Y-39895000D02*
X139641000Y-52320000D01*
X139641000Y-56680000D02*
X139641000Y-69105000D01*
X139681000Y-39905000D02*
X139681000Y-52320000D01*
X139681000Y-56680000D02*
X139681000Y-69095000D01*
X139721000Y-39915000D02*
X139721000Y-52320000D01*
X139721000Y-56680000D02*
X139721000Y-69085000D01*
X139761000Y-39925000D02*
X139761000Y-52320000D01*
X139761000Y-56680000D02*
X139761000Y-69075000D01*
X139801000Y-39936000D02*
X139801000Y-52320000D01*
X139801000Y-56680000D02*
X139801000Y-69064000D01*
X139841000Y-39946000D02*
X139841000Y-52320000D01*
X139841000Y-56680000D02*
X139841000Y-69054000D01*
X139881000Y-39957000D02*
X139881000Y-52320000D01*
X139881000Y-56680000D02*
X139881000Y-69043000D01*
X139921000Y-39968000D02*
X139921000Y-52320000D01*
X139921000Y-56680000D02*
X139921000Y-69032000D01*
X139961000Y-39978000D02*
X139961000Y-52320000D01*
X139961000Y-56680000D02*
X139961000Y-69022000D01*
X140001000Y-39989000D02*
X140001000Y-52320000D01*
X140001000Y-56680000D02*
X140001000Y-69011000D01*
X140041000Y-40000000D02*
X140041000Y-52320000D01*
X140041000Y-56680000D02*
X140041000Y-69000000D01*
X140081000Y-40012000D02*
X140081000Y-52320000D01*
X140081000Y-56680000D02*
X140081000Y-68988000D01*
X140121000Y-40023000D02*
X140121000Y-52320000D01*
X140121000Y-56680000D02*
X140121000Y-68977000D01*
X140161000Y-40034000D02*
X140161000Y-52320000D01*
X140161000Y-56680000D02*
X140161000Y-68966000D01*
X140201000Y-40046000D02*
X140201000Y-52320000D01*
X140201000Y-56680000D02*
X140201000Y-68954000D01*
X140241000Y-40057000D02*
X140241000Y-52320000D01*
X140241000Y-56680000D02*
X140241000Y-68943000D01*
X140281000Y-40069000D02*
X140281000Y-52320000D01*
X140281000Y-56680000D02*
X140281000Y-68931000D01*
X140321000Y-40081000D02*
X140321000Y-52320000D01*
X140321000Y-56680000D02*
X140321000Y-68919000D01*
X140361000Y-40093000D02*
X140361000Y-52320000D01*
X140361000Y-56680000D02*
X140361000Y-68907000D01*
X140401000Y-40105000D02*
X140401000Y-52320000D01*
X140401000Y-56680000D02*
X140401000Y-68895000D01*
X140441000Y-40117000D02*
X140441000Y-52320000D01*
X140441000Y-56680000D02*
X140441000Y-68883000D01*
X140481000Y-40130000D02*
X140481000Y-52320000D01*
X140481000Y-56680000D02*
X140481000Y-68870000D01*
X140521000Y-40142000D02*
X140521000Y-52320000D01*
X140521000Y-56680000D02*
X140521000Y-68858000D01*
X140561000Y-40155000D02*
X140561000Y-52320000D01*
X140561000Y-56680000D02*
X140561000Y-68845000D01*
X140601000Y-40168000D02*
X140601000Y-52320000D01*
X140601000Y-56680000D02*
X140601000Y-68832000D01*
X140641000Y-40181000D02*
X140641000Y-52320000D01*
X140641000Y-56680000D02*
X140641000Y-68819000D01*
X140681000Y-40194000D02*
X140681000Y-52320000D01*
X140681000Y-56680000D02*
X140681000Y-68806000D01*
X140721000Y-40207000D02*
X140721000Y-52320000D01*
X140721000Y-56680000D02*
X140721000Y-68793000D01*
X140761000Y-40220000D02*
X140761000Y-52320000D01*
X140761000Y-56680000D02*
X140761000Y-68780000D01*
X140801000Y-40233000D02*
X140801000Y-52320000D01*
X140801000Y-56680000D02*
X140801000Y-68767000D01*
X140841000Y-40247000D02*
X140841000Y-52320000D01*
X140841000Y-56680000D02*
X140841000Y-68753000D01*
X140881000Y-40260000D02*
X140881000Y-52320000D01*
X140881000Y-56680000D02*
X140881000Y-68740000D01*
X140921000Y-40274000D02*
X140921000Y-52320000D01*
X140921000Y-56680000D02*
X140921000Y-68726000D01*
X140961000Y-40288000D02*
X140961000Y-52320000D01*
X140961000Y-56680000D02*
X140961000Y-68712000D01*
X141001000Y-40302000D02*
X141001000Y-52320000D01*
X141001000Y-56680000D02*
X141001000Y-68698000D01*
X141041000Y-40316000D02*
X141041000Y-52320000D01*
X141041000Y-56680000D02*
X141041000Y-68684000D01*
X141081000Y-40330000D02*
X141081000Y-52320000D01*
X141081000Y-56680000D02*
X141081000Y-68670000D01*
X141121000Y-40345000D02*
X141121000Y-52320000D01*
X141121000Y-56680000D02*
X141121000Y-68655000D01*
X141161000Y-40359000D02*
X141161000Y-52320000D01*
X141161000Y-56680000D02*
X141161000Y-68641000D01*
X141201000Y-40374000D02*
X141201000Y-52320000D01*
X141201000Y-56680000D02*
X141201000Y-68626000D01*
X141241000Y-40389000D02*
X141241000Y-52320000D01*
X141241000Y-56680000D02*
X141241000Y-68611000D01*
X141281000Y-40403000D02*
X141281000Y-52320000D01*
X141281000Y-56680000D02*
X141281000Y-68597000D01*
X141321000Y-40418000D02*
X141321000Y-52320000D01*
X141321000Y-56680000D02*
X141321000Y-68582000D01*
X141361000Y-40434000D02*
X141361000Y-52320000D01*
X141361000Y-56680000D02*
X141361000Y-68566000D01*
X141401000Y-40449000D02*
X141401000Y-52320000D01*
X141401000Y-56680000D02*
X141401000Y-68551000D01*
X141441000Y-40464000D02*
X141441000Y-52320000D01*
X141441000Y-56680000D02*
X141441000Y-68536000D01*
X141481000Y-40480000D02*
X141481000Y-52320000D01*
X141481000Y-56680000D02*
X141481000Y-68520000D01*
X141521000Y-40495000D02*
X141521000Y-52320000D01*
X141521000Y-56680000D02*
X141521000Y-68505000D01*
X141561000Y-40511000D02*
X141561000Y-52320000D01*
X141561000Y-56680000D02*
X141561000Y-68489000D01*
X141601000Y-40527000D02*
X141601000Y-52320000D01*
X141601000Y-56680000D02*
X141601000Y-68473000D01*
X141641000Y-40543000D02*
X141641000Y-52320000D01*
X141641000Y-56680000D02*
X141641000Y-68457000D01*
X141681000Y-40559000D02*
X141681000Y-52320000D01*
X141681000Y-56680000D02*
X141681000Y-68441000D01*
X141721000Y-40576000D02*
X141721000Y-52320000D01*
X141721000Y-56680000D02*
X141721000Y-68424000D01*
X141761000Y-40592000D02*
X141761000Y-52320000D01*
X141761000Y-56680000D02*
X141761000Y-68408000D01*
X141801000Y-40609000D02*
X141801000Y-52320000D01*
X141801000Y-56680000D02*
X141801000Y-68391000D01*
X141841000Y-40625000D02*
X141841000Y-52320000D01*
X141841000Y-56680000D02*
X141841000Y-68375000D01*
X141881000Y-40642000D02*
X141881000Y-52320000D01*
X141881000Y-56680000D02*
X141881000Y-68358000D01*
X141921000Y-40659000D02*
X141921000Y-52320000D01*
X141921000Y-56680000D02*
X141921000Y-68341000D01*
X141961000Y-40676000D02*
X141961000Y-52320000D01*
X141961000Y-56680000D02*
X141961000Y-68324000D01*
X142001000Y-40694000D02*
X142001000Y-52320000D01*
X142001000Y-56680000D02*
X142001000Y-68306000D01*
X142041000Y-40711000D02*
X142041000Y-52320000D01*
X142041000Y-56680000D02*
X142041000Y-68289000D01*
X142081000Y-40729000D02*
X142081000Y-52320000D01*
X142081000Y-56680000D02*
X142081000Y-68271000D01*
X142121000Y-40746000D02*
X142121000Y-52320000D01*
X142121000Y-56680000D02*
X142121000Y-68254000D01*
X142161000Y-40764000D02*
X142161000Y-52320000D01*
X142161000Y-56680000D02*
X142161000Y-68236000D01*
X142201000Y-40782000D02*
X142201000Y-52320000D01*
X142201000Y-56680000D02*
X142201000Y-68218000D01*
X142241000Y-40800000D02*
X142241000Y-52320000D01*
X142241000Y-56680000D02*
X142241000Y-68200000D01*
X142281000Y-40818000D02*
X142281000Y-52320000D01*
X142281000Y-56680000D02*
X142281000Y-68182000D01*
X142321000Y-40837000D02*
X142321000Y-52320000D01*
X142321000Y-56680000D02*
X142321000Y-68163000D01*
X142361000Y-40855000D02*
X142361000Y-52320000D01*
X142361000Y-56680000D02*
X142361000Y-68145000D01*
X142401000Y-40874000D02*
X142401000Y-52320000D01*
X142401000Y-56680000D02*
X142401000Y-68126000D01*
X142441000Y-40893000D02*
X142441000Y-52320000D01*
X142441000Y-56680000D02*
X142441000Y-68107000D01*
X142481000Y-40912000D02*
X142481000Y-52320000D01*
X142481000Y-56680000D02*
X142481000Y-68088000D01*
X142521000Y-40931000D02*
X142521000Y-52320000D01*
X142521000Y-56680000D02*
X142521000Y-68069000D01*
X142561000Y-40950000D02*
X142561000Y-52320000D01*
X142561000Y-56680000D02*
X142561000Y-68050000D01*
X142601000Y-40969000D02*
X142601000Y-52320000D01*
X142601000Y-56680000D02*
X142601000Y-68031000D01*
X142641000Y-40989000D02*
X142641000Y-52320000D01*
X142641000Y-56680000D02*
X142641000Y-68011000D01*
X142681000Y-41009000D02*
X142681000Y-52320000D01*
X142681000Y-56680000D02*
X142681000Y-67991000D01*
X142721000Y-41028000D02*
X142721000Y-52320000D01*
X142721000Y-56680000D02*
X142721000Y-67972000D01*
X142761000Y-41048000D02*
X142761000Y-52320000D01*
X142761000Y-56680000D02*
X142761000Y-67952000D01*
X142801000Y-41068000D02*
X142801000Y-52320000D01*
X142801000Y-56680000D02*
X142801000Y-67932000D01*
X142841000Y-41089000D02*
X142841000Y-52320000D01*
X142841000Y-56680000D02*
X142841000Y-67911000D01*
X142881000Y-41109000D02*
X142881000Y-52320000D01*
X142881000Y-56680000D02*
X142881000Y-67891000D01*
X142921000Y-41130000D02*
X142921000Y-52320000D01*
X142921000Y-56680000D02*
X142921000Y-67870000D01*
X142961000Y-41150000D02*
X142961000Y-52320000D01*
X142961000Y-56680000D02*
X142961000Y-67850000D01*
X143001000Y-41171000D02*
X143001000Y-52320000D01*
X143001000Y-56680000D02*
X143001000Y-67829000D01*
X143041000Y-41192000D02*
X143041000Y-52320000D01*
X143041000Y-56680000D02*
X143041000Y-67808000D01*
X143081000Y-41214000D02*
X143081000Y-52320000D01*
X143081000Y-56680000D02*
X143081000Y-67786000D01*
X143121000Y-41235000D02*
X143121000Y-52320000D01*
X143121000Y-56680000D02*
X143121000Y-67765000D01*
X143161000Y-41256000D02*
X143161000Y-52320000D01*
X143161000Y-56680000D02*
X143161000Y-67744000D01*
X143201000Y-41278000D02*
X143201000Y-67722000D01*
X143241000Y-41300000D02*
X143241000Y-67700000D01*
X143281000Y-41322000D02*
X143281000Y-67678000D01*
X143321000Y-41344000D02*
X143321000Y-67656000D01*
X143361000Y-41366000D02*
X143361000Y-67634000D01*
X143401000Y-41389000D02*
X143401000Y-67611000D01*
X143441000Y-41411000D02*
X143441000Y-67589000D01*
X143481000Y-41434000D02*
X143481000Y-67566000D01*
X143521000Y-41457000D02*
X143521000Y-67543000D01*
X143561000Y-41480000D02*
X143561000Y-67520000D01*
X143601000Y-41503000D02*
X143601000Y-67497000D01*
X143641000Y-41526000D02*
X143641000Y-67474000D01*
X143681000Y-41550000D02*
X143681000Y-67450000D01*
X143721000Y-41574000D02*
X143721000Y-67426000D01*
X143761000Y-41598000D02*
X143761000Y-67402000D01*
X143801000Y-41622000D02*
X143801000Y-67378000D01*
X143841000Y-41646000D02*
X143841000Y-67354000D01*
X143881000Y-41670000D02*
X143881000Y-67330000D01*
X143921000Y-41695000D02*
X143921000Y-67305000D01*
X143961000Y-41720000D02*
X143961000Y-67280000D01*
X144001000Y-41745000D02*
X144001000Y-67255000D01*
X144041000Y-41770000D02*
X144041000Y-67230000D01*
X144081000Y-41795000D02*
X144081000Y-67205000D01*
X144121000Y-41820000D02*
X144121000Y-67180000D01*
X144161000Y-41846000D02*
X144161000Y-67154000D01*
X144200000Y-41872000D02*
X144200000Y-67128000D01*
X144240000Y-41898000D02*
X144240000Y-67102000D01*
X144280000Y-41924000D02*
X144280000Y-67076000D01*
X144320000Y-41950000D02*
X144320000Y-67050000D01*
X144360000Y-41977000D02*
X144360000Y-67023000D01*
X144400000Y-42004000D02*
X144400000Y-66996000D01*
X144440000Y-42031000D02*
X144440000Y-66969000D01*
X144480000Y-42058000D02*
X144480000Y-66942000D01*
X144520000Y-42085000D02*
X144520000Y-66915000D01*
X144560000Y-42112000D02*
X144560000Y-66888000D01*
X144600000Y-42140000D02*
X144600000Y-66860000D01*
X144640000Y-42168000D02*
X144640000Y-66832000D01*
X144680000Y-42196000D02*
X144680000Y-66804000D01*
X144720000Y-42224000D02*
X144720000Y-66776000D01*
X144760000Y-42252000D02*
X144760000Y-66748000D01*
X144800000Y-42281000D02*
X144800000Y-66719000D01*
X144840000Y-42310000D02*
X144840000Y-66690000D01*
X144880000Y-42339000D02*
X144880000Y-66661000D01*
X144920000Y-42368000D02*
X144920000Y-66632000D01*
X144960000Y-42398000D02*
X144960000Y-66602000D01*
X145000000Y-42427000D02*
X145000000Y-66573000D01*
X145040000Y-42457000D02*
X145040000Y-66543000D01*
X145080000Y-42487000D02*
X145080000Y-66513000D01*
X145120000Y-42517000D02*
X145120000Y-66483000D01*
X145160000Y-42548000D02*
X145160000Y-66452000D01*
X145200000Y-42578000D02*
X145200000Y-66422000D01*
X145240000Y-42609000D02*
X145240000Y-66391000D01*
X145280000Y-42640000D02*
X145280000Y-66360000D01*
X145320000Y-42672000D02*
X145320000Y-66328000D01*
X145360000Y-42703000D02*
X145360000Y-66297000D01*
X145400000Y-42735000D02*
X145400000Y-66265000D01*
X145440000Y-42767000D02*
X145440000Y-66233000D01*
X145480000Y-42799000D02*
X145480000Y-66201000D01*
X145520000Y-42831000D02*
X145520000Y-66169000D01*
X145560000Y-42864000D02*
X145560000Y-66136000D01*
X145600000Y-42897000D02*
X145600000Y-66103000D01*
X145640000Y-42930000D02*
X145640000Y-66070000D01*
X145680000Y-42963000D02*
X145680000Y-66037000D01*
X145720000Y-42997000D02*
X145720000Y-66003000D01*
X145760000Y-43031000D02*
X145760000Y-65969000D01*
X145800000Y-43065000D02*
X145800000Y-65935000D01*
X145840000Y-43099000D02*
X145840000Y-65901000D01*
X145880000Y-43134000D02*
X145880000Y-65866000D01*
X145920000Y-43168000D02*
X145920000Y-65832000D01*
X145960000Y-43203000D02*
X145960000Y-65797000D01*
X146000000Y-43239000D02*
X146000000Y-65761000D01*
X146040000Y-43274000D02*
X146040000Y-65726000D01*
X146080000Y-43310000D02*
X146080000Y-65690000D01*
X146120000Y-43346000D02*
X146120000Y-65654000D01*
X146160000Y-43382000D02*
X146160000Y-65618000D01*
X146200000Y-43419000D02*
X146200000Y-65581000D01*
X146240000Y-43456000D02*
X146240000Y-65544000D01*
X146280000Y-43493000D02*
X146280000Y-65507000D01*
X146320000Y-43530000D02*
X146320000Y-65470000D01*
X146360000Y-43568000D02*
X146360000Y-65432000D01*
X146400000Y-43606000D02*
X146400000Y-65394000D01*
X146440000Y-43644000D02*
X146440000Y-65356000D01*
X146480000Y-43682000D02*
X146480000Y-65318000D01*
X146520000Y-43721000D02*
X146520000Y-65279000D01*
X146560000Y-43760000D02*
X146560000Y-65240000D01*
X146600000Y-43799000D02*
X146600000Y-65201000D01*
X146640000Y-43839000D02*
X146640000Y-65161000D01*
X146680000Y-43879000D02*
X146680000Y-65121000D01*
X146720000Y-43919000D02*
X146720000Y-65081000D01*
X146760000Y-43960000D02*
X146760000Y-65040000D01*
X146800000Y-44001000D02*
X146800000Y-64999000D01*
X146840000Y-44042000D02*
X146840000Y-64958000D01*
X146880000Y-44083000D02*
X146880000Y-64917000D01*
X146920000Y-44125000D02*
X146920000Y-64875000D01*
X146960000Y-44167000D02*
X146960000Y-64833000D01*
X147000000Y-44210000D02*
X147000000Y-64790000D01*
X147040000Y-44252000D02*
X147040000Y-64748000D01*
X147080000Y-44295000D02*
X147080000Y-64705000D01*
X147120000Y-44339000D02*
X147120000Y-64661000D01*
X147160000Y-44383000D02*
X147160000Y-64617000D01*
X147200000Y-44427000D02*
X147200000Y-64573000D01*
X147240000Y-44471000D02*
X147240000Y-64529000D01*
X147280000Y-44516000D02*
X147280000Y-64484000D01*
X147320000Y-44561000D02*
X147320000Y-64439000D01*
X147360000Y-44607000D02*
X147360000Y-64393000D01*
X147400000Y-44653000D02*
X147400000Y-64347000D01*
X147440000Y-44699000D02*
X147440000Y-64301000D01*
X147480000Y-44746000D02*
X147480000Y-64254000D01*
X147520000Y-44793000D02*
X147520000Y-64207000D01*
X147560000Y-44840000D02*
X147560000Y-64160000D01*
X147600000Y-44888000D02*
X147600000Y-64112000D01*
X147640000Y-44936000D02*
X147640000Y-64064000D01*
X147680000Y-44985000D02*
X147680000Y-64015000D01*
X147720000Y-45034000D02*
X147720000Y-63966000D01*
X147760000Y-45084000D02*
X147760000Y-63916000D01*
X147800000Y-45134000D02*
X147800000Y-63866000D01*
X147840000Y-45184000D02*
X147840000Y-63816000D01*
X147880000Y-45235000D02*
X147880000Y-63765000D01*
X147920000Y-45286000D02*
X147920000Y-63714000D01*
X147960000Y-45338000D02*
X147960000Y-63662000D01*
X148000000Y-45390000D02*
X148000000Y-63610000D01*
X148040000Y-45443000D02*
X148040000Y-63557000D01*
X148080000Y-45496000D02*
X148080000Y-63504000D01*
X148120000Y-45550000D02*
X148120000Y-63450000D01*
X148160000Y-45604000D02*
X148160000Y-63396000D01*
X148200000Y-45659000D02*
X148200000Y-63341000D01*
X148240000Y-45714000D02*
X148240000Y-63286000D01*
X148280000Y-45770000D02*
X148280000Y-63230000D01*
X148320000Y-45826000D02*
X148320000Y-63174000D01*
X148360000Y-45883000D02*
X148360000Y-63117000D01*
X148400000Y-45940000D02*
X148400000Y-63060000D01*
X148440000Y-45998000D02*
X148440000Y-63002000D01*
X148480000Y-46057000D02*
X148480000Y-62943000D01*
X148520000Y-46116000D02*
X148520000Y-62884000D01*
X148560000Y-46176000D02*
X148560000Y-62824000D01*
X148600000Y-46236000D02*
X148600000Y-62764000D01*
X148640000Y-46297000D02*
X148640000Y-62703000D01*
X148680000Y-46359000D02*
X148680000Y-62641000D01*
X148720000Y-46421000D02*
X148720000Y-62579000D01*
X148760000Y-46484000D02*
X148760000Y-62516000D01*
X148800000Y-46548000D02*
X148800000Y-62452000D01*
X148840000Y-46612000D02*
X148840000Y-62388000D01*
X148880000Y-46677000D02*
X148880000Y-62323000D01*
X148920000Y-46743000D02*
X148920000Y-62257000D01*
X148960000Y-46810000D02*
X148960000Y-62190000D01*
X149000000Y-46877000D02*
X149000000Y-62123000D01*
X149040000Y-46946000D02*
X149040000Y-62054000D01*
X149080000Y-47015000D02*
X149080000Y-61985000D01*
X149120000Y-47085000D02*
X149120000Y-61915000D01*
X149160000Y-47156000D02*
X149160000Y-61844000D01*
X149200000Y-47227000D02*
X149200000Y-61773000D01*
X149240000Y-47300000D02*
X149240000Y-61700000D01*
X149280000Y-47374000D02*
X149280000Y-61626000D01*
X149320000Y-47448000D02*
X149320000Y-61552000D01*
X149360000Y-47524000D02*
X149360000Y-61476000D01*
X149400000Y-47601000D02*
X149400000Y-61399000D01*
X149440000Y-47678000D02*
X149440000Y-61322000D01*
X149480000Y-47757000D02*
X149480000Y-61243000D01*
X149520000Y-47837000D02*
X149520000Y-61163000D01*
X149560000Y-47919000D02*
X149560000Y-61081000D01*
X149600000Y-48001000D02*
X149600000Y-60999000D01*
X149640000Y-48085000D02*
X149640000Y-60915000D01*
X149680000Y-48170000D02*
X149680000Y-60830000D01*
X149720000Y-48257000D02*
X149720000Y-60743000D01*
X149760000Y-48345000D02*
X149760000Y-60655000D01*
X149800000Y-48435000D02*
X149800000Y-60565000D01*
X149840000Y-48526000D02*
X149840000Y-60474000D01*
X149880000Y-48619000D02*
X149880000Y-60381000D01*
X149920000Y-48714000D02*
X149920000Y-60286000D01*
X149960000Y-48810000D02*
X149960000Y-60190000D01*
X150000000Y-48909000D02*
X150000000Y-60091000D01*
X150040000Y-49009000D02*
X150040000Y-59991000D01*
X150080000Y-49112000D02*
X150080000Y-59888000D01*
X150120000Y-49217000D02*
X150120000Y-59783000D01*
X150160000Y-49324000D02*
X150160000Y-59676000D01*
X150200000Y-49434000D02*
X150200000Y-59566000D01*
X150240000Y-49546000D02*
X150240000Y-59454000D01*
X150280000Y-49662000D02*
X150280000Y-59338000D01*
X150320000Y-49781000D02*
X150320000Y-59219000D01*
X150360000Y-49903000D02*
X150360000Y-59097000D01*
X150400000Y-50029000D02*
X150400000Y-58971000D01*
X150440000Y-50158000D02*
X150440000Y-58842000D01*
X150480000Y-50292000D02*
X150480000Y-58708000D01*
X150520000Y-50431000D02*
X150520000Y-58569000D01*
X150560000Y-50575000D02*
X150560000Y-58425000D01*
X150600000Y-50725000D02*
X150600000Y-58275000D01*
X150640000Y-50882000D02*
X150640000Y-58118000D01*
X150680000Y-51046000D02*
X150680000Y-57954000D01*
X150720000Y-51218000D02*
X150720000Y-57782000D01*
X150760000Y-51401000D02*
X150760000Y-57599000D01*
X150800000Y-51595000D02*
X150800000Y-57405000D01*
X150840000Y-51804000D02*
X150840000Y-57196000D01*
X150880000Y-52031000D02*
X150880000Y-56969000D01*
X150920000Y-52281000D02*
X150920000Y-56719000D01*
X150960000Y-52563000D02*
X150960000Y-56437000D01*
X151000000Y-52894000D02*
X151000000Y-56106000D01*
X151040000Y-53312000D02*
X151040000Y-55688000D01*
X151080000Y-53990000D02*
X151080000Y-55010000D01*
X125800000Y-54500000D02*
X128800000Y-54500000D01*
X127300000Y-53000000D02*
X127300000Y-56000000D01*
X151090000Y-85500000D02*
G75*
G03X151090000Y-85500000I-15090000J0D01*
G01*
X136000000Y-70450000D02*
X136000000Y-100550000D01*
X136040000Y-70450000D02*
X136040000Y-100550000D01*
X136080000Y-70450000D02*
X136080000Y-100550000D01*
X136120000Y-70450000D02*
X136120000Y-100550000D01*
X136160000Y-70450000D02*
X136160000Y-100550000D01*
X136200000Y-70451000D02*
X136200000Y-100549000D01*
X136240000Y-70451000D02*
X136240000Y-100549000D01*
X136280000Y-70452000D02*
X136280000Y-100548000D01*
X136320000Y-70453000D02*
X136320000Y-100547000D01*
X136360000Y-70454000D02*
X136360000Y-100546000D01*
X136400000Y-70455000D02*
X136400000Y-100545000D01*
X136440000Y-70456000D02*
X136440000Y-100544000D01*
X136480000Y-70457000D02*
X136480000Y-100543000D01*
X136520000Y-70458000D02*
X136520000Y-100542000D01*
X136560000Y-70460000D02*
X136560000Y-100540000D01*
X136600000Y-70461000D02*
X136600000Y-100539000D01*
X136640000Y-70463000D02*
X136640000Y-100537000D01*
X136680000Y-70465000D02*
X136680000Y-100535000D01*
X136721000Y-70467000D02*
X136721000Y-100533000D01*
X136761000Y-70469000D02*
X136761000Y-100531000D01*
X136801000Y-70471000D02*
X136801000Y-100529000D01*
X136841000Y-70473000D02*
X136841000Y-100527000D01*
X136881000Y-70475000D02*
X136881000Y-100525000D01*
X136921000Y-70478000D02*
X136921000Y-100522000D01*
X136961000Y-70480000D02*
X136961000Y-100520000D01*
X137001000Y-70483000D02*
X137001000Y-100517000D01*
X137041000Y-70485000D02*
X137041000Y-100515000D01*
X137081000Y-70488000D02*
X137081000Y-100512000D01*
X137121000Y-70491000D02*
X137121000Y-100509000D01*
X137161000Y-70494000D02*
X137161000Y-100506000D01*
X137201000Y-70497000D02*
X137201000Y-100503000D01*
X137241000Y-70501000D02*
X137241000Y-100499000D01*
X137281000Y-70504000D02*
X137281000Y-100496000D01*
X137321000Y-70507000D02*
X137321000Y-100493000D01*
X137361000Y-70511000D02*
X137361000Y-100489000D01*
X137401000Y-70515000D02*
X137401000Y-100485000D01*
X137441000Y-70518000D02*
X137441000Y-100482000D01*
X137481000Y-70522000D02*
X137481000Y-100478000D01*
X137521000Y-70526000D02*
X137521000Y-100474000D01*
X137561000Y-70530000D02*
X137561000Y-100470000D01*
X137601000Y-70535000D02*
X137601000Y-100465000D01*
X137641000Y-70539000D02*
X137641000Y-100461000D01*
X137681000Y-70543000D02*
X137681000Y-100457000D01*
X137721000Y-70548000D02*
X137721000Y-100452000D01*
X137761000Y-70552000D02*
X137761000Y-100448000D01*
X137801000Y-70557000D02*
X137801000Y-100443000D01*
X137841000Y-70562000D02*
X137841000Y-100438000D01*
X137881000Y-70567000D02*
X137881000Y-100433000D01*
X137921000Y-70572000D02*
X137921000Y-100428000D01*
X137961000Y-70577000D02*
X137961000Y-100423000D01*
X138001000Y-70583000D02*
X138001000Y-100417000D01*
X138041000Y-70588000D02*
X138041000Y-100412000D01*
X138081000Y-70594000D02*
X138081000Y-100406000D01*
X138121000Y-70599000D02*
X138121000Y-100401000D01*
X138161000Y-70605000D02*
X138161000Y-100395000D01*
X138201000Y-70611000D02*
X138201000Y-100389000D01*
X138241000Y-70617000D02*
X138241000Y-100383000D01*
X138281000Y-70623000D02*
X138281000Y-100377000D01*
X138321000Y-70629000D02*
X138321000Y-100371000D01*
X138361000Y-70635000D02*
X138361000Y-100365000D01*
X138401000Y-70642000D02*
X138401000Y-100358000D01*
X138441000Y-70648000D02*
X138441000Y-100352000D01*
X138481000Y-70655000D02*
X138481000Y-100345000D01*
X138521000Y-70661000D02*
X138521000Y-100339000D01*
X138561000Y-70668000D02*
X138561000Y-100332000D01*
X138601000Y-70675000D02*
X138601000Y-100325000D01*
X138641000Y-70682000D02*
X138641000Y-100318000D01*
X138681000Y-70689000D02*
X138681000Y-100311000D01*
X138721000Y-70697000D02*
X138721000Y-100303000D01*
X138761000Y-70704000D02*
X138761000Y-100296000D01*
X138801000Y-70712000D02*
X138801000Y-100288000D01*
X138841000Y-70719000D02*
X138841000Y-83320000D01*
X138841000Y-87680000D02*
X138841000Y-100281000D01*
X138881000Y-70727000D02*
X138881000Y-83320000D01*
X138881000Y-87680000D02*
X138881000Y-100273000D01*
X138921000Y-70735000D02*
X138921000Y-83320000D01*
X138921000Y-87680000D02*
X138921000Y-100265000D01*
X138961000Y-70743000D02*
X138961000Y-83320000D01*
X138961000Y-87680000D02*
X138961000Y-100257000D01*
X139001000Y-70751000D02*
X139001000Y-83320000D01*
X139001000Y-87680000D02*
X139001000Y-100249000D01*
X139041000Y-70759000D02*
X139041000Y-83320000D01*
X139041000Y-87680000D02*
X139041000Y-100241000D01*
X139081000Y-70767000D02*
X139081000Y-83320000D01*
X139081000Y-87680000D02*
X139081000Y-100233000D01*
X139121000Y-70776000D02*
X139121000Y-83320000D01*
X139121000Y-87680000D02*
X139121000Y-100224000D01*
X139161000Y-70784000D02*
X139161000Y-83320000D01*
X139161000Y-87680000D02*
X139161000Y-100216000D01*
X139201000Y-70793000D02*
X139201000Y-83320000D01*
X139201000Y-87680000D02*
X139201000Y-100207000D01*
X139241000Y-70801000D02*
X139241000Y-83320000D01*
X139241000Y-87680000D02*
X139241000Y-100199000D01*
X139281000Y-70810000D02*
X139281000Y-83320000D01*
X139281000Y-87680000D02*
X139281000Y-100190000D01*
X139321000Y-70819000D02*
X139321000Y-83320000D01*
X139321000Y-87680000D02*
X139321000Y-100181000D01*
X139361000Y-70828000D02*
X139361000Y-83320000D01*
X139361000Y-87680000D02*
X139361000Y-100172000D01*
X139401000Y-70838000D02*
X139401000Y-83320000D01*
X139401000Y-87680000D02*
X139401000Y-100162000D01*
X139441000Y-70847000D02*
X139441000Y-83320000D01*
X139441000Y-87680000D02*
X139441000Y-100153000D01*
X139481000Y-70856000D02*
X139481000Y-83320000D01*
X139481000Y-87680000D02*
X139481000Y-100144000D01*
X139521000Y-70866000D02*
X139521000Y-83320000D01*
X139521000Y-87680000D02*
X139521000Y-100134000D01*
X139561000Y-70875000D02*
X139561000Y-83320000D01*
X139561000Y-87680000D02*
X139561000Y-100125000D01*
X139601000Y-70885000D02*
X139601000Y-83320000D01*
X139601000Y-87680000D02*
X139601000Y-100115000D01*
X139641000Y-70895000D02*
X139641000Y-83320000D01*
X139641000Y-87680000D02*
X139641000Y-100105000D01*
X139681000Y-70905000D02*
X139681000Y-83320000D01*
X139681000Y-87680000D02*
X139681000Y-100095000D01*
X139721000Y-70915000D02*
X139721000Y-83320000D01*
X139721000Y-87680000D02*
X139721000Y-100085000D01*
X139761000Y-70925000D02*
X139761000Y-83320000D01*
X139761000Y-87680000D02*
X139761000Y-100075000D01*
X139801000Y-70936000D02*
X139801000Y-83320000D01*
X139801000Y-87680000D02*
X139801000Y-100064000D01*
X139841000Y-70946000D02*
X139841000Y-83320000D01*
X139841000Y-87680000D02*
X139841000Y-100054000D01*
X139881000Y-70957000D02*
X139881000Y-83320000D01*
X139881000Y-87680000D02*
X139881000Y-100043000D01*
X139921000Y-70968000D02*
X139921000Y-83320000D01*
X139921000Y-87680000D02*
X139921000Y-100032000D01*
X139961000Y-70978000D02*
X139961000Y-83320000D01*
X139961000Y-87680000D02*
X139961000Y-100022000D01*
X140001000Y-70989000D02*
X140001000Y-83320000D01*
X140001000Y-87680000D02*
X140001000Y-100011000D01*
X140041000Y-71000000D02*
X140041000Y-83320000D01*
X140041000Y-87680000D02*
X140041000Y-100000000D01*
X140081000Y-71012000D02*
X140081000Y-83320000D01*
X140081000Y-87680000D02*
X140081000Y-99988000D01*
X140121000Y-71023000D02*
X140121000Y-83320000D01*
X140121000Y-87680000D02*
X140121000Y-99977000D01*
X140161000Y-71034000D02*
X140161000Y-83320000D01*
X140161000Y-87680000D02*
X140161000Y-99966000D01*
X140201000Y-71046000D02*
X140201000Y-83320000D01*
X140201000Y-87680000D02*
X140201000Y-99954000D01*
X140241000Y-71057000D02*
X140241000Y-83320000D01*
X140241000Y-87680000D02*
X140241000Y-99943000D01*
X140281000Y-71069000D02*
X140281000Y-83320000D01*
X140281000Y-87680000D02*
X140281000Y-99931000D01*
X140321000Y-71081000D02*
X140321000Y-83320000D01*
X140321000Y-87680000D02*
X140321000Y-99919000D01*
X140361000Y-71093000D02*
X140361000Y-83320000D01*
X140361000Y-87680000D02*
X140361000Y-99907000D01*
X140401000Y-71105000D02*
X140401000Y-83320000D01*
X140401000Y-87680000D02*
X140401000Y-99895000D01*
X140441000Y-71117000D02*
X140441000Y-83320000D01*
X140441000Y-87680000D02*
X140441000Y-99883000D01*
X140481000Y-71130000D02*
X140481000Y-83320000D01*
X140481000Y-87680000D02*
X140481000Y-99870000D01*
X140521000Y-71142000D02*
X140521000Y-83320000D01*
X140521000Y-87680000D02*
X140521000Y-99858000D01*
X140561000Y-71155000D02*
X140561000Y-83320000D01*
X140561000Y-87680000D02*
X140561000Y-99845000D01*
X140601000Y-71168000D02*
X140601000Y-83320000D01*
X140601000Y-87680000D02*
X140601000Y-99832000D01*
X140641000Y-71181000D02*
X140641000Y-83320000D01*
X140641000Y-87680000D02*
X140641000Y-99819000D01*
X140681000Y-71194000D02*
X140681000Y-83320000D01*
X140681000Y-87680000D02*
X140681000Y-99806000D01*
X140721000Y-71207000D02*
X140721000Y-83320000D01*
X140721000Y-87680000D02*
X140721000Y-99793000D01*
X140761000Y-71220000D02*
X140761000Y-83320000D01*
X140761000Y-87680000D02*
X140761000Y-99780000D01*
X140801000Y-71233000D02*
X140801000Y-83320000D01*
X140801000Y-87680000D02*
X140801000Y-99767000D01*
X140841000Y-71247000D02*
X140841000Y-83320000D01*
X140841000Y-87680000D02*
X140841000Y-99753000D01*
X140881000Y-71260000D02*
X140881000Y-83320000D01*
X140881000Y-87680000D02*
X140881000Y-99740000D01*
X140921000Y-71274000D02*
X140921000Y-83320000D01*
X140921000Y-87680000D02*
X140921000Y-99726000D01*
X140961000Y-71288000D02*
X140961000Y-83320000D01*
X140961000Y-87680000D02*
X140961000Y-99712000D01*
X141001000Y-71302000D02*
X141001000Y-83320000D01*
X141001000Y-87680000D02*
X141001000Y-99698000D01*
X141041000Y-71316000D02*
X141041000Y-83320000D01*
X141041000Y-87680000D02*
X141041000Y-99684000D01*
X141081000Y-71330000D02*
X141081000Y-83320000D01*
X141081000Y-87680000D02*
X141081000Y-99670000D01*
X141121000Y-71345000D02*
X141121000Y-83320000D01*
X141121000Y-87680000D02*
X141121000Y-99655000D01*
X141161000Y-71359000D02*
X141161000Y-83320000D01*
X141161000Y-87680000D02*
X141161000Y-99641000D01*
X141201000Y-71374000D02*
X141201000Y-83320000D01*
X141201000Y-87680000D02*
X141201000Y-99626000D01*
X141241000Y-71389000D02*
X141241000Y-83320000D01*
X141241000Y-87680000D02*
X141241000Y-99611000D01*
X141281000Y-71403000D02*
X141281000Y-83320000D01*
X141281000Y-87680000D02*
X141281000Y-99597000D01*
X141321000Y-71418000D02*
X141321000Y-83320000D01*
X141321000Y-87680000D02*
X141321000Y-99582000D01*
X141361000Y-71434000D02*
X141361000Y-83320000D01*
X141361000Y-87680000D02*
X141361000Y-99566000D01*
X141401000Y-71449000D02*
X141401000Y-83320000D01*
X141401000Y-87680000D02*
X141401000Y-99551000D01*
X141441000Y-71464000D02*
X141441000Y-83320000D01*
X141441000Y-87680000D02*
X141441000Y-99536000D01*
X141481000Y-71480000D02*
X141481000Y-83320000D01*
X141481000Y-87680000D02*
X141481000Y-99520000D01*
X141521000Y-71495000D02*
X141521000Y-83320000D01*
X141521000Y-87680000D02*
X141521000Y-99505000D01*
X141561000Y-71511000D02*
X141561000Y-83320000D01*
X141561000Y-87680000D02*
X141561000Y-99489000D01*
X141601000Y-71527000D02*
X141601000Y-83320000D01*
X141601000Y-87680000D02*
X141601000Y-99473000D01*
X141641000Y-71543000D02*
X141641000Y-83320000D01*
X141641000Y-87680000D02*
X141641000Y-99457000D01*
X141681000Y-71559000D02*
X141681000Y-83320000D01*
X141681000Y-87680000D02*
X141681000Y-99441000D01*
X141721000Y-71576000D02*
X141721000Y-83320000D01*
X141721000Y-87680000D02*
X141721000Y-99424000D01*
X141761000Y-71592000D02*
X141761000Y-83320000D01*
X141761000Y-87680000D02*
X141761000Y-99408000D01*
X141801000Y-71609000D02*
X141801000Y-83320000D01*
X141801000Y-87680000D02*
X141801000Y-99391000D01*
X141841000Y-71625000D02*
X141841000Y-83320000D01*
X141841000Y-87680000D02*
X141841000Y-99375000D01*
X141881000Y-71642000D02*
X141881000Y-83320000D01*
X141881000Y-87680000D02*
X141881000Y-99358000D01*
X141921000Y-71659000D02*
X141921000Y-83320000D01*
X141921000Y-87680000D02*
X141921000Y-99341000D01*
X141961000Y-71676000D02*
X141961000Y-83320000D01*
X141961000Y-87680000D02*
X141961000Y-99324000D01*
X142001000Y-71694000D02*
X142001000Y-83320000D01*
X142001000Y-87680000D02*
X142001000Y-99306000D01*
X142041000Y-71711000D02*
X142041000Y-83320000D01*
X142041000Y-87680000D02*
X142041000Y-99289000D01*
X142081000Y-71729000D02*
X142081000Y-83320000D01*
X142081000Y-87680000D02*
X142081000Y-99271000D01*
X142121000Y-71746000D02*
X142121000Y-83320000D01*
X142121000Y-87680000D02*
X142121000Y-99254000D01*
X142161000Y-71764000D02*
X142161000Y-83320000D01*
X142161000Y-87680000D02*
X142161000Y-99236000D01*
X142201000Y-71782000D02*
X142201000Y-83320000D01*
X142201000Y-87680000D02*
X142201000Y-99218000D01*
X142241000Y-71800000D02*
X142241000Y-83320000D01*
X142241000Y-87680000D02*
X142241000Y-99200000D01*
X142281000Y-71818000D02*
X142281000Y-83320000D01*
X142281000Y-87680000D02*
X142281000Y-99182000D01*
X142321000Y-71837000D02*
X142321000Y-83320000D01*
X142321000Y-87680000D02*
X142321000Y-99163000D01*
X142361000Y-71855000D02*
X142361000Y-83320000D01*
X142361000Y-87680000D02*
X142361000Y-99145000D01*
X142401000Y-71874000D02*
X142401000Y-83320000D01*
X142401000Y-87680000D02*
X142401000Y-99126000D01*
X142441000Y-71893000D02*
X142441000Y-83320000D01*
X142441000Y-87680000D02*
X142441000Y-99107000D01*
X142481000Y-71912000D02*
X142481000Y-83320000D01*
X142481000Y-87680000D02*
X142481000Y-99088000D01*
X142521000Y-71931000D02*
X142521000Y-83320000D01*
X142521000Y-87680000D02*
X142521000Y-99069000D01*
X142561000Y-71950000D02*
X142561000Y-83320000D01*
X142561000Y-87680000D02*
X142561000Y-99050000D01*
X142601000Y-71969000D02*
X142601000Y-83320000D01*
X142601000Y-87680000D02*
X142601000Y-99031000D01*
X142641000Y-71989000D02*
X142641000Y-83320000D01*
X142641000Y-87680000D02*
X142641000Y-99011000D01*
X142681000Y-72009000D02*
X142681000Y-83320000D01*
X142681000Y-87680000D02*
X142681000Y-98991000D01*
X142721000Y-72028000D02*
X142721000Y-83320000D01*
X142721000Y-87680000D02*
X142721000Y-98972000D01*
X142761000Y-72048000D02*
X142761000Y-83320000D01*
X142761000Y-87680000D02*
X142761000Y-98952000D01*
X142801000Y-72068000D02*
X142801000Y-83320000D01*
X142801000Y-87680000D02*
X142801000Y-98932000D01*
X142841000Y-72089000D02*
X142841000Y-83320000D01*
X142841000Y-87680000D02*
X142841000Y-98911000D01*
X142881000Y-72109000D02*
X142881000Y-83320000D01*
X142881000Y-87680000D02*
X142881000Y-98891000D01*
X142921000Y-72130000D02*
X142921000Y-83320000D01*
X142921000Y-87680000D02*
X142921000Y-98870000D01*
X142961000Y-72150000D02*
X142961000Y-83320000D01*
X142961000Y-87680000D02*
X142961000Y-98850000D01*
X143001000Y-72171000D02*
X143001000Y-83320000D01*
X143001000Y-87680000D02*
X143001000Y-98829000D01*
X143041000Y-72192000D02*
X143041000Y-83320000D01*
X143041000Y-87680000D02*
X143041000Y-98808000D01*
X143081000Y-72214000D02*
X143081000Y-83320000D01*
X143081000Y-87680000D02*
X143081000Y-98786000D01*
X143121000Y-72235000D02*
X143121000Y-83320000D01*
X143121000Y-87680000D02*
X143121000Y-98765000D01*
X143161000Y-72256000D02*
X143161000Y-83320000D01*
X143161000Y-87680000D02*
X143161000Y-98744000D01*
X143201000Y-72278000D02*
X143201000Y-98722000D01*
X143241000Y-72300000D02*
X143241000Y-98700000D01*
X143281000Y-72322000D02*
X143281000Y-98678000D01*
X143321000Y-72344000D02*
X143321000Y-98656000D01*
X143361000Y-72366000D02*
X143361000Y-98634000D01*
X143401000Y-72389000D02*
X143401000Y-98611000D01*
X143441000Y-72411000D02*
X143441000Y-98589000D01*
X143481000Y-72434000D02*
X143481000Y-98566000D01*
X143521000Y-72457000D02*
X143521000Y-98543000D01*
X143561000Y-72480000D02*
X143561000Y-98520000D01*
X143601000Y-72503000D02*
X143601000Y-98497000D01*
X143641000Y-72526000D02*
X143641000Y-98474000D01*
X143681000Y-72550000D02*
X143681000Y-98450000D01*
X143721000Y-72574000D02*
X143721000Y-98426000D01*
X143761000Y-72598000D02*
X143761000Y-98402000D01*
X143801000Y-72622000D02*
X143801000Y-98378000D01*
X143841000Y-72646000D02*
X143841000Y-98354000D01*
X143881000Y-72670000D02*
X143881000Y-98330000D01*
X143921000Y-72695000D02*
X143921000Y-98305000D01*
X143961000Y-72720000D02*
X143961000Y-98280000D01*
X144001000Y-72745000D02*
X144001000Y-98255000D01*
X144041000Y-72770000D02*
X144041000Y-98230000D01*
X144081000Y-72795000D02*
X144081000Y-98205000D01*
X144121000Y-72820000D02*
X144121000Y-98180000D01*
X144161000Y-72846000D02*
X144161000Y-98154000D01*
X144200000Y-72872000D02*
X144200000Y-98128000D01*
X144240000Y-72898000D02*
X144240000Y-98102000D01*
X144280000Y-72924000D02*
X144280000Y-98076000D01*
X144320000Y-72950000D02*
X144320000Y-98050000D01*
X144360000Y-72977000D02*
X144360000Y-98023000D01*
X144400000Y-73004000D02*
X144400000Y-97996000D01*
X144440000Y-73031000D02*
X144440000Y-97969000D01*
X144480000Y-73058000D02*
X144480000Y-97942000D01*
X144520000Y-73085000D02*
X144520000Y-97915000D01*
X144560000Y-73112000D02*
X144560000Y-97888000D01*
X144600000Y-73140000D02*
X144600000Y-97860000D01*
X144640000Y-73168000D02*
X144640000Y-97832000D01*
X144680000Y-73196000D02*
X144680000Y-97804000D01*
X144720000Y-73224000D02*
X144720000Y-97776000D01*
X144760000Y-73252000D02*
X144760000Y-97748000D01*
X144800000Y-73281000D02*
X144800000Y-97719000D01*
X144840000Y-73310000D02*
X144840000Y-97690000D01*
X144880000Y-73339000D02*
X144880000Y-97661000D01*
X144920000Y-73368000D02*
X144920000Y-97632000D01*
X144960000Y-73398000D02*
X144960000Y-97602000D01*
X145000000Y-73427000D02*
X145000000Y-97573000D01*
X145040000Y-73457000D02*
X145040000Y-97543000D01*
X145080000Y-73487000D02*
X145080000Y-97513000D01*
X145120000Y-73517000D02*
X145120000Y-97483000D01*
X145160000Y-73548000D02*
X145160000Y-97452000D01*
X145200000Y-73578000D02*
X145200000Y-97422000D01*
X145240000Y-73609000D02*
X145240000Y-97391000D01*
X145280000Y-73640000D02*
X145280000Y-97360000D01*
X145320000Y-73672000D02*
X145320000Y-97328000D01*
X145360000Y-73703000D02*
X145360000Y-97297000D01*
X145400000Y-73735000D02*
X145400000Y-97265000D01*
X145440000Y-73767000D02*
X145440000Y-97233000D01*
X145480000Y-73799000D02*
X145480000Y-97201000D01*
X145520000Y-73831000D02*
X145520000Y-97169000D01*
X145560000Y-73864000D02*
X145560000Y-97136000D01*
X145600000Y-73897000D02*
X145600000Y-97103000D01*
X145640000Y-73930000D02*
X145640000Y-97070000D01*
X145680000Y-73963000D02*
X145680000Y-97037000D01*
X145720000Y-73997000D02*
X145720000Y-97003000D01*
X145760000Y-74031000D02*
X145760000Y-96969000D01*
X145800000Y-74065000D02*
X145800000Y-96935000D01*
X145840000Y-74099000D02*
X145840000Y-96901000D01*
X145880000Y-74134000D02*
X145880000Y-96866000D01*
X145920000Y-74168000D02*
X145920000Y-96832000D01*
X145960000Y-74203000D02*
X145960000Y-96797000D01*
X146000000Y-74239000D02*
X146000000Y-96761000D01*
X146040000Y-74274000D02*
X146040000Y-96726000D01*
X146080000Y-74310000D02*
X146080000Y-96690000D01*
X146120000Y-74346000D02*
X146120000Y-96654000D01*
X146160000Y-74382000D02*
X146160000Y-96618000D01*
X146200000Y-74419000D02*
X146200000Y-96581000D01*
X146240000Y-74456000D02*
X146240000Y-96544000D01*
X146280000Y-74493000D02*
X146280000Y-96507000D01*
X146320000Y-74530000D02*
X146320000Y-96470000D01*
X146360000Y-74568000D02*
X146360000Y-96432000D01*
X146400000Y-74606000D02*
X146400000Y-96394000D01*
X146440000Y-74644000D02*
X146440000Y-96356000D01*
X146480000Y-74682000D02*
X146480000Y-96318000D01*
X146520000Y-74721000D02*
X146520000Y-96279000D01*
X146560000Y-74760000D02*
X146560000Y-96240000D01*
X146600000Y-74799000D02*
X146600000Y-96201000D01*
X146640000Y-74839000D02*
X146640000Y-96161000D01*
X146680000Y-74879000D02*
X146680000Y-96121000D01*
X146720000Y-74919000D02*
X146720000Y-96081000D01*
X146760000Y-74960000D02*
X146760000Y-96040000D01*
X146800000Y-75001000D02*
X146800000Y-95999000D01*
X146840000Y-75042000D02*
X146840000Y-95958000D01*
X146880000Y-75083000D02*
X146880000Y-95917000D01*
X146920000Y-75125000D02*
X146920000Y-95875000D01*
X146960000Y-75167000D02*
X146960000Y-95833000D01*
X147000000Y-75210000D02*
X147000000Y-95790000D01*
X147040000Y-75252000D02*
X147040000Y-95748000D01*
X147080000Y-75295000D02*
X147080000Y-95705000D01*
X147120000Y-75339000D02*
X147120000Y-95661000D01*
X147160000Y-75383000D02*
X147160000Y-95617000D01*
X147200000Y-75427000D02*
X147200000Y-95573000D01*
X147240000Y-75471000D02*
X147240000Y-95529000D01*
X147280000Y-75516000D02*
X147280000Y-95484000D01*
X147320000Y-75561000D02*
X147320000Y-95439000D01*
X147360000Y-75607000D02*
X147360000Y-95393000D01*
X147400000Y-75653000D02*
X147400000Y-95347000D01*
X147440000Y-75699000D02*
X147440000Y-95301000D01*
X147480000Y-75746000D02*
X147480000Y-95254000D01*
X147520000Y-75793000D02*
X147520000Y-95207000D01*
X147560000Y-75840000D02*
X147560000Y-95160000D01*
X147600000Y-75888000D02*
X147600000Y-95112000D01*
X147640000Y-75936000D02*
X147640000Y-95064000D01*
X147680000Y-75985000D02*
X147680000Y-95015000D01*
X147720000Y-76034000D02*
X147720000Y-94966000D01*
X147760000Y-76084000D02*
X147760000Y-94916000D01*
X147800000Y-76134000D02*
X147800000Y-94866000D01*
X147840000Y-76184000D02*
X147840000Y-94816000D01*
X147880000Y-76235000D02*
X147880000Y-94765000D01*
X147920000Y-76286000D02*
X147920000Y-94714000D01*
X147960000Y-76338000D02*
X147960000Y-94662000D01*
X148000000Y-76390000D02*
X148000000Y-94610000D01*
X148040000Y-76443000D02*
X148040000Y-94557000D01*
X148080000Y-76496000D02*
X148080000Y-94504000D01*
X148120000Y-76550000D02*
X148120000Y-94450000D01*
X148160000Y-76604000D02*
X148160000Y-94396000D01*
X148200000Y-76659000D02*
X148200000Y-94341000D01*
X148240000Y-76714000D02*
X148240000Y-94286000D01*
X148280000Y-76770000D02*
X148280000Y-94230000D01*
X148320000Y-76826000D02*
X148320000Y-94174000D01*
X148360000Y-76883000D02*
X148360000Y-94117000D01*
X148400000Y-76940000D02*
X148400000Y-94060000D01*
X148440000Y-76998000D02*
X148440000Y-94002000D01*
X148480000Y-77057000D02*
X148480000Y-93943000D01*
X148520000Y-77116000D02*
X148520000Y-93884000D01*
X148560000Y-77176000D02*
X148560000Y-93824000D01*
X148600000Y-77236000D02*
X148600000Y-93764000D01*
X148640000Y-77297000D02*
X148640000Y-93703000D01*
X148680000Y-77359000D02*
X148680000Y-93641000D01*
X148720000Y-77421000D02*
X148720000Y-93579000D01*
X148760000Y-77484000D02*
X148760000Y-93516000D01*
X148800000Y-77548000D02*
X148800000Y-93452000D01*
X148840000Y-77612000D02*
X148840000Y-93388000D01*
X148880000Y-77677000D02*
X148880000Y-93323000D01*
X148920000Y-77743000D02*
X148920000Y-93257000D01*
X148960000Y-77810000D02*
X148960000Y-93190000D01*
X149000000Y-77877000D02*
X149000000Y-93123000D01*
X149040000Y-77946000D02*
X149040000Y-93054000D01*
X149080000Y-78015000D02*
X149080000Y-92985000D01*
X149120000Y-78085000D02*
X149120000Y-92915000D01*
X149160000Y-78156000D02*
X149160000Y-92844000D01*
X149200000Y-78227000D02*
X149200000Y-92773000D01*
X149240000Y-78300000D02*
X149240000Y-92700000D01*
X149280000Y-78374000D02*
X149280000Y-92626000D01*
X149320000Y-78448000D02*
X149320000Y-92552000D01*
X149360000Y-78524000D02*
X149360000Y-92476000D01*
X149400000Y-78601000D02*
X149400000Y-92399000D01*
X149440000Y-78678000D02*
X149440000Y-92322000D01*
X149480000Y-78757000D02*
X149480000Y-92243000D01*
X149520000Y-78837000D02*
X149520000Y-92163000D01*
X149560000Y-78919000D02*
X149560000Y-92081000D01*
X149600000Y-79001000D02*
X149600000Y-91999000D01*
X149640000Y-79085000D02*
X149640000Y-91915000D01*
X149680000Y-79170000D02*
X149680000Y-91830000D01*
X149720000Y-79257000D02*
X149720000Y-91743000D01*
X149760000Y-79345000D02*
X149760000Y-91655000D01*
X149800000Y-79435000D02*
X149800000Y-91565000D01*
X149840000Y-79526000D02*
X149840000Y-91474000D01*
X149880000Y-79619000D02*
X149880000Y-91381000D01*
X149920000Y-79714000D02*
X149920000Y-91286000D01*
X149960000Y-79810000D02*
X149960000Y-91190000D01*
X150000000Y-79909000D02*
X150000000Y-91091000D01*
X150040000Y-80009000D02*
X150040000Y-90991000D01*
X150080000Y-80112000D02*
X150080000Y-90888000D01*
X150120000Y-80217000D02*
X150120000Y-90783000D01*
X150160000Y-80324000D02*
X150160000Y-90676000D01*
X150200000Y-80434000D02*
X150200000Y-90566000D01*
X150240000Y-80546000D02*
X150240000Y-90454000D01*
X150280000Y-80662000D02*
X150280000Y-90338000D01*
X150320000Y-80781000D02*
X150320000Y-90219000D01*
X150360000Y-80903000D02*
X150360000Y-90097000D01*
X150400000Y-81029000D02*
X150400000Y-89971000D01*
X150440000Y-81158000D02*
X150440000Y-89842000D01*
X150480000Y-81292000D02*
X150480000Y-89708000D01*
X150520000Y-81431000D02*
X150520000Y-89569000D01*
X150560000Y-81575000D02*
X150560000Y-89425000D01*
X150600000Y-81725000D02*
X150600000Y-89275000D01*
X150640000Y-81882000D02*
X150640000Y-89118000D01*
X150680000Y-82046000D02*
X150680000Y-88954000D01*
X150720000Y-82218000D02*
X150720000Y-88782000D01*
X150760000Y-82401000D02*
X150760000Y-88599000D01*
X150800000Y-82595000D02*
X150800000Y-88405000D01*
X150840000Y-82804000D02*
X150840000Y-88196000D01*
X150880000Y-83031000D02*
X150880000Y-87969000D01*
X150920000Y-83281000D02*
X150920000Y-87719000D01*
X150960000Y-83563000D02*
X150960000Y-87437000D01*
X151000000Y-83894000D02*
X151000000Y-87106000D01*
X151040000Y-84312000D02*
X151040000Y-86688000D01*
X151080000Y-84990000D02*
X151080000Y-86010000D01*
X125800000Y-85500000D02*
X128800000Y-85500000D01*
X127300000Y-84000000D02*
X127300000Y-87000000D01*
X151090000Y-116500000D02*
G75*
G03X151090000Y-116500000I-15090000J0D01*
G01*
X136000000Y-101450000D02*
X136000000Y-131550000D01*
X136040000Y-101450000D02*
X136040000Y-131550000D01*
X136080000Y-101450000D02*
X136080000Y-131550000D01*
X136120000Y-101450000D02*
X136120000Y-131550000D01*
X136160000Y-101450000D02*
X136160000Y-131550000D01*
X136200000Y-101451000D02*
X136200000Y-131549000D01*
X136240000Y-101451000D02*
X136240000Y-131549000D01*
X136280000Y-101452000D02*
X136280000Y-131548000D01*
X136320000Y-101453000D02*
X136320000Y-131547000D01*
X136360000Y-101454000D02*
X136360000Y-131546000D01*
X136400000Y-101455000D02*
X136400000Y-131545000D01*
X136440000Y-101456000D02*
X136440000Y-131544000D01*
X136480000Y-101457000D02*
X136480000Y-131543000D01*
X136520000Y-101458000D02*
X136520000Y-131542000D01*
X136560000Y-101460000D02*
X136560000Y-131540000D01*
X136600000Y-101461000D02*
X136600000Y-131539000D01*
X136640000Y-101463000D02*
X136640000Y-131537000D01*
X136680000Y-101465000D02*
X136680000Y-131535000D01*
X136721000Y-101467000D02*
X136721000Y-131533000D01*
X136761000Y-101469000D02*
X136761000Y-131531000D01*
X136801000Y-101471000D02*
X136801000Y-131529000D01*
X136841000Y-101473000D02*
X136841000Y-131527000D01*
X136881000Y-101475000D02*
X136881000Y-131525000D01*
X136921000Y-101478000D02*
X136921000Y-131522000D01*
X136961000Y-101480000D02*
X136961000Y-131520000D01*
X137001000Y-101483000D02*
X137001000Y-131517000D01*
X137041000Y-101485000D02*
X137041000Y-131515000D01*
X137081000Y-101488000D02*
X137081000Y-131512000D01*
X137121000Y-101491000D02*
X137121000Y-131509000D01*
X137161000Y-101494000D02*
X137161000Y-131506000D01*
X137201000Y-101497000D02*
X137201000Y-131503000D01*
X137241000Y-101501000D02*
X137241000Y-131499000D01*
X137281000Y-101504000D02*
X137281000Y-131496000D01*
X137321000Y-101507000D02*
X137321000Y-131493000D01*
X137361000Y-101511000D02*
X137361000Y-131489000D01*
X137401000Y-101515000D02*
X137401000Y-131485000D01*
X137441000Y-101518000D02*
X137441000Y-131482000D01*
X137481000Y-101522000D02*
X137481000Y-131478000D01*
X137521000Y-101526000D02*
X137521000Y-131474000D01*
X137561000Y-101530000D02*
X137561000Y-131470000D01*
X137601000Y-101535000D02*
X137601000Y-131465000D01*
X137641000Y-101539000D02*
X137641000Y-131461000D01*
X137681000Y-101543000D02*
X137681000Y-131457000D01*
X137721000Y-101548000D02*
X137721000Y-131452000D01*
X137761000Y-101552000D02*
X137761000Y-131448000D01*
X137801000Y-101557000D02*
X137801000Y-131443000D01*
X137841000Y-101562000D02*
X137841000Y-131438000D01*
X137881000Y-101567000D02*
X137881000Y-131433000D01*
X137921000Y-101572000D02*
X137921000Y-131428000D01*
X137961000Y-101577000D02*
X137961000Y-131423000D01*
X138001000Y-101583000D02*
X138001000Y-131417000D01*
X138041000Y-101588000D02*
X138041000Y-131412000D01*
X138081000Y-101594000D02*
X138081000Y-131406000D01*
X138121000Y-101599000D02*
X138121000Y-131401000D01*
X138161000Y-101605000D02*
X138161000Y-131395000D01*
X138201000Y-101611000D02*
X138201000Y-131389000D01*
X138241000Y-101617000D02*
X138241000Y-131383000D01*
X138281000Y-101623000D02*
X138281000Y-131377000D01*
X138321000Y-101629000D02*
X138321000Y-131371000D01*
X138361000Y-101635000D02*
X138361000Y-131365000D01*
X138401000Y-101642000D02*
X138401000Y-131358000D01*
X138441000Y-101648000D02*
X138441000Y-131352000D01*
X138481000Y-101655000D02*
X138481000Y-131345000D01*
X138521000Y-101661000D02*
X138521000Y-131339000D01*
X138561000Y-101668000D02*
X138561000Y-131332000D01*
X138601000Y-101675000D02*
X138601000Y-131325000D01*
X138641000Y-101682000D02*
X138641000Y-131318000D01*
X138681000Y-101689000D02*
X138681000Y-131311000D01*
X138721000Y-101697000D02*
X138721000Y-131303000D01*
X138761000Y-101704000D02*
X138761000Y-131296000D01*
X138801000Y-101712000D02*
X138801000Y-131288000D01*
X138841000Y-101719000D02*
X138841000Y-114320000D01*
X138841000Y-118680000D02*
X138841000Y-131281000D01*
X138881000Y-101727000D02*
X138881000Y-114320000D01*
X138881000Y-118680000D02*
X138881000Y-131273000D01*
X138921000Y-101735000D02*
X138921000Y-114320000D01*
X138921000Y-118680000D02*
X138921000Y-131265000D01*
X138961000Y-101743000D02*
X138961000Y-114320000D01*
X138961000Y-118680000D02*
X138961000Y-131257000D01*
X139001000Y-101751000D02*
X139001000Y-114320000D01*
X139001000Y-118680000D02*
X139001000Y-131249000D01*
X139041000Y-101759000D02*
X139041000Y-114320000D01*
X139041000Y-118680000D02*
X139041000Y-131241000D01*
X139081000Y-101767000D02*
X139081000Y-114320000D01*
X139081000Y-118680000D02*
X139081000Y-131233000D01*
X139121000Y-101776000D02*
X139121000Y-114320000D01*
X139121000Y-118680000D02*
X139121000Y-131224000D01*
X139161000Y-101784000D02*
X139161000Y-114320000D01*
X139161000Y-118680000D02*
X139161000Y-131216000D01*
X139201000Y-101793000D02*
X139201000Y-114320000D01*
X139201000Y-118680000D02*
X139201000Y-131207000D01*
X139241000Y-101801000D02*
X139241000Y-114320000D01*
X139241000Y-118680000D02*
X139241000Y-131199000D01*
X139281000Y-101810000D02*
X139281000Y-114320000D01*
X139281000Y-118680000D02*
X139281000Y-131190000D01*
X139321000Y-101819000D02*
X139321000Y-114320000D01*
X139321000Y-118680000D02*
X139321000Y-131181000D01*
X139361000Y-101828000D02*
X139361000Y-114320000D01*
X139361000Y-118680000D02*
X139361000Y-131172000D01*
X139401000Y-101838000D02*
X139401000Y-114320000D01*
X139401000Y-118680000D02*
X139401000Y-131162000D01*
X139441000Y-101847000D02*
X139441000Y-114320000D01*
X139441000Y-118680000D02*
X139441000Y-131153000D01*
X139481000Y-101856000D02*
X139481000Y-114320000D01*
X139481000Y-118680000D02*
X139481000Y-131144000D01*
X139521000Y-101866000D02*
X139521000Y-114320000D01*
X139521000Y-118680000D02*
X139521000Y-131134000D01*
X139561000Y-101875000D02*
X139561000Y-114320000D01*
X139561000Y-118680000D02*
X139561000Y-131125000D01*
X139601000Y-101885000D02*
X139601000Y-114320000D01*
X139601000Y-118680000D02*
X139601000Y-131115000D01*
X139641000Y-101895000D02*
X139641000Y-114320000D01*
X139641000Y-118680000D02*
X139641000Y-131105000D01*
X139681000Y-101905000D02*
X139681000Y-114320000D01*
X139681000Y-118680000D02*
X139681000Y-131095000D01*
X139721000Y-101915000D02*
X139721000Y-114320000D01*
X139721000Y-118680000D02*
X139721000Y-131085000D01*
X139761000Y-101925000D02*
X139761000Y-114320000D01*
X139761000Y-118680000D02*
X139761000Y-131075000D01*
X139801000Y-101936000D02*
X139801000Y-114320000D01*
X139801000Y-118680000D02*
X139801000Y-131064000D01*
X139841000Y-101946000D02*
X139841000Y-114320000D01*
X139841000Y-118680000D02*
X139841000Y-131054000D01*
X139881000Y-101957000D02*
X139881000Y-114320000D01*
X139881000Y-118680000D02*
X139881000Y-131043000D01*
X139921000Y-101968000D02*
X139921000Y-114320000D01*
X139921000Y-118680000D02*
X139921000Y-131032000D01*
X139961000Y-101978000D02*
X139961000Y-114320000D01*
X139961000Y-118680000D02*
X139961000Y-131022000D01*
X140001000Y-101989000D02*
X140001000Y-114320000D01*
X140001000Y-118680000D02*
X140001000Y-131011000D01*
X140041000Y-102000000D02*
X140041000Y-114320000D01*
X140041000Y-118680000D02*
X140041000Y-131000000D01*
X140081000Y-102012000D02*
X140081000Y-114320000D01*
X140081000Y-118680000D02*
X140081000Y-130988000D01*
X140121000Y-102023000D02*
X140121000Y-114320000D01*
X140121000Y-118680000D02*
X140121000Y-130977000D01*
X140161000Y-102034000D02*
X140161000Y-114320000D01*
X140161000Y-118680000D02*
X140161000Y-130966000D01*
X140201000Y-102046000D02*
X140201000Y-114320000D01*
X140201000Y-118680000D02*
X140201000Y-130954000D01*
X140241000Y-102057000D02*
X140241000Y-114320000D01*
X140241000Y-118680000D02*
X140241000Y-130943000D01*
X140281000Y-102069000D02*
X140281000Y-114320000D01*
X140281000Y-118680000D02*
X140281000Y-130931000D01*
X140321000Y-102081000D02*
X140321000Y-114320000D01*
X140321000Y-118680000D02*
X140321000Y-130919000D01*
X140361000Y-102093000D02*
X140361000Y-114320000D01*
X140361000Y-118680000D02*
X140361000Y-130907000D01*
X140401000Y-102105000D02*
X140401000Y-114320000D01*
X140401000Y-118680000D02*
X140401000Y-130895000D01*
X140441000Y-102117000D02*
X140441000Y-114320000D01*
X140441000Y-118680000D02*
X140441000Y-130883000D01*
X140481000Y-102130000D02*
X140481000Y-114320000D01*
X140481000Y-118680000D02*
X140481000Y-130870000D01*
X140521000Y-102142000D02*
X140521000Y-114320000D01*
X140521000Y-118680000D02*
X140521000Y-130858000D01*
X140561000Y-102155000D02*
X140561000Y-114320000D01*
X140561000Y-118680000D02*
X140561000Y-130845000D01*
X140601000Y-102168000D02*
X140601000Y-114320000D01*
X140601000Y-118680000D02*
X140601000Y-130832000D01*
X140641000Y-102181000D02*
X140641000Y-114320000D01*
X140641000Y-118680000D02*
X140641000Y-130819000D01*
X140681000Y-102194000D02*
X140681000Y-114320000D01*
X140681000Y-118680000D02*
X140681000Y-130806000D01*
X140721000Y-102207000D02*
X140721000Y-114320000D01*
X140721000Y-118680000D02*
X140721000Y-130793000D01*
X140761000Y-102220000D02*
X140761000Y-114320000D01*
X140761000Y-118680000D02*
X140761000Y-130780000D01*
X140801000Y-102233000D02*
X140801000Y-114320000D01*
X140801000Y-118680000D02*
X140801000Y-130767000D01*
X140841000Y-102247000D02*
X140841000Y-114320000D01*
X140841000Y-118680000D02*
X140841000Y-130753000D01*
X140881000Y-102260000D02*
X140881000Y-114320000D01*
X140881000Y-118680000D02*
X140881000Y-130740000D01*
X140921000Y-102274000D02*
X140921000Y-114320000D01*
X140921000Y-118680000D02*
X140921000Y-130726000D01*
X140961000Y-102288000D02*
X140961000Y-114320000D01*
X140961000Y-118680000D02*
X140961000Y-130712000D01*
X141001000Y-102302000D02*
X141001000Y-114320000D01*
X141001000Y-118680000D02*
X141001000Y-130698000D01*
X141041000Y-102316000D02*
X141041000Y-114320000D01*
X141041000Y-118680000D02*
X141041000Y-130684000D01*
X141081000Y-102330000D02*
X141081000Y-114320000D01*
X141081000Y-118680000D02*
X141081000Y-130670000D01*
X141121000Y-102345000D02*
X141121000Y-114320000D01*
X141121000Y-118680000D02*
X141121000Y-130655000D01*
X141161000Y-102359000D02*
X141161000Y-114320000D01*
X141161000Y-118680000D02*
X141161000Y-130641000D01*
X141201000Y-102374000D02*
X141201000Y-114320000D01*
X141201000Y-118680000D02*
X141201000Y-130626000D01*
X141241000Y-102389000D02*
X141241000Y-114320000D01*
X141241000Y-118680000D02*
X141241000Y-130611000D01*
X141281000Y-102403000D02*
X141281000Y-114320000D01*
X141281000Y-118680000D02*
X141281000Y-130597000D01*
X141321000Y-102418000D02*
X141321000Y-114320000D01*
X141321000Y-118680000D02*
X141321000Y-130582000D01*
X141361000Y-102434000D02*
X141361000Y-114320000D01*
X141361000Y-118680000D02*
X141361000Y-130566000D01*
X141401000Y-102449000D02*
X141401000Y-114320000D01*
X141401000Y-118680000D02*
X141401000Y-130551000D01*
X141441000Y-102464000D02*
X141441000Y-114320000D01*
X141441000Y-118680000D02*
X141441000Y-130536000D01*
X141481000Y-102480000D02*
X141481000Y-114320000D01*
X141481000Y-118680000D02*
X141481000Y-130520000D01*
X141521000Y-102495000D02*
X141521000Y-114320000D01*
X141521000Y-118680000D02*
X141521000Y-130505000D01*
X141561000Y-102511000D02*
X141561000Y-114320000D01*
X141561000Y-118680000D02*
X141561000Y-130489000D01*
X141601000Y-102527000D02*
X141601000Y-114320000D01*
X141601000Y-118680000D02*
X141601000Y-130473000D01*
X141641000Y-102543000D02*
X141641000Y-114320000D01*
X141641000Y-118680000D02*
X141641000Y-130457000D01*
X141681000Y-102559000D02*
X141681000Y-114320000D01*
X141681000Y-118680000D02*
X141681000Y-130441000D01*
X141721000Y-102576000D02*
X141721000Y-114320000D01*
X141721000Y-118680000D02*
X141721000Y-130424000D01*
X141761000Y-102592000D02*
X141761000Y-114320000D01*
X141761000Y-118680000D02*
X141761000Y-130408000D01*
X141801000Y-102609000D02*
X141801000Y-114320000D01*
X141801000Y-118680000D02*
X141801000Y-130391000D01*
X141841000Y-102625000D02*
X141841000Y-114320000D01*
X141841000Y-118680000D02*
X141841000Y-130375000D01*
X141881000Y-102642000D02*
X141881000Y-114320000D01*
X141881000Y-118680000D02*
X141881000Y-130358000D01*
X141921000Y-102659000D02*
X141921000Y-114320000D01*
X141921000Y-118680000D02*
X141921000Y-130341000D01*
X141961000Y-102676000D02*
X141961000Y-114320000D01*
X141961000Y-118680000D02*
X141961000Y-130324000D01*
X142001000Y-102694000D02*
X142001000Y-114320000D01*
X142001000Y-118680000D02*
X142001000Y-130306000D01*
X142041000Y-102711000D02*
X142041000Y-114320000D01*
X142041000Y-118680000D02*
X142041000Y-130289000D01*
X142081000Y-102729000D02*
X142081000Y-114320000D01*
X142081000Y-118680000D02*
X142081000Y-130271000D01*
X142121000Y-102746000D02*
X142121000Y-114320000D01*
X142121000Y-118680000D02*
X142121000Y-130254000D01*
X142161000Y-102764000D02*
X142161000Y-114320000D01*
X142161000Y-118680000D02*
X142161000Y-130236000D01*
X142201000Y-102782000D02*
X142201000Y-114320000D01*
X142201000Y-118680000D02*
X142201000Y-130218000D01*
X142241000Y-102800000D02*
X142241000Y-114320000D01*
X142241000Y-118680000D02*
X142241000Y-130200000D01*
X142281000Y-102818000D02*
X142281000Y-114320000D01*
X142281000Y-118680000D02*
X142281000Y-130182000D01*
X142321000Y-102837000D02*
X142321000Y-114320000D01*
X142321000Y-118680000D02*
X142321000Y-130163000D01*
X142361000Y-102855000D02*
X142361000Y-114320000D01*
X142361000Y-118680000D02*
X142361000Y-130145000D01*
X142401000Y-102874000D02*
X142401000Y-114320000D01*
X142401000Y-118680000D02*
X142401000Y-130126000D01*
X142441000Y-102893000D02*
X142441000Y-114320000D01*
X142441000Y-118680000D02*
X142441000Y-130107000D01*
X142481000Y-102912000D02*
X142481000Y-114320000D01*
X142481000Y-118680000D02*
X142481000Y-130088000D01*
X142521000Y-102931000D02*
X142521000Y-114320000D01*
X142521000Y-118680000D02*
X142521000Y-130069000D01*
X142561000Y-102950000D02*
X142561000Y-114320000D01*
X142561000Y-118680000D02*
X142561000Y-130050000D01*
X142601000Y-102969000D02*
X142601000Y-114320000D01*
X142601000Y-118680000D02*
X142601000Y-130031000D01*
X142641000Y-102989000D02*
X142641000Y-114320000D01*
X142641000Y-118680000D02*
X142641000Y-130011000D01*
X142681000Y-103009000D02*
X142681000Y-114320000D01*
X142681000Y-118680000D02*
X142681000Y-129991000D01*
X142721000Y-103028000D02*
X142721000Y-114320000D01*
X142721000Y-118680000D02*
X142721000Y-129972000D01*
X142761000Y-103048000D02*
X142761000Y-114320000D01*
X142761000Y-118680000D02*
X142761000Y-129952000D01*
X142801000Y-103068000D02*
X142801000Y-114320000D01*
X142801000Y-118680000D02*
X142801000Y-129932000D01*
X142841000Y-103089000D02*
X142841000Y-114320000D01*
X142841000Y-118680000D02*
X142841000Y-129911000D01*
X142881000Y-103109000D02*
X142881000Y-114320000D01*
X142881000Y-118680000D02*
X142881000Y-129891000D01*
X142921000Y-103130000D02*
X142921000Y-114320000D01*
X142921000Y-118680000D02*
X142921000Y-129870000D01*
X142961000Y-103150000D02*
X142961000Y-114320000D01*
X142961000Y-118680000D02*
X142961000Y-129850000D01*
X143001000Y-103171000D02*
X143001000Y-114320000D01*
X143001000Y-118680000D02*
X143001000Y-129829000D01*
X143041000Y-103192000D02*
X143041000Y-114320000D01*
X143041000Y-118680000D02*
X143041000Y-129808000D01*
X143081000Y-103214000D02*
X143081000Y-114320000D01*
X143081000Y-118680000D02*
X143081000Y-129786000D01*
X143121000Y-103235000D02*
X143121000Y-114320000D01*
X143121000Y-118680000D02*
X143121000Y-129765000D01*
X143161000Y-103256000D02*
X143161000Y-114320000D01*
X143161000Y-118680000D02*
X143161000Y-129744000D01*
X143201000Y-103278000D02*
X143201000Y-129722000D01*
X143241000Y-103300000D02*
X143241000Y-129700000D01*
X143281000Y-103322000D02*
X143281000Y-129678000D01*
X143321000Y-103344000D02*
X143321000Y-129656000D01*
X143361000Y-103366000D02*
X143361000Y-129634000D01*
X143401000Y-103389000D02*
X143401000Y-129611000D01*
X143441000Y-103411000D02*
X143441000Y-129589000D01*
X143481000Y-103434000D02*
X143481000Y-129566000D01*
X143521000Y-103457000D02*
X143521000Y-129543000D01*
X143561000Y-103480000D02*
X143561000Y-129520000D01*
X143601000Y-103503000D02*
X143601000Y-129497000D01*
X143641000Y-103526000D02*
X143641000Y-129474000D01*
X143681000Y-103550000D02*
X143681000Y-129450000D01*
X143721000Y-103574000D02*
X143721000Y-129426000D01*
X143761000Y-103598000D02*
X143761000Y-129402000D01*
X143801000Y-103622000D02*
X143801000Y-129378000D01*
X143841000Y-103646000D02*
X143841000Y-129354000D01*
X143881000Y-103670000D02*
X143881000Y-129330000D01*
X143921000Y-103695000D02*
X143921000Y-129305000D01*
X143961000Y-103720000D02*
X143961000Y-129280000D01*
X144001000Y-103745000D02*
X144001000Y-129255000D01*
X144041000Y-103770000D02*
X144041000Y-129230000D01*
X144081000Y-103795000D02*
X144081000Y-129205000D01*
X144121000Y-103820000D02*
X144121000Y-129180000D01*
X144161000Y-103846000D02*
X144161000Y-129154000D01*
X144200000Y-103872000D02*
X144200000Y-129128000D01*
X144240000Y-103898000D02*
X144240000Y-129102000D01*
X144280000Y-103924000D02*
X144280000Y-129076000D01*
X144320000Y-103950000D02*
X144320000Y-129050000D01*
X144360000Y-103977000D02*
X144360000Y-129023000D01*
X144400000Y-104004000D02*
X144400000Y-128996000D01*
X144440000Y-104031000D02*
X144440000Y-128969000D01*
X144480000Y-104058000D02*
X144480000Y-128942000D01*
X144520000Y-104085000D02*
X144520000Y-128915000D01*
X144560000Y-104112000D02*
X144560000Y-128888000D01*
X144600000Y-104140000D02*
X144600000Y-128860000D01*
X144640000Y-104168000D02*
X144640000Y-128832000D01*
X144680000Y-104196000D02*
X144680000Y-128804000D01*
X144720000Y-104224000D02*
X144720000Y-128776000D01*
X144760000Y-104252000D02*
X144760000Y-128748000D01*
X144800000Y-104281000D02*
X144800000Y-128719000D01*
X144840000Y-104310000D02*
X144840000Y-128690000D01*
X144880000Y-104339000D02*
X144880000Y-128661000D01*
X144920000Y-104368000D02*
X144920000Y-128632000D01*
X144960000Y-104398000D02*
X144960000Y-128602000D01*
X145000000Y-104427000D02*
X145000000Y-128573000D01*
X145040000Y-104457000D02*
X145040000Y-128543000D01*
X145080000Y-104487000D02*
X145080000Y-128513000D01*
X145120000Y-104517000D02*
X145120000Y-128483000D01*
X145160000Y-104548000D02*
X145160000Y-128452000D01*
X145200000Y-104578000D02*
X145200000Y-128422000D01*
X145240000Y-104609000D02*
X145240000Y-128391000D01*
X145280000Y-104640000D02*
X145280000Y-128360000D01*
X145320000Y-104672000D02*
X145320000Y-128328000D01*
X145360000Y-104703000D02*
X145360000Y-128297000D01*
X145400000Y-104735000D02*
X145400000Y-128265000D01*
X145440000Y-104767000D02*
X145440000Y-128233000D01*
X145480000Y-104799000D02*
X145480000Y-128201000D01*
X145520000Y-104831000D02*
X145520000Y-128169000D01*
X145560000Y-104864000D02*
X145560000Y-128136000D01*
X145600000Y-104897000D02*
X145600000Y-128103000D01*
X145640000Y-104930000D02*
X145640000Y-128070000D01*
X145680000Y-104963000D02*
X145680000Y-128037000D01*
X145720000Y-104997000D02*
X145720000Y-128003000D01*
X145760000Y-105031000D02*
X145760000Y-127969000D01*
X145800000Y-105065000D02*
X145800000Y-127935000D01*
X145840000Y-105099000D02*
X145840000Y-127901000D01*
X145880000Y-105134000D02*
X145880000Y-127866000D01*
X145920000Y-105168000D02*
X145920000Y-127832000D01*
X145960000Y-105203000D02*
X145960000Y-127797000D01*
X146000000Y-105239000D02*
X146000000Y-127761000D01*
X146040000Y-105274000D02*
X146040000Y-127726000D01*
X146080000Y-105310000D02*
X146080000Y-127690000D01*
X146120000Y-105346000D02*
X146120000Y-127654000D01*
X146160000Y-105382000D02*
X146160000Y-127618000D01*
X146200000Y-105419000D02*
X146200000Y-127581000D01*
X146240000Y-105456000D02*
X146240000Y-127544000D01*
X146280000Y-105493000D02*
X146280000Y-127507000D01*
X146320000Y-105530000D02*
X146320000Y-127470000D01*
X146360000Y-105568000D02*
X146360000Y-127432000D01*
X146400000Y-105606000D02*
X146400000Y-127394000D01*
X146440000Y-105644000D02*
X146440000Y-127356000D01*
X146480000Y-105682000D02*
X146480000Y-127318000D01*
X146520000Y-105721000D02*
X146520000Y-127279000D01*
X146560000Y-105760000D02*
X146560000Y-127240000D01*
X146600000Y-105799000D02*
X146600000Y-127201000D01*
X146640000Y-105839000D02*
X146640000Y-127161000D01*
X146680000Y-105879000D02*
X146680000Y-127121000D01*
X146720000Y-105919000D02*
X146720000Y-127081000D01*
X146760000Y-105960000D02*
X146760000Y-127040000D01*
X146800000Y-106001000D02*
X146800000Y-126999000D01*
X146840000Y-106042000D02*
X146840000Y-126958000D01*
X146880000Y-106083000D02*
X146880000Y-126917000D01*
X146920000Y-106125000D02*
X146920000Y-126875000D01*
X146960000Y-106167000D02*
X146960000Y-126833000D01*
X147000000Y-106210000D02*
X147000000Y-126790000D01*
X147040000Y-106252000D02*
X147040000Y-126748000D01*
X147080000Y-106295000D02*
X147080000Y-126705000D01*
X147120000Y-106339000D02*
X147120000Y-126661000D01*
X147160000Y-106383000D02*
X147160000Y-126617000D01*
X147200000Y-106427000D02*
X147200000Y-126573000D01*
X147240000Y-106471000D02*
X147240000Y-126529000D01*
X147280000Y-106516000D02*
X147280000Y-126484000D01*
X147320000Y-106561000D02*
X147320000Y-126439000D01*
X147360000Y-106607000D02*
X147360000Y-126393000D01*
X147400000Y-106653000D02*
X147400000Y-126347000D01*
X147440000Y-106699000D02*
X147440000Y-126301000D01*
X147480000Y-106746000D02*
X147480000Y-126254000D01*
X147520000Y-106793000D02*
X147520000Y-126207000D01*
X147560000Y-106840000D02*
X147560000Y-126160000D01*
X147600000Y-106888000D02*
X147600000Y-126112000D01*
X147640000Y-106936000D02*
X147640000Y-126064000D01*
X147680000Y-106985000D02*
X147680000Y-126015000D01*
X147720000Y-107034000D02*
X147720000Y-125966000D01*
X147760000Y-107084000D02*
X147760000Y-125916000D01*
X147800000Y-107134000D02*
X147800000Y-125866000D01*
X147840000Y-107184000D02*
X147840000Y-125816000D01*
X147880000Y-107235000D02*
X147880000Y-125765000D01*
X147920000Y-107286000D02*
X147920000Y-125714000D01*
X147960000Y-107338000D02*
X147960000Y-125662000D01*
X148000000Y-107390000D02*
X148000000Y-125610000D01*
X148040000Y-107443000D02*
X148040000Y-125557000D01*
X148080000Y-107496000D02*
X148080000Y-125504000D01*
X148120000Y-107550000D02*
X148120000Y-125450000D01*
X148160000Y-107604000D02*
X148160000Y-125396000D01*
X148200000Y-107659000D02*
X148200000Y-125341000D01*
X148240000Y-107714000D02*
X148240000Y-125286000D01*
X148280000Y-107770000D02*
X148280000Y-125230000D01*
X148320000Y-107826000D02*
X148320000Y-125174000D01*
X148360000Y-107883000D02*
X148360000Y-125117000D01*
X148400000Y-107940000D02*
X148400000Y-125060000D01*
X148440000Y-107998000D02*
X148440000Y-125002000D01*
X148480000Y-108057000D02*
X148480000Y-124943000D01*
X148520000Y-108116000D02*
X148520000Y-124884000D01*
X148560000Y-108176000D02*
X148560000Y-124824000D01*
X148600000Y-108236000D02*
X148600000Y-124764000D01*
X148640000Y-108297000D02*
X148640000Y-124703000D01*
X148680000Y-108359000D02*
X148680000Y-124641000D01*
X148720000Y-108421000D02*
X148720000Y-124579000D01*
X148760000Y-108484000D02*
X148760000Y-124516000D01*
X148800000Y-108548000D02*
X148800000Y-124452000D01*
X148840000Y-108612000D02*
X148840000Y-124388000D01*
X148880000Y-108677000D02*
X148880000Y-124323000D01*
X148920000Y-108743000D02*
X148920000Y-124257000D01*
X148960000Y-108810000D02*
X148960000Y-124190000D01*
X149000000Y-108877000D02*
X149000000Y-124123000D01*
X149040000Y-108946000D02*
X149040000Y-124054000D01*
X149080000Y-109015000D02*
X149080000Y-123985000D01*
X149120000Y-109085000D02*
X149120000Y-123915000D01*
X149160000Y-109156000D02*
X149160000Y-123844000D01*
X149200000Y-109227000D02*
X149200000Y-123773000D01*
X149240000Y-109300000D02*
X149240000Y-123700000D01*
X149280000Y-109374000D02*
X149280000Y-123626000D01*
X149320000Y-109448000D02*
X149320000Y-123552000D01*
X149360000Y-109524000D02*
X149360000Y-123476000D01*
X149400000Y-109601000D02*
X149400000Y-123399000D01*
X149440000Y-109678000D02*
X149440000Y-123322000D01*
X149480000Y-109757000D02*
X149480000Y-123243000D01*
X149520000Y-109837000D02*
X149520000Y-123163000D01*
X149560000Y-109919000D02*
X149560000Y-123081000D01*
X149600000Y-110001000D02*
X149600000Y-122999000D01*
X149640000Y-110085000D02*
X149640000Y-122915000D01*
X149680000Y-110170000D02*
X149680000Y-122830000D01*
X149720000Y-110257000D02*
X149720000Y-122743000D01*
X149760000Y-110345000D02*
X149760000Y-122655000D01*
X149800000Y-110435000D02*
X149800000Y-122565000D01*
X149840000Y-110526000D02*
X149840000Y-122474000D01*
X149880000Y-110619000D02*
X149880000Y-122381000D01*
X149920000Y-110714000D02*
X149920000Y-122286000D01*
X149960000Y-110810000D02*
X149960000Y-122190000D01*
X150000000Y-110909000D02*
X150000000Y-122091000D01*
X150040000Y-111009000D02*
X150040000Y-121991000D01*
X150080000Y-111112000D02*
X150080000Y-121888000D01*
X150120000Y-111217000D02*
X150120000Y-121783000D01*
X150160000Y-111324000D02*
X150160000Y-121676000D01*
X150200000Y-111434000D02*
X150200000Y-121566000D01*
X150240000Y-111546000D02*
X150240000Y-121454000D01*
X150280000Y-111662000D02*
X150280000Y-121338000D01*
X150320000Y-111781000D02*
X150320000Y-121219000D01*
X150360000Y-111903000D02*
X150360000Y-121097000D01*
X150400000Y-112029000D02*
X150400000Y-120971000D01*
X150440000Y-112158000D02*
X150440000Y-120842000D01*
X150480000Y-112292000D02*
X150480000Y-120708000D01*
X150520000Y-112431000D02*
X150520000Y-120569000D01*
X150560000Y-112575000D02*
X150560000Y-120425000D01*
X150600000Y-112725000D02*
X150600000Y-120275000D01*
X150640000Y-112882000D02*
X150640000Y-120118000D01*
X150680000Y-113046000D02*
X150680000Y-119954000D01*
X150720000Y-113218000D02*
X150720000Y-119782000D01*
X150760000Y-113401000D02*
X150760000Y-119599000D01*
X150800000Y-113595000D02*
X150800000Y-119405000D01*
X150840000Y-113804000D02*
X150840000Y-119196000D01*
X150880000Y-114031000D02*
X150880000Y-118969000D01*
X150920000Y-114281000D02*
X150920000Y-118719000D01*
X150960000Y-114563000D02*
X150960000Y-118437000D01*
X151000000Y-114894000D02*
X151000000Y-118106000D01*
X151040000Y-115312000D02*
X151040000Y-117688000D01*
X151080000Y-115990000D02*
X151080000Y-117010000D01*
X125800000Y-116500000D02*
X128800000Y-116500000D01*
X127300000Y-115000000D02*
X127300000Y-118000000D01*
X174190000Y-112900000D02*
G75*
G03X174190000Y-112900000I-11090000J0D01*
G01*
X163100000Y-101850000D02*
X163100000Y-123950000D01*
X163140000Y-101850000D02*
X163140000Y-123950000D01*
X163180000Y-101850000D02*
X163180000Y-123950000D01*
X163220000Y-101850000D02*
X163220000Y-123950000D01*
X163260000Y-101851000D02*
X163260000Y-123949000D01*
X163300000Y-101851000D02*
X163300000Y-123949000D01*
X163340000Y-101852000D02*
X163340000Y-123948000D01*
X163380000Y-101853000D02*
X163380000Y-123947000D01*
X163420000Y-101854000D02*
X163420000Y-123946000D01*
X163460000Y-101855000D02*
X163460000Y-123945000D01*
X163500000Y-101857000D02*
X163500000Y-123943000D01*
X163540000Y-101858000D02*
X163540000Y-123942000D01*
X163580000Y-101860000D02*
X163580000Y-123940000D01*
X163620000Y-101862000D02*
X163620000Y-123938000D01*
X163660000Y-101864000D02*
X163660000Y-123936000D01*
X163700000Y-101866000D02*
X163700000Y-123934000D01*
X163740000Y-101868000D02*
X163740000Y-123932000D01*
X163780000Y-101870000D02*
X163780000Y-123930000D01*
X163821000Y-101873000D02*
X163821000Y-123927000D01*
X163861000Y-101876000D02*
X163861000Y-123924000D01*
X163901000Y-101878000D02*
X163901000Y-123922000D01*
X163941000Y-101881000D02*
X163941000Y-123919000D01*
X163981000Y-101884000D02*
X163981000Y-123916000D01*
X164021000Y-101888000D02*
X164021000Y-123912000D01*
X164061000Y-101891000D02*
X164061000Y-123909000D01*
X164101000Y-101895000D02*
X164101000Y-123905000D01*
X164141000Y-101898000D02*
X164141000Y-123902000D01*
X164181000Y-101902000D02*
X164181000Y-123898000D01*
X164221000Y-101906000D02*
X164221000Y-123894000D01*
X164261000Y-101910000D02*
X164261000Y-123890000D01*
X164301000Y-101915000D02*
X164301000Y-123885000D01*
X164341000Y-101919000D02*
X164341000Y-123881000D01*
X164381000Y-101924000D02*
X164381000Y-123876000D01*
X164421000Y-101928000D02*
X164421000Y-123872000D01*
X164461000Y-101933000D02*
X164461000Y-123867000D01*
X164501000Y-101938000D02*
X164501000Y-123862000D01*
X164541000Y-101943000D02*
X164541000Y-123857000D01*
X164581000Y-101949000D02*
X164581000Y-123851000D01*
X164621000Y-101954000D02*
X164621000Y-123846000D01*
X164661000Y-101960000D02*
X164661000Y-123840000D01*
X164701000Y-101966000D02*
X164701000Y-123834000D01*
X164741000Y-101971000D02*
X164741000Y-123829000D01*
X164781000Y-101977000D02*
X164781000Y-123823000D01*
X164821000Y-101984000D02*
X164821000Y-123816000D01*
X164861000Y-101990000D02*
X164861000Y-123810000D01*
X164901000Y-101997000D02*
X164901000Y-123803000D01*
X164941000Y-102003000D02*
X164941000Y-123797000D01*
X164981000Y-102010000D02*
X164981000Y-123790000D01*
X165021000Y-102017000D02*
X165021000Y-123783000D01*
X165061000Y-102024000D02*
X165061000Y-123776000D01*
X165101000Y-102031000D02*
X165101000Y-123769000D01*
X165141000Y-102039000D02*
X165141000Y-123761000D01*
X165181000Y-102046000D02*
X165181000Y-123754000D01*
X165221000Y-102054000D02*
X165221000Y-123746000D01*
X165261000Y-102062000D02*
X165261000Y-123738000D01*
X165301000Y-102070000D02*
X165301000Y-123730000D01*
X165341000Y-102078000D02*
X165341000Y-123722000D01*
X165381000Y-102086000D02*
X165381000Y-123714000D01*
X165421000Y-102095000D02*
X165421000Y-123705000D01*
X165461000Y-102104000D02*
X165461000Y-123696000D01*
X165501000Y-102112000D02*
X165501000Y-123688000D01*
X165541000Y-102121000D02*
X165541000Y-123679000D01*
X165581000Y-102130000D02*
X165581000Y-123670000D01*
X165621000Y-102140000D02*
X165621000Y-123660000D01*
X165661000Y-102149000D02*
X165661000Y-123651000D01*
X165701000Y-102159000D02*
X165701000Y-123641000D01*
X165741000Y-102168000D02*
X165741000Y-123632000D01*
X165781000Y-102178000D02*
X165781000Y-123622000D01*
X165821000Y-102188000D02*
X165821000Y-123612000D01*
X165861000Y-102198000D02*
X165861000Y-123602000D01*
X165901000Y-102209000D02*
X165901000Y-123591000D01*
X165941000Y-102219000D02*
X165941000Y-110720000D01*
X165941000Y-115080000D02*
X165941000Y-123581000D01*
X165981000Y-102230000D02*
X165981000Y-110720000D01*
X165981000Y-115080000D02*
X165981000Y-123570000D01*
X166021000Y-102241000D02*
X166021000Y-110720000D01*
X166021000Y-115080000D02*
X166021000Y-123559000D01*
X166061000Y-102252000D02*
X166061000Y-110720000D01*
X166061000Y-115080000D02*
X166061000Y-123548000D01*
X166101000Y-102263000D02*
X166101000Y-110720000D01*
X166101000Y-115080000D02*
X166101000Y-123537000D01*
X166141000Y-102274000D02*
X166141000Y-110720000D01*
X166141000Y-115080000D02*
X166141000Y-123526000D01*
X166181000Y-102286000D02*
X166181000Y-110720000D01*
X166181000Y-115080000D02*
X166181000Y-123514000D01*
X166221000Y-102297000D02*
X166221000Y-110720000D01*
X166221000Y-115080000D02*
X166221000Y-123503000D01*
X166261000Y-102309000D02*
X166261000Y-110720000D01*
X166261000Y-115080000D02*
X166261000Y-123491000D01*
X166301000Y-102321000D02*
X166301000Y-110720000D01*
X166301000Y-115080000D02*
X166301000Y-123479000D01*
X166341000Y-102333000D02*
X166341000Y-110720000D01*
X166341000Y-115080000D02*
X166341000Y-123467000D01*
X166381000Y-102346000D02*
X166381000Y-110720000D01*
X166381000Y-115080000D02*
X166381000Y-123454000D01*
X166421000Y-102358000D02*
X166421000Y-110720000D01*
X166421000Y-115080000D02*
X166421000Y-123442000D01*
X166461000Y-102371000D02*
X166461000Y-110720000D01*
X166461000Y-115080000D02*
X166461000Y-123429000D01*
X166501000Y-102384000D02*
X166501000Y-110720000D01*
X166501000Y-115080000D02*
X166501000Y-123416000D01*
X166541000Y-102397000D02*
X166541000Y-110720000D01*
X166541000Y-115080000D02*
X166541000Y-123403000D01*
X166581000Y-102410000D02*
X166581000Y-110720000D01*
X166581000Y-115080000D02*
X166581000Y-123390000D01*
X166621000Y-102423000D02*
X166621000Y-110720000D01*
X166621000Y-115080000D02*
X166621000Y-123377000D01*
X166661000Y-102436000D02*
X166661000Y-110720000D01*
X166661000Y-115080000D02*
X166661000Y-123364000D01*
X166701000Y-102450000D02*
X166701000Y-110720000D01*
X166701000Y-115080000D02*
X166701000Y-123350000D01*
X166741000Y-102464000D02*
X166741000Y-110720000D01*
X166741000Y-115080000D02*
X166741000Y-123336000D01*
X166781000Y-102478000D02*
X166781000Y-110720000D01*
X166781000Y-115080000D02*
X166781000Y-123322000D01*
X166821000Y-102492000D02*
X166821000Y-110720000D01*
X166821000Y-115080000D02*
X166821000Y-123308000D01*
X166861000Y-102506000D02*
X166861000Y-110720000D01*
X166861000Y-115080000D02*
X166861000Y-123294000D01*
X166901000Y-102521000D02*
X166901000Y-110720000D01*
X166901000Y-115080000D02*
X166901000Y-123279000D01*
X166941000Y-102536000D02*
X166941000Y-110720000D01*
X166941000Y-115080000D02*
X166941000Y-123264000D01*
X166981000Y-102550000D02*
X166981000Y-110720000D01*
X166981000Y-115080000D02*
X166981000Y-123250000D01*
X167021000Y-102565000D02*
X167021000Y-110720000D01*
X167021000Y-115080000D02*
X167021000Y-123235000D01*
X167061000Y-102581000D02*
X167061000Y-110720000D01*
X167061000Y-115080000D02*
X167061000Y-123219000D01*
X167101000Y-102596000D02*
X167101000Y-110720000D01*
X167101000Y-115080000D02*
X167101000Y-123204000D01*
X167141000Y-102612000D02*
X167141000Y-110720000D01*
X167141000Y-115080000D02*
X167141000Y-123188000D01*
X167181000Y-102627000D02*
X167181000Y-110720000D01*
X167181000Y-115080000D02*
X167181000Y-123173000D01*
X167221000Y-102643000D02*
X167221000Y-110720000D01*
X167221000Y-115080000D02*
X167221000Y-123157000D01*
X167261000Y-102659000D02*
X167261000Y-110720000D01*
X167261000Y-115080000D02*
X167261000Y-123141000D01*
X167301000Y-102676000D02*
X167301000Y-110720000D01*
X167301000Y-115080000D02*
X167301000Y-123124000D01*
X167341000Y-102692000D02*
X167341000Y-110720000D01*
X167341000Y-115080000D02*
X167341000Y-123108000D01*
X167381000Y-102709000D02*
X167381000Y-110720000D01*
X167381000Y-115080000D02*
X167381000Y-123091000D01*
X167421000Y-102726000D02*
X167421000Y-110720000D01*
X167421000Y-115080000D02*
X167421000Y-123074000D01*
X167461000Y-102743000D02*
X167461000Y-110720000D01*
X167461000Y-115080000D02*
X167461000Y-123057000D01*
X167501000Y-102760000D02*
X167501000Y-110720000D01*
X167501000Y-115080000D02*
X167501000Y-123040000D01*
X167541000Y-102777000D02*
X167541000Y-110720000D01*
X167541000Y-115080000D02*
X167541000Y-123023000D01*
X167581000Y-102795000D02*
X167581000Y-110720000D01*
X167581000Y-115080000D02*
X167581000Y-123005000D01*
X167621000Y-102812000D02*
X167621000Y-110720000D01*
X167621000Y-115080000D02*
X167621000Y-122988000D01*
X167661000Y-102830000D02*
X167661000Y-110720000D01*
X167661000Y-115080000D02*
X167661000Y-122970000D01*
X167701000Y-102849000D02*
X167701000Y-110720000D01*
X167701000Y-115080000D02*
X167701000Y-122951000D01*
X167741000Y-102867000D02*
X167741000Y-110720000D01*
X167741000Y-115080000D02*
X167741000Y-122933000D01*
X167781000Y-102885000D02*
X167781000Y-110720000D01*
X167781000Y-115080000D02*
X167781000Y-122915000D01*
X167821000Y-102904000D02*
X167821000Y-110720000D01*
X167821000Y-115080000D02*
X167821000Y-122896000D01*
X167861000Y-102923000D02*
X167861000Y-110720000D01*
X167861000Y-115080000D02*
X167861000Y-122877000D01*
X167901000Y-102942000D02*
X167901000Y-110720000D01*
X167901000Y-115080000D02*
X167901000Y-122858000D01*
X167941000Y-102961000D02*
X167941000Y-110720000D01*
X167941000Y-115080000D02*
X167941000Y-122839000D01*
X167981000Y-102981000D02*
X167981000Y-110720000D01*
X167981000Y-115080000D02*
X167981000Y-122819000D01*
X168021000Y-103001000D02*
X168021000Y-110720000D01*
X168021000Y-115080000D02*
X168021000Y-122799000D01*
X168061000Y-103021000D02*
X168061000Y-110720000D01*
X168061000Y-115080000D02*
X168061000Y-122779000D01*
X168101000Y-103041000D02*
X168101000Y-110720000D01*
X168101000Y-115080000D02*
X168101000Y-122759000D01*
X168141000Y-103061000D02*
X168141000Y-110720000D01*
X168141000Y-115080000D02*
X168141000Y-122739000D01*
X168181000Y-103081000D02*
X168181000Y-110720000D01*
X168181000Y-115080000D02*
X168181000Y-122719000D01*
X168221000Y-103102000D02*
X168221000Y-110720000D01*
X168221000Y-115080000D02*
X168221000Y-122698000D01*
X168261000Y-103123000D02*
X168261000Y-110720000D01*
X168261000Y-115080000D02*
X168261000Y-122677000D01*
X168301000Y-103144000D02*
X168301000Y-110720000D01*
X168301000Y-115080000D02*
X168301000Y-122656000D01*
X168341000Y-103166000D02*
X168341000Y-110720000D01*
X168341000Y-115080000D02*
X168341000Y-122634000D01*
X168381000Y-103187000D02*
X168381000Y-110720000D01*
X168381000Y-115080000D02*
X168381000Y-122613000D01*
X168421000Y-103209000D02*
X168421000Y-110720000D01*
X168421000Y-115080000D02*
X168421000Y-122591000D01*
X168461000Y-103231000D02*
X168461000Y-110720000D01*
X168461000Y-115080000D02*
X168461000Y-122569000D01*
X168501000Y-103253000D02*
X168501000Y-110720000D01*
X168501000Y-115080000D02*
X168501000Y-122547000D01*
X168541000Y-103275000D02*
X168541000Y-110720000D01*
X168541000Y-115080000D02*
X168541000Y-122525000D01*
X168581000Y-103298000D02*
X168581000Y-110720000D01*
X168581000Y-115080000D02*
X168581000Y-122502000D01*
X168621000Y-103321000D02*
X168621000Y-110720000D01*
X168621000Y-115080000D02*
X168621000Y-122479000D01*
X168661000Y-103344000D02*
X168661000Y-110720000D01*
X168661000Y-115080000D02*
X168661000Y-122456000D01*
X168701000Y-103367000D02*
X168701000Y-110720000D01*
X168701000Y-115080000D02*
X168701000Y-122433000D01*
X168741000Y-103391000D02*
X168741000Y-110720000D01*
X168741000Y-115080000D02*
X168741000Y-122409000D01*
X168781000Y-103414000D02*
X168781000Y-110720000D01*
X168781000Y-115080000D02*
X168781000Y-122386000D01*
X168821000Y-103438000D02*
X168821000Y-110720000D01*
X168821000Y-115080000D02*
X168821000Y-122362000D01*
X168861000Y-103463000D02*
X168861000Y-110720000D01*
X168861000Y-115080000D02*
X168861000Y-122337000D01*
X168901000Y-103487000D02*
X168901000Y-110720000D01*
X168901000Y-115080000D02*
X168901000Y-122313000D01*
X168941000Y-103512000D02*
X168941000Y-110720000D01*
X168941000Y-115080000D02*
X168941000Y-122288000D01*
X168981000Y-103537000D02*
X168981000Y-110720000D01*
X168981000Y-115080000D02*
X168981000Y-122263000D01*
X169021000Y-103562000D02*
X169021000Y-110720000D01*
X169021000Y-115080000D02*
X169021000Y-122238000D01*
X169061000Y-103587000D02*
X169061000Y-110720000D01*
X169061000Y-115080000D02*
X169061000Y-122213000D01*
X169101000Y-103613000D02*
X169101000Y-110720000D01*
X169101000Y-115080000D02*
X169101000Y-122187000D01*
X169141000Y-103639000D02*
X169141000Y-110720000D01*
X169141000Y-115080000D02*
X169141000Y-122161000D01*
X169181000Y-103665000D02*
X169181000Y-110720000D01*
X169181000Y-115080000D02*
X169181000Y-122135000D01*
X169221000Y-103691000D02*
X169221000Y-110720000D01*
X169221000Y-115080000D02*
X169221000Y-122109000D01*
X169261000Y-103718000D02*
X169261000Y-110720000D01*
X169261000Y-115080000D02*
X169261000Y-122082000D01*
X169301000Y-103744000D02*
X169301000Y-110720000D01*
X169301000Y-115080000D02*
X169301000Y-122056000D01*
X169341000Y-103772000D02*
X169341000Y-110720000D01*
X169341000Y-115080000D02*
X169341000Y-122028000D01*
X169381000Y-103799000D02*
X169381000Y-110720000D01*
X169381000Y-115080000D02*
X169381000Y-122001000D01*
X169421000Y-103827000D02*
X169421000Y-110720000D01*
X169421000Y-115080000D02*
X169421000Y-121973000D01*
X169461000Y-103854000D02*
X169461000Y-110720000D01*
X169461000Y-115080000D02*
X169461000Y-121946000D01*
X169501000Y-103883000D02*
X169501000Y-110720000D01*
X169501000Y-115080000D02*
X169501000Y-121917000D01*
X169541000Y-103911000D02*
X169541000Y-110720000D01*
X169541000Y-115080000D02*
X169541000Y-121889000D01*
X169581000Y-103940000D02*
X169581000Y-110720000D01*
X169581000Y-115080000D02*
X169581000Y-121860000D01*
X169621000Y-103969000D02*
X169621000Y-110720000D01*
X169621000Y-115080000D02*
X169621000Y-121831000D01*
X169661000Y-103998000D02*
X169661000Y-110720000D01*
X169661000Y-115080000D02*
X169661000Y-121802000D01*
X169701000Y-104027000D02*
X169701000Y-110720000D01*
X169701000Y-115080000D02*
X169701000Y-121773000D01*
X169741000Y-104057000D02*
X169741000Y-110720000D01*
X169741000Y-115080000D02*
X169741000Y-121743000D01*
X169781000Y-104087000D02*
X169781000Y-110720000D01*
X169781000Y-115080000D02*
X169781000Y-121713000D01*
X169821000Y-104117000D02*
X169821000Y-110720000D01*
X169821000Y-115080000D02*
X169821000Y-121683000D01*
X169861000Y-104148000D02*
X169861000Y-110720000D01*
X169861000Y-115080000D02*
X169861000Y-121652000D01*
X169901000Y-104179000D02*
X169901000Y-110720000D01*
X169901000Y-115080000D02*
X169901000Y-121621000D01*
X169941000Y-104210000D02*
X169941000Y-110720000D01*
X169941000Y-115080000D02*
X169941000Y-121590000D01*
X169981000Y-104242000D02*
X169981000Y-110720000D01*
X169981000Y-115080000D02*
X169981000Y-121558000D01*
X170021000Y-104273000D02*
X170021000Y-110720000D01*
X170021000Y-115080000D02*
X170021000Y-121527000D01*
X170061000Y-104305000D02*
X170061000Y-110720000D01*
X170061000Y-115080000D02*
X170061000Y-121495000D01*
X170101000Y-104338000D02*
X170101000Y-110720000D01*
X170101000Y-115080000D02*
X170101000Y-121462000D01*
X170141000Y-104371000D02*
X170141000Y-110720000D01*
X170141000Y-115080000D02*
X170141000Y-121429000D01*
X170181000Y-104404000D02*
X170181000Y-110720000D01*
X170181000Y-115080000D02*
X170181000Y-121396000D01*
X170221000Y-104437000D02*
X170221000Y-110720000D01*
X170221000Y-115080000D02*
X170221000Y-121363000D01*
X170261000Y-104471000D02*
X170261000Y-110720000D01*
X170261000Y-115080000D02*
X170261000Y-121329000D01*
X170301000Y-104505000D02*
X170301000Y-121295000D01*
X170341000Y-104539000D02*
X170341000Y-121261000D01*
X170381000Y-104574000D02*
X170381000Y-121226000D01*
X170421000Y-104608000D02*
X170421000Y-121192000D01*
X170461000Y-104644000D02*
X170461000Y-121156000D01*
X170501000Y-104679000D02*
X170501000Y-121121000D01*
X170541000Y-104715000D02*
X170541000Y-121085000D01*
X170581000Y-104752000D02*
X170581000Y-121048000D01*
X170621000Y-104789000D02*
X170621000Y-121011000D01*
X170661000Y-104826000D02*
X170661000Y-120974000D01*
X170701000Y-104863000D02*
X170701000Y-120937000D01*
X170741000Y-104901000D02*
X170741000Y-120899000D01*
X170781000Y-104939000D02*
X170781000Y-120861000D01*
X170821000Y-104978000D02*
X170821000Y-120822000D01*
X170861000Y-105017000D02*
X170861000Y-120783000D01*
X170901000Y-105056000D02*
X170901000Y-120744000D01*
X170941000Y-105096000D02*
X170941000Y-120704000D01*
X170981000Y-105136000D02*
X170981000Y-120664000D01*
X171021000Y-105177000D02*
X171021000Y-120623000D01*
X171061000Y-105218000D02*
X171061000Y-120582000D01*
X171101000Y-105259000D02*
X171101000Y-120541000D01*
X171141000Y-105301000D02*
X171141000Y-120499000D01*
X171181000Y-105343000D02*
X171181000Y-120457000D01*
X171221000Y-105386000D02*
X171221000Y-120414000D01*
X171261000Y-105429000D02*
X171261000Y-120371000D01*
X171300000Y-105473000D02*
X171300000Y-120327000D01*
X171340000Y-105517000D02*
X171340000Y-120283000D01*
X171380000Y-105562000D02*
X171380000Y-120238000D01*
X171420000Y-105607000D02*
X171420000Y-120193000D01*
X171460000Y-105653000D02*
X171460000Y-120147000D01*
X171500000Y-105699000D02*
X171500000Y-120101000D01*
X171540000Y-105745000D02*
X171540000Y-120055000D01*
X171580000Y-105793000D02*
X171580000Y-120007000D01*
X171620000Y-105840000D02*
X171620000Y-119960000D01*
X171660000Y-105889000D02*
X171660000Y-119911000D01*
X171700000Y-105937000D02*
X171700000Y-119863000D01*
X171740000Y-105987000D02*
X171740000Y-119813000D01*
X171780000Y-106037000D02*
X171780000Y-119763000D01*
X171820000Y-106088000D02*
X171820000Y-119712000D01*
X171860000Y-106139000D02*
X171860000Y-119661000D01*
X171900000Y-106191000D02*
X171900000Y-119609000D01*
X171940000Y-106243000D02*
X171940000Y-119557000D01*
X171980000Y-106296000D02*
X171980000Y-119504000D01*
X172020000Y-106350000D02*
X172020000Y-119450000D01*
X172060000Y-106404000D02*
X172060000Y-119396000D01*
X172100000Y-106460000D02*
X172100000Y-119340000D01*
X172140000Y-106516000D02*
X172140000Y-119284000D01*
X172180000Y-106572000D02*
X172180000Y-119228000D01*
X172220000Y-106630000D02*
X172220000Y-119170000D01*
X172260000Y-106688000D02*
X172260000Y-119112000D01*
X172300000Y-106747000D02*
X172300000Y-119053000D01*
X172340000Y-106807000D02*
X172340000Y-118993000D01*
X172380000Y-106867000D02*
X172380000Y-118933000D01*
X172420000Y-106929000D02*
X172420000Y-118871000D01*
X172460000Y-106992000D02*
X172460000Y-118808000D01*
X172500000Y-107055000D02*
X172500000Y-118745000D01*
X172540000Y-107119000D02*
X172540000Y-118681000D01*
X172580000Y-107185000D02*
X172580000Y-118615000D01*
X172620000Y-107251000D02*
X172620000Y-118549000D01*
X172660000Y-107319000D02*
X172660000Y-118481000D01*
X172700000Y-107387000D02*
X172700000Y-118413000D01*
X172740000Y-107457000D02*
X172740000Y-118343000D01*
X172780000Y-107528000D02*
X172780000Y-118272000D01*
X172820000Y-107600000D02*
X172820000Y-118200000D01*
X172860000Y-107674000D02*
X172860000Y-118126000D01*
X172900000Y-107748000D02*
X172900000Y-118052000D01*
X172940000Y-107825000D02*
X172940000Y-117975000D01*
X172980000Y-107902000D02*
X172980000Y-117898000D01*
X173020000Y-107982000D02*
X173020000Y-117818000D01*
X173060000Y-108062000D02*
X173060000Y-117738000D01*
X173100000Y-108145000D02*
X173100000Y-117655000D01*
X173140000Y-108229000D02*
X173140000Y-117571000D01*
X173180000Y-108315000D02*
X173180000Y-117485000D01*
X173220000Y-108404000D02*
X173220000Y-117396000D01*
X173260000Y-108494000D02*
X173260000Y-117306000D01*
X173300000Y-108587000D02*
X173300000Y-117213000D01*
X173340000Y-108682000D02*
X173340000Y-117118000D01*
X173380000Y-108779000D02*
X173380000Y-117021000D01*
X173420000Y-108879000D02*
X173420000Y-116921000D01*
X173460000Y-108982000D02*
X173460000Y-116818000D01*
X173500000Y-109089000D02*
X173500000Y-116711000D01*
X173540000Y-109199000D02*
X173540000Y-116601000D01*
X173580000Y-109312000D02*
X173580000Y-116488000D01*
X173620000Y-109430000D02*
X173620000Y-116370000D01*
X173660000Y-109552000D02*
X173660000Y-116248000D01*
X173700000Y-109679000D02*
X173700000Y-116121000D01*
X173740000Y-109812000D02*
X173740000Y-115988000D01*
X173780000Y-109952000D02*
X173780000Y-115848000D01*
X173820000Y-110099000D02*
X173820000Y-115701000D01*
X173860000Y-110254000D02*
X173860000Y-115546000D01*
X173900000Y-110420000D02*
X173900000Y-115380000D01*
X173940000Y-110598000D02*
X173940000Y-115202000D01*
X173980000Y-110792000D02*
X173980000Y-115008000D01*
X174020000Y-111005000D02*
X174020000Y-114795000D01*
X174060000Y-111246000D02*
X174060000Y-114554000D01*
X174100000Y-111529000D02*
X174100000Y-114271000D01*
X174140000Y-111888000D02*
X174140000Y-113912000D01*
X174180000Y-112469000D02*
X174180000Y-113331000D01*
X152900000Y-112900000D02*
X155900000Y-112900000D01*
X154400000Y-111400000D02*
X154400000Y-114400000D01*
X193640000Y-112800000D02*
G75*
G03X193640000Y-112800000I-9090000J0D01*
G01*
X184550000Y-121850000D02*
X184550000Y-103750000D01*
X184510000Y-121850000D02*
X184510000Y-103750000D01*
X184470000Y-121850000D02*
X184470000Y-103750000D01*
X184430000Y-121850000D02*
X184430000Y-103750000D01*
X184390000Y-121849000D02*
X184390000Y-103751000D01*
X184350000Y-121848000D02*
X184350000Y-103752000D01*
X184310000Y-121847000D02*
X184310000Y-103753000D01*
X184270000Y-121846000D02*
X184270000Y-103754000D01*
X184230000Y-121845000D02*
X184230000Y-103755000D01*
X184190000Y-121843000D02*
X184190000Y-103757000D01*
X184150000Y-121842000D02*
X184150000Y-103758000D01*
X184110000Y-121840000D02*
X184110000Y-103760000D01*
X184070000Y-121838000D02*
X184070000Y-103762000D01*
X184030000Y-121836000D02*
X184030000Y-103764000D01*
X183990000Y-121833000D02*
X183990000Y-103767000D01*
X183950000Y-121831000D02*
X183950000Y-103769000D01*
X183910000Y-121828000D02*
X183910000Y-103772000D01*
X183870000Y-121825000D02*
X183870000Y-103775000D01*
X183829000Y-121822000D02*
X183829000Y-103778000D01*
X183789000Y-121819000D02*
X183789000Y-103781000D01*
X183749000Y-121815000D02*
X183749000Y-103785000D01*
X183709000Y-121812000D02*
X183709000Y-103788000D01*
X183669000Y-121808000D02*
X183669000Y-103792000D01*
X183629000Y-121804000D02*
X183629000Y-103796000D01*
X183589000Y-121800000D02*
X183589000Y-103800000D01*
X183549000Y-121795000D02*
X183549000Y-103805000D01*
X183509000Y-121791000D02*
X183509000Y-103809000D01*
X183469000Y-121786000D02*
X183469000Y-103814000D01*
X183429000Y-121781000D02*
X183429000Y-103819000D01*
X183389000Y-121776000D02*
X183389000Y-103824000D01*
X183349000Y-121771000D02*
X183349000Y-103829000D01*
X183309000Y-121766000D02*
X183309000Y-103834000D01*
X183269000Y-121760000D02*
X183269000Y-103840000D01*
X183229000Y-121754000D02*
X183229000Y-103846000D01*
X183189000Y-121748000D02*
X183189000Y-103852000D01*
X183149000Y-121742000D02*
X183149000Y-103858000D01*
X183109000Y-121736000D02*
X183109000Y-103864000D01*
X183069000Y-121729000D02*
X183069000Y-103871000D01*
X183029000Y-121723000D02*
X183029000Y-103877000D01*
X182989000Y-121716000D02*
X182989000Y-103884000D01*
X182949000Y-121709000D02*
X182949000Y-103891000D01*
X182909000Y-121701000D02*
X182909000Y-103899000D01*
X182869000Y-121694000D02*
X182869000Y-103906000D01*
X182829000Y-121686000D02*
X182829000Y-103914000D01*
X182789000Y-121678000D02*
X182789000Y-103922000D01*
X182749000Y-121670000D02*
X182749000Y-103930000D01*
X182709000Y-121662000D02*
X182709000Y-103938000D01*
X182669000Y-121654000D02*
X182669000Y-103946000D01*
X182629000Y-121645000D02*
X182629000Y-103955000D01*
X182589000Y-121637000D02*
X182589000Y-103963000D01*
X182549000Y-121628000D02*
X182549000Y-103972000D01*
X182509000Y-121619000D02*
X182509000Y-103981000D01*
X182469000Y-121609000D02*
X182469000Y-103991000D01*
X182429000Y-121600000D02*
X182429000Y-104000000D01*
X182389000Y-121590000D02*
X182389000Y-104010000D01*
X182349000Y-121580000D02*
X182349000Y-104020000D01*
X182309000Y-121570000D02*
X182309000Y-104030000D01*
X182269000Y-121560000D02*
X182269000Y-104040000D01*
X182229000Y-121549000D02*
X182229000Y-104051000D01*
X182189000Y-121539000D02*
X182189000Y-104061000D01*
X182149000Y-121528000D02*
X182149000Y-114180000D01*
X182149000Y-111420000D02*
X182149000Y-104072000D01*
X182109000Y-121517000D02*
X182109000Y-114180000D01*
X182109000Y-111420000D02*
X182109000Y-104083000D01*
X182069000Y-121506000D02*
X182069000Y-114180000D01*
X182069000Y-111420000D02*
X182069000Y-104094000D01*
X182029000Y-121494000D02*
X182029000Y-114180000D01*
X182029000Y-111420000D02*
X182029000Y-104106000D01*
X181989000Y-121483000D02*
X181989000Y-114180000D01*
X181989000Y-111420000D02*
X181989000Y-104117000D01*
X181949000Y-121471000D02*
X181949000Y-114180000D01*
X181949000Y-111420000D02*
X181949000Y-104129000D01*
X181909000Y-121459000D02*
X181909000Y-114180000D01*
X181909000Y-111420000D02*
X181909000Y-104141000D01*
X181869000Y-121446000D02*
X181869000Y-114180000D01*
X181869000Y-111420000D02*
X181869000Y-104154000D01*
X181829000Y-121434000D02*
X181829000Y-114180000D01*
X181829000Y-111420000D02*
X181829000Y-104166000D01*
X181789000Y-121421000D02*
X181789000Y-114180000D01*
X181789000Y-111420000D02*
X181789000Y-104179000D01*
X181749000Y-121409000D02*
X181749000Y-114180000D01*
X181749000Y-111420000D02*
X181749000Y-104191000D01*
X181709000Y-121395000D02*
X181709000Y-114180000D01*
X181709000Y-111420000D02*
X181709000Y-104205000D01*
X181669000Y-121382000D02*
X181669000Y-114180000D01*
X181669000Y-111420000D02*
X181669000Y-104218000D01*
X181629000Y-121369000D02*
X181629000Y-114180000D01*
X181629000Y-111420000D02*
X181629000Y-104231000D01*
X181589000Y-121355000D02*
X181589000Y-114180000D01*
X181589000Y-111420000D02*
X181589000Y-104245000D01*
X181549000Y-121341000D02*
X181549000Y-114180000D01*
X181549000Y-111420000D02*
X181549000Y-104259000D01*
X181509000Y-121327000D02*
X181509000Y-114180000D01*
X181509000Y-111420000D02*
X181509000Y-104273000D01*
X181469000Y-121313000D02*
X181469000Y-114180000D01*
X181469000Y-111420000D02*
X181469000Y-104287000D01*
X181429000Y-121298000D02*
X181429000Y-114180000D01*
X181429000Y-111420000D02*
X181429000Y-104302000D01*
X181389000Y-121284000D02*
X181389000Y-114180000D01*
X181389000Y-111420000D02*
X181389000Y-104316000D01*
X181349000Y-121269000D02*
X181349000Y-114180000D01*
X181349000Y-111420000D02*
X181349000Y-104331000D01*
X181309000Y-121253000D02*
X181309000Y-114180000D01*
X181309000Y-111420000D02*
X181309000Y-104347000D01*
X181269000Y-121238000D02*
X181269000Y-114180000D01*
X181269000Y-111420000D02*
X181269000Y-104362000D01*
X181229000Y-121223000D02*
X181229000Y-114180000D01*
X181229000Y-111420000D02*
X181229000Y-104377000D01*
X181189000Y-121207000D02*
X181189000Y-114180000D01*
X181189000Y-111420000D02*
X181189000Y-104393000D01*
X181149000Y-121191000D02*
X181149000Y-114180000D01*
X181149000Y-111420000D02*
X181149000Y-104409000D01*
X181109000Y-121174000D02*
X181109000Y-114180000D01*
X181109000Y-111420000D02*
X181109000Y-104426000D01*
X181069000Y-121158000D02*
X181069000Y-114180000D01*
X181069000Y-111420000D02*
X181069000Y-104442000D01*
X181029000Y-121141000D02*
X181029000Y-114180000D01*
X181029000Y-111420000D02*
X181029000Y-104459000D01*
X180989000Y-121124000D02*
X180989000Y-114180000D01*
X180989000Y-111420000D02*
X180989000Y-104476000D01*
X180949000Y-121107000D02*
X180949000Y-114180000D01*
X180949000Y-111420000D02*
X180949000Y-104493000D01*
X180909000Y-121090000D02*
X180909000Y-114180000D01*
X180909000Y-111420000D02*
X180909000Y-104510000D01*
X180869000Y-121072000D02*
X180869000Y-114180000D01*
X180869000Y-111420000D02*
X180869000Y-104528000D01*
X180829000Y-121054000D02*
X180829000Y-114180000D01*
X180829000Y-111420000D02*
X180829000Y-104546000D01*
X180789000Y-121036000D02*
X180789000Y-114180000D01*
X180789000Y-111420000D02*
X180789000Y-104564000D01*
X180749000Y-121018000D02*
X180749000Y-114180000D01*
X180749000Y-111420000D02*
X180749000Y-104582000D01*
X180709000Y-121000000D02*
X180709000Y-114180000D01*
X180709000Y-111420000D02*
X180709000Y-104600000D01*
X180669000Y-120981000D02*
X180669000Y-114180000D01*
X180669000Y-111420000D02*
X180669000Y-104619000D01*
X180629000Y-120962000D02*
X180629000Y-114180000D01*
X180629000Y-111420000D02*
X180629000Y-104638000D01*
X180589000Y-120943000D02*
X180589000Y-114180000D01*
X180589000Y-111420000D02*
X180589000Y-104657000D01*
X180549000Y-120923000D02*
X180549000Y-114180000D01*
X180549000Y-111420000D02*
X180549000Y-104677000D01*
X180509000Y-120903000D02*
X180509000Y-114180000D01*
X180509000Y-111420000D02*
X180509000Y-104697000D01*
X180469000Y-120883000D02*
X180469000Y-114180000D01*
X180469000Y-111420000D02*
X180469000Y-104717000D01*
X180429000Y-120863000D02*
X180429000Y-114180000D01*
X180429000Y-111420000D02*
X180429000Y-104737000D01*
X180389000Y-120843000D02*
X180389000Y-114180000D01*
X180389000Y-111420000D02*
X180389000Y-104757000D01*
X180349000Y-120822000D02*
X180349000Y-114180000D01*
X180349000Y-111420000D02*
X180349000Y-104778000D01*
X180309000Y-120801000D02*
X180309000Y-114180000D01*
X180309000Y-111420000D02*
X180309000Y-104799000D01*
X180269000Y-120780000D02*
X180269000Y-114180000D01*
X180269000Y-111420000D02*
X180269000Y-104820000D01*
X180229000Y-120758000D02*
X180229000Y-114180000D01*
X180229000Y-111420000D02*
X180229000Y-104842000D01*
X180189000Y-120737000D02*
X180189000Y-114180000D01*
X180189000Y-111420000D02*
X180189000Y-104863000D01*
X180149000Y-120715000D02*
X180149000Y-114180000D01*
X180149000Y-111420000D02*
X180149000Y-104885000D01*
X180109000Y-120692000D02*
X180109000Y-114180000D01*
X180109000Y-111420000D02*
X180109000Y-104908000D01*
X180069000Y-120670000D02*
X180069000Y-114180000D01*
X180069000Y-111420000D02*
X180069000Y-104930000D01*
X180029000Y-120647000D02*
X180029000Y-114180000D01*
X180029000Y-111420000D02*
X180029000Y-104953000D01*
X179989000Y-120624000D02*
X179989000Y-114180000D01*
X179989000Y-111420000D02*
X179989000Y-104976000D01*
X179949000Y-120601000D02*
X179949000Y-114180000D01*
X179949000Y-111420000D02*
X179949000Y-104999000D01*
X179909000Y-120577000D02*
X179909000Y-114180000D01*
X179909000Y-111420000D02*
X179909000Y-105023000D01*
X179869000Y-120553000D02*
X179869000Y-114180000D01*
X179869000Y-111420000D02*
X179869000Y-105047000D01*
X179829000Y-120529000D02*
X179829000Y-114180000D01*
X179829000Y-111420000D02*
X179829000Y-105071000D01*
X179789000Y-120505000D02*
X179789000Y-114180000D01*
X179789000Y-111420000D02*
X179789000Y-105095000D01*
X179749000Y-120480000D02*
X179749000Y-114180000D01*
X179749000Y-111420000D02*
X179749000Y-105120000D01*
X179709000Y-120455000D02*
X179709000Y-114180000D01*
X179709000Y-111420000D02*
X179709000Y-105145000D01*
X179669000Y-120430000D02*
X179669000Y-114180000D01*
X179669000Y-111420000D02*
X179669000Y-105170000D01*
X179629000Y-120404000D02*
X179629000Y-114180000D01*
X179629000Y-111420000D02*
X179629000Y-105196000D01*
X179589000Y-120378000D02*
X179589000Y-114180000D01*
X179589000Y-111420000D02*
X179589000Y-105222000D01*
X179549000Y-120352000D02*
X179549000Y-114180000D01*
X179549000Y-111420000D02*
X179549000Y-105248000D01*
X179509000Y-120325000D02*
X179509000Y-114180000D01*
X179509000Y-111420000D02*
X179509000Y-105275000D01*
X179469000Y-120299000D02*
X179469000Y-114180000D01*
X179469000Y-111420000D02*
X179469000Y-105301000D01*
X179429000Y-120271000D02*
X179429000Y-114180000D01*
X179429000Y-111420000D02*
X179429000Y-105329000D01*
X179389000Y-120244000D02*
X179389000Y-105356000D01*
X179349000Y-120216000D02*
X179349000Y-105384000D01*
X179309000Y-120188000D02*
X179309000Y-105412000D01*
X179269000Y-120160000D02*
X179269000Y-105440000D01*
X179229000Y-120131000D02*
X179229000Y-105469000D01*
X179189000Y-120102000D02*
X179189000Y-105498000D01*
X179149000Y-120073000D02*
X179149000Y-105527000D01*
X179109000Y-120043000D02*
X179109000Y-105557000D01*
X179069000Y-120013000D02*
X179069000Y-105587000D01*
X179029000Y-119983000D02*
X179029000Y-105617000D01*
X178989000Y-119952000D02*
X178989000Y-105648000D01*
X178949000Y-119921000D02*
X178949000Y-105679000D01*
X178909000Y-119889000D02*
X178909000Y-105711000D01*
X178869000Y-119857000D02*
X178869000Y-105743000D01*
X178829000Y-119825000D02*
X178829000Y-105775000D01*
X178789000Y-119793000D02*
X178789000Y-105807000D01*
X178749000Y-119760000D02*
X178749000Y-105840000D01*
X178709000Y-119726000D02*
X178709000Y-105874000D01*
X178669000Y-119693000D02*
X178669000Y-105907000D01*
X178629000Y-119658000D02*
X178629000Y-105942000D01*
X178589000Y-119624000D02*
X178589000Y-105976000D01*
X178549000Y-119589000D02*
X178549000Y-106011000D01*
X178509000Y-119554000D02*
X178509000Y-106046000D01*
X178469000Y-119518000D02*
X178469000Y-106082000D01*
X178429000Y-119482000D02*
X178429000Y-106118000D01*
X178389000Y-119445000D02*
X178389000Y-106155000D01*
X178349000Y-119408000D02*
X178349000Y-106192000D01*
X178309000Y-119370000D02*
X178309000Y-106230000D01*
X178269000Y-119332000D02*
X178269000Y-106268000D01*
X178229000Y-119294000D02*
X178229000Y-106306000D01*
X178189000Y-119255000D02*
X178189000Y-106345000D01*
X178149000Y-119216000D02*
X178149000Y-106384000D01*
X178109000Y-119176000D02*
X178109000Y-106424000D01*
X178069000Y-119135000D02*
X178069000Y-106465000D01*
X178029000Y-119094000D02*
X178029000Y-106506000D01*
X177989000Y-119053000D02*
X177989000Y-106547000D01*
X177949000Y-119011000D02*
X177949000Y-106589000D01*
X177909000Y-118968000D02*
X177909000Y-106632000D01*
X177869000Y-118925000D02*
X177869000Y-106675000D01*
X177829000Y-118882000D02*
X177829000Y-106718000D01*
X177789000Y-118838000D02*
X177789000Y-106762000D01*
X177749000Y-118793000D02*
X177749000Y-106807000D01*
X177709000Y-118747000D02*
X177709000Y-106853000D01*
X177669000Y-118701000D02*
X177669000Y-106899000D01*
X177629000Y-118655000D02*
X177629000Y-106945000D01*
X177589000Y-118607000D02*
X177589000Y-106993000D01*
X177549000Y-118559000D02*
X177549000Y-107041000D01*
X177509000Y-118511000D02*
X177509000Y-107089000D01*
X177469000Y-118462000D02*
X177469000Y-107138000D01*
X177429000Y-118411000D02*
X177429000Y-107189000D01*
X177389000Y-118361000D02*
X177389000Y-107239000D01*
X177349000Y-118309000D02*
X177349000Y-107291000D01*
X177309000Y-118257000D02*
X177309000Y-107343000D01*
X177269000Y-118204000D02*
X177269000Y-107396000D01*
X177229000Y-118150000D02*
X177229000Y-107450000D01*
X177189000Y-118095000D02*
X177189000Y-107505000D01*
X177149000Y-118040000D02*
X177149000Y-107560000D01*
X177109000Y-117983000D02*
X177109000Y-107617000D01*
X177069000Y-117926000D02*
X177069000Y-107674000D01*
X177029000Y-117867000D02*
X177029000Y-107733000D01*
X176989000Y-117808000D02*
X176989000Y-107792000D01*
X176949000Y-117747000D02*
X176949000Y-107853000D01*
X176909000Y-117686000D02*
X176909000Y-107914000D01*
X176869000Y-117623000D02*
X176869000Y-107977000D01*
X176829000Y-117559000D02*
X176829000Y-108041000D01*
X176789000Y-117494000D02*
X176789000Y-108106000D01*
X176749000Y-117428000D02*
X176749000Y-108172000D01*
X176709000Y-117361000D02*
X176709000Y-108239000D01*
X176669000Y-117292000D02*
X176669000Y-108308000D01*
X176629000Y-117222000D02*
X176629000Y-108378000D01*
X176589000Y-117150000D02*
X176589000Y-108450000D01*
X176549000Y-117077000D02*
X176549000Y-108523000D01*
X176509000Y-117002000D02*
X176509000Y-108598000D01*
X176469000Y-116925000D02*
X176469000Y-108675000D01*
X176429000Y-116846000D02*
X176429000Y-108754000D01*
X176389000Y-116766000D02*
X176389000Y-108834000D01*
X176350000Y-116683000D02*
X176350000Y-108917000D01*
X176310000Y-116599000D02*
X176310000Y-109001000D01*
X176270000Y-116511000D02*
X176270000Y-109089000D01*
X176230000Y-116422000D02*
X176230000Y-109178000D01*
X176190000Y-116330000D02*
X176190000Y-109270000D01*
X176150000Y-116234000D02*
X176150000Y-109366000D01*
X176110000Y-116136000D02*
X176110000Y-109464000D01*
X176070000Y-116034000D02*
X176070000Y-109566000D01*
X176030000Y-115929000D02*
X176030000Y-109671000D01*
X175990000Y-115819000D02*
X175990000Y-109781000D01*
X175950000Y-115705000D02*
X175950000Y-109895000D01*
X175910000Y-115585000D02*
X175910000Y-110015000D01*
X175870000Y-115460000D02*
X175870000Y-110140000D01*
X175830000Y-115328000D02*
X175830000Y-110272000D01*
X175790000Y-115188000D02*
X175790000Y-110412000D01*
X175750000Y-115038000D02*
X175750000Y-110562000D01*
X175710000Y-114878000D02*
X175710000Y-110722000D01*
X175670000Y-114703000D02*
X175670000Y-110897000D01*
X175630000Y-114510000D02*
X175630000Y-111090000D01*
X175590000Y-114292000D02*
X175590000Y-111308000D01*
X175550000Y-114036000D02*
X175550000Y-111564000D01*
X175510000Y-113713000D02*
X175510000Y-111887000D01*
X175470000Y-113187000D02*
X175470000Y-112413000D01*
X191500000Y-112800000D02*
X189700000Y-112800000D01*
X190600000Y-113700000D02*
X190600000Y-111900000D01*
X166820000Y-43140000D02*
X156660000Y-43140000D01*
X166820000Y-44410000D02*
X166820000Y-36790000D01*
X166820000Y-36790000D02*
X156660000Y-36790000D01*
X156660000Y-36790000D02*
X156660000Y-44410000D01*
X156660000Y-44410000D02*
X166820000Y-44410000D01*
X179820000Y-43140000D02*
X169660000Y-43140000D01*
X179820000Y-44410000D02*
X179820000Y-36790000D01*
X179820000Y-36790000D02*
X169660000Y-36790000D01*
X169660000Y-36790000D02*
X169660000Y-44410000D01*
X169660000Y-44410000D02*
X179820000Y-44410000D01*
X166820000Y-53640000D02*
X156660000Y-53640000D01*
X166820000Y-54910000D02*
X166820000Y-47290000D01*
X166820000Y-47290000D02*
X156660000Y-47290000D01*
X156660000Y-47290000D02*
X156660000Y-54910000D01*
X156660000Y-54910000D02*
X166820000Y-54910000D01*
X179920000Y-54240000D02*
X169760000Y-54240000D01*
X179920000Y-55510000D02*
X179920000Y-47890000D01*
X179920000Y-47890000D02*
X169760000Y-47890000D01*
X169760000Y-47890000D02*
X169760000Y-55510000D01*
X169760000Y-55510000D02*
X179920000Y-55510000D01*
X193520000Y-54440000D02*
X183360000Y-54440000D01*
X193520000Y-55710000D02*
X193520000Y-48090000D01*
X193520000Y-48090000D02*
X183360000Y-48090000D01*
X183360000Y-48090000D02*
X183360000Y-55710000D01*
X183360000Y-55710000D02*
X193520000Y-55710000D01*
X178920000Y-67140000D02*
X168760000Y-67140000D01*
X178920000Y-68410000D02*
X178920000Y-60790000D01*
X178920000Y-60790000D02*
X168760000Y-60790000D01*
X168760000Y-60790000D02*
X168760000Y-68410000D01*
X168760000Y-68410000D02*
X178920000Y-68410000D01*
X154580000Y-127460000D02*
X164740000Y-127460000D01*
X154580000Y-126190000D02*
X154580000Y-133810000D01*
X154580000Y-133810000D02*
X164740000Y-133810000D01*
X164740000Y-133810000D02*
X164740000Y-126190000D01*
X164740000Y-126190000D02*
X154580000Y-126190000D01*
X165180000Y-127460000D02*
X175340000Y-127460000D01*
X165180000Y-126190000D02*
X165180000Y-133810000D01*
X165180000Y-133810000D02*
X175340000Y-133810000D01*
X175340000Y-133810000D02*
X175340000Y-126190000D01*
X175340000Y-126190000D02*
X165180000Y-126190000D01*
X175780000Y-127460000D02*
X185940000Y-127460000D01*
X175780000Y-126190000D02*
X175780000Y-133810000D01*
X175780000Y-133810000D02*
X185940000Y-133810000D01*
X185940000Y-133810000D02*
X185940000Y-126190000D01*
X185940000Y-126190000D02*
X175780000Y-126190000D01*
X189600000Y-87650000D02*
X189600000Y-81150000D01*
X193030000Y-87740000D02*
X193030000Y-90660000D01*
X193030000Y-97270000D02*
X193030000Y-93460000D01*
X192140000Y-96500000D02*
X192140000Y-93710000D01*
X192140000Y-87740000D02*
X192140000Y-90410000D01*
X186170000Y-97270000D02*
X186170000Y-93460000D01*
X187060000Y-96500000D02*
X187060000Y-93710000D01*
X186170000Y-87740000D02*
X186170000Y-90660000D01*
X187060000Y-87740000D02*
X187060000Y-90410000D01*
X186170000Y-81190000D02*
X186170000Y-78140000D01*
X187060000Y-81190000D02*
X187060000Y-78390000D01*
X192140000Y-81190000D02*
X192140000Y-78390000D01*
X193030000Y-81190000D02*
X193030000Y-78140000D01*
X193030000Y-71530000D02*
X193030000Y-75340000D01*
X192140000Y-72420000D02*
X192140000Y-75090000D01*
X186170000Y-71530000D02*
X186170000Y-75340000D01*
X187060000Y-72420000D02*
X187060000Y-75090000D01*
X186170000Y-71530000D02*
X193030000Y-71530000D01*
X193030000Y-81190000D02*
X192140000Y-81190000D01*
X186170000Y-81190000D02*
X187060000Y-81190000D01*
X186170000Y-97270000D02*
X193030000Y-97270000D01*
X193030000Y-87740000D02*
X192140000Y-87740000D01*
X186170000Y-87740000D02*
X187190000Y-87740000D01*
X192140000Y-78690000D02*
X192140000Y-90370000D01*
X187060000Y-90240000D02*
X187060000Y-78690000D01*
X189600000Y-87740000D02*
X187060000Y-87740000D01*
X187060000Y-96510000D02*
X192140000Y-96510000D01*
X192140000Y-87740000D02*
X189600000Y-87740000D01*
X189600000Y-81190000D02*
X187060000Y-81190000D01*
X187060000Y-72430000D02*
X192140000Y-72430000D01*
X192140000Y-81190000D02*
X189600000Y-81190000D01*
D13*
X169490477Y-72728571D02*
X169633334Y-72776190D01*
X169680953Y-72823810D01*
X169728572Y-72919048D01*
X169728572Y-73061905D01*
X169680953Y-73157143D01*
X169633334Y-73204762D01*
X169538096Y-73252381D01*
X169157143Y-73252381D01*
X169157143Y-72252381D01*
X169490477Y-72252381D01*
X169585715Y-72300000D01*
X169633334Y-72347619D01*
X169680953Y-72442857D01*
X169680953Y-72538095D01*
X169633334Y-72633333D01*
X169585715Y-72680952D01*
X169490477Y-72728571D01*
X169157143Y-72728571D01*
X170157143Y-73252381D02*
X170157143Y-72585714D01*
X170157143Y-72776190D02*
X170204762Y-72680952D01*
X170252381Y-72633333D01*
X170347619Y-72585714D01*
X170442858Y-72585714D01*
X170776191Y-73252381D02*
X170776191Y-72585714D01*
X170776191Y-72252381D02*
X170728572Y-72300000D01*
X170776191Y-72347619D01*
X170823810Y-72300000D01*
X170776191Y-72252381D01*
X170776191Y-72347619D01*
X171680953Y-73252381D02*
X171680953Y-72252381D01*
X171680953Y-73204762D02*
X171585715Y-73252381D01*
X171395238Y-73252381D01*
X171300000Y-73204762D01*
X171252381Y-73157143D01*
X171204762Y-73061905D01*
X171204762Y-72776190D01*
X171252381Y-72680952D01*
X171300000Y-72633333D01*
X171395238Y-72585714D01*
X171585715Y-72585714D01*
X171680953Y-72633333D01*
X172585715Y-72585714D02*
X172585715Y-73395238D01*
X172538096Y-73490476D01*
X172490477Y-73538095D01*
X172395238Y-73585714D01*
X172252381Y-73585714D01*
X172157143Y-73538095D01*
X172585715Y-73204762D02*
X172490477Y-73252381D01*
X172300000Y-73252381D01*
X172204762Y-73204762D01*
X172157143Y-73157143D01*
X172109524Y-73061905D01*
X172109524Y-72776190D01*
X172157143Y-72680952D01*
X172204762Y-72633333D01*
X172300000Y-72585714D01*
X172490477Y-72585714D01*
X172585715Y-72633333D01*
X173442858Y-73204762D02*
X173347620Y-73252381D01*
X173157143Y-73252381D01*
X173061905Y-73204762D01*
X173014286Y-73109524D01*
X173014286Y-72728571D01*
X173061905Y-72633333D01*
X173157143Y-72585714D01*
X173347620Y-72585714D01*
X173442858Y-72633333D01*
X173490477Y-72728571D01*
X173490477Y-72823810D01*
X173014286Y-72919048D01*
X134433334Y-54857143D02*
X134385715Y-54904762D01*
X134242858Y-54952381D01*
X134147620Y-54952381D01*
X134004762Y-54904762D01*
X133909524Y-54809524D01*
X133861905Y-54714286D01*
X133814286Y-54523810D01*
X133814286Y-54380952D01*
X133861905Y-54190476D01*
X133909524Y-54095238D01*
X134004762Y-54000000D01*
X134147620Y-53952381D01*
X134242858Y-53952381D01*
X134385715Y-54000000D01*
X134433334Y-54047619D01*
X135385715Y-54952381D02*
X134814286Y-54952381D01*
X135100000Y-54952381D02*
X135100000Y-53952381D01*
X135004762Y-54095238D01*
X134909524Y-54190476D01*
X134814286Y-54238095D01*
X134233334Y-85857143D02*
X134185715Y-85904762D01*
X134042858Y-85952381D01*
X133947620Y-85952381D01*
X133804762Y-85904762D01*
X133709524Y-85809524D01*
X133661905Y-85714286D01*
X133614286Y-85523810D01*
X133614286Y-85380952D01*
X133661905Y-85190476D01*
X133709524Y-85095238D01*
X133804762Y-85000000D01*
X133947620Y-84952381D01*
X134042858Y-84952381D01*
X134185715Y-85000000D01*
X134233334Y-85047619D01*
X134614286Y-85047619D02*
X134661905Y-85000000D01*
X134757143Y-84952381D01*
X134995239Y-84952381D01*
X135090477Y-85000000D01*
X135138096Y-85047619D01*
X135185715Y-85142857D01*
X135185715Y-85238095D01*
X135138096Y-85380952D01*
X134566667Y-85952381D01*
X135185715Y-85952381D01*
X134333334Y-116857143D02*
X134285715Y-116904762D01*
X134142858Y-116952381D01*
X134047620Y-116952381D01*
X133904762Y-116904762D01*
X133809524Y-116809524D01*
X133761905Y-116714286D01*
X133714286Y-116523810D01*
X133714286Y-116380952D01*
X133761905Y-116190476D01*
X133809524Y-116095238D01*
X133904762Y-116000000D01*
X134047620Y-115952381D01*
X134142858Y-115952381D01*
X134285715Y-116000000D01*
X134333334Y-116047619D01*
X134666667Y-115952381D02*
X135285715Y-115952381D01*
X134952381Y-116333333D01*
X135095239Y-116333333D01*
X135190477Y-116380952D01*
X135238096Y-116428571D01*
X135285715Y-116523810D01*
X135285715Y-116761905D01*
X135238096Y-116857143D01*
X135190477Y-116904762D01*
X135095239Y-116952381D01*
X134809524Y-116952381D01*
X134714286Y-116904762D01*
X134666667Y-116857143D01*
X161433334Y-113157143D02*
X161385715Y-113204762D01*
X161242858Y-113252381D01*
X161147620Y-113252381D01*
X161004762Y-113204762D01*
X160909524Y-113109524D01*
X160861905Y-113014286D01*
X160814286Y-112823810D01*
X160814286Y-112680952D01*
X160861905Y-112490476D01*
X160909524Y-112395238D01*
X161004762Y-112300000D01*
X161147620Y-112252381D01*
X161242858Y-112252381D01*
X161385715Y-112300000D01*
X161433334Y-112347619D01*
X162290477Y-112585714D02*
X162290477Y-113252381D01*
X162052381Y-112204762D02*
X161814286Y-112919048D01*
X162433334Y-112919048D01*
X185533334Y-113157143D02*
X185485715Y-113204762D01*
X185342858Y-113252381D01*
X185247620Y-113252381D01*
X185104762Y-113204762D01*
X185009524Y-113109524D01*
X184961905Y-113014286D01*
X184914286Y-112823810D01*
X184914286Y-112680952D01*
X184961905Y-112490476D01*
X185009524Y-112395238D01*
X185104762Y-112300000D01*
X185247620Y-112252381D01*
X185342858Y-112252381D01*
X185485715Y-112300000D01*
X185533334Y-112347619D01*
X186438096Y-112252381D02*
X185961905Y-112252381D01*
X185914286Y-112728571D01*
X185961905Y-112680952D01*
X186057143Y-112633333D01*
X186295239Y-112633333D01*
X186390477Y-112680952D01*
X186438096Y-112728571D01*
X186485715Y-112823810D01*
X186485715Y-113061905D01*
X186438096Y-113157143D01*
X186390477Y-113204762D01*
X186295239Y-113252381D01*
X186057143Y-113252381D01*
X185961905Y-113204762D01*
X185914286Y-113157143D01*
X159454286Y-45846667D02*
X159930477Y-45846667D01*
X159359048Y-46132381D02*
X159692381Y-45132381D01*
X160025715Y-46132381D01*
X160930477Y-46037143D02*
X160882858Y-46084762D01*
X160740001Y-46132381D01*
X160644763Y-46132381D01*
X160501905Y-46084762D01*
X160406667Y-45989524D01*
X160359048Y-45894286D01*
X160311429Y-45703810D01*
X160311429Y-45560952D01*
X160359048Y-45370476D01*
X160406667Y-45275238D01*
X160501905Y-45180000D01*
X160644763Y-45132381D01*
X160740001Y-45132381D01*
X160882858Y-45180000D01*
X160930477Y-45227619D01*
X161882858Y-46132381D02*
X161311429Y-46132381D01*
X161597143Y-46132381D02*
X161597143Y-45132381D01*
X161501905Y-45275238D01*
X161406667Y-45370476D01*
X161311429Y-45418095D01*
X163073334Y-46132381D02*
X163073334Y-45465714D01*
X163073334Y-45132381D02*
X163025715Y-45180000D01*
X163073334Y-45227619D01*
X163120953Y-45180000D01*
X163073334Y-45132381D01*
X163073334Y-45227619D01*
X163549524Y-45465714D02*
X163549524Y-46132381D01*
X163549524Y-45560952D02*
X163597143Y-45513333D01*
X163692381Y-45465714D01*
X163835239Y-45465714D01*
X163930477Y-45513333D01*
X163978096Y-45608571D01*
X163978096Y-46132381D01*
X172454286Y-45846667D02*
X172930477Y-45846667D01*
X172359048Y-46132381D02*
X172692381Y-45132381D01*
X173025715Y-46132381D01*
X173930477Y-46037143D02*
X173882858Y-46084762D01*
X173740001Y-46132381D01*
X173644763Y-46132381D01*
X173501905Y-46084762D01*
X173406667Y-45989524D01*
X173359048Y-45894286D01*
X173311429Y-45703810D01*
X173311429Y-45560952D01*
X173359048Y-45370476D01*
X173406667Y-45275238D01*
X173501905Y-45180000D01*
X173644763Y-45132381D01*
X173740001Y-45132381D01*
X173882858Y-45180000D01*
X173930477Y-45227619D01*
X174311429Y-45227619D02*
X174359048Y-45180000D01*
X174454286Y-45132381D01*
X174692382Y-45132381D01*
X174787620Y-45180000D01*
X174835239Y-45227619D01*
X174882858Y-45322857D01*
X174882858Y-45418095D01*
X174835239Y-45560952D01*
X174263810Y-46132381D01*
X174882858Y-46132381D01*
X176073334Y-46132381D02*
X176073334Y-45465714D01*
X176073334Y-45132381D02*
X176025715Y-45180000D01*
X176073334Y-45227619D01*
X176120953Y-45180000D01*
X176073334Y-45132381D01*
X176073334Y-45227619D01*
X176549524Y-45465714D02*
X176549524Y-46132381D01*
X176549524Y-45560952D02*
X176597143Y-45513333D01*
X176692381Y-45465714D01*
X176835239Y-45465714D01*
X176930477Y-45513333D01*
X176978096Y-45608571D01*
X176978096Y-46132381D01*
X158454285Y-55632381D02*
X159025714Y-55632381D01*
X158739999Y-56632381D02*
X158739999Y-55632381D01*
X159359047Y-56632381D02*
X159359047Y-55965714D01*
X159359047Y-56156190D02*
X159406666Y-56060952D01*
X159454285Y-56013333D01*
X159549523Y-55965714D01*
X159644762Y-55965714D01*
X160406667Y-56632381D02*
X160406667Y-56108571D01*
X160359048Y-56013333D01*
X160263810Y-55965714D01*
X160073333Y-55965714D01*
X159978095Y-56013333D01*
X160406667Y-56584762D02*
X160311429Y-56632381D01*
X160073333Y-56632381D01*
X159978095Y-56584762D01*
X159930476Y-56489524D01*
X159930476Y-56394286D01*
X159978095Y-56299048D01*
X160073333Y-56251429D01*
X160311429Y-56251429D01*
X160406667Y-56203810D01*
X160882857Y-55965714D02*
X160882857Y-56632381D01*
X160882857Y-56060952D02*
X160930476Y-56013333D01*
X161025714Y-55965714D01*
X161168572Y-55965714D01*
X161263810Y-56013333D01*
X161311429Y-56108571D01*
X161311429Y-56632381D01*
X161740000Y-56584762D02*
X161835238Y-56632381D01*
X162025714Y-56632381D01*
X162120953Y-56584762D01*
X162168572Y-56489524D01*
X162168572Y-56441905D01*
X162120953Y-56346667D01*
X162025714Y-56299048D01*
X161882857Y-56299048D01*
X161787619Y-56251429D01*
X161740000Y-56156190D01*
X161740000Y-56108571D01*
X161787619Y-56013333D01*
X161882857Y-55965714D01*
X162025714Y-55965714D01*
X162120953Y-56013333D01*
X162454286Y-55965714D02*
X162835238Y-55965714D01*
X162597143Y-56632381D02*
X162597143Y-55775238D01*
X162644762Y-55680000D01*
X162740000Y-55632381D01*
X162835238Y-55632381D01*
X163168572Y-56537143D02*
X163216191Y-56584762D01*
X163168572Y-56632381D01*
X163120953Y-56584762D01*
X163168572Y-56537143D01*
X163168572Y-56632381D01*
X164930477Y-56632381D02*
X164359048Y-56632381D01*
X164644762Y-56632381D02*
X164644762Y-55632381D01*
X164549524Y-55775238D01*
X164454286Y-55870476D01*
X164359048Y-55918095D01*
X171554285Y-56232381D02*
X172125714Y-56232381D01*
X171839999Y-57232381D02*
X171839999Y-56232381D01*
X172459047Y-57232381D02*
X172459047Y-56565714D01*
X172459047Y-56756190D02*
X172506666Y-56660952D01*
X172554285Y-56613333D01*
X172649523Y-56565714D01*
X172744762Y-56565714D01*
X173506667Y-57232381D02*
X173506667Y-56708571D01*
X173459048Y-56613333D01*
X173363810Y-56565714D01*
X173173333Y-56565714D01*
X173078095Y-56613333D01*
X173506667Y-57184762D02*
X173411429Y-57232381D01*
X173173333Y-57232381D01*
X173078095Y-57184762D01*
X173030476Y-57089524D01*
X173030476Y-56994286D01*
X173078095Y-56899048D01*
X173173333Y-56851429D01*
X173411429Y-56851429D01*
X173506667Y-56803810D01*
X173982857Y-56565714D02*
X173982857Y-57232381D01*
X173982857Y-56660952D02*
X174030476Y-56613333D01*
X174125714Y-56565714D01*
X174268572Y-56565714D01*
X174363810Y-56613333D01*
X174411429Y-56708571D01*
X174411429Y-57232381D01*
X174840000Y-57184762D02*
X174935238Y-57232381D01*
X175125714Y-57232381D01*
X175220953Y-57184762D01*
X175268572Y-57089524D01*
X175268572Y-57041905D01*
X175220953Y-56946667D01*
X175125714Y-56899048D01*
X174982857Y-56899048D01*
X174887619Y-56851429D01*
X174840000Y-56756190D01*
X174840000Y-56708571D01*
X174887619Y-56613333D01*
X174982857Y-56565714D01*
X175125714Y-56565714D01*
X175220953Y-56613333D01*
X175554286Y-56565714D02*
X175935238Y-56565714D01*
X175697143Y-57232381D02*
X175697143Y-56375238D01*
X175744762Y-56280000D01*
X175840000Y-56232381D01*
X175935238Y-56232381D01*
X176268572Y-57137143D02*
X176316191Y-57184762D01*
X176268572Y-57232381D01*
X176220953Y-57184762D01*
X176268572Y-57137143D01*
X176268572Y-57232381D01*
X177459048Y-56327619D02*
X177506667Y-56280000D01*
X177601905Y-56232381D01*
X177840001Y-56232381D01*
X177935239Y-56280000D01*
X177982858Y-56327619D01*
X178030477Y-56422857D01*
X178030477Y-56518095D01*
X177982858Y-56660952D01*
X177411429Y-57232381D01*
X178030477Y-57232381D01*
X184273333Y-56432381D02*
X184844762Y-56432381D01*
X184559047Y-57432381D02*
X184559047Y-56432381D01*
X185178095Y-57432381D02*
X185178095Y-56765714D01*
X185178095Y-56956190D02*
X185225714Y-56860952D01*
X185273333Y-56813333D01*
X185368571Y-56765714D01*
X185463810Y-56765714D01*
X186225715Y-57432381D02*
X186225715Y-56908571D01*
X186178096Y-56813333D01*
X186082858Y-56765714D01*
X185892381Y-56765714D01*
X185797143Y-56813333D01*
X186225715Y-57384762D02*
X186130477Y-57432381D01*
X185892381Y-57432381D01*
X185797143Y-57384762D01*
X185749524Y-57289524D01*
X185749524Y-57194286D01*
X185797143Y-57099048D01*
X185892381Y-57051429D01*
X186130477Y-57051429D01*
X186225715Y-57003810D01*
X186701905Y-56765714D02*
X186701905Y-57432381D01*
X186701905Y-56860952D02*
X186749524Y-56813333D01*
X186844762Y-56765714D01*
X186987620Y-56765714D01*
X187082858Y-56813333D01*
X187130477Y-56908571D01*
X187130477Y-57432381D01*
X187559048Y-57384762D02*
X187654286Y-57432381D01*
X187844762Y-57432381D01*
X187940001Y-57384762D01*
X187987620Y-57289524D01*
X187987620Y-57241905D01*
X187940001Y-57146667D01*
X187844762Y-57099048D01*
X187701905Y-57099048D01*
X187606667Y-57051429D01*
X187559048Y-56956190D01*
X187559048Y-56908571D01*
X187606667Y-56813333D01*
X187701905Y-56765714D01*
X187844762Y-56765714D01*
X187940001Y-56813333D01*
X188273334Y-56765714D02*
X188654286Y-56765714D01*
X188416191Y-57432381D02*
X188416191Y-56575238D01*
X188463810Y-56480000D01*
X188559048Y-56432381D01*
X188654286Y-56432381D01*
X188987620Y-57337143D02*
X189035239Y-57384762D01*
X188987620Y-57432381D01*
X188940001Y-57384762D01*
X188987620Y-57337143D01*
X188987620Y-57432381D01*
X190368572Y-57432381D02*
X190273334Y-57384762D01*
X190225715Y-57289524D01*
X190225715Y-56432381D01*
X190749525Y-57432381D02*
X190749525Y-56765714D01*
X190749525Y-56432381D02*
X190701906Y-56480000D01*
X190749525Y-56527619D01*
X190797144Y-56480000D01*
X190749525Y-56432381D01*
X190749525Y-56527619D01*
X191225715Y-56765714D02*
X191225715Y-57432381D01*
X191225715Y-56860952D02*
X191273334Y-56813333D01*
X191368572Y-56765714D01*
X191511430Y-56765714D01*
X191606668Y-56813333D01*
X191654287Y-56908571D01*
X191654287Y-57432381D01*
X192130477Y-57432381D02*
X192130477Y-56432381D01*
X192225715Y-57051429D02*
X192511430Y-57432381D01*
X192511430Y-56765714D02*
X192130477Y-57146667D01*
X169839999Y-69132381D02*
X170411428Y-69132381D01*
X170125713Y-70132381D02*
X170125713Y-69132381D01*
X170744761Y-70132381D02*
X170744761Y-69465714D01*
X170744761Y-69656190D02*
X170792380Y-69560952D01*
X170839999Y-69513333D01*
X170935237Y-69465714D01*
X171030476Y-69465714D01*
X171792381Y-70132381D02*
X171792381Y-69608571D01*
X171744762Y-69513333D01*
X171649524Y-69465714D01*
X171459047Y-69465714D01*
X171363809Y-69513333D01*
X171792381Y-70084762D02*
X171697143Y-70132381D01*
X171459047Y-70132381D01*
X171363809Y-70084762D01*
X171316190Y-69989524D01*
X171316190Y-69894286D01*
X171363809Y-69799048D01*
X171459047Y-69751429D01*
X171697143Y-69751429D01*
X171792381Y-69703810D01*
X172268571Y-69465714D02*
X172268571Y-70132381D01*
X172268571Y-69560952D02*
X172316190Y-69513333D01*
X172411428Y-69465714D01*
X172554286Y-69465714D01*
X172649524Y-69513333D01*
X172697143Y-69608571D01*
X172697143Y-70132381D01*
X173125714Y-70084762D02*
X173220952Y-70132381D01*
X173411428Y-70132381D01*
X173506667Y-70084762D01*
X173554286Y-69989524D01*
X173554286Y-69941905D01*
X173506667Y-69846667D01*
X173411428Y-69799048D01*
X173268571Y-69799048D01*
X173173333Y-69751429D01*
X173125714Y-69656190D01*
X173125714Y-69608571D01*
X173173333Y-69513333D01*
X173268571Y-69465714D01*
X173411428Y-69465714D01*
X173506667Y-69513333D01*
X173840000Y-69465714D02*
X174220952Y-69465714D01*
X173982857Y-70132381D02*
X173982857Y-69275238D01*
X174030476Y-69180000D01*
X174125714Y-69132381D01*
X174220952Y-69132381D01*
X174554286Y-70037143D02*
X174601905Y-70084762D01*
X174554286Y-70132381D01*
X174506667Y-70084762D01*
X174554286Y-70037143D01*
X174554286Y-70132381D01*
X175935238Y-70132381D02*
X175840000Y-70084762D01*
X175792381Y-70037143D01*
X175744762Y-69941905D01*
X175744762Y-69656190D01*
X175792381Y-69560952D01*
X175840000Y-69513333D01*
X175935238Y-69465714D01*
X176078096Y-69465714D01*
X176173334Y-69513333D01*
X176220953Y-69560952D01*
X176268572Y-69656190D01*
X176268572Y-69941905D01*
X176220953Y-70037143D01*
X176173334Y-70084762D01*
X176078096Y-70132381D01*
X175935238Y-70132381D01*
X177125715Y-69465714D02*
X177125715Y-70132381D01*
X176697143Y-69465714D02*
X176697143Y-69989524D01*
X176744762Y-70084762D01*
X176840000Y-70132381D01*
X176982858Y-70132381D01*
X177078096Y-70084762D01*
X177125715Y-70037143D01*
X177459048Y-69465714D02*
X177840000Y-69465714D01*
X177601905Y-69132381D02*
X177601905Y-69989524D01*
X177649524Y-70084762D01*
X177744762Y-70132381D01*
X177840000Y-70132381D01*
X155945714Y-125324762D02*
X156088571Y-125372381D01*
X156326667Y-125372381D01*
X156421905Y-125324762D01*
X156469524Y-125277143D01*
X156517143Y-125181905D01*
X156517143Y-125086667D01*
X156469524Y-124991429D01*
X156421905Y-124943810D01*
X156326667Y-124896190D01*
X156136190Y-124848571D01*
X156040952Y-124800952D01*
X155993333Y-124753333D01*
X155945714Y-124658095D01*
X155945714Y-124562857D01*
X155993333Y-124467619D01*
X156040952Y-124420000D01*
X156136190Y-124372381D01*
X156374286Y-124372381D01*
X156517143Y-124420000D01*
X157326667Y-125324762D02*
X157231429Y-125372381D01*
X157040952Y-125372381D01*
X156945714Y-125324762D01*
X156898095Y-125229524D01*
X156898095Y-124848571D01*
X156945714Y-124753333D01*
X157040952Y-124705714D01*
X157231429Y-124705714D01*
X157326667Y-124753333D01*
X157374286Y-124848571D01*
X157374286Y-124943810D01*
X156898095Y-125039048D01*
X157802857Y-125372381D02*
X157802857Y-124705714D01*
X157802857Y-124896190D02*
X157850476Y-124800952D01*
X157898095Y-124753333D01*
X157993333Y-124705714D01*
X158088572Y-124705714D01*
X158421905Y-125372381D02*
X158421905Y-124705714D01*
X158421905Y-124372381D02*
X158374286Y-124420000D01*
X158421905Y-124467619D01*
X158469524Y-124420000D01*
X158421905Y-124372381D01*
X158421905Y-124467619D01*
X159326667Y-125372381D02*
X159326667Y-124848571D01*
X159279048Y-124753333D01*
X159183810Y-124705714D01*
X158993333Y-124705714D01*
X158898095Y-124753333D01*
X159326667Y-125324762D02*
X159231429Y-125372381D01*
X158993333Y-125372381D01*
X158898095Y-125324762D01*
X158850476Y-125229524D01*
X158850476Y-125134286D01*
X158898095Y-125039048D01*
X158993333Y-124991429D01*
X159231429Y-124991429D01*
X159326667Y-124943810D01*
X159945714Y-125372381D02*
X159850476Y-125324762D01*
X159802857Y-125229524D01*
X159802857Y-124372381D01*
X161231429Y-125372381D02*
X161136191Y-125324762D01*
X161088572Y-125229524D01*
X161088572Y-124372381D01*
X161612382Y-125372381D02*
X161612382Y-124705714D01*
X161612382Y-124372381D02*
X161564763Y-124420000D01*
X161612382Y-124467619D01*
X161660001Y-124420000D01*
X161612382Y-124372381D01*
X161612382Y-124467619D01*
X162088572Y-124705714D02*
X162088572Y-125372381D01*
X162088572Y-124800952D02*
X162136191Y-124753333D01*
X162231429Y-124705714D01*
X162374287Y-124705714D01*
X162469525Y-124753333D01*
X162517144Y-124848571D01*
X162517144Y-125372381D01*
X162993334Y-125372381D02*
X162993334Y-124372381D01*
X163088572Y-124991429D02*
X163374287Y-125372381D01*
X163374287Y-124705714D02*
X162993334Y-125086667D01*
X168688571Y-125372381D02*
X168688571Y-124372381D01*
X168926666Y-124372381D01*
X169069524Y-124420000D01*
X169164762Y-124515238D01*
X169212381Y-124610476D01*
X169260000Y-124800952D01*
X169260000Y-124943810D01*
X169212381Y-125134286D01*
X169164762Y-125229524D01*
X169069524Y-125324762D01*
X168926666Y-125372381D01*
X168688571Y-125372381D01*
X170260000Y-125277143D02*
X170212381Y-125324762D01*
X170069524Y-125372381D01*
X169974286Y-125372381D01*
X169831428Y-125324762D01*
X169736190Y-125229524D01*
X169688571Y-125134286D01*
X169640952Y-124943810D01*
X169640952Y-124800952D01*
X169688571Y-124610476D01*
X169736190Y-124515238D01*
X169831428Y-124420000D01*
X169974286Y-124372381D01*
X170069524Y-124372381D01*
X170212381Y-124420000D01*
X170260000Y-124467619D01*
X170450476Y-125467619D02*
X171212381Y-125467619D01*
X171402857Y-125086667D02*
X171879048Y-125086667D01*
X171307619Y-125372381D02*
X171640952Y-124372381D01*
X171974286Y-125372381D01*
X179217143Y-125372381D02*
X179217143Y-124372381D01*
X179455238Y-124372381D01*
X179598096Y-124420000D01*
X179693334Y-124515238D01*
X179740953Y-124610476D01*
X179788572Y-124800952D01*
X179788572Y-124943810D01*
X179740953Y-125134286D01*
X179693334Y-125229524D01*
X179598096Y-125324762D01*
X179455238Y-125372381D01*
X179217143Y-125372381D01*
X180788572Y-125277143D02*
X180740953Y-125324762D01*
X180598096Y-125372381D01*
X180502858Y-125372381D01*
X180360000Y-125324762D01*
X180264762Y-125229524D01*
X180217143Y-125134286D01*
X180169524Y-124943810D01*
X180169524Y-124800952D01*
X180217143Y-124610476D01*
X180264762Y-124515238D01*
X180360000Y-124420000D01*
X180502858Y-124372381D01*
X180598096Y-124372381D01*
X180740953Y-124420000D01*
X180788572Y-124467619D01*
X180979048Y-125467619D02*
X181740953Y-125467619D01*
X182312382Y-124848571D02*
X182455239Y-124896190D01*
X182502858Y-124943810D01*
X182550477Y-125039048D01*
X182550477Y-125181905D01*
X182502858Y-125277143D01*
X182455239Y-125324762D01*
X182360001Y-125372381D01*
X181979048Y-125372381D01*
X181979048Y-124372381D01*
X182312382Y-124372381D01*
X182407620Y-124420000D01*
X182455239Y-124467619D01*
X182502858Y-124562857D01*
X182502858Y-124658095D01*
X182455239Y-124753333D01*
X182407620Y-124800952D01*
X182312382Y-124848571D01*
X181979048Y-124848571D01*
X188328571Y-85442857D02*
X188328571Y-85776191D01*
X188852381Y-85776191D02*
X187852381Y-85776191D01*
X187852381Y-85300000D01*
X188185714Y-84490476D02*
X188852381Y-84490476D01*
X188185714Y-84919048D02*
X188709524Y-84919048D01*
X188804762Y-84871429D01*
X188852381Y-84776191D01*
X188852381Y-84633333D01*
X188804762Y-84538095D01*
X188757143Y-84490476D01*
X188804762Y-84061905D02*
X188852381Y-83966667D01*
X188852381Y-83776191D01*
X188804762Y-83680952D01*
X188709524Y-83633333D01*
X188661905Y-83633333D01*
X188566667Y-83680952D01*
X188519048Y-83776191D01*
X188519048Y-83919048D01*
X188471429Y-84014286D01*
X188376190Y-84061905D01*
X188328571Y-84061905D01*
X188233333Y-84014286D01*
X188185714Y-83919048D01*
X188185714Y-83776191D01*
X188233333Y-83680952D01*
X188804762Y-82823809D02*
X188852381Y-82919047D01*
X188852381Y-83109524D01*
X188804762Y-83204762D01*
X188709524Y-83252381D01*
X188328571Y-83252381D01*
X188233333Y-83204762D01*
X188185714Y-83109524D01*
X188185714Y-82919047D01*
X188233333Y-82823809D01*
X188328571Y-82776190D01*
X188423810Y-82776190D01*
X188519048Y-83252381D01*
M02*
