M48
;DRILL file {KiCad 4.0.7} date 03/19/18 23:09:57
;FORMAT={-:-/ absolute / metric / decimal}
FMAT,2
METRIC,TZ
T1C1.200
T2C1.250
T3C1.350
T4C1.520
T5C2.000
T6C3.200
%
G90
G05
M71
T1
X180.8Y-112.8
X188.3Y-112.8
T2
X160.2Y-75.8
X160.2Y-93.9
X171.6Y-75.8
X178.3Y-93.9
T3
X187.04Y-79.74
X187.06Y-89.06
X189.6Y-74.7
X189.6Y-94.1
X192.15Y-79.74
X192.16Y-89.06
T4
X157.12Y-130.
X159.2Y-40.6
X159.2Y-51.1
X162.2Y-130.
X164.28Y-40.6
X164.28Y-51.1
X167.72Y-130.
X171.3Y-64.6
X172.2Y-40.6
X172.3Y-51.7
X172.8Y-130.
X176.38Y-64.6
X177.28Y-40.6
X177.38Y-51.7
X178.32Y-130.
X183.4Y-130.
X185.9Y-51.9
X190.98Y-51.9
T5
X131.Y-54.5
X131.Y-85.5
X131.Y-116.5
X141.Y-54.5
X141.Y-85.5
X141.Y-116.5
X158.1Y-112.9
X168.1Y-112.9
T6
X123.5Y-38.5
X123.5Y-131.5
X191.4Y-38.5
X191.5Y-131.5
T0
M30
