M48
;DRILL file {KiCad 4.0.7} date 03/19/18 23:17:01
;FORMAT={-:-/ absolute / metric / decimal}
FMAT,2
METRIC,TZ
T1C0.400
T2C0.800
T3C1.000
T4C1.100
T5C1.200
T6C1.350
T7C1.520
T8C3.200
%
G90
G05
M71
T1
X121.6Y-79.2
T2
X121.6Y-89.6
X125.95Y-106.15
X126.6Y-89.6
X130.95Y-106.15
X140.45Y-110.665
X140.45Y-120.825
X146.5Y-112.7
X146.5Y-115.2
X152.3Y-111.9
X152.3Y-116.98
X154.84Y-114.44
T3
X150.85Y-95.57
X150.85Y-98.11
X150.85Y-100.65
X155.9Y-95.57
X155.9Y-98.11
X155.9Y-100.65
T4
X126.2Y-92.8
X126.2Y-102.96
X143.84Y-123.325
X154.Y-123.325
T5
X124.4Y-130.7
X125.65Y-117.25
X126.94Y-130.7
X130.7Y-97.4
X131.5Y-130.7
X132.6Y-74.5
X132.6Y-82.
X133.15Y-117.25
X133.24Y-97.4
X134.04Y-130.7
X138.5Y-130.7
X141.04Y-130.7
X145.4Y-74.
X145.4Y-84.8
X145.5Y-130.7
X148.04Y-130.7
X152.5Y-130.7
X155.04Y-130.7
X156.2Y-74.
X156.2Y-84.8
T6
X135.5Y-64.8
X140.54Y-62.25
X140.54Y-67.36
X149.86Y-62.24
X149.86Y-67.34
X154.9Y-64.8
T7
X123.4Y-64.9
X128.48Y-64.9
T8
X123.5Y-57.5
X123.5Y-138.
X156.Y-57.5
X156.Y-138.
T0
M30
