G04 #@! TF.FileFunction,Legend,Top*
%FSLAX46Y46*%
G04 Gerber Fmt 4.6, Leading zero omitted, Abs format (unit mm)*
G04 Created by KiCad (PCBNEW 4.0.7) date 03/19/18 23:16:35*
%MOMM*%
%LPD*%
G01*
G04 APERTURE LIST*
%ADD10C,0.100000*%
%ADD11C,0.200000*%
%ADD12C,0.300000*%
%ADD13C,0.150000*%
%ADD14C,0.120000*%
G04 APERTURE END LIST*
D10*
D11*
X130053572Y-92867857D02*
X130167857Y-92867857D01*
X130282143Y-92925000D01*
X130339286Y-92982143D01*
X130396429Y-93096429D01*
X130453572Y-93325000D01*
X130453572Y-93610714D01*
X130396429Y-93839286D01*
X130339286Y-93953571D01*
X130282143Y-94010714D01*
X130167857Y-94067857D01*
X130053572Y-94067857D01*
X129939286Y-94010714D01*
X129882143Y-93953571D01*
X129825000Y-93839286D01*
X129767857Y-93610714D01*
X129767857Y-93325000D01*
X129825000Y-93096429D01*
X129882143Y-92982143D01*
X129939286Y-92925000D01*
X130053572Y-92867857D01*
X130796429Y-92867857D02*
X131196429Y-94067857D01*
X131596429Y-92867857D01*
X134559523Y-87777381D02*
X134559523Y-88015476D01*
X134321428Y-87920238D02*
X134559523Y-88015476D01*
X134797619Y-87920238D01*
X134416666Y-88205952D02*
X134559523Y-88015476D01*
X134702381Y-88205952D01*
X135321428Y-87777381D02*
X135321428Y-88015476D01*
X135083333Y-87920238D02*
X135321428Y-88015476D01*
X135559524Y-87920238D01*
X135178571Y-88205952D02*
X135321428Y-88015476D01*
X135464286Y-88205952D01*
X135940476Y-88777381D02*
X135940476Y-87777381D01*
X136416666Y-88777381D02*
X136416666Y-87777381D01*
X136750000Y-88491667D01*
X137083333Y-87777381D01*
X137083333Y-88777381D01*
X137559523Y-88777381D02*
X137559523Y-87777381D01*
X137940476Y-87777381D01*
X138035714Y-87825000D01*
X138083333Y-87872619D01*
X138130952Y-87967857D01*
X138130952Y-88110714D01*
X138083333Y-88205952D01*
X138035714Y-88253571D01*
X137940476Y-88301190D01*
X137559523Y-88301190D01*
X138749999Y-87777381D02*
X138940476Y-87777381D01*
X139035714Y-87825000D01*
X139130952Y-87920238D01*
X139178571Y-88110714D01*
X139178571Y-88444048D01*
X139130952Y-88634524D01*
X139035714Y-88729762D01*
X138940476Y-88777381D01*
X138749999Y-88777381D01*
X138654761Y-88729762D01*
X138559523Y-88634524D01*
X138511904Y-88444048D01*
X138511904Y-88110714D01*
X138559523Y-87920238D01*
X138654761Y-87825000D01*
X138749999Y-87777381D01*
X140178571Y-88777381D02*
X139845237Y-88301190D01*
X139607142Y-88777381D02*
X139607142Y-87777381D01*
X139988095Y-87777381D01*
X140083333Y-87825000D01*
X140130952Y-87872619D01*
X140178571Y-87967857D01*
X140178571Y-88110714D01*
X140130952Y-88205952D01*
X140083333Y-88253571D01*
X139988095Y-88301190D01*
X139607142Y-88301190D01*
X140464285Y-87777381D02*
X141035714Y-87777381D01*
X140749999Y-88777381D02*
X140749999Y-87777381D01*
X141321428Y-88491667D02*
X141797619Y-88491667D01*
X141226190Y-88777381D02*
X141559523Y-87777381D01*
X141892857Y-88777381D01*
X142226190Y-88777381D02*
X142226190Y-87777381D01*
X142797619Y-88777381D01*
X142797619Y-87777381D01*
X143130952Y-87777381D02*
X143702381Y-87777381D01*
X143416666Y-88777381D02*
X143416666Y-87777381D01*
X144178571Y-87777381D02*
X144178571Y-88015476D01*
X143940476Y-87920238D02*
X144178571Y-88015476D01*
X144416667Y-87920238D01*
X144035714Y-88205952D02*
X144178571Y-88015476D01*
X144321429Y-88205952D01*
X144940476Y-87777381D02*
X144940476Y-88015476D01*
X144702381Y-87920238D02*
X144940476Y-88015476D01*
X145178572Y-87920238D01*
X144797619Y-88205952D02*
X144940476Y-88015476D01*
X145083334Y-88205952D01*
X129059522Y-89953571D02*
X128726188Y-89953571D01*
X128726188Y-90477381D02*
X128726188Y-89477381D01*
X129202379Y-89477381D01*
X129726188Y-90477381D02*
X129630950Y-90429762D01*
X129583331Y-90382143D01*
X129535712Y-90286905D01*
X129535712Y-90001190D01*
X129583331Y-89905952D01*
X129630950Y-89858333D01*
X129726188Y-89810714D01*
X129869046Y-89810714D01*
X129964284Y-89858333D01*
X130011903Y-89905952D01*
X130059522Y-90001190D01*
X130059522Y-90286905D01*
X130011903Y-90382143D01*
X129964284Y-90429762D01*
X129869046Y-90477381D01*
X129726188Y-90477381D01*
X130488093Y-90477381D02*
X130488093Y-89810714D01*
X130488093Y-90001190D02*
X130535712Y-89905952D01*
X130583331Y-89858333D01*
X130678569Y-89810714D01*
X130773808Y-89810714D01*
X132345237Y-90477381D02*
X131869046Y-90477381D01*
X131869046Y-89477381D01*
X132678570Y-90477381D02*
X132678570Y-89477381D01*
X133011904Y-90191667D01*
X133345237Y-89477381D01*
X133345237Y-90477381D01*
X133726189Y-89477381D02*
X134345237Y-89477381D01*
X134011903Y-89858333D01*
X134154761Y-89858333D01*
X134249999Y-89905952D01*
X134297618Y-89953571D01*
X134345237Y-90048810D01*
X134345237Y-90286905D01*
X134297618Y-90382143D01*
X134249999Y-90429762D01*
X134154761Y-90477381D01*
X133869046Y-90477381D01*
X133773808Y-90429762D01*
X133726189Y-90382143D01*
X134678570Y-89477381D02*
X135297618Y-89477381D01*
X134964284Y-89858333D01*
X135107142Y-89858333D01*
X135202380Y-89905952D01*
X135249999Y-89953571D01*
X135297618Y-90048810D01*
X135297618Y-90286905D01*
X135249999Y-90382143D01*
X135202380Y-90429762D01*
X135107142Y-90477381D01*
X134821427Y-90477381D01*
X134726189Y-90429762D01*
X134678570Y-90382143D01*
X135630951Y-89477381D02*
X136297618Y-89477381D01*
X135869046Y-90477381D01*
X137440475Y-89810714D02*
X137440475Y-90477381D01*
X137440475Y-89905952D02*
X137488094Y-89858333D01*
X137583332Y-89810714D01*
X137726190Y-89810714D01*
X137821428Y-89858333D01*
X137869047Y-89953571D01*
X137869047Y-90477381D01*
X138726190Y-90429762D02*
X138630952Y-90477381D01*
X138440475Y-90477381D01*
X138345237Y-90429762D01*
X138297618Y-90334524D01*
X138297618Y-89953571D01*
X138345237Y-89858333D01*
X138440475Y-89810714D01*
X138630952Y-89810714D01*
X138726190Y-89858333D01*
X138773809Y-89953571D01*
X138773809Y-90048810D01*
X138297618Y-90144048D01*
X139630952Y-89810714D02*
X139630952Y-90620238D01*
X139583333Y-90715476D01*
X139535714Y-90763095D01*
X139440475Y-90810714D01*
X139297618Y-90810714D01*
X139202380Y-90763095D01*
X139630952Y-90429762D02*
X139535714Y-90477381D01*
X139345237Y-90477381D01*
X139249999Y-90429762D01*
X139202380Y-90382143D01*
X139154761Y-90286905D01*
X139154761Y-90001190D01*
X139202380Y-89905952D01*
X139249999Y-89858333D01*
X139345237Y-89810714D01*
X139535714Y-89810714D01*
X139630952Y-89858333D01*
X140535714Y-90477381D02*
X140535714Y-89953571D01*
X140488095Y-89858333D01*
X140392857Y-89810714D01*
X140202380Y-89810714D01*
X140107142Y-89858333D01*
X140535714Y-90429762D02*
X140440476Y-90477381D01*
X140202380Y-90477381D01*
X140107142Y-90429762D01*
X140059523Y-90334524D01*
X140059523Y-90239286D01*
X140107142Y-90144048D01*
X140202380Y-90096429D01*
X140440476Y-90096429D01*
X140535714Y-90048810D01*
X140869047Y-89810714D02*
X141249999Y-89810714D01*
X141011904Y-89477381D02*
X141011904Y-90334524D01*
X141059523Y-90429762D01*
X141154761Y-90477381D01*
X141249999Y-90477381D01*
X141583333Y-90477381D02*
X141583333Y-89810714D01*
X141583333Y-89477381D02*
X141535714Y-89525000D01*
X141583333Y-89572619D01*
X141630952Y-89525000D01*
X141583333Y-89477381D01*
X141583333Y-89572619D01*
X141964285Y-89810714D02*
X142202380Y-90477381D01*
X142440476Y-89810714D01*
X143202381Y-90429762D02*
X143107143Y-90477381D01*
X142916666Y-90477381D01*
X142821428Y-90429762D01*
X142773809Y-90334524D01*
X142773809Y-89953571D01*
X142821428Y-89858333D01*
X142916666Y-89810714D01*
X143107143Y-89810714D01*
X143202381Y-89858333D01*
X143250000Y-89953571D01*
X143250000Y-90048810D01*
X142773809Y-90144048D01*
X144440476Y-90477381D02*
X144440476Y-89810714D01*
X144440476Y-90001190D02*
X144488095Y-89905952D01*
X144535714Y-89858333D01*
X144630952Y-89810714D01*
X144726191Y-89810714D01*
X145440477Y-90429762D02*
X145345239Y-90477381D01*
X145154762Y-90477381D01*
X145059524Y-90429762D01*
X145011905Y-90334524D01*
X145011905Y-89953571D01*
X145059524Y-89858333D01*
X145154762Y-89810714D01*
X145345239Y-89810714D01*
X145440477Y-89858333D01*
X145488096Y-89953571D01*
X145488096Y-90048810D01*
X145011905Y-90144048D01*
X146345239Y-89810714D02*
X146345239Y-90620238D01*
X146297620Y-90715476D01*
X146250001Y-90763095D01*
X146154762Y-90810714D01*
X146011905Y-90810714D01*
X145916667Y-90763095D01*
X146345239Y-90429762D02*
X146250001Y-90477381D01*
X146059524Y-90477381D01*
X145964286Y-90429762D01*
X145916667Y-90382143D01*
X145869048Y-90286905D01*
X145869048Y-90001190D01*
X145916667Y-89905952D01*
X145964286Y-89858333D01*
X146059524Y-89810714D01*
X146250001Y-89810714D01*
X146345239Y-89858333D01*
X147250001Y-89810714D02*
X147250001Y-90477381D01*
X146821429Y-89810714D02*
X146821429Y-90334524D01*
X146869048Y-90429762D01*
X146964286Y-90477381D01*
X147107144Y-90477381D01*
X147202382Y-90429762D01*
X147250001Y-90382143D01*
X147869048Y-90477381D02*
X147773810Y-90429762D01*
X147726191Y-90334524D01*
X147726191Y-89477381D01*
X148678573Y-90477381D02*
X148678573Y-89953571D01*
X148630954Y-89858333D01*
X148535716Y-89810714D01*
X148345239Y-89810714D01*
X148250001Y-89858333D01*
X148678573Y-90429762D02*
X148583335Y-90477381D01*
X148345239Y-90477381D01*
X148250001Y-90429762D01*
X148202382Y-90334524D01*
X148202382Y-90239286D01*
X148250001Y-90144048D01*
X148345239Y-90096429D01*
X148583335Y-90096429D01*
X148678573Y-90048810D01*
X149011906Y-89810714D02*
X149392858Y-89810714D01*
X149154763Y-89477381D02*
X149154763Y-90334524D01*
X149202382Y-90429762D01*
X149297620Y-90477381D01*
X149392858Y-90477381D01*
X149869049Y-90477381D02*
X149773811Y-90429762D01*
X149726192Y-90382143D01*
X149678573Y-90286905D01*
X149678573Y-90001190D01*
X149726192Y-89905952D01*
X149773811Y-89858333D01*
X149869049Y-89810714D01*
X150011907Y-89810714D01*
X150107145Y-89858333D01*
X150154764Y-89905952D01*
X150202383Y-90001190D01*
X150202383Y-90286905D01*
X150154764Y-90382143D01*
X150107145Y-90429762D01*
X150011907Y-90477381D01*
X149869049Y-90477381D01*
X150630954Y-90477381D02*
X150630954Y-89810714D01*
X150630954Y-90001190D02*
X150678573Y-89905952D01*
X150726192Y-89858333D01*
X150821430Y-89810714D01*
X150916669Y-89810714D01*
X129392855Y-92177381D02*
X129392855Y-91510714D01*
X129392855Y-91701190D02*
X129440474Y-91605952D01*
X129488093Y-91558333D01*
X129583331Y-91510714D01*
X129678570Y-91510714D01*
X130392856Y-92129762D02*
X130297618Y-92177381D01*
X130107141Y-92177381D01*
X130011903Y-92129762D01*
X129964284Y-92034524D01*
X129964284Y-91653571D01*
X130011903Y-91558333D01*
X130107141Y-91510714D01*
X130297618Y-91510714D01*
X130392856Y-91558333D01*
X130440475Y-91653571D01*
X130440475Y-91748810D01*
X129964284Y-91844048D01*
X130773808Y-91510714D02*
X131011903Y-92177381D01*
X131249999Y-91510714D01*
X132011904Y-92129762D02*
X131916666Y-92177381D01*
X131726189Y-92177381D01*
X131630951Y-92129762D01*
X131583332Y-92034524D01*
X131583332Y-91653571D01*
X131630951Y-91558333D01*
X131726189Y-91510714D01*
X131916666Y-91510714D01*
X132011904Y-91558333D01*
X132059523Y-91653571D01*
X132059523Y-91748810D01*
X131583332Y-91844048D01*
X132488094Y-92177381D02*
X132488094Y-91510714D01*
X132488094Y-91701190D02*
X132535713Y-91605952D01*
X132583332Y-91558333D01*
X132678570Y-91510714D01*
X132773809Y-91510714D01*
X132964285Y-91510714D02*
X133345237Y-91510714D01*
X133107142Y-91177381D02*
X133107142Y-92034524D01*
X133154761Y-92129762D01*
X133249999Y-92177381D01*
X133345237Y-92177381D01*
X134869048Y-92129762D02*
X134773810Y-92177381D01*
X134583333Y-92177381D01*
X134488095Y-92129762D01*
X134440476Y-92082143D01*
X134392857Y-91986905D01*
X134392857Y-91701190D01*
X134440476Y-91605952D01*
X134488095Y-91558333D01*
X134583333Y-91510714D01*
X134773810Y-91510714D01*
X134869048Y-91558333D01*
X135440476Y-92177381D02*
X135345238Y-92129762D01*
X135297619Y-92082143D01*
X135250000Y-91986905D01*
X135250000Y-91701190D01*
X135297619Y-91605952D01*
X135345238Y-91558333D01*
X135440476Y-91510714D01*
X135583334Y-91510714D01*
X135678572Y-91558333D01*
X135726191Y-91605952D01*
X135773810Y-91701190D01*
X135773810Y-91986905D01*
X135726191Y-92082143D01*
X135678572Y-92129762D01*
X135583334Y-92177381D01*
X135440476Y-92177381D01*
X136202381Y-92177381D02*
X136202381Y-91510714D01*
X136202381Y-91605952D02*
X136250000Y-91558333D01*
X136345238Y-91510714D01*
X136488096Y-91510714D01*
X136583334Y-91558333D01*
X136630953Y-91653571D01*
X136630953Y-92177381D01*
X136630953Y-91653571D02*
X136678572Y-91558333D01*
X136773810Y-91510714D01*
X136916667Y-91510714D01*
X137011905Y-91558333D01*
X137059524Y-91653571D01*
X137059524Y-92177381D01*
X137535714Y-91510714D02*
X137535714Y-92510714D01*
X137535714Y-91558333D02*
X137630952Y-91510714D01*
X137821429Y-91510714D01*
X137916667Y-91558333D01*
X137964286Y-91605952D01*
X138011905Y-91701190D01*
X138011905Y-91986905D01*
X137964286Y-92082143D01*
X137916667Y-92129762D01*
X137821429Y-92177381D01*
X137630952Y-92177381D01*
X137535714Y-92129762D01*
X138583333Y-92177381D02*
X138488095Y-92129762D01*
X138440476Y-92082143D01*
X138392857Y-91986905D01*
X138392857Y-91701190D01*
X138440476Y-91605952D01*
X138488095Y-91558333D01*
X138583333Y-91510714D01*
X138726191Y-91510714D01*
X138821429Y-91558333D01*
X138869048Y-91605952D01*
X138916667Y-91701190D01*
X138916667Y-91986905D01*
X138869048Y-92082143D01*
X138821429Y-92129762D01*
X138726191Y-92177381D01*
X138583333Y-92177381D01*
X139345238Y-91510714D02*
X139345238Y-92177381D01*
X139345238Y-91605952D02*
X139392857Y-91558333D01*
X139488095Y-91510714D01*
X139630953Y-91510714D01*
X139726191Y-91558333D01*
X139773810Y-91653571D01*
X139773810Y-92177381D01*
X140630953Y-92129762D02*
X140535715Y-92177381D01*
X140345238Y-92177381D01*
X140250000Y-92129762D01*
X140202381Y-92034524D01*
X140202381Y-91653571D01*
X140250000Y-91558333D01*
X140345238Y-91510714D01*
X140535715Y-91510714D01*
X140630953Y-91558333D01*
X140678572Y-91653571D01*
X140678572Y-91748810D01*
X140202381Y-91844048D01*
X141107143Y-91510714D02*
X141107143Y-92177381D01*
X141107143Y-91605952D02*
X141154762Y-91558333D01*
X141250000Y-91510714D01*
X141392858Y-91510714D01*
X141488096Y-91558333D01*
X141535715Y-91653571D01*
X141535715Y-92177381D01*
X141869048Y-91510714D02*
X142250000Y-91510714D01*
X142011905Y-91177381D02*
X142011905Y-92034524D01*
X142059524Y-92129762D01*
X142154762Y-92177381D01*
X142250000Y-92177381D01*
X142535715Y-92129762D02*
X142630953Y-92177381D01*
X142821429Y-92177381D01*
X142916668Y-92129762D01*
X142964287Y-92034524D01*
X142964287Y-91986905D01*
X142916668Y-91891667D01*
X142821429Y-91844048D01*
X142678572Y-91844048D01*
X142583334Y-91796429D01*
X142535715Y-91701190D01*
X142535715Y-91653571D01*
X142583334Y-91558333D01*
X142678572Y-91510714D01*
X142821429Y-91510714D01*
X142916668Y-91558333D01*
X144154763Y-91510714D02*
X144154763Y-92510714D01*
X144154763Y-91558333D02*
X144250001Y-91510714D01*
X144440478Y-91510714D01*
X144535716Y-91558333D01*
X144583335Y-91605952D01*
X144630954Y-91701190D01*
X144630954Y-91986905D01*
X144583335Y-92082143D01*
X144535716Y-92129762D01*
X144440478Y-92177381D01*
X144250001Y-92177381D01*
X144154763Y-92129762D01*
X145202382Y-92177381D02*
X145107144Y-92129762D01*
X145059525Y-92082143D01*
X145011906Y-91986905D01*
X145011906Y-91701190D01*
X145059525Y-91605952D01*
X145107144Y-91558333D01*
X145202382Y-91510714D01*
X145345240Y-91510714D01*
X145440478Y-91558333D01*
X145488097Y-91605952D01*
X145535716Y-91701190D01*
X145535716Y-91986905D01*
X145488097Y-92082143D01*
X145440478Y-92129762D01*
X145345240Y-92177381D01*
X145202382Y-92177381D01*
X146107144Y-92177381D02*
X146011906Y-92129762D01*
X145964287Y-92034524D01*
X145964287Y-91177381D01*
X146916669Y-92177381D02*
X146916669Y-91653571D01*
X146869050Y-91558333D01*
X146773812Y-91510714D01*
X146583335Y-91510714D01*
X146488097Y-91558333D01*
X146916669Y-92129762D02*
X146821431Y-92177381D01*
X146583335Y-92177381D01*
X146488097Y-92129762D01*
X146440478Y-92034524D01*
X146440478Y-91939286D01*
X146488097Y-91844048D01*
X146583335Y-91796429D01*
X146821431Y-91796429D01*
X146916669Y-91748810D01*
X147392859Y-92177381D02*
X147392859Y-91510714D01*
X147392859Y-91701190D02*
X147440478Y-91605952D01*
X147488097Y-91558333D01*
X147583335Y-91510714D01*
X147678574Y-91510714D01*
X148011907Y-92177381D02*
X148011907Y-91510714D01*
X148011907Y-91177381D02*
X147964288Y-91225000D01*
X148011907Y-91272619D01*
X148059526Y-91225000D01*
X148011907Y-91177381D01*
X148011907Y-91272619D01*
X148345240Y-91510714D02*
X148726192Y-91510714D01*
X148488097Y-91177381D02*
X148488097Y-92034524D01*
X148535716Y-92129762D01*
X148630954Y-92177381D01*
X148726192Y-92177381D01*
X148964288Y-91510714D02*
X149202383Y-92177381D01*
X149440479Y-91510714D02*
X149202383Y-92177381D01*
X149107145Y-92415476D01*
X149059526Y-92463095D01*
X148964288Y-92510714D01*
D12*
X126988095Y-55952976D02*
X126988095Y-54702976D01*
X127464286Y-54702976D01*
X127583333Y-54762500D01*
X127642857Y-54822024D01*
X127702381Y-54941071D01*
X127702381Y-55119643D01*
X127642857Y-55238690D01*
X127583333Y-55298214D01*
X127464286Y-55357738D01*
X126988095Y-55357738D01*
X128416666Y-55952976D02*
X128297619Y-55893452D01*
X128238095Y-55833929D01*
X128178571Y-55714881D01*
X128178571Y-55357738D01*
X128238095Y-55238690D01*
X128297619Y-55179167D01*
X128416666Y-55119643D01*
X128595238Y-55119643D01*
X128714286Y-55179167D01*
X128773809Y-55238690D01*
X128833333Y-55357738D01*
X128833333Y-55714881D01*
X128773809Y-55833929D01*
X128714286Y-55893452D01*
X128595238Y-55952976D01*
X128416666Y-55952976D01*
X129309523Y-55893452D02*
X129428571Y-55952976D01*
X129666666Y-55952976D01*
X129785714Y-55893452D01*
X129845238Y-55774405D01*
X129845238Y-55714881D01*
X129785714Y-55595833D01*
X129666666Y-55536310D01*
X129488095Y-55536310D01*
X129369047Y-55476786D01*
X129309523Y-55357738D01*
X129309523Y-55298214D01*
X129369047Y-55179167D01*
X129488095Y-55119643D01*
X129666666Y-55119643D01*
X129785714Y-55179167D01*
X130380952Y-55952976D02*
X130380952Y-55119643D01*
X130380952Y-54702976D02*
X130321428Y-54762500D01*
X130380952Y-54822024D01*
X130440476Y-54762500D01*
X130380952Y-54702976D01*
X130380952Y-54822024D01*
X130797619Y-55119643D02*
X131273809Y-55119643D01*
X130976190Y-54702976D02*
X130976190Y-55774405D01*
X131035714Y-55893452D01*
X131154761Y-55952976D01*
X131273809Y-55952976D01*
X131690476Y-55952976D02*
X131690476Y-55119643D01*
X131690476Y-54702976D02*
X131630952Y-54762500D01*
X131690476Y-54822024D01*
X131750000Y-54762500D01*
X131690476Y-54702976D01*
X131690476Y-54822024D01*
X132166666Y-55119643D02*
X132464285Y-55952976D01*
X132761905Y-55119643D01*
X133714286Y-55893452D02*
X133595238Y-55952976D01*
X133357143Y-55952976D01*
X133238095Y-55893452D01*
X133178571Y-55774405D01*
X133178571Y-55298214D01*
X133238095Y-55179167D01*
X133357143Y-55119643D01*
X133595238Y-55119643D01*
X133714286Y-55179167D01*
X133773809Y-55298214D01*
X133773809Y-55417262D01*
X133178571Y-55536310D01*
X135202381Y-54643452D02*
X134130953Y-56250595D01*
X135619048Y-55952976D02*
X135619048Y-54702976D01*
X136333334Y-55952976D01*
X136333334Y-54702976D01*
X137404763Y-55893452D02*
X137285715Y-55952976D01*
X137047620Y-55952976D01*
X136928572Y-55893452D01*
X136869048Y-55774405D01*
X136869048Y-55298214D01*
X136928572Y-55179167D01*
X137047620Y-55119643D01*
X137285715Y-55119643D01*
X137404763Y-55179167D01*
X137464286Y-55298214D01*
X137464286Y-55417262D01*
X136869048Y-55536310D01*
X138535715Y-55119643D02*
X138535715Y-56131548D01*
X138476192Y-56250595D01*
X138416668Y-56310119D01*
X138297620Y-56369643D01*
X138119049Y-56369643D01*
X138000001Y-56310119D01*
X138535715Y-55893452D02*
X138416668Y-55952976D01*
X138178572Y-55952976D01*
X138059525Y-55893452D01*
X138000001Y-55833929D01*
X137940477Y-55714881D01*
X137940477Y-55357738D01*
X138000001Y-55238690D01*
X138059525Y-55179167D01*
X138178572Y-55119643D01*
X138416668Y-55119643D01*
X138535715Y-55179167D01*
X139666667Y-55952976D02*
X139666667Y-55298214D01*
X139607144Y-55179167D01*
X139488096Y-55119643D01*
X139250001Y-55119643D01*
X139130953Y-55179167D01*
X139666667Y-55893452D02*
X139547620Y-55952976D01*
X139250001Y-55952976D01*
X139130953Y-55893452D01*
X139071429Y-55774405D01*
X139071429Y-55655357D01*
X139130953Y-55536310D01*
X139250001Y-55476786D01*
X139547620Y-55476786D01*
X139666667Y-55417262D01*
X140083334Y-55119643D02*
X140559524Y-55119643D01*
X140261905Y-54702976D02*
X140261905Y-55774405D01*
X140321429Y-55893452D01*
X140440476Y-55952976D01*
X140559524Y-55952976D01*
X140976191Y-55952976D02*
X140976191Y-55119643D01*
X140976191Y-54702976D02*
X140916667Y-54762500D01*
X140976191Y-54822024D01*
X141035715Y-54762500D01*
X140976191Y-54702976D01*
X140976191Y-54822024D01*
X141452381Y-55119643D02*
X141750000Y-55952976D01*
X142047620Y-55119643D01*
X143000001Y-55893452D02*
X142880953Y-55952976D01*
X142642858Y-55952976D01*
X142523810Y-55893452D01*
X142464286Y-55774405D01*
X142464286Y-55298214D01*
X142523810Y-55179167D01*
X142642858Y-55119643D01*
X142880953Y-55119643D01*
X143000001Y-55179167D01*
X143059524Y-55298214D01*
X143059524Y-55417262D01*
X142464286Y-55536310D01*
X144547620Y-55952976D02*
X144547620Y-55119643D01*
X144547620Y-55357738D02*
X144607144Y-55238690D01*
X144666668Y-55179167D01*
X144785715Y-55119643D01*
X144904763Y-55119643D01*
X145797621Y-55893452D02*
X145678573Y-55952976D01*
X145440478Y-55952976D01*
X145321430Y-55893452D01*
X145261906Y-55774405D01*
X145261906Y-55298214D01*
X145321430Y-55179167D01*
X145440478Y-55119643D01*
X145678573Y-55119643D01*
X145797621Y-55179167D01*
X145857144Y-55298214D01*
X145857144Y-55417262D01*
X145261906Y-55536310D01*
X146928573Y-55119643D02*
X146928573Y-56131548D01*
X146869050Y-56250595D01*
X146809526Y-56310119D01*
X146690478Y-56369643D01*
X146511907Y-56369643D01*
X146392859Y-56310119D01*
X146928573Y-55893452D02*
X146809526Y-55952976D01*
X146571430Y-55952976D01*
X146452383Y-55893452D01*
X146392859Y-55833929D01*
X146333335Y-55714881D01*
X146333335Y-55357738D01*
X146392859Y-55238690D01*
X146452383Y-55179167D01*
X146571430Y-55119643D01*
X146809526Y-55119643D01*
X146928573Y-55179167D01*
X148059525Y-55119643D02*
X148059525Y-55952976D01*
X147523811Y-55119643D02*
X147523811Y-55774405D01*
X147583335Y-55893452D01*
X147702382Y-55952976D01*
X147880954Y-55952976D01*
X148000002Y-55893452D01*
X148059525Y-55833929D01*
X148833334Y-55952976D02*
X148714287Y-55893452D01*
X148654763Y-55774405D01*
X148654763Y-54702976D01*
X149845239Y-55952976D02*
X149845239Y-55298214D01*
X149785716Y-55179167D01*
X149666668Y-55119643D01*
X149428573Y-55119643D01*
X149309525Y-55179167D01*
X149845239Y-55893452D02*
X149726192Y-55952976D01*
X149428573Y-55952976D01*
X149309525Y-55893452D01*
X149250001Y-55774405D01*
X149250001Y-55655357D01*
X149309525Y-55536310D01*
X149428573Y-55476786D01*
X149726192Y-55476786D01*
X149845239Y-55417262D01*
X150261906Y-55119643D02*
X150738096Y-55119643D01*
X150440477Y-54702976D02*
X150440477Y-55774405D01*
X150500001Y-55893452D01*
X150619048Y-55952976D01*
X150738096Y-55952976D01*
X151630954Y-55893452D02*
X151511906Y-55952976D01*
X151273811Y-55952976D01*
X151154763Y-55893452D01*
X151095239Y-55774405D01*
X151095239Y-55298214D01*
X151154763Y-55179167D01*
X151273811Y-55119643D01*
X151511906Y-55119643D01*
X151630954Y-55179167D01*
X151690477Y-55298214D01*
X151690477Y-55417262D01*
X151095239Y-55536310D01*
X152761906Y-55952976D02*
X152761906Y-54702976D01*
X152761906Y-55893452D02*
X152642859Y-55952976D01*
X152404763Y-55952976D01*
X152285716Y-55893452D01*
X152226192Y-55833929D01*
X152166668Y-55714881D01*
X152166668Y-55357738D01*
X152226192Y-55238690D01*
X152285716Y-55179167D01*
X152404763Y-55119643D01*
X152642859Y-55119643D01*
X152761906Y-55179167D01*
X133833334Y-58127976D02*
X133833334Y-56877976D01*
X134309525Y-56877976D01*
X134428572Y-56937500D01*
X134488096Y-56997024D01*
X134547620Y-57116071D01*
X134547620Y-57294643D01*
X134488096Y-57413690D01*
X134428572Y-57473214D01*
X134309525Y-57532738D01*
X133833334Y-57532738D01*
X135261905Y-58127976D02*
X135142858Y-58068452D01*
X135083334Y-58008929D01*
X135023810Y-57889881D01*
X135023810Y-57532738D01*
X135083334Y-57413690D01*
X135142858Y-57354167D01*
X135261905Y-57294643D01*
X135440477Y-57294643D01*
X135559525Y-57354167D01*
X135619048Y-57413690D01*
X135678572Y-57532738D01*
X135678572Y-57889881D01*
X135619048Y-58008929D01*
X135559525Y-58068452D01*
X135440477Y-58127976D01*
X135261905Y-58127976D01*
X136095238Y-57294643D02*
X136333334Y-58127976D01*
X136571429Y-57532738D01*
X136809524Y-58127976D01*
X137047619Y-57294643D01*
X138000001Y-58068452D02*
X137880953Y-58127976D01*
X137642858Y-58127976D01*
X137523810Y-58068452D01*
X137464286Y-57949405D01*
X137464286Y-57473214D01*
X137523810Y-57354167D01*
X137642858Y-57294643D01*
X137880953Y-57294643D01*
X138000001Y-57354167D01*
X138059524Y-57473214D01*
X138059524Y-57592262D01*
X137464286Y-57711310D01*
X138595239Y-58127976D02*
X138595239Y-57294643D01*
X138595239Y-57532738D02*
X138654763Y-57413690D01*
X138714287Y-57354167D01*
X138833334Y-57294643D01*
X138952382Y-57294643D01*
X140261906Y-58068452D02*
X140440478Y-58127976D01*
X140738097Y-58127976D01*
X140857144Y-58068452D01*
X140916668Y-58008929D01*
X140976192Y-57889881D01*
X140976192Y-57770833D01*
X140916668Y-57651786D01*
X140857144Y-57592262D01*
X140738097Y-57532738D01*
X140500001Y-57473214D01*
X140380954Y-57413690D01*
X140321430Y-57354167D01*
X140261906Y-57235119D01*
X140261906Y-57116071D01*
X140321430Y-56997024D01*
X140380954Y-56937500D01*
X140500001Y-56877976D01*
X140797621Y-56877976D01*
X140976192Y-56937500D01*
X142047620Y-57294643D02*
X142047620Y-58127976D01*
X141511906Y-57294643D02*
X141511906Y-57949405D01*
X141571430Y-58068452D01*
X141690477Y-58127976D01*
X141869049Y-58127976D01*
X141988097Y-58068452D01*
X142047620Y-58008929D01*
X142642858Y-57294643D02*
X142642858Y-58544643D01*
X142642858Y-57354167D02*
X142761906Y-57294643D01*
X143000001Y-57294643D01*
X143119049Y-57354167D01*
X143178572Y-57413690D01*
X143238096Y-57532738D01*
X143238096Y-57889881D01*
X143178572Y-58008929D01*
X143119049Y-58068452D01*
X143000001Y-58127976D01*
X142761906Y-58127976D01*
X142642858Y-58068452D01*
X143773810Y-57294643D02*
X143773810Y-58544643D01*
X143773810Y-57354167D02*
X143892858Y-57294643D01*
X144130953Y-57294643D01*
X144250001Y-57354167D01*
X144309524Y-57413690D01*
X144369048Y-57532738D01*
X144369048Y-57889881D01*
X144309524Y-58008929D01*
X144250001Y-58068452D01*
X144130953Y-58127976D01*
X143892858Y-58127976D01*
X143773810Y-58068452D01*
X145083333Y-58127976D02*
X144964286Y-58068452D01*
X144904762Y-57949405D01*
X144904762Y-56877976D01*
X145440476Y-57294643D02*
X145738095Y-58127976D01*
X146035715Y-57294643D02*
X145738095Y-58127976D01*
X145619048Y-58425595D01*
X145559524Y-58485119D01*
X145440476Y-58544643D01*
X127497619Y-137027976D02*
X127497619Y-137920833D01*
X127438095Y-138099405D01*
X127319047Y-138218452D01*
X127140476Y-138277976D01*
X127021428Y-138277976D01*
X128271428Y-138277976D02*
X128152381Y-138218452D01*
X128092857Y-138158929D01*
X128033333Y-138039881D01*
X128033333Y-137682738D01*
X128092857Y-137563690D01*
X128152381Y-137504167D01*
X128271428Y-137444643D01*
X128450000Y-137444643D01*
X128569048Y-137504167D01*
X128628571Y-137563690D01*
X128688095Y-137682738D01*
X128688095Y-138039881D01*
X128628571Y-138158929D01*
X128569048Y-138218452D01*
X128450000Y-138277976D01*
X128271428Y-138277976D01*
X129164285Y-138218452D02*
X129283333Y-138277976D01*
X129521428Y-138277976D01*
X129640476Y-138218452D01*
X129700000Y-138099405D01*
X129700000Y-138039881D01*
X129640476Y-137920833D01*
X129521428Y-137861310D01*
X129342857Y-137861310D01*
X129223809Y-137801786D01*
X129164285Y-137682738D01*
X129164285Y-137623214D01*
X129223809Y-137504167D01*
X129342857Y-137444643D01*
X129521428Y-137444643D01*
X129640476Y-137504167D01*
X130711905Y-138218452D02*
X130592857Y-138277976D01*
X130354762Y-138277976D01*
X130235714Y-138218452D01*
X130176190Y-138099405D01*
X130176190Y-137623214D01*
X130235714Y-137504167D01*
X130354762Y-137444643D01*
X130592857Y-137444643D01*
X130711905Y-137504167D01*
X130771428Y-137623214D01*
X130771428Y-137742262D01*
X130176190Y-137861310D01*
X130592857Y-136968452D02*
X130414285Y-137147024D01*
X132676191Y-137623214D02*
X132259524Y-137623214D01*
X132259524Y-138277976D02*
X132259524Y-137027976D01*
X132854762Y-137027976D01*
X133807144Y-138218452D02*
X133688096Y-138277976D01*
X133450001Y-138277976D01*
X133330953Y-138218452D01*
X133271429Y-138099405D01*
X133271429Y-137623214D01*
X133330953Y-137504167D01*
X133450001Y-137444643D01*
X133688096Y-137444643D01*
X133807144Y-137504167D01*
X133866667Y-137623214D01*
X133866667Y-137742262D01*
X133271429Y-137861310D01*
X134402382Y-138277976D02*
X134402382Y-137444643D01*
X134402382Y-137682738D02*
X134461906Y-137563690D01*
X134521430Y-137504167D01*
X134640477Y-137444643D01*
X134759525Y-137444643D01*
X135176192Y-137444643D02*
X135176192Y-138277976D01*
X135176192Y-137563690D02*
X135235716Y-137504167D01*
X135354763Y-137444643D01*
X135533335Y-137444643D01*
X135652383Y-137504167D01*
X135711906Y-137623214D01*
X135711906Y-138277976D01*
X136842858Y-138277976D02*
X136842858Y-137623214D01*
X136783335Y-137504167D01*
X136664287Y-137444643D01*
X136426192Y-137444643D01*
X136307144Y-137504167D01*
X136842858Y-138218452D02*
X136723811Y-138277976D01*
X136426192Y-138277976D01*
X136307144Y-138218452D01*
X136247620Y-138099405D01*
X136247620Y-137980357D01*
X136307144Y-137861310D01*
X136426192Y-137801786D01*
X136723811Y-137801786D01*
X136842858Y-137742262D01*
X137438096Y-137444643D02*
X137438096Y-138277976D01*
X137438096Y-137563690D02*
X137497620Y-137504167D01*
X137616667Y-137444643D01*
X137795239Y-137444643D01*
X137914287Y-137504167D01*
X137973810Y-137623214D01*
X137973810Y-138277976D01*
X139104762Y-138277976D02*
X139104762Y-137027976D01*
X139104762Y-138218452D02*
X138985715Y-138277976D01*
X138747619Y-138277976D01*
X138628572Y-138218452D01*
X138569048Y-138158929D01*
X138509524Y-138039881D01*
X138509524Y-137682738D01*
X138569048Y-137563690D01*
X138628572Y-137504167D01*
X138747619Y-137444643D01*
X138985715Y-137444643D01*
X139104762Y-137504167D01*
X139878571Y-138277976D02*
X139759524Y-138218452D01*
X139700000Y-138158929D01*
X139640476Y-138039881D01*
X139640476Y-137682738D01*
X139700000Y-137563690D01*
X139759524Y-137504167D01*
X139878571Y-137444643D01*
X140057143Y-137444643D01*
X140176191Y-137504167D01*
X140235714Y-137563690D01*
X140295238Y-137682738D01*
X140295238Y-138039881D01*
X140235714Y-138158929D01*
X140176191Y-138218452D01*
X140057143Y-138277976D01*
X139878571Y-138277976D01*
X142438095Y-137087500D02*
X142319047Y-137027976D01*
X142140476Y-137027976D01*
X141961904Y-137087500D01*
X141842857Y-137206548D01*
X141783333Y-137325595D01*
X141723809Y-137563690D01*
X141723809Y-137742262D01*
X141783333Y-137980357D01*
X141842857Y-138099405D01*
X141961904Y-138218452D01*
X142140476Y-138277976D01*
X142259524Y-138277976D01*
X142438095Y-138218452D01*
X142497619Y-138158929D01*
X142497619Y-137742262D01*
X142259524Y-137742262D01*
X143211904Y-138277976D02*
X143092857Y-138218452D01*
X143033333Y-138158929D01*
X142973809Y-138039881D01*
X142973809Y-137682738D01*
X143033333Y-137563690D01*
X143092857Y-137504167D01*
X143211904Y-137444643D01*
X143390476Y-137444643D01*
X143509524Y-137504167D01*
X143569047Y-137563690D01*
X143628571Y-137682738D01*
X143628571Y-138039881D01*
X143569047Y-138158929D01*
X143509524Y-138218452D01*
X143390476Y-138277976D01*
X143211904Y-138277976D01*
X143450000Y-136968452D02*
X143271428Y-137147024D01*
X144164285Y-138277976D02*
X144164285Y-137444643D01*
X144164285Y-137563690D02*
X144223809Y-137504167D01*
X144342856Y-137444643D01*
X144521428Y-137444643D01*
X144640476Y-137504167D01*
X144699999Y-137623214D01*
X144699999Y-138277976D01*
X144699999Y-137623214D02*
X144759523Y-137504167D01*
X144878571Y-137444643D01*
X145057142Y-137444643D01*
X145176190Y-137504167D01*
X145235714Y-137623214D01*
X145235714Y-138277976D01*
X146307143Y-138218452D02*
X146188095Y-138277976D01*
X145950000Y-138277976D01*
X145830952Y-138218452D01*
X145771428Y-138099405D01*
X145771428Y-137623214D01*
X145830952Y-137504167D01*
X145950000Y-137444643D01*
X146188095Y-137444643D01*
X146307143Y-137504167D01*
X146366666Y-137623214D01*
X146366666Y-137742262D01*
X145771428Y-137861310D01*
X146783333Y-137444643D02*
X147438095Y-137444643D01*
X146783333Y-138277976D01*
X147438095Y-138277976D01*
X148866667Y-138277976D02*
X148866667Y-137027976D01*
X149164286Y-137027976D01*
X149342858Y-137087500D01*
X149461905Y-137206548D01*
X149521429Y-137325595D01*
X149580953Y-137563690D01*
X149580953Y-137742262D01*
X149521429Y-137980357D01*
X149461905Y-138099405D01*
X149342858Y-138218452D01*
X149164286Y-138277976D01*
X148866667Y-138277976D01*
X150116667Y-138277976D02*
X150116667Y-137444643D01*
X150235715Y-136968452D02*
X150057143Y-137147024D01*
X151247619Y-138277976D02*
X151247619Y-137623214D01*
X151188096Y-137504167D01*
X151069048Y-137444643D01*
X150830953Y-137444643D01*
X150711905Y-137504167D01*
X151247619Y-138218452D02*
X151128572Y-138277976D01*
X150830953Y-138277976D01*
X150711905Y-138218452D01*
X150652381Y-138099405D01*
X150652381Y-137980357D01*
X150711905Y-137861310D01*
X150830953Y-137801786D01*
X151128572Y-137801786D01*
X151247619Y-137742262D01*
X151723809Y-137444643D02*
X152378571Y-137444643D01*
X151723809Y-138277976D01*
X152378571Y-138277976D01*
X137557143Y-139322024D02*
X137616667Y-139262500D01*
X137735715Y-139202976D01*
X138033334Y-139202976D01*
X138152381Y-139262500D01*
X138211905Y-139322024D01*
X138271429Y-139441071D01*
X138271429Y-139560119D01*
X138211905Y-139738690D01*
X137497619Y-140452976D01*
X138271429Y-140452976D01*
X139045238Y-139202976D02*
X139164286Y-139202976D01*
X139283334Y-139262500D01*
X139342857Y-139322024D01*
X139402381Y-139441071D01*
X139461905Y-139679167D01*
X139461905Y-139976786D01*
X139402381Y-140214881D01*
X139342857Y-140333929D01*
X139283334Y-140393452D01*
X139164286Y-140452976D01*
X139045238Y-140452976D01*
X138926191Y-140393452D01*
X138866667Y-140333929D01*
X138807143Y-140214881D01*
X138747619Y-139976786D01*
X138747619Y-139679167D01*
X138807143Y-139441071D01*
X138866667Y-139322024D01*
X138926191Y-139262500D01*
X139045238Y-139202976D01*
X140652381Y-140452976D02*
X139938095Y-140452976D01*
X140295238Y-140452976D02*
X140295238Y-139202976D01*
X140176190Y-139381548D01*
X140057143Y-139500595D01*
X139938095Y-139560119D01*
X141366666Y-139738690D02*
X141247619Y-139679167D01*
X141188095Y-139619643D01*
X141128571Y-139500595D01*
X141128571Y-139441071D01*
X141188095Y-139322024D01*
X141247619Y-139262500D01*
X141366666Y-139202976D01*
X141604762Y-139202976D01*
X141723809Y-139262500D01*
X141783333Y-139322024D01*
X141842857Y-139441071D01*
X141842857Y-139500595D01*
X141783333Y-139619643D01*
X141723809Y-139679167D01*
X141604762Y-139738690D01*
X141366666Y-139738690D01*
X141247619Y-139798214D01*
X141188095Y-139857738D01*
X141128571Y-139976786D01*
X141128571Y-140214881D01*
X141188095Y-140333929D01*
X141247619Y-140393452D01*
X141366666Y-140452976D01*
X141604762Y-140452976D01*
X141723809Y-140393452D01*
X141783333Y-140333929D01*
X141842857Y-140214881D01*
X141842857Y-139976786D01*
X141783333Y-139857738D01*
X141723809Y-139798214D01*
X141604762Y-139738690D01*
D11*
X123753572Y-126192857D02*
X123867857Y-126192857D01*
X123982143Y-126250000D01*
X124039286Y-126307143D01*
X124096429Y-126421429D01*
X124153572Y-126650000D01*
X124153572Y-126935714D01*
X124096429Y-127164286D01*
X124039286Y-127278571D01*
X123982143Y-127335714D01*
X123867857Y-127392857D01*
X123753572Y-127392857D01*
X123639286Y-127335714D01*
X123582143Y-127278571D01*
X123525000Y-127164286D01*
X123467857Y-126935714D01*
X123467857Y-126650000D01*
X123525000Y-126421429D01*
X123582143Y-126307143D01*
X123639286Y-126250000D01*
X123753572Y-126192857D01*
X124496429Y-126192857D02*
X124896429Y-127392857D01*
X125296429Y-126192857D01*
X126478572Y-126192857D02*
X126592857Y-126192857D01*
X126707143Y-126250000D01*
X126764286Y-126307143D01*
X126821429Y-126421429D01*
X126878572Y-126650000D01*
X126878572Y-126935714D01*
X126821429Y-127164286D01*
X126764286Y-127278571D01*
X126707143Y-127335714D01*
X126592857Y-127392857D01*
X126478572Y-127392857D01*
X126364286Y-127335714D01*
X126307143Y-127278571D01*
X126250000Y-127164286D01*
X126192857Y-126935714D01*
X126192857Y-126650000D01*
X126250000Y-126421429D01*
X126307143Y-126307143D01*
X126364286Y-126250000D01*
X126478572Y-126192857D01*
X127221429Y-126192857D02*
X127621429Y-127392857D01*
X128021429Y-126192857D01*
X130828572Y-126192857D02*
X130942857Y-126192857D01*
X131057143Y-126250000D01*
X131114286Y-126307143D01*
X131171429Y-126421429D01*
X131228572Y-126650000D01*
X131228572Y-126935714D01*
X131171429Y-127164286D01*
X131114286Y-127278571D01*
X131057143Y-127335714D01*
X130942857Y-127392857D01*
X130828572Y-127392857D01*
X130714286Y-127335714D01*
X130657143Y-127278571D01*
X130600000Y-127164286D01*
X130542857Y-126935714D01*
X130542857Y-126650000D01*
X130600000Y-126421429D01*
X130657143Y-126307143D01*
X130714286Y-126250000D01*
X130828572Y-126192857D01*
X131571429Y-126192857D02*
X131971429Y-127392857D01*
X132371429Y-126192857D01*
X137903572Y-126192857D02*
X138017857Y-126192857D01*
X138132143Y-126250000D01*
X138189286Y-126307143D01*
X138246429Y-126421429D01*
X138303572Y-126650000D01*
X138303572Y-126935714D01*
X138246429Y-127164286D01*
X138189286Y-127278571D01*
X138132143Y-127335714D01*
X138017857Y-127392857D01*
X137903572Y-127392857D01*
X137789286Y-127335714D01*
X137732143Y-127278571D01*
X137675000Y-127164286D01*
X137617857Y-126935714D01*
X137617857Y-126650000D01*
X137675000Y-126421429D01*
X137732143Y-126307143D01*
X137789286Y-126250000D01*
X137903572Y-126192857D01*
X138646429Y-126192857D02*
X139046429Y-127392857D01*
X139446429Y-126192857D01*
X151903572Y-126167857D02*
X152017857Y-126167857D01*
X152132143Y-126225000D01*
X152189286Y-126282143D01*
X152246429Y-126396429D01*
X152303572Y-126625000D01*
X152303572Y-126910714D01*
X152246429Y-127139286D01*
X152189286Y-127253571D01*
X152132143Y-127310714D01*
X152017857Y-127367857D01*
X151903572Y-127367857D01*
X151789286Y-127310714D01*
X151732143Y-127253571D01*
X151675000Y-127139286D01*
X151617857Y-126910714D01*
X151617857Y-126625000D01*
X151675000Y-126396429D01*
X151732143Y-126282143D01*
X151789286Y-126225000D01*
X151903572Y-126167857D01*
X152646429Y-126167857D02*
X153046429Y-127367857D01*
X153446429Y-126167857D01*
X144928572Y-126167857D02*
X145042857Y-126167857D01*
X145157143Y-126225000D01*
X145214286Y-126282143D01*
X145271429Y-126396429D01*
X145328572Y-126625000D01*
X145328572Y-126910714D01*
X145271429Y-127139286D01*
X145214286Y-127253571D01*
X145157143Y-127310714D01*
X145042857Y-127367857D01*
X144928572Y-127367857D01*
X144814286Y-127310714D01*
X144757143Y-127253571D01*
X144700000Y-127139286D01*
X144642857Y-126910714D01*
X144642857Y-126625000D01*
X144700000Y-126396429D01*
X144757143Y-126282143D01*
X144814286Y-126225000D01*
X144928572Y-126167857D01*
X145671429Y-126167857D02*
X146071429Y-127367857D01*
X146471429Y-126167857D01*
D10*
X159800000Y-142400000D02*
X119800000Y-142400000D01*
X159800000Y-52400000D02*
X159800000Y-142400000D01*
X119800000Y-52400000D02*
X159800000Y-52400000D01*
X119800000Y-142400000D02*
X119800000Y-52400000D01*
X154400000Y-83000000D02*
X155400000Y-83000000D01*
X154900000Y-82500000D02*
X154900000Y-83500000D01*
X147900000Y-75500000D02*
X146900000Y-75500000D01*
D13*
X158800000Y-71400000D02*
X158800000Y-85200000D01*
X158800000Y-85200000D02*
X156600000Y-87400000D01*
X156600000Y-87400000D02*
X142800000Y-87400000D01*
X142800000Y-71400000D02*
X158800000Y-71400000D01*
X142800000Y-87400000D02*
X142800000Y-71400000D01*
D10*
X154857738Y-75440047D02*
G75*
G03X154250000Y-75550000I-257738J-309953D01*
G01*
X154851704Y-75452030D02*
G75*
G03X155450000Y-75450000I298296J252030D01*
G01*
X147351704Y-82952030D02*
G75*
G03X147950000Y-82950000I298296J252030D01*
G01*
X147357738Y-82940047D02*
G75*
G03X146750000Y-83050000I-257738J-309953D01*
G01*
D14*
X127660000Y-90910000D02*
X120540000Y-90910000D01*
X127660000Y-88290000D02*
X120540000Y-88290000D01*
X127660000Y-90910000D02*
X127660000Y-88290000D01*
X120540000Y-90910000D02*
X120540000Y-88290000D01*
X141690000Y-78250000D02*
G75*
G03X141690000Y-78250000I-9090000J0D01*
G01*
X123550000Y-78250000D02*
X141650000Y-78250000D01*
X123550000Y-78210000D02*
X141650000Y-78210000D01*
X123550000Y-78170000D02*
X141650000Y-78170000D01*
X123550000Y-78130000D02*
X141650000Y-78130000D01*
X123551000Y-78090000D02*
X141649000Y-78090000D01*
X123552000Y-78050000D02*
X141648000Y-78050000D01*
X123553000Y-78010000D02*
X141647000Y-78010000D01*
X123554000Y-77970000D02*
X141646000Y-77970000D01*
X123555000Y-77930000D02*
X141645000Y-77930000D01*
X123557000Y-77890000D02*
X141643000Y-77890000D01*
X123558000Y-77850000D02*
X141642000Y-77850000D01*
X123560000Y-77810000D02*
X141640000Y-77810000D01*
X123562000Y-77770000D02*
X141638000Y-77770000D01*
X123564000Y-77730000D02*
X141636000Y-77730000D01*
X123567000Y-77690000D02*
X141633000Y-77690000D01*
X123569000Y-77650000D02*
X141631000Y-77650000D01*
X123572000Y-77610000D02*
X141628000Y-77610000D01*
X123575000Y-77570000D02*
X141625000Y-77570000D01*
X123578000Y-77529000D02*
X141622000Y-77529000D01*
X123581000Y-77489000D02*
X141619000Y-77489000D01*
X123585000Y-77449000D02*
X141615000Y-77449000D01*
X123588000Y-77409000D02*
X141612000Y-77409000D01*
X123592000Y-77369000D02*
X141608000Y-77369000D01*
X123596000Y-77329000D02*
X141604000Y-77329000D01*
X123600000Y-77289000D02*
X141600000Y-77289000D01*
X123605000Y-77249000D02*
X141595000Y-77249000D01*
X123609000Y-77209000D02*
X141591000Y-77209000D01*
X123614000Y-77169000D02*
X141586000Y-77169000D01*
X123619000Y-77129000D02*
X141581000Y-77129000D01*
X123624000Y-77089000D02*
X141576000Y-77089000D01*
X123629000Y-77049000D02*
X141571000Y-77049000D01*
X123634000Y-77009000D02*
X141566000Y-77009000D01*
X123640000Y-76969000D02*
X141560000Y-76969000D01*
X123646000Y-76929000D02*
X141554000Y-76929000D01*
X123652000Y-76889000D02*
X141548000Y-76889000D01*
X123658000Y-76849000D02*
X141542000Y-76849000D01*
X123664000Y-76809000D02*
X141536000Y-76809000D01*
X123671000Y-76769000D02*
X141529000Y-76769000D01*
X123677000Y-76729000D02*
X141523000Y-76729000D01*
X123684000Y-76689000D02*
X141516000Y-76689000D01*
X123691000Y-76649000D02*
X141509000Y-76649000D01*
X123699000Y-76609000D02*
X141501000Y-76609000D01*
X123706000Y-76569000D02*
X141494000Y-76569000D01*
X123714000Y-76529000D02*
X141486000Y-76529000D01*
X123722000Y-76489000D02*
X141478000Y-76489000D01*
X123730000Y-76449000D02*
X141470000Y-76449000D01*
X123738000Y-76409000D02*
X141462000Y-76409000D01*
X123746000Y-76369000D02*
X141454000Y-76369000D01*
X123755000Y-76329000D02*
X141445000Y-76329000D01*
X123763000Y-76289000D02*
X141437000Y-76289000D01*
X123772000Y-76249000D02*
X141428000Y-76249000D01*
X123781000Y-76209000D02*
X141419000Y-76209000D01*
X123791000Y-76169000D02*
X141409000Y-76169000D01*
X123800000Y-76129000D02*
X141400000Y-76129000D01*
X123810000Y-76089000D02*
X141390000Y-76089000D01*
X123820000Y-76049000D02*
X141380000Y-76049000D01*
X123830000Y-76009000D02*
X141370000Y-76009000D01*
X123840000Y-75969000D02*
X141360000Y-75969000D01*
X123851000Y-75929000D02*
X141349000Y-75929000D01*
X123861000Y-75889000D02*
X141339000Y-75889000D01*
X123872000Y-75849000D02*
X131220000Y-75849000D01*
X133980000Y-75849000D02*
X141328000Y-75849000D01*
X123883000Y-75809000D02*
X131220000Y-75809000D01*
X133980000Y-75809000D02*
X141317000Y-75809000D01*
X123894000Y-75769000D02*
X131220000Y-75769000D01*
X133980000Y-75769000D02*
X141306000Y-75769000D01*
X123906000Y-75729000D02*
X131220000Y-75729000D01*
X133980000Y-75729000D02*
X141294000Y-75729000D01*
X123917000Y-75689000D02*
X131220000Y-75689000D01*
X133980000Y-75689000D02*
X141283000Y-75689000D01*
X123929000Y-75649000D02*
X131220000Y-75649000D01*
X133980000Y-75649000D02*
X141271000Y-75649000D01*
X123941000Y-75609000D02*
X131220000Y-75609000D01*
X133980000Y-75609000D02*
X141259000Y-75609000D01*
X123954000Y-75569000D02*
X131220000Y-75569000D01*
X133980000Y-75569000D02*
X141246000Y-75569000D01*
X123966000Y-75529000D02*
X131220000Y-75529000D01*
X133980000Y-75529000D02*
X141234000Y-75529000D01*
X123979000Y-75489000D02*
X131220000Y-75489000D01*
X133980000Y-75489000D02*
X141221000Y-75489000D01*
X123991000Y-75449000D02*
X131220000Y-75449000D01*
X133980000Y-75449000D02*
X141209000Y-75449000D01*
X124005000Y-75409000D02*
X131220000Y-75409000D01*
X133980000Y-75409000D02*
X141195000Y-75409000D01*
X124018000Y-75369000D02*
X131220000Y-75369000D01*
X133980000Y-75369000D02*
X141182000Y-75369000D01*
X124031000Y-75329000D02*
X131220000Y-75329000D01*
X133980000Y-75329000D02*
X141169000Y-75329000D01*
X124045000Y-75289000D02*
X131220000Y-75289000D01*
X133980000Y-75289000D02*
X141155000Y-75289000D01*
X124059000Y-75249000D02*
X131220000Y-75249000D01*
X133980000Y-75249000D02*
X141141000Y-75249000D01*
X124073000Y-75209000D02*
X131220000Y-75209000D01*
X133980000Y-75209000D02*
X141127000Y-75209000D01*
X124087000Y-75169000D02*
X131220000Y-75169000D01*
X133980000Y-75169000D02*
X141113000Y-75169000D01*
X124102000Y-75129000D02*
X131220000Y-75129000D01*
X133980000Y-75129000D02*
X141098000Y-75129000D01*
X124116000Y-75089000D02*
X131220000Y-75089000D01*
X133980000Y-75089000D02*
X141084000Y-75089000D01*
X124131000Y-75049000D02*
X131220000Y-75049000D01*
X133980000Y-75049000D02*
X141069000Y-75049000D01*
X124147000Y-75009000D02*
X131220000Y-75009000D01*
X133980000Y-75009000D02*
X141053000Y-75009000D01*
X124162000Y-74969000D02*
X131220000Y-74969000D01*
X133980000Y-74969000D02*
X141038000Y-74969000D01*
X124177000Y-74929000D02*
X131220000Y-74929000D01*
X133980000Y-74929000D02*
X141023000Y-74929000D01*
X124193000Y-74889000D02*
X131220000Y-74889000D01*
X133980000Y-74889000D02*
X141007000Y-74889000D01*
X124209000Y-74849000D02*
X131220000Y-74849000D01*
X133980000Y-74849000D02*
X140991000Y-74849000D01*
X124226000Y-74809000D02*
X131220000Y-74809000D01*
X133980000Y-74809000D02*
X140974000Y-74809000D01*
X124242000Y-74769000D02*
X131220000Y-74769000D01*
X133980000Y-74769000D02*
X140958000Y-74769000D01*
X124259000Y-74729000D02*
X131220000Y-74729000D01*
X133980000Y-74729000D02*
X140941000Y-74729000D01*
X124276000Y-74689000D02*
X131220000Y-74689000D01*
X133980000Y-74689000D02*
X140924000Y-74689000D01*
X124293000Y-74649000D02*
X131220000Y-74649000D01*
X133980000Y-74649000D02*
X140907000Y-74649000D01*
X124310000Y-74609000D02*
X131220000Y-74609000D01*
X133980000Y-74609000D02*
X140890000Y-74609000D01*
X124328000Y-74569000D02*
X131220000Y-74569000D01*
X133980000Y-74569000D02*
X140872000Y-74569000D01*
X124346000Y-74529000D02*
X131220000Y-74529000D01*
X133980000Y-74529000D02*
X140854000Y-74529000D01*
X124364000Y-74489000D02*
X131220000Y-74489000D01*
X133980000Y-74489000D02*
X140836000Y-74489000D01*
X124382000Y-74449000D02*
X131220000Y-74449000D01*
X133980000Y-74449000D02*
X140818000Y-74449000D01*
X124400000Y-74409000D02*
X131220000Y-74409000D01*
X133980000Y-74409000D02*
X140800000Y-74409000D01*
X124419000Y-74369000D02*
X131220000Y-74369000D01*
X133980000Y-74369000D02*
X140781000Y-74369000D01*
X124438000Y-74329000D02*
X131220000Y-74329000D01*
X133980000Y-74329000D02*
X140762000Y-74329000D01*
X124457000Y-74289000D02*
X131220000Y-74289000D01*
X133980000Y-74289000D02*
X140743000Y-74289000D01*
X124477000Y-74249000D02*
X131220000Y-74249000D01*
X133980000Y-74249000D02*
X140723000Y-74249000D01*
X124497000Y-74209000D02*
X131220000Y-74209000D01*
X133980000Y-74209000D02*
X140703000Y-74209000D01*
X124517000Y-74169000D02*
X131220000Y-74169000D01*
X133980000Y-74169000D02*
X140683000Y-74169000D01*
X124537000Y-74129000D02*
X131220000Y-74129000D01*
X133980000Y-74129000D02*
X140663000Y-74129000D01*
X124557000Y-74089000D02*
X131220000Y-74089000D01*
X133980000Y-74089000D02*
X140643000Y-74089000D01*
X124578000Y-74049000D02*
X131220000Y-74049000D01*
X133980000Y-74049000D02*
X140622000Y-74049000D01*
X124599000Y-74009000D02*
X131220000Y-74009000D01*
X133980000Y-74009000D02*
X140601000Y-74009000D01*
X124620000Y-73969000D02*
X131220000Y-73969000D01*
X133980000Y-73969000D02*
X140580000Y-73969000D01*
X124642000Y-73929000D02*
X131220000Y-73929000D01*
X133980000Y-73929000D02*
X140558000Y-73929000D01*
X124663000Y-73889000D02*
X131220000Y-73889000D01*
X133980000Y-73889000D02*
X140537000Y-73889000D01*
X124685000Y-73849000D02*
X131220000Y-73849000D01*
X133980000Y-73849000D02*
X140515000Y-73849000D01*
X124708000Y-73809000D02*
X131220000Y-73809000D01*
X133980000Y-73809000D02*
X140492000Y-73809000D01*
X124730000Y-73769000D02*
X131220000Y-73769000D01*
X133980000Y-73769000D02*
X140470000Y-73769000D01*
X124753000Y-73729000D02*
X131220000Y-73729000D01*
X133980000Y-73729000D02*
X140447000Y-73729000D01*
X124776000Y-73689000D02*
X131220000Y-73689000D01*
X133980000Y-73689000D02*
X140424000Y-73689000D01*
X124799000Y-73649000D02*
X131220000Y-73649000D01*
X133980000Y-73649000D02*
X140401000Y-73649000D01*
X124823000Y-73609000D02*
X131220000Y-73609000D01*
X133980000Y-73609000D02*
X140377000Y-73609000D01*
X124847000Y-73569000D02*
X131220000Y-73569000D01*
X133980000Y-73569000D02*
X140353000Y-73569000D01*
X124871000Y-73529000D02*
X131220000Y-73529000D01*
X133980000Y-73529000D02*
X140329000Y-73529000D01*
X124895000Y-73489000D02*
X131220000Y-73489000D01*
X133980000Y-73489000D02*
X140305000Y-73489000D01*
X124920000Y-73449000D02*
X131220000Y-73449000D01*
X133980000Y-73449000D02*
X140280000Y-73449000D01*
X124945000Y-73409000D02*
X131220000Y-73409000D01*
X133980000Y-73409000D02*
X140255000Y-73409000D01*
X124970000Y-73369000D02*
X131220000Y-73369000D01*
X133980000Y-73369000D02*
X140230000Y-73369000D01*
X124996000Y-73329000D02*
X131220000Y-73329000D01*
X133980000Y-73329000D02*
X140204000Y-73329000D01*
X125022000Y-73289000D02*
X131220000Y-73289000D01*
X133980000Y-73289000D02*
X140178000Y-73289000D01*
X125048000Y-73249000D02*
X131220000Y-73249000D01*
X133980000Y-73249000D02*
X140152000Y-73249000D01*
X125075000Y-73209000D02*
X131220000Y-73209000D01*
X133980000Y-73209000D02*
X140125000Y-73209000D01*
X125101000Y-73169000D02*
X131220000Y-73169000D01*
X133980000Y-73169000D02*
X140099000Y-73169000D01*
X125129000Y-73129000D02*
X131220000Y-73129000D01*
X133980000Y-73129000D02*
X140071000Y-73129000D01*
X125156000Y-73089000D02*
X140044000Y-73089000D01*
X125184000Y-73049000D02*
X140016000Y-73049000D01*
X125212000Y-73009000D02*
X139988000Y-73009000D01*
X125240000Y-72969000D02*
X139960000Y-72969000D01*
X125269000Y-72929000D02*
X139931000Y-72929000D01*
X125298000Y-72889000D02*
X139902000Y-72889000D01*
X125327000Y-72849000D02*
X139873000Y-72849000D01*
X125357000Y-72809000D02*
X139843000Y-72809000D01*
X125387000Y-72769000D02*
X139813000Y-72769000D01*
X125417000Y-72729000D02*
X139783000Y-72729000D01*
X125448000Y-72689000D02*
X139752000Y-72689000D01*
X125479000Y-72649000D02*
X139721000Y-72649000D01*
X125511000Y-72609000D02*
X139689000Y-72609000D01*
X125543000Y-72569000D02*
X139657000Y-72569000D01*
X125575000Y-72529000D02*
X139625000Y-72529000D01*
X125607000Y-72489000D02*
X139593000Y-72489000D01*
X125640000Y-72449000D02*
X139560000Y-72449000D01*
X125674000Y-72409000D02*
X139526000Y-72409000D01*
X125707000Y-72369000D02*
X139493000Y-72369000D01*
X125742000Y-72329000D02*
X139458000Y-72329000D01*
X125776000Y-72289000D02*
X139424000Y-72289000D01*
X125811000Y-72249000D02*
X139389000Y-72249000D01*
X125846000Y-72209000D02*
X139354000Y-72209000D01*
X125882000Y-72169000D02*
X139318000Y-72169000D01*
X125918000Y-72129000D02*
X139282000Y-72129000D01*
X125955000Y-72089000D02*
X139245000Y-72089000D01*
X125992000Y-72049000D02*
X139208000Y-72049000D01*
X126030000Y-72009000D02*
X139170000Y-72009000D01*
X126068000Y-71969000D02*
X139132000Y-71969000D01*
X126106000Y-71929000D02*
X139094000Y-71929000D01*
X126145000Y-71889000D02*
X139055000Y-71889000D01*
X126184000Y-71849000D02*
X139016000Y-71849000D01*
X126224000Y-71809000D02*
X138976000Y-71809000D01*
X126265000Y-71769000D02*
X138935000Y-71769000D01*
X126306000Y-71729000D02*
X138894000Y-71729000D01*
X126347000Y-71689000D02*
X138853000Y-71689000D01*
X126389000Y-71649000D02*
X138811000Y-71649000D01*
X126432000Y-71609000D02*
X138768000Y-71609000D01*
X126475000Y-71569000D02*
X138725000Y-71569000D01*
X126518000Y-71529000D02*
X138682000Y-71529000D01*
X126562000Y-71489000D02*
X138638000Y-71489000D01*
X126607000Y-71449000D02*
X138593000Y-71449000D01*
X126653000Y-71409000D02*
X138547000Y-71409000D01*
X126699000Y-71369000D02*
X138501000Y-71369000D01*
X126745000Y-71329000D02*
X138455000Y-71329000D01*
X126793000Y-71289000D02*
X138407000Y-71289000D01*
X126841000Y-71249000D02*
X138359000Y-71249000D01*
X126889000Y-71209000D02*
X138311000Y-71209000D01*
X126938000Y-71169000D02*
X138262000Y-71169000D01*
X126989000Y-71129000D02*
X138211000Y-71129000D01*
X127039000Y-71089000D02*
X138161000Y-71089000D01*
X127091000Y-71049000D02*
X138109000Y-71049000D01*
X127143000Y-71009000D02*
X138057000Y-71009000D01*
X127196000Y-70969000D02*
X138004000Y-70969000D01*
X127250000Y-70929000D02*
X137950000Y-70929000D01*
X127305000Y-70889000D02*
X137895000Y-70889000D01*
X127360000Y-70849000D02*
X137840000Y-70849000D01*
X127417000Y-70809000D02*
X137783000Y-70809000D01*
X127474000Y-70769000D02*
X137726000Y-70769000D01*
X127533000Y-70729000D02*
X137667000Y-70729000D01*
X127592000Y-70689000D02*
X137608000Y-70689000D01*
X127653000Y-70649000D02*
X137547000Y-70649000D01*
X127714000Y-70609000D02*
X137486000Y-70609000D01*
X127777000Y-70569000D02*
X137423000Y-70569000D01*
X127841000Y-70529000D02*
X137359000Y-70529000D01*
X127906000Y-70489000D02*
X137294000Y-70489000D01*
X127972000Y-70449000D02*
X137228000Y-70449000D01*
X128039000Y-70409000D02*
X137161000Y-70409000D01*
X128108000Y-70369000D02*
X137092000Y-70369000D01*
X128178000Y-70329000D02*
X137022000Y-70329000D01*
X128250000Y-70289000D02*
X136950000Y-70289000D01*
X128323000Y-70249000D02*
X136877000Y-70249000D01*
X128398000Y-70209000D02*
X136802000Y-70209000D01*
X128475000Y-70169000D02*
X136725000Y-70169000D01*
X128554000Y-70129000D02*
X136646000Y-70129000D01*
X128634000Y-70089000D02*
X136566000Y-70089000D01*
X128717000Y-70050000D02*
X136483000Y-70050000D01*
X128801000Y-70010000D02*
X136399000Y-70010000D01*
X128889000Y-69970000D02*
X136311000Y-69970000D01*
X128978000Y-69930000D02*
X136222000Y-69930000D01*
X129070000Y-69890000D02*
X136130000Y-69890000D01*
X129166000Y-69850000D02*
X136034000Y-69850000D01*
X129264000Y-69810000D02*
X135936000Y-69810000D01*
X129366000Y-69770000D02*
X135834000Y-69770000D01*
X129471000Y-69730000D02*
X135729000Y-69730000D01*
X129581000Y-69690000D02*
X135619000Y-69690000D01*
X129695000Y-69650000D02*
X135505000Y-69650000D01*
X129815000Y-69610000D02*
X135385000Y-69610000D01*
X129940000Y-69570000D02*
X135260000Y-69570000D01*
X130072000Y-69530000D02*
X135128000Y-69530000D01*
X130212000Y-69490000D02*
X134988000Y-69490000D01*
X130362000Y-69450000D02*
X134838000Y-69450000D01*
X130522000Y-69410000D02*
X134678000Y-69410000D01*
X130697000Y-69370000D02*
X134503000Y-69370000D01*
X130890000Y-69330000D02*
X134310000Y-69330000D01*
X131108000Y-69290000D02*
X134092000Y-69290000D01*
X131364000Y-69250000D02*
X133836000Y-69250000D01*
X131687000Y-69210000D02*
X133513000Y-69210000D01*
X132213000Y-69170000D02*
X132987000Y-69170000D01*
X132600000Y-85200000D02*
X132600000Y-83400000D01*
X131700000Y-84300000D02*
X133500000Y-84300000D01*
X150590000Y-113950000D02*
G75*
G03X150590000Y-113950000I-4090000J0D01*
G01*
X150550000Y-113950000D02*
X142450000Y-113950000D01*
X150550000Y-113990000D02*
X142450000Y-113990000D01*
X150550000Y-114030000D02*
X142450000Y-114030000D01*
X150549000Y-114070000D02*
X142451000Y-114070000D01*
X150547000Y-114110000D02*
X142453000Y-114110000D01*
X150546000Y-114150000D02*
X142454000Y-114150000D01*
X150543000Y-114190000D02*
X142457000Y-114190000D01*
X150541000Y-114230000D02*
X147480000Y-114230000D01*
X145520000Y-114230000D02*
X142459000Y-114230000D01*
X150538000Y-114270000D02*
X147480000Y-114270000D01*
X145520000Y-114270000D02*
X142462000Y-114270000D01*
X150535000Y-114310000D02*
X147480000Y-114310000D01*
X145520000Y-114310000D02*
X142465000Y-114310000D01*
X150531000Y-114350000D02*
X147480000Y-114350000D01*
X145520000Y-114350000D02*
X142469000Y-114350000D01*
X150527000Y-114390000D02*
X147480000Y-114390000D01*
X145520000Y-114390000D02*
X142473000Y-114390000D01*
X150522000Y-114430000D02*
X147480000Y-114430000D01*
X145520000Y-114430000D02*
X142478000Y-114430000D01*
X150517000Y-114470000D02*
X147480000Y-114470000D01*
X145520000Y-114470000D02*
X142483000Y-114470000D01*
X150512000Y-114510000D02*
X147480000Y-114510000D01*
X145520000Y-114510000D02*
X142488000Y-114510000D01*
X150506000Y-114550000D02*
X147480000Y-114550000D01*
X145520000Y-114550000D02*
X142494000Y-114550000D01*
X150500000Y-114590000D02*
X147480000Y-114590000D01*
X145520000Y-114590000D02*
X142500000Y-114590000D01*
X150494000Y-114630000D02*
X147480000Y-114630000D01*
X145520000Y-114630000D02*
X142506000Y-114630000D01*
X150487000Y-114671000D02*
X147480000Y-114671000D01*
X145520000Y-114671000D02*
X142513000Y-114671000D01*
X150479000Y-114711000D02*
X147480000Y-114711000D01*
X145520000Y-114711000D02*
X142521000Y-114711000D01*
X150471000Y-114751000D02*
X147480000Y-114751000D01*
X145520000Y-114751000D02*
X142529000Y-114751000D01*
X150463000Y-114791000D02*
X147480000Y-114791000D01*
X145520000Y-114791000D02*
X142537000Y-114791000D01*
X150455000Y-114831000D02*
X147480000Y-114831000D01*
X145520000Y-114831000D02*
X142545000Y-114831000D01*
X150446000Y-114871000D02*
X147480000Y-114871000D01*
X145520000Y-114871000D02*
X142554000Y-114871000D01*
X150436000Y-114911000D02*
X147480000Y-114911000D01*
X145520000Y-114911000D02*
X142564000Y-114911000D01*
X150426000Y-114951000D02*
X147480000Y-114951000D01*
X145520000Y-114951000D02*
X142574000Y-114951000D01*
X150416000Y-114991000D02*
X147480000Y-114991000D01*
X145520000Y-114991000D02*
X142584000Y-114991000D01*
X150405000Y-115031000D02*
X147480000Y-115031000D01*
X145520000Y-115031000D02*
X142595000Y-115031000D01*
X150394000Y-115071000D02*
X147480000Y-115071000D01*
X145520000Y-115071000D02*
X142606000Y-115071000D01*
X150383000Y-115111000D02*
X147480000Y-115111000D01*
X145520000Y-115111000D02*
X142617000Y-115111000D01*
X150370000Y-115151000D02*
X147480000Y-115151000D01*
X145520000Y-115151000D02*
X142630000Y-115151000D01*
X150358000Y-115191000D02*
X147480000Y-115191000D01*
X145520000Y-115191000D02*
X142642000Y-115191000D01*
X150345000Y-115231000D02*
X147480000Y-115231000D01*
X145520000Y-115231000D02*
X142655000Y-115231000D01*
X150332000Y-115271000D02*
X147480000Y-115271000D01*
X145520000Y-115271000D02*
X142668000Y-115271000D01*
X150318000Y-115311000D02*
X147480000Y-115311000D01*
X145520000Y-115311000D02*
X142682000Y-115311000D01*
X150303000Y-115351000D02*
X147480000Y-115351000D01*
X145520000Y-115351000D02*
X142697000Y-115351000D01*
X150289000Y-115391000D02*
X147480000Y-115391000D01*
X145520000Y-115391000D02*
X142711000Y-115391000D01*
X150273000Y-115431000D02*
X147480000Y-115431000D01*
X145520000Y-115431000D02*
X142727000Y-115431000D01*
X150258000Y-115471000D02*
X147480000Y-115471000D01*
X145520000Y-115471000D02*
X142742000Y-115471000D01*
X150241000Y-115511000D02*
X147480000Y-115511000D01*
X145520000Y-115511000D02*
X142759000Y-115511000D01*
X150225000Y-115551000D02*
X147480000Y-115551000D01*
X145520000Y-115551000D02*
X142775000Y-115551000D01*
X150207000Y-115591000D02*
X147480000Y-115591000D01*
X145520000Y-115591000D02*
X142793000Y-115591000D01*
X150190000Y-115631000D02*
X147480000Y-115631000D01*
X145520000Y-115631000D02*
X142810000Y-115631000D01*
X150171000Y-115671000D02*
X147480000Y-115671000D01*
X145520000Y-115671000D02*
X142829000Y-115671000D01*
X150152000Y-115711000D02*
X147480000Y-115711000D01*
X145520000Y-115711000D02*
X142848000Y-115711000D01*
X150133000Y-115751000D02*
X147480000Y-115751000D01*
X145520000Y-115751000D02*
X142867000Y-115751000D01*
X150113000Y-115791000D02*
X147480000Y-115791000D01*
X145520000Y-115791000D02*
X142887000Y-115791000D01*
X150093000Y-115831000D02*
X147480000Y-115831000D01*
X145520000Y-115831000D02*
X142907000Y-115831000D01*
X150072000Y-115871000D02*
X147480000Y-115871000D01*
X145520000Y-115871000D02*
X142928000Y-115871000D01*
X150050000Y-115911000D02*
X147480000Y-115911000D01*
X145520000Y-115911000D02*
X142950000Y-115911000D01*
X150028000Y-115951000D02*
X147480000Y-115951000D01*
X145520000Y-115951000D02*
X142972000Y-115951000D01*
X150005000Y-115991000D02*
X147480000Y-115991000D01*
X145520000Y-115991000D02*
X142995000Y-115991000D01*
X149982000Y-116031000D02*
X147480000Y-116031000D01*
X145520000Y-116031000D02*
X143018000Y-116031000D01*
X149958000Y-116071000D02*
X147480000Y-116071000D01*
X145520000Y-116071000D02*
X143042000Y-116071000D01*
X149934000Y-116111000D02*
X147480000Y-116111000D01*
X145520000Y-116111000D02*
X143066000Y-116111000D01*
X149908000Y-116151000D02*
X147480000Y-116151000D01*
X145520000Y-116151000D02*
X143092000Y-116151000D01*
X149883000Y-116191000D02*
X143117000Y-116191000D01*
X149856000Y-116231000D02*
X143144000Y-116231000D01*
X149829000Y-116271000D02*
X143171000Y-116271000D01*
X149801000Y-116311000D02*
X143199000Y-116311000D01*
X149772000Y-116351000D02*
X143228000Y-116351000D01*
X149743000Y-116391000D02*
X143257000Y-116391000D01*
X149713000Y-116431000D02*
X143287000Y-116431000D01*
X149682000Y-116471000D02*
X143318000Y-116471000D01*
X149650000Y-116511000D02*
X143350000Y-116511000D01*
X149618000Y-116551000D02*
X143382000Y-116551000D01*
X149584000Y-116591000D02*
X143416000Y-116591000D01*
X149550000Y-116631000D02*
X143450000Y-116631000D01*
X149515000Y-116671000D02*
X143485000Y-116671000D01*
X149479000Y-116711000D02*
X143521000Y-116711000D01*
X149442000Y-116751000D02*
X143558000Y-116751000D01*
X149404000Y-116791000D02*
X143596000Y-116791000D01*
X149365000Y-116831000D02*
X143635000Y-116831000D01*
X149324000Y-116871000D02*
X143676000Y-116871000D01*
X149283000Y-116911000D02*
X143717000Y-116911000D01*
X149240000Y-116951000D02*
X143760000Y-116951000D01*
X149197000Y-116991000D02*
X143803000Y-116991000D01*
X149152000Y-117031000D02*
X143848000Y-117031000D01*
X149105000Y-117071000D02*
X143895000Y-117071000D01*
X149057000Y-117111000D02*
X143943000Y-117111000D01*
X149008000Y-117151000D02*
X143992000Y-117151000D01*
X148957000Y-117191000D02*
X144043000Y-117191000D01*
X148904000Y-117231000D02*
X144096000Y-117231000D01*
X148849000Y-117271000D02*
X144151000Y-117271000D01*
X148793000Y-117311000D02*
X144207000Y-117311000D01*
X148734000Y-117351000D02*
X144266000Y-117351000D01*
X148673000Y-117391000D02*
X144327000Y-117391000D01*
X148609000Y-117431000D02*
X144391000Y-117431000D01*
X148543000Y-117471000D02*
X144457000Y-117471000D01*
X148474000Y-117511000D02*
X144526000Y-117511000D01*
X148402000Y-117551000D02*
X144598000Y-117551000D01*
X148326000Y-117591000D02*
X144674000Y-117591000D01*
X148245000Y-117631000D02*
X144755000Y-117631000D01*
X148160000Y-117671000D02*
X144840000Y-117671000D01*
X148070000Y-117711000D02*
X144930000Y-117711000D01*
X147973000Y-117751000D02*
X145027000Y-117751000D01*
X147869000Y-117791000D02*
X145131000Y-117791000D01*
X147754000Y-117831000D02*
X145246000Y-117831000D01*
X147627000Y-117871000D02*
X145373000Y-117871000D01*
X147483000Y-117911000D02*
X145517000Y-117911000D01*
X147314000Y-117951000D02*
X145686000Y-117951000D01*
X147098000Y-117991000D02*
X145902000Y-117991000D01*
X146746000Y-118031000D02*
X146254000Y-118031000D01*
X146500000Y-110500000D02*
X146500000Y-111700000D01*
X147150000Y-111100000D02*
X145850000Y-111100000D01*
X132010000Y-107460000D02*
X124890000Y-107460000D01*
X132010000Y-104840000D02*
X124890000Y-104840000D01*
X132010000Y-107460000D02*
X132010000Y-104840000D01*
X124890000Y-107460000D02*
X124890000Y-104840000D01*
X138490000Y-117250000D02*
G75*
G03X138490000Y-117250000I-9090000J0D01*
G01*
X129400000Y-126300000D02*
X129400000Y-108200000D01*
X129360000Y-126300000D02*
X129360000Y-108200000D01*
X129320000Y-126300000D02*
X129320000Y-108200000D01*
X129280000Y-126300000D02*
X129280000Y-108200000D01*
X129240000Y-126299000D02*
X129240000Y-108201000D01*
X129200000Y-126298000D02*
X129200000Y-108202000D01*
X129160000Y-126297000D02*
X129160000Y-108203000D01*
X129120000Y-126296000D02*
X129120000Y-108204000D01*
X129080000Y-126295000D02*
X129080000Y-108205000D01*
X129040000Y-126293000D02*
X129040000Y-108207000D01*
X129000000Y-126292000D02*
X129000000Y-108208000D01*
X128960000Y-126290000D02*
X128960000Y-108210000D01*
X128920000Y-126288000D02*
X128920000Y-108212000D01*
X128880000Y-126286000D02*
X128880000Y-108214000D01*
X128840000Y-126283000D02*
X128840000Y-108217000D01*
X128800000Y-126281000D02*
X128800000Y-108219000D01*
X128760000Y-126278000D02*
X128760000Y-108222000D01*
X128720000Y-126275000D02*
X128720000Y-108225000D01*
X128679000Y-126272000D02*
X128679000Y-108228000D01*
X128639000Y-126269000D02*
X128639000Y-108231000D01*
X128599000Y-126265000D02*
X128599000Y-108235000D01*
X128559000Y-126262000D02*
X128559000Y-108238000D01*
X128519000Y-126258000D02*
X128519000Y-108242000D01*
X128479000Y-126254000D02*
X128479000Y-108246000D01*
X128439000Y-126250000D02*
X128439000Y-108250000D01*
X128399000Y-126245000D02*
X128399000Y-108255000D01*
X128359000Y-126241000D02*
X128359000Y-108259000D01*
X128319000Y-126236000D02*
X128319000Y-108264000D01*
X128279000Y-126231000D02*
X128279000Y-108269000D01*
X128239000Y-126226000D02*
X128239000Y-108274000D01*
X128199000Y-126221000D02*
X128199000Y-108279000D01*
X128159000Y-126216000D02*
X128159000Y-108284000D01*
X128119000Y-126210000D02*
X128119000Y-108290000D01*
X128079000Y-126204000D02*
X128079000Y-108296000D01*
X128039000Y-126198000D02*
X128039000Y-108302000D01*
X127999000Y-126192000D02*
X127999000Y-108308000D01*
X127959000Y-126186000D02*
X127959000Y-108314000D01*
X127919000Y-126179000D02*
X127919000Y-108321000D01*
X127879000Y-126173000D02*
X127879000Y-108327000D01*
X127839000Y-126166000D02*
X127839000Y-108334000D01*
X127799000Y-126159000D02*
X127799000Y-108341000D01*
X127759000Y-126151000D02*
X127759000Y-108349000D01*
X127719000Y-126144000D02*
X127719000Y-108356000D01*
X127679000Y-126136000D02*
X127679000Y-108364000D01*
X127639000Y-126128000D02*
X127639000Y-108372000D01*
X127599000Y-126120000D02*
X127599000Y-108380000D01*
X127559000Y-126112000D02*
X127559000Y-108388000D01*
X127519000Y-126104000D02*
X127519000Y-108396000D01*
X127479000Y-126095000D02*
X127479000Y-108405000D01*
X127439000Y-126087000D02*
X127439000Y-108413000D01*
X127399000Y-126078000D02*
X127399000Y-108422000D01*
X127359000Y-126069000D02*
X127359000Y-108431000D01*
X127319000Y-126059000D02*
X127319000Y-108441000D01*
X127279000Y-126050000D02*
X127279000Y-108450000D01*
X127239000Y-126040000D02*
X127239000Y-108460000D01*
X127199000Y-126030000D02*
X127199000Y-108470000D01*
X127159000Y-126020000D02*
X127159000Y-108480000D01*
X127119000Y-126010000D02*
X127119000Y-108490000D01*
X127079000Y-125999000D02*
X127079000Y-108501000D01*
X127039000Y-125989000D02*
X127039000Y-108511000D01*
X126999000Y-125978000D02*
X126999000Y-118630000D01*
X126999000Y-115870000D02*
X126999000Y-108522000D01*
X126959000Y-125967000D02*
X126959000Y-118630000D01*
X126959000Y-115870000D02*
X126959000Y-108533000D01*
X126919000Y-125956000D02*
X126919000Y-118630000D01*
X126919000Y-115870000D02*
X126919000Y-108544000D01*
X126879000Y-125944000D02*
X126879000Y-118630000D01*
X126879000Y-115870000D02*
X126879000Y-108556000D01*
X126839000Y-125933000D02*
X126839000Y-118630000D01*
X126839000Y-115870000D02*
X126839000Y-108567000D01*
X126799000Y-125921000D02*
X126799000Y-118630000D01*
X126799000Y-115870000D02*
X126799000Y-108579000D01*
X126759000Y-125909000D02*
X126759000Y-118630000D01*
X126759000Y-115870000D02*
X126759000Y-108591000D01*
X126719000Y-125896000D02*
X126719000Y-118630000D01*
X126719000Y-115870000D02*
X126719000Y-108604000D01*
X126679000Y-125884000D02*
X126679000Y-118630000D01*
X126679000Y-115870000D02*
X126679000Y-108616000D01*
X126639000Y-125871000D02*
X126639000Y-118630000D01*
X126639000Y-115870000D02*
X126639000Y-108629000D01*
X126599000Y-125859000D02*
X126599000Y-118630000D01*
X126599000Y-115870000D02*
X126599000Y-108641000D01*
X126559000Y-125845000D02*
X126559000Y-118630000D01*
X126559000Y-115870000D02*
X126559000Y-108655000D01*
X126519000Y-125832000D02*
X126519000Y-118630000D01*
X126519000Y-115870000D02*
X126519000Y-108668000D01*
X126479000Y-125819000D02*
X126479000Y-118630000D01*
X126479000Y-115870000D02*
X126479000Y-108681000D01*
X126439000Y-125805000D02*
X126439000Y-118630000D01*
X126439000Y-115870000D02*
X126439000Y-108695000D01*
X126399000Y-125791000D02*
X126399000Y-118630000D01*
X126399000Y-115870000D02*
X126399000Y-108709000D01*
X126359000Y-125777000D02*
X126359000Y-118630000D01*
X126359000Y-115870000D02*
X126359000Y-108723000D01*
X126319000Y-125763000D02*
X126319000Y-118630000D01*
X126319000Y-115870000D02*
X126319000Y-108737000D01*
X126279000Y-125748000D02*
X126279000Y-118630000D01*
X126279000Y-115870000D02*
X126279000Y-108752000D01*
X126239000Y-125734000D02*
X126239000Y-118630000D01*
X126239000Y-115870000D02*
X126239000Y-108766000D01*
X126199000Y-125719000D02*
X126199000Y-118630000D01*
X126199000Y-115870000D02*
X126199000Y-108781000D01*
X126159000Y-125703000D02*
X126159000Y-118630000D01*
X126159000Y-115870000D02*
X126159000Y-108797000D01*
X126119000Y-125688000D02*
X126119000Y-118630000D01*
X126119000Y-115870000D02*
X126119000Y-108812000D01*
X126079000Y-125673000D02*
X126079000Y-118630000D01*
X126079000Y-115870000D02*
X126079000Y-108827000D01*
X126039000Y-125657000D02*
X126039000Y-118630000D01*
X126039000Y-115870000D02*
X126039000Y-108843000D01*
X125999000Y-125641000D02*
X125999000Y-118630000D01*
X125999000Y-115870000D02*
X125999000Y-108859000D01*
X125959000Y-125624000D02*
X125959000Y-118630000D01*
X125959000Y-115870000D02*
X125959000Y-108876000D01*
X125919000Y-125608000D02*
X125919000Y-118630000D01*
X125919000Y-115870000D02*
X125919000Y-108892000D01*
X125879000Y-125591000D02*
X125879000Y-118630000D01*
X125879000Y-115870000D02*
X125879000Y-108909000D01*
X125839000Y-125574000D02*
X125839000Y-118630000D01*
X125839000Y-115870000D02*
X125839000Y-108926000D01*
X125799000Y-125557000D02*
X125799000Y-118630000D01*
X125799000Y-115870000D02*
X125799000Y-108943000D01*
X125759000Y-125540000D02*
X125759000Y-118630000D01*
X125759000Y-115870000D02*
X125759000Y-108960000D01*
X125719000Y-125522000D02*
X125719000Y-118630000D01*
X125719000Y-115870000D02*
X125719000Y-108978000D01*
X125679000Y-125504000D02*
X125679000Y-118630000D01*
X125679000Y-115870000D02*
X125679000Y-108996000D01*
X125639000Y-125486000D02*
X125639000Y-118630000D01*
X125639000Y-115870000D02*
X125639000Y-109014000D01*
X125599000Y-125468000D02*
X125599000Y-118630000D01*
X125599000Y-115870000D02*
X125599000Y-109032000D01*
X125559000Y-125450000D02*
X125559000Y-118630000D01*
X125559000Y-115870000D02*
X125559000Y-109050000D01*
X125519000Y-125431000D02*
X125519000Y-118630000D01*
X125519000Y-115870000D02*
X125519000Y-109069000D01*
X125479000Y-125412000D02*
X125479000Y-118630000D01*
X125479000Y-115870000D02*
X125479000Y-109088000D01*
X125439000Y-125393000D02*
X125439000Y-118630000D01*
X125439000Y-115870000D02*
X125439000Y-109107000D01*
X125399000Y-125373000D02*
X125399000Y-118630000D01*
X125399000Y-115870000D02*
X125399000Y-109127000D01*
X125359000Y-125353000D02*
X125359000Y-118630000D01*
X125359000Y-115870000D02*
X125359000Y-109147000D01*
X125319000Y-125333000D02*
X125319000Y-118630000D01*
X125319000Y-115870000D02*
X125319000Y-109167000D01*
X125279000Y-125313000D02*
X125279000Y-118630000D01*
X125279000Y-115870000D02*
X125279000Y-109187000D01*
X125239000Y-125293000D02*
X125239000Y-118630000D01*
X125239000Y-115870000D02*
X125239000Y-109207000D01*
X125199000Y-125272000D02*
X125199000Y-118630000D01*
X125199000Y-115870000D02*
X125199000Y-109228000D01*
X125159000Y-125251000D02*
X125159000Y-118630000D01*
X125159000Y-115870000D02*
X125159000Y-109249000D01*
X125119000Y-125230000D02*
X125119000Y-118630000D01*
X125119000Y-115870000D02*
X125119000Y-109270000D01*
X125079000Y-125208000D02*
X125079000Y-118630000D01*
X125079000Y-115870000D02*
X125079000Y-109292000D01*
X125039000Y-125187000D02*
X125039000Y-118630000D01*
X125039000Y-115870000D02*
X125039000Y-109313000D01*
X124999000Y-125165000D02*
X124999000Y-118630000D01*
X124999000Y-115870000D02*
X124999000Y-109335000D01*
X124959000Y-125142000D02*
X124959000Y-118630000D01*
X124959000Y-115870000D02*
X124959000Y-109358000D01*
X124919000Y-125120000D02*
X124919000Y-118630000D01*
X124919000Y-115870000D02*
X124919000Y-109380000D01*
X124879000Y-125097000D02*
X124879000Y-118630000D01*
X124879000Y-115870000D02*
X124879000Y-109403000D01*
X124839000Y-125074000D02*
X124839000Y-118630000D01*
X124839000Y-115870000D02*
X124839000Y-109426000D01*
X124799000Y-125051000D02*
X124799000Y-118630000D01*
X124799000Y-115870000D02*
X124799000Y-109449000D01*
X124759000Y-125027000D02*
X124759000Y-118630000D01*
X124759000Y-115870000D02*
X124759000Y-109473000D01*
X124719000Y-125003000D02*
X124719000Y-118630000D01*
X124719000Y-115870000D02*
X124719000Y-109497000D01*
X124679000Y-124979000D02*
X124679000Y-118630000D01*
X124679000Y-115870000D02*
X124679000Y-109521000D01*
X124639000Y-124955000D02*
X124639000Y-118630000D01*
X124639000Y-115870000D02*
X124639000Y-109545000D01*
X124599000Y-124930000D02*
X124599000Y-118630000D01*
X124599000Y-115870000D02*
X124599000Y-109570000D01*
X124559000Y-124905000D02*
X124559000Y-118630000D01*
X124559000Y-115870000D02*
X124559000Y-109595000D01*
X124519000Y-124880000D02*
X124519000Y-118630000D01*
X124519000Y-115870000D02*
X124519000Y-109620000D01*
X124479000Y-124854000D02*
X124479000Y-118630000D01*
X124479000Y-115870000D02*
X124479000Y-109646000D01*
X124439000Y-124828000D02*
X124439000Y-118630000D01*
X124439000Y-115870000D02*
X124439000Y-109672000D01*
X124399000Y-124802000D02*
X124399000Y-118630000D01*
X124399000Y-115870000D02*
X124399000Y-109698000D01*
X124359000Y-124775000D02*
X124359000Y-118630000D01*
X124359000Y-115870000D02*
X124359000Y-109725000D01*
X124319000Y-124749000D02*
X124319000Y-118630000D01*
X124319000Y-115870000D02*
X124319000Y-109751000D01*
X124279000Y-124721000D02*
X124279000Y-118630000D01*
X124279000Y-115870000D02*
X124279000Y-109779000D01*
X124239000Y-124694000D02*
X124239000Y-109806000D01*
X124199000Y-124666000D02*
X124199000Y-109834000D01*
X124159000Y-124638000D02*
X124159000Y-109862000D01*
X124119000Y-124610000D02*
X124119000Y-109890000D01*
X124079000Y-124581000D02*
X124079000Y-109919000D01*
X124039000Y-124552000D02*
X124039000Y-109948000D01*
X123999000Y-124523000D02*
X123999000Y-109977000D01*
X123959000Y-124493000D02*
X123959000Y-110007000D01*
X123919000Y-124463000D02*
X123919000Y-110037000D01*
X123879000Y-124433000D02*
X123879000Y-110067000D01*
X123839000Y-124402000D02*
X123839000Y-110098000D01*
X123799000Y-124371000D02*
X123799000Y-110129000D01*
X123759000Y-124339000D02*
X123759000Y-110161000D01*
X123719000Y-124307000D02*
X123719000Y-110193000D01*
X123679000Y-124275000D02*
X123679000Y-110225000D01*
X123639000Y-124243000D02*
X123639000Y-110257000D01*
X123599000Y-124210000D02*
X123599000Y-110290000D01*
X123559000Y-124176000D02*
X123559000Y-110324000D01*
X123519000Y-124143000D02*
X123519000Y-110357000D01*
X123479000Y-124108000D02*
X123479000Y-110392000D01*
X123439000Y-124074000D02*
X123439000Y-110426000D01*
X123399000Y-124039000D02*
X123399000Y-110461000D01*
X123359000Y-124004000D02*
X123359000Y-110496000D01*
X123319000Y-123968000D02*
X123319000Y-110532000D01*
X123279000Y-123932000D02*
X123279000Y-110568000D01*
X123239000Y-123895000D02*
X123239000Y-110605000D01*
X123199000Y-123858000D02*
X123199000Y-110642000D01*
X123159000Y-123820000D02*
X123159000Y-110680000D01*
X123119000Y-123782000D02*
X123119000Y-110718000D01*
X123079000Y-123744000D02*
X123079000Y-110756000D01*
X123039000Y-123705000D02*
X123039000Y-110795000D01*
X122999000Y-123666000D02*
X122999000Y-110834000D01*
X122959000Y-123626000D02*
X122959000Y-110874000D01*
X122919000Y-123585000D02*
X122919000Y-110915000D01*
X122879000Y-123544000D02*
X122879000Y-110956000D01*
X122839000Y-123503000D02*
X122839000Y-110997000D01*
X122799000Y-123461000D02*
X122799000Y-111039000D01*
X122759000Y-123418000D02*
X122759000Y-111082000D01*
X122719000Y-123375000D02*
X122719000Y-111125000D01*
X122679000Y-123332000D02*
X122679000Y-111168000D01*
X122639000Y-123288000D02*
X122639000Y-111212000D01*
X122599000Y-123243000D02*
X122599000Y-111257000D01*
X122559000Y-123197000D02*
X122559000Y-111303000D01*
X122519000Y-123151000D02*
X122519000Y-111349000D01*
X122479000Y-123105000D02*
X122479000Y-111395000D01*
X122439000Y-123057000D02*
X122439000Y-111443000D01*
X122399000Y-123009000D02*
X122399000Y-111491000D01*
X122359000Y-122961000D02*
X122359000Y-111539000D01*
X122319000Y-122912000D02*
X122319000Y-111588000D01*
X122279000Y-122861000D02*
X122279000Y-111639000D01*
X122239000Y-122811000D02*
X122239000Y-111689000D01*
X122199000Y-122759000D02*
X122199000Y-111741000D01*
X122159000Y-122707000D02*
X122159000Y-111793000D01*
X122119000Y-122654000D02*
X122119000Y-111846000D01*
X122079000Y-122600000D02*
X122079000Y-111900000D01*
X122039000Y-122545000D02*
X122039000Y-111955000D01*
X121999000Y-122490000D02*
X121999000Y-112010000D01*
X121959000Y-122433000D02*
X121959000Y-112067000D01*
X121919000Y-122376000D02*
X121919000Y-112124000D01*
X121879000Y-122317000D02*
X121879000Y-112183000D01*
X121839000Y-122258000D02*
X121839000Y-112242000D01*
X121799000Y-122197000D02*
X121799000Y-112303000D01*
X121759000Y-122136000D02*
X121759000Y-112364000D01*
X121719000Y-122073000D02*
X121719000Y-112427000D01*
X121679000Y-122009000D02*
X121679000Y-112491000D01*
X121639000Y-121944000D02*
X121639000Y-112556000D01*
X121599000Y-121878000D02*
X121599000Y-112622000D01*
X121559000Y-121811000D02*
X121559000Y-112689000D01*
X121519000Y-121742000D02*
X121519000Y-112758000D01*
X121479000Y-121672000D02*
X121479000Y-112828000D01*
X121439000Y-121600000D02*
X121439000Y-112900000D01*
X121399000Y-121527000D02*
X121399000Y-112973000D01*
X121359000Y-121452000D02*
X121359000Y-113048000D01*
X121319000Y-121375000D02*
X121319000Y-113125000D01*
X121279000Y-121296000D02*
X121279000Y-113204000D01*
X121239000Y-121216000D02*
X121239000Y-113284000D01*
X121200000Y-121133000D02*
X121200000Y-113367000D01*
X121160000Y-121049000D02*
X121160000Y-113451000D01*
X121120000Y-120961000D02*
X121120000Y-113539000D01*
X121080000Y-120872000D02*
X121080000Y-113628000D01*
X121040000Y-120780000D02*
X121040000Y-113720000D01*
X121000000Y-120684000D02*
X121000000Y-113816000D01*
X120960000Y-120586000D02*
X120960000Y-113914000D01*
X120920000Y-120484000D02*
X120920000Y-114016000D01*
X120880000Y-120379000D02*
X120880000Y-114121000D01*
X120840000Y-120269000D02*
X120840000Y-114231000D01*
X120800000Y-120155000D02*
X120800000Y-114345000D01*
X120760000Y-120035000D02*
X120760000Y-114465000D01*
X120720000Y-119910000D02*
X120720000Y-114590000D01*
X120680000Y-119778000D02*
X120680000Y-114722000D01*
X120640000Y-119638000D02*
X120640000Y-114862000D01*
X120600000Y-119488000D02*
X120600000Y-115012000D01*
X120560000Y-119328000D02*
X120560000Y-115172000D01*
X120520000Y-119153000D02*
X120520000Y-115347000D01*
X120480000Y-118960000D02*
X120480000Y-115540000D01*
X120440000Y-118742000D02*
X120440000Y-115758000D01*
X120400000Y-118486000D02*
X120400000Y-116014000D01*
X120360000Y-118163000D02*
X120360000Y-116337000D01*
X120320000Y-117637000D02*
X120320000Y-116863000D01*
X136350000Y-117250000D02*
X134550000Y-117250000D01*
X135450000Y-118150000D02*
X135450000Y-116350000D01*
X127610000Y-95220000D02*
X124790000Y-95220000D01*
X124790000Y-95220000D02*
X124790000Y-100540000D01*
X124790000Y-100540000D02*
X127610000Y-100540000D01*
X127610000Y-100540000D02*
X127610000Y-95220000D01*
X126200000Y-94080000D02*
X126200000Y-95220000D01*
X126200000Y-101680000D02*
X126200000Y-100540000D01*
X127610000Y-96060000D02*
X124790000Y-96060000D01*
X151580000Y-124735000D02*
X151580000Y-121915000D01*
X151580000Y-121915000D02*
X146260000Y-121915000D01*
X146260000Y-121915000D02*
X146260000Y-124735000D01*
X146260000Y-124735000D02*
X151580000Y-124735000D01*
X152720000Y-123325000D02*
X151580000Y-123325000D01*
X145120000Y-123325000D02*
X146260000Y-123325000D01*
X150740000Y-124735000D02*
X150740000Y-121915000D01*
X131020000Y-67440000D02*
X120860000Y-67440000D01*
X131020000Y-68710000D02*
X131020000Y-61090000D01*
X131020000Y-61090000D02*
X120860000Y-61090000D01*
X120860000Y-61090000D02*
X120860000Y-68710000D01*
X120860000Y-68710000D02*
X131020000Y-68710000D01*
X130130000Y-127680000D02*
X130130000Y-133680000D01*
X130130000Y-133680000D02*
X135410000Y-133680000D01*
X135410000Y-133680000D02*
X135410000Y-127680000D01*
X135410000Y-127680000D02*
X130130000Y-127680000D01*
X131500000Y-133680000D02*
X131500000Y-132680000D01*
X131500000Y-132680000D02*
X134040000Y-132680000D01*
X134040000Y-132680000D02*
X134040000Y-133680000D01*
X131500000Y-132680000D02*
X131750000Y-132250000D01*
X131750000Y-132250000D02*
X133790000Y-132250000D01*
X133790000Y-132250000D02*
X134040000Y-132680000D01*
X131750000Y-133680000D02*
X131750000Y-132680000D01*
X133790000Y-133680000D02*
X133790000Y-132680000D01*
X130700000Y-127680000D02*
X130700000Y-128300000D01*
X130700000Y-128300000D02*
X132300000Y-128300000D01*
X132300000Y-128300000D02*
X132300000Y-127680000D01*
X133240000Y-127680000D02*
X133240000Y-128300000D01*
X133240000Y-128300000D02*
X134840000Y-128300000D01*
X134840000Y-128300000D02*
X134840000Y-127680000D01*
X137130000Y-127680000D02*
X137130000Y-133680000D01*
X137130000Y-133680000D02*
X142410000Y-133680000D01*
X142410000Y-133680000D02*
X142410000Y-127680000D01*
X142410000Y-127680000D02*
X137130000Y-127680000D01*
X138500000Y-133680000D02*
X138500000Y-132680000D01*
X138500000Y-132680000D02*
X141040000Y-132680000D01*
X141040000Y-132680000D02*
X141040000Y-133680000D01*
X138500000Y-132680000D02*
X138750000Y-132250000D01*
X138750000Y-132250000D02*
X140790000Y-132250000D01*
X140790000Y-132250000D02*
X141040000Y-132680000D01*
X138750000Y-133680000D02*
X138750000Y-132680000D01*
X140790000Y-133680000D02*
X140790000Y-132680000D01*
X137700000Y-127680000D02*
X137700000Y-128300000D01*
X137700000Y-128300000D02*
X139300000Y-128300000D01*
X139300000Y-128300000D02*
X139300000Y-127680000D01*
X140240000Y-127680000D02*
X140240000Y-128300000D01*
X140240000Y-128300000D02*
X141840000Y-128300000D01*
X141840000Y-128300000D02*
X141840000Y-127680000D01*
X144130000Y-127680000D02*
X144130000Y-133680000D01*
X144130000Y-133680000D02*
X149410000Y-133680000D01*
X149410000Y-133680000D02*
X149410000Y-127680000D01*
X149410000Y-127680000D02*
X144130000Y-127680000D01*
X145500000Y-133680000D02*
X145500000Y-132680000D01*
X145500000Y-132680000D02*
X148040000Y-132680000D01*
X148040000Y-132680000D02*
X148040000Y-133680000D01*
X145500000Y-132680000D02*
X145750000Y-132250000D01*
X145750000Y-132250000D02*
X147790000Y-132250000D01*
X147790000Y-132250000D02*
X148040000Y-132680000D01*
X145750000Y-133680000D02*
X145750000Y-132680000D01*
X147790000Y-133680000D02*
X147790000Y-132680000D01*
X144700000Y-127680000D02*
X144700000Y-128300000D01*
X144700000Y-128300000D02*
X146300000Y-128300000D01*
X146300000Y-128300000D02*
X146300000Y-127680000D01*
X147240000Y-127680000D02*
X147240000Y-128300000D01*
X147240000Y-128300000D02*
X148840000Y-128300000D01*
X148840000Y-128300000D02*
X148840000Y-127680000D01*
X151130000Y-127680000D02*
X151130000Y-133680000D01*
X151130000Y-133680000D02*
X156410000Y-133680000D01*
X156410000Y-133680000D02*
X156410000Y-127680000D01*
X156410000Y-127680000D02*
X151130000Y-127680000D01*
X152500000Y-133680000D02*
X152500000Y-132680000D01*
X152500000Y-132680000D02*
X155040000Y-132680000D01*
X155040000Y-132680000D02*
X155040000Y-133680000D01*
X152500000Y-132680000D02*
X152750000Y-132250000D01*
X152750000Y-132250000D02*
X154790000Y-132250000D01*
X154790000Y-132250000D02*
X155040000Y-132680000D01*
X152750000Y-133680000D02*
X152750000Y-132680000D01*
X154790000Y-133680000D02*
X154790000Y-132680000D01*
X151700000Y-127680000D02*
X151700000Y-128300000D01*
X151700000Y-128300000D02*
X153300000Y-128300000D01*
X153300000Y-128300000D02*
X153300000Y-127680000D01*
X154240000Y-127680000D02*
X154240000Y-128300000D01*
X154240000Y-128300000D02*
X155840000Y-128300000D01*
X155840000Y-128300000D02*
X155840000Y-127680000D01*
X123030000Y-127680000D02*
X123030000Y-133680000D01*
X123030000Y-133680000D02*
X128310000Y-133680000D01*
X128310000Y-133680000D02*
X128310000Y-127680000D01*
X128310000Y-127680000D02*
X123030000Y-127680000D01*
X124400000Y-133680000D02*
X124400000Y-132680000D01*
X124400000Y-132680000D02*
X126940000Y-132680000D01*
X126940000Y-132680000D02*
X126940000Y-133680000D01*
X124400000Y-132680000D02*
X124650000Y-132250000D01*
X124650000Y-132250000D02*
X126690000Y-132250000D01*
X126690000Y-132250000D02*
X126940000Y-132680000D01*
X124650000Y-133680000D02*
X124650000Y-132680000D01*
X126690000Y-133680000D02*
X126690000Y-132680000D01*
X123600000Y-127680000D02*
X123600000Y-128300000D01*
X123600000Y-128300000D02*
X125200000Y-128300000D01*
X125200000Y-128300000D02*
X125200000Y-127680000D01*
X126140000Y-127680000D02*
X126140000Y-128300000D01*
X126140000Y-128300000D02*
X127740000Y-128300000D01*
X127740000Y-128300000D02*
X127740000Y-127680000D01*
X139140000Y-118955000D02*
X141760000Y-118955000D01*
X141760000Y-118955000D02*
X141760000Y-112535000D01*
X141760000Y-112535000D02*
X139140000Y-112535000D01*
X139140000Y-112535000D02*
X139140000Y-118955000D01*
X140450000Y-119845000D02*
X140450000Y-118955000D01*
X140450000Y-111645000D02*
X140450000Y-112535000D01*
X151220000Y-111080000D02*
X151689000Y-111080000D01*
X152911000Y-111080000D02*
X156040000Y-111080000D01*
X151220000Y-117800000D02*
X151689000Y-117800000D01*
X152911000Y-117800000D02*
X156040000Y-117800000D01*
X156040000Y-111080000D02*
X156040000Y-117800000D01*
X151220000Y-111080000D02*
X151220000Y-117800000D01*
X148230000Y-103230000D02*
X148230000Y-92990000D01*
X152871000Y-103230000D02*
X152871000Y-92990000D01*
X148230000Y-103230000D02*
X152871000Y-103230000D01*
X148230000Y-92990000D02*
X152871000Y-92990000D01*
X149740000Y-103230000D02*
X149740000Y-92990000D01*
X148230000Y-99960000D02*
X149740000Y-99960000D01*
X148230000Y-96259000D02*
X149740000Y-96259000D01*
X153280000Y-103230000D02*
X153280000Y-92990000D01*
X157921000Y-103230000D02*
X157921000Y-92990000D01*
X153280000Y-103230000D02*
X157921000Y-103230000D01*
X153280000Y-92990000D02*
X157921000Y-92990000D01*
X154790000Y-103230000D02*
X154790000Y-92990000D01*
X153280000Y-99960000D02*
X154790000Y-99960000D01*
X153280000Y-96259000D02*
X154790000Y-96259000D01*
X148450000Y-64800000D02*
X141950000Y-64800000D01*
X148540000Y-61370000D02*
X151460000Y-61370000D01*
X158070000Y-61370000D02*
X154260000Y-61370000D01*
X157300000Y-62260000D02*
X154510000Y-62260000D01*
X148540000Y-62260000D02*
X151210000Y-62260000D01*
X158070000Y-68230000D02*
X154260000Y-68230000D01*
X157300000Y-67340000D02*
X154510000Y-67340000D01*
X148540000Y-68230000D02*
X151460000Y-68230000D01*
X148540000Y-67340000D02*
X151210000Y-67340000D01*
X141990000Y-68230000D02*
X138940000Y-68230000D01*
X141990000Y-67340000D02*
X139190000Y-67340000D01*
X141990000Y-62260000D02*
X139190000Y-62260000D01*
X141990000Y-61370000D02*
X138940000Y-61370000D01*
X132330000Y-61370000D02*
X136140000Y-61370000D01*
X133220000Y-62260000D02*
X135890000Y-62260000D01*
X132330000Y-68230000D02*
X136140000Y-68230000D01*
X133220000Y-67340000D02*
X135890000Y-67340000D01*
X132330000Y-68230000D02*
X132330000Y-61370000D01*
X141990000Y-61370000D02*
X141990000Y-62260000D01*
X141990000Y-68230000D02*
X141990000Y-67340000D01*
X158070000Y-68230000D02*
X158070000Y-61370000D01*
X148540000Y-61370000D02*
X148540000Y-62260000D01*
X148540000Y-68230000D02*
X148540000Y-67210000D01*
X139490000Y-62260000D02*
X151170000Y-62260000D01*
X151040000Y-67340000D02*
X139490000Y-67340000D01*
X148540000Y-64800000D02*
X148540000Y-67340000D01*
X157310000Y-67340000D02*
X157310000Y-62260000D01*
X148540000Y-62260000D02*
X148540000Y-64800000D01*
X141990000Y-64800000D02*
X141990000Y-67340000D01*
X133230000Y-67340000D02*
X133230000Y-62260000D01*
X141990000Y-62260000D02*
X141990000Y-64800000D01*
X129330000Y-94380000D02*
X129330000Y-100380000D01*
X129330000Y-100380000D02*
X134610000Y-100380000D01*
X134610000Y-100380000D02*
X134610000Y-94380000D01*
X134610000Y-94380000D02*
X129330000Y-94380000D01*
X130700000Y-100380000D02*
X130700000Y-99380000D01*
X130700000Y-99380000D02*
X133240000Y-99380000D01*
X133240000Y-99380000D02*
X133240000Y-100380000D01*
X130700000Y-99380000D02*
X130950000Y-98950000D01*
X130950000Y-98950000D02*
X132990000Y-98950000D01*
X132990000Y-98950000D02*
X133240000Y-99380000D01*
X130950000Y-100380000D02*
X130950000Y-99380000D01*
X132990000Y-100380000D02*
X132990000Y-99380000D01*
X129900000Y-94380000D02*
X129900000Y-95000000D01*
X129900000Y-95000000D02*
X131500000Y-95000000D01*
X131500000Y-95000000D02*
X131500000Y-94380000D01*
X132440000Y-94380000D02*
X132440000Y-95000000D01*
X132440000Y-95000000D02*
X134040000Y-95000000D01*
X134040000Y-95000000D02*
X134040000Y-94380000D01*
D13*
X146417857Y-78827381D02*
X146751190Y-79827381D01*
X147084524Y-78827381D01*
X147370238Y-79779762D02*
X147513095Y-79827381D01*
X147751191Y-79827381D01*
X147846429Y-79779762D01*
X147894048Y-79732143D01*
X147941667Y-79636905D01*
X147941667Y-79541667D01*
X147894048Y-79446429D01*
X147846429Y-79398810D01*
X147751191Y-79351190D01*
X147560714Y-79303571D01*
X147465476Y-79255952D01*
X147417857Y-79208333D01*
X147370238Y-79113095D01*
X147370238Y-79017857D01*
X147417857Y-78922619D01*
X147465476Y-78875000D01*
X147560714Y-78827381D01*
X147798810Y-78827381D01*
X147941667Y-78875000D01*
X148370238Y-79446429D02*
X149132143Y-79446429D01*
X149608333Y-79827381D02*
X149608333Y-78827381D01*
X150179762Y-79827381D02*
X149751190Y-79255952D01*
X150179762Y-78827381D02*
X149608333Y-79398810D01*
X150941667Y-79303571D02*
X151084524Y-79351190D01*
X151132143Y-79398810D01*
X151179762Y-79494048D01*
X151179762Y-79636905D01*
X151132143Y-79732143D01*
X151084524Y-79779762D01*
X150989286Y-79827381D01*
X150608333Y-79827381D01*
X150608333Y-78827381D01*
X150941667Y-78827381D01*
X151036905Y-78875000D01*
X151084524Y-78922619D01*
X151132143Y-79017857D01*
X151132143Y-79113095D01*
X151084524Y-79208333D01*
X151036905Y-79255952D01*
X150941667Y-79303571D01*
X150608333Y-79303571D01*
X151608333Y-79827381D02*
X151608333Y-78827381D01*
X151989286Y-78827381D01*
X152084524Y-78875000D01*
X152132143Y-78922619D01*
X152179762Y-79017857D01*
X152179762Y-79160714D01*
X152132143Y-79255952D01*
X152084524Y-79303571D01*
X151989286Y-79351190D01*
X151608333Y-79351190D01*
X153179762Y-79732143D02*
X153132143Y-79779762D01*
X152989286Y-79827381D01*
X152894048Y-79827381D01*
X152751190Y-79779762D01*
X152655952Y-79684524D01*
X152608333Y-79589286D01*
X152560714Y-79398810D01*
X152560714Y-79255952D01*
X152608333Y-79065476D01*
X152655952Y-78970238D01*
X152751190Y-78875000D01*
X152894048Y-78827381D01*
X152989286Y-78827381D01*
X153132143Y-78875000D01*
X153179762Y-78922619D01*
X154132143Y-79827381D02*
X153560714Y-79827381D01*
X153846428Y-79827381D02*
X153846428Y-78827381D01*
X153751190Y-78970238D01*
X153655952Y-79065476D01*
X153560714Y-79113095D01*
X155084524Y-79827381D02*
X154513095Y-79827381D01*
X154798809Y-79827381D02*
X154798809Y-78827381D01*
X154703571Y-78970238D01*
X154608333Y-79065476D01*
X154513095Y-79113095D01*
X155703571Y-78827381D02*
X155798810Y-78827381D01*
X155894048Y-78875000D01*
X155941667Y-78922619D01*
X155989286Y-79017857D01*
X156036905Y-79208333D01*
X156036905Y-79446429D01*
X155989286Y-79636905D01*
X155941667Y-79732143D01*
X155894048Y-79779762D01*
X155798810Y-79827381D01*
X155703571Y-79827381D01*
X155608333Y-79779762D01*
X155560714Y-79732143D01*
X155513095Y-79636905D01*
X155465476Y-79446429D01*
X155465476Y-79208333D01*
X155513095Y-79017857D01*
X155560714Y-78922619D01*
X155608333Y-78875000D01*
X155703571Y-78827381D01*
X122552381Y-87492381D02*
X121980952Y-87492381D01*
X122266666Y-87492381D02*
X122266666Y-86492381D01*
X122171428Y-86635238D01*
X122076190Y-86730476D01*
X121980952Y-86778095D01*
X123171428Y-86492381D02*
X123266667Y-86492381D01*
X123361905Y-86540000D01*
X123409524Y-86587619D01*
X123457143Y-86682857D01*
X123504762Y-86873333D01*
X123504762Y-87111429D01*
X123457143Y-87301905D01*
X123409524Y-87397143D01*
X123361905Y-87444762D01*
X123266667Y-87492381D01*
X123171428Y-87492381D01*
X123076190Y-87444762D01*
X123028571Y-87397143D01*
X122980952Y-87301905D01*
X122933333Y-87111429D01*
X122933333Y-86873333D01*
X122980952Y-86682857D01*
X123028571Y-86587619D01*
X123076190Y-86540000D01*
X123171428Y-86492381D01*
X124123809Y-86492381D02*
X124219048Y-86492381D01*
X124314286Y-86540000D01*
X124361905Y-86587619D01*
X124409524Y-86682857D01*
X124457143Y-86873333D01*
X124457143Y-87111429D01*
X124409524Y-87301905D01*
X124361905Y-87397143D01*
X124314286Y-87444762D01*
X124219048Y-87492381D01*
X124123809Y-87492381D01*
X124028571Y-87444762D01*
X123980952Y-87397143D01*
X123933333Y-87301905D01*
X123885714Y-87111429D01*
X123885714Y-86873333D01*
X123933333Y-86682857D01*
X123980952Y-86587619D01*
X124028571Y-86540000D01*
X124123809Y-86492381D01*
X124885714Y-86825714D02*
X124885714Y-87492381D01*
X124885714Y-86920952D02*
X124933333Y-86873333D01*
X125028571Y-86825714D01*
X125171429Y-86825714D01*
X125266667Y-86873333D01*
X125314286Y-86968571D01*
X125314286Y-87492381D01*
X126123810Y-86968571D02*
X125790476Y-86968571D01*
X125790476Y-87492381D02*
X125790476Y-86492381D01*
X126266667Y-86492381D01*
X130147619Y-78747619D02*
X130195238Y-78700000D01*
X130290476Y-78652381D01*
X130528572Y-78652381D01*
X130623810Y-78700000D01*
X130671429Y-78747619D01*
X130719048Y-78842857D01*
X130719048Y-78938095D01*
X130671429Y-79080952D01*
X130100000Y-79652381D01*
X130719048Y-79652381D01*
X131100000Y-78747619D02*
X131147619Y-78700000D01*
X131242857Y-78652381D01*
X131480953Y-78652381D01*
X131576191Y-78700000D01*
X131623810Y-78747619D01*
X131671429Y-78842857D01*
X131671429Y-78938095D01*
X131623810Y-79080952D01*
X131052381Y-79652381D01*
X131671429Y-79652381D01*
X132290476Y-78652381D02*
X132385715Y-78652381D01*
X132480953Y-78700000D01*
X132528572Y-78747619D01*
X132576191Y-78842857D01*
X132623810Y-79033333D01*
X132623810Y-79271429D01*
X132576191Y-79461905D01*
X132528572Y-79557143D01*
X132480953Y-79604762D01*
X132385715Y-79652381D01*
X132290476Y-79652381D01*
X132195238Y-79604762D01*
X132147619Y-79557143D01*
X132100000Y-79461905D01*
X132052381Y-79271429D01*
X132052381Y-79033333D01*
X132100000Y-78842857D01*
X132147619Y-78747619D01*
X132195238Y-78700000D01*
X132290476Y-78652381D01*
X133242857Y-78652381D02*
X133338096Y-78652381D01*
X133433334Y-78700000D01*
X133480953Y-78747619D01*
X133528572Y-78842857D01*
X133576191Y-79033333D01*
X133576191Y-79271429D01*
X133528572Y-79461905D01*
X133480953Y-79557143D01*
X133433334Y-79604762D01*
X133338096Y-79652381D01*
X133242857Y-79652381D01*
X133147619Y-79604762D01*
X133100000Y-79557143D01*
X133052381Y-79461905D01*
X133004762Y-79271429D01*
X133004762Y-79033333D01*
X133052381Y-78842857D01*
X133100000Y-78747619D01*
X133147619Y-78700000D01*
X133242857Y-78652381D01*
X134433334Y-78985714D02*
X134433334Y-79652381D01*
X134004762Y-78985714D02*
X134004762Y-79509524D01*
X134052381Y-79604762D01*
X134147619Y-79652381D01*
X134290477Y-79652381D01*
X134385715Y-79604762D01*
X134433334Y-79557143D01*
X134766667Y-78985714D02*
X135147619Y-78985714D01*
X134909524Y-79652381D02*
X134909524Y-78795238D01*
X134957143Y-78700000D01*
X135052381Y-78652381D01*
X135147619Y-78652381D01*
X145528572Y-109352381D02*
X144957143Y-109352381D01*
X145242857Y-109352381D02*
X145242857Y-108352381D01*
X145147619Y-108495238D01*
X145052381Y-108590476D01*
X144957143Y-108638095D01*
X146147619Y-108352381D02*
X146242858Y-108352381D01*
X146338096Y-108400000D01*
X146385715Y-108447619D01*
X146433334Y-108542857D01*
X146480953Y-108733333D01*
X146480953Y-108971429D01*
X146433334Y-109161905D01*
X146385715Y-109257143D01*
X146338096Y-109304762D01*
X146242858Y-109352381D01*
X146147619Y-109352381D01*
X146052381Y-109304762D01*
X146004762Y-109257143D01*
X145957143Y-109161905D01*
X145909524Y-108971429D01*
X145909524Y-108733333D01*
X145957143Y-108542857D01*
X146004762Y-108447619D01*
X146052381Y-108400000D01*
X146147619Y-108352381D01*
X147338096Y-108685714D02*
X147338096Y-109352381D01*
X146909524Y-108685714D02*
X146909524Y-109209524D01*
X146957143Y-109304762D01*
X147052381Y-109352381D01*
X147195239Y-109352381D01*
X147290477Y-109304762D01*
X147338096Y-109257143D01*
X148147620Y-108828571D02*
X147814286Y-108828571D01*
X147814286Y-109352381D02*
X147814286Y-108352381D01*
X148290477Y-108352381D01*
X124102381Y-107672619D02*
X124102381Y-108244048D01*
X124102381Y-107958334D02*
X123102381Y-107958334D01*
X123245238Y-108053572D01*
X123340476Y-108148810D01*
X123388095Y-108244048D01*
X123102381Y-107053572D02*
X123102381Y-106958333D01*
X123150000Y-106863095D01*
X123197619Y-106815476D01*
X123292857Y-106767857D01*
X123483333Y-106720238D01*
X123721429Y-106720238D01*
X123911905Y-106767857D01*
X124007143Y-106815476D01*
X124054762Y-106863095D01*
X124102381Y-106958333D01*
X124102381Y-107053572D01*
X124054762Y-107148810D01*
X124007143Y-107196429D01*
X123911905Y-107244048D01*
X123721429Y-107291667D01*
X123483333Y-107291667D01*
X123292857Y-107244048D01*
X123197619Y-107196429D01*
X123150000Y-107148810D01*
X123102381Y-107053572D01*
X123102381Y-106101191D02*
X123102381Y-106005952D01*
X123150000Y-105910714D01*
X123197619Y-105863095D01*
X123292857Y-105815476D01*
X123483333Y-105767857D01*
X123721429Y-105767857D01*
X123911905Y-105815476D01*
X124007143Y-105863095D01*
X124054762Y-105910714D01*
X124102381Y-106005952D01*
X124102381Y-106101191D01*
X124054762Y-106196429D01*
X124007143Y-106244048D01*
X123911905Y-106291667D01*
X123721429Y-106339286D01*
X123483333Y-106339286D01*
X123292857Y-106291667D01*
X123197619Y-106244048D01*
X123150000Y-106196429D01*
X123102381Y-106101191D01*
X123435714Y-105339286D02*
X124102381Y-105339286D01*
X123530952Y-105339286D02*
X123483333Y-105291667D01*
X123435714Y-105196429D01*
X123435714Y-105053571D01*
X123483333Y-104958333D01*
X123578571Y-104910714D01*
X124102381Y-104910714D01*
X123578571Y-104101190D02*
X123578571Y-104434524D01*
X124102381Y-104434524D02*
X123102381Y-104434524D01*
X123102381Y-103958333D01*
X130977381Y-119298809D02*
X130977381Y-119870238D01*
X130977381Y-119584524D02*
X129977381Y-119584524D01*
X130120238Y-119679762D01*
X130215476Y-119775000D01*
X130263095Y-119870238D01*
X129977381Y-118679762D02*
X129977381Y-118584523D01*
X130025000Y-118489285D01*
X130072619Y-118441666D01*
X130167857Y-118394047D01*
X130358333Y-118346428D01*
X130596429Y-118346428D01*
X130786905Y-118394047D01*
X130882143Y-118441666D01*
X130929762Y-118489285D01*
X130977381Y-118584523D01*
X130977381Y-118679762D01*
X130929762Y-118775000D01*
X130882143Y-118822619D01*
X130786905Y-118870238D01*
X130596429Y-118917857D01*
X130358333Y-118917857D01*
X130167857Y-118870238D01*
X130072619Y-118822619D01*
X130025000Y-118775000D01*
X129977381Y-118679762D01*
X129977381Y-117727381D02*
X129977381Y-117632142D01*
X130025000Y-117536904D01*
X130072619Y-117489285D01*
X130167857Y-117441666D01*
X130358333Y-117394047D01*
X130596429Y-117394047D01*
X130786905Y-117441666D01*
X130882143Y-117489285D01*
X130929762Y-117536904D01*
X130977381Y-117632142D01*
X130977381Y-117727381D01*
X130929762Y-117822619D01*
X130882143Y-117870238D01*
X130786905Y-117917857D01*
X130596429Y-117965476D01*
X130358333Y-117965476D01*
X130167857Y-117917857D01*
X130072619Y-117870238D01*
X130025000Y-117822619D01*
X129977381Y-117727381D01*
X129977381Y-116775000D02*
X129977381Y-116679761D01*
X130025000Y-116584523D01*
X130072619Y-116536904D01*
X130167857Y-116489285D01*
X130358333Y-116441666D01*
X130596429Y-116441666D01*
X130786905Y-116489285D01*
X130882143Y-116536904D01*
X130929762Y-116584523D01*
X130977381Y-116679761D01*
X130977381Y-116775000D01*
X130929762Y-116870238D01*
X130882143Y-116917857D01*
X130786905Y-116965476D01*
X130596429Y-117013095D01*
X130358333Y-117013095D01*
X130167857Y-116965476D01*
X130072619Y-116917857D01*
X130025000Y-116870238D01*
X129977381Y-116775000D01*
X130310714Y-115584523D02*
X130977381Y-115584523D01*
X130310714Y-116013095D02*
X130834524Y-116013095D01*
X130929762Y-115965476D01*
X130977381Y-115870238D01*
X130977381Y-115727380D01*
X130929762Y-115632142D01*
X130882143Y-115584523D01*
X130453571Y-114774999D02*
X130453571Y-115108333D01*
X130977381Y-115108333D02*
X129977381Y-115108333D01*
X129977381Y-114632142D01*
X124242381Y-100022857D02*
X124242381Y-100594286D01*
X124242381Y-100308572D02*
X123242381Y-100308572D01*
X123385238Y-100403810D01*
X123480476Y-100499048D01*
X123528095Y-100594286D01*
X124242381Y-99594286D02*
X123242381Y-99594286D01*
X124242381Y-99022857D01*
X123242381Y-99022857D01*
X123575714Y-98118095D02*
X124242381Y-98118095D01*
X123194762Y-98356191D02*
X123909048Y-98594286D01*
X123909048Y-97975238D01*
X123242381Y-97403810D02*
X123242381Y-97308571D01*
X123290000Y-97213333D01*
X123337619Y-97165714D01*
X123432857Y-97118095D01*
X123623333Y-97070476D01*
X123861429Y-97070476D01*
X124051905Y-97118095D01*
X124147143Y-97165714D01*
X124194762Y-97213333D01*
X124242381Y-97308571D01*
X124242381Y-97403810D01*
X124194762Y-97499048D01*
X124147143Y-97546667D01*
X124051905Y-97594286D01*
X123861429Y-97641905D01*
X123623333Y-97641905D01*
X123432857Y-97594286D01*
X123337619Y-97546667D01*
X123290000Y-97499048D01*
X123242381Y-97403810D01*
X123242381Y-96451429D02*
X123242381Y-96356190D01*
X123290000Y-96260952D01*
X123337619Y-96213333D01*
X123432857Y-96165714D01*
X123623333Y-96118095D01*
X123861429Y-96118095D01*
X124051905Y-96165714D01*
X124147143Y-96213333D01*
X124194762Y-96260952D01*
X124242381Y-96356190D01*
X124242381Y-96451429D01*
X124194762Y-96546667D01*
X124147143Y-96594286D01*
X124051905Y-96641905D01*
X123861429Y-96689524D01*
X123623333Y-96689524D01*
X123432857Y-96641905D01*
X123337619Y-96594286D01*
X123290000Y-96546667D01*
X123242381Y-96451429D01*
X123242381Y-95784762D02*
X123242381Y-95118095D01*
X124242381Y-95546667D01*
X146932143Y-121252381D02*
X146360714Y-121252381D01*
X146646428Y-121252381D02*
X146646428Y-120252381D01*
X146551190Y-120395238D01*
X146455952Y-120490476D01*
X146360714Y-120538095D01*
X147360714Y-121252381D02*
X147360714Y-120252381D01*
X147932143Y-121252381D01*
X147932143Y-120252381D01*
X148836905Y-120585714D02*
X148836905Y-121252381D01*
X148598809Y-120204762D02*
X148360714Y-120919048D01*
X148979762Y-120919048D01*
X149551190Y-120252381D02*
X149646429Y-120252381D01*
X149741667Y-120300000D01*
X149789286Y-120347619D01*
X149836905Y-120442857D01*
X149884524Y-120633333D01*
X149884524Y-120871429D01*
X149836905Y-121061905D01*
X149789286Y-121157143D01*
X149741667Y-121204762D01*
X149646429Y-121252381D01*
X149551190Y-121252381D01*
X149455952Y-121204762D01*
X149408333Y-121157143D01*
X149360714Y-121061905D01*
X149313095Y-120871429D01*
X149313095Y-120633333D01*
X149360714Y-120442857D01*
X149408333Y-120347619D01*
X149455952Y-120300000D01*
X149551190Y-120252381D01*
X150503571Y-120252381D02*
X150598810Y-120252381D01*
X150694048Y-120300000D01*
X150741667Y-120347619D01*
X150789286Y-120442857D01*
X150836905Y-120633333D01*
X150836905Y-120871429D01*
X150789286Y-121061905D01*
X150741667Y-121157143D01*
X150694048Y-121204762D01*
X150598810Y-121252381D01*
X150503571Y-121252381D01*
X150408333Y-121204762D01*
X150360714Y-121157143D01*
X150313095Y-121061905D01*
X150265476Y-120871429D01*
X150265476Y-120633333D01*
X150313095Y-120442857D01*
X150360714Y-120347619D01*
X150408333Y-120300000D01*
X150503571Y-120252381D01*
X151170238Y-120252381D02*
X151836905Y-120252381D01*
X151408333Y-121252381D01*
X124130476Y-70146667D02*
X124606667Y-70146667D01*
X124035238Y-70432381D02*
X124368571Y-69432381D01*
X124701905Y-70432381D01*
X125606667Y-70337143D02*
X125559048Y-70384762D01*
X125416191Y-70432381D01*
X125320953Y-70432381D01*
X125178095Y-70384762D01*
X125082857Y-70289524D01*
X125035238Y-70194286D01*
X124987619Y-70003810D01*
X124987619Y-69860952D01*
X125035238Y-69670476D01*
X125082857Y-69575238D01*
X125178095Y-69480000D01*
X125320953Y-69432381D01*
X125416191Y-69432381D01*
X125559048Y-69480000D01*
X125606667Y-69527619D01*
X126797143Y-70432381D02*
X126797143Y-69765714D01*
X126797143Y-69432381D02*
X126749524Y-69480000D01*
X126797143Y-69527619D01*
X126844762Y-69480000D01*
X126797143Y-69432381D01*
X126797143Y-69527619D01*
X127273333Y-69765714D02*
X127273333Y-70432381D01*
X127273333Y-69860952D02*
X127320952Y-69813333D01*
X127416190Y-69765714D01*
X127559048Y-69765714D01*
X127654286Y-69813333D01*
X127701905Y-69908571D01*
X127701905Y-70432381D01*
X130270000Y-135652381D02*
X130270000Y-134652381D01*
X130508095Y-134652381D01*
X130650953Y-134700000D01*
X130746191Y-134795238D01*
X130793810Y-134890476D01*
X130841429Y-135080952D01*
X130841429Y-135223810D01*
X130793810Y-135414286D01*
X130746191Y-135509524D01*
X130650953Y-135604762D01*
X130508095Y-135652381D01*
X130270000Y-135652381D01*
X131841429Y-135557143D02*
X131793810Y-135604762D01*
X131650953Y-135652381D01*
X131555715Y-135652381D01*
X131412857Y-135604762D01*
X131317619Y-135509524D01*
X131270000Y-135414286D01*
X131222381Y-135223810D01*
X131222381Y-135080952D01*
X131270000Y-134890476D01*
X131317619Y-134795238D01*
X131412857Y-134700000D01*
X131555715Y-134652381D01*
X131650953Y-134652381D01*
X131793810Y-134700000D01*
X131841429Y-134747619D01*
X133174762Y-135652381D02*
X133079524Y-135604762D01*
X133031905Y-135509524D01*
X133031905Y-134652381D01*
X133555715Y-135652381D02*
X133555715Y-134985714D01*
X133555715Y-134652381D02*
X133508096Y-134700000D01*
X133555715Y-134747619D01*
X133603334Y-134700000D01*
X133555715Y-134652381D01*
X133555715Y-134747619D01*
X134031905Y-134985714D02*
X134031905Y-135652381D01*
X134031905Y-135080952D02*
X134079524Y-135033333D01*
X134174762Y-134985714D01*
X134317620Y-134985714D01*
X134412858Y-135033333D01*
X134460477Y-135128571D01*
X134460477Y-135652381D01*
X134936667Y-135652381D02*
X134936667Y-134652381D01*
X135031905Y-135271429D02*
X135317620Y-135652381D01*
X135317620Y-134985714D02*
X134936667Y-135366667D01*
X138531905Y-135652381D02*
X138531905Y-134652381D01*
X138770000Y-134652381D01*
X138912858Y-134700000D01*
X139008096Y-134795238D01*
X139055715Y-134890476D01*
X139103334Y-135080952D01*
X139103334Y-135223810D01*
X139055715Y-135414286D01*
X139008096Y-135509524D01*
X138912858Y-135604762D01*
X138770000Y-135652381D01*
X138531905Y-135652381D01*
X140103334Y-135557143D02*
X140055715Y-135604762D01*
X139912858Y-135652381D01*
X139817620Y-135652381D01*
X139674762Y-135604762D01*
X139579524Y-135509524D01*
X139531905Y-135414286D01*
X139484286Y-135223810D01*
X139484286Y-135080952D01*
X139531905Y-134890476D01*
X139579524Y-134795238D01*
X139674762Y-134700000D01*
X139817620Y-134652381D01*
X139912858Y-134652381D01*
X140055715Y-134700000D01*
X140103334Y-134747619D01*
X141055715Y-135652381D02*
X140484286Y-135652381D01*
X140770000Y-135652381D02*
X140770000Y-134652381D01*
X140674762Y-134795238D01*
X140579524Y-134890476D01*
X140484286Y-134938095D01*
X145531905Y-135652381D02*
X145531905Y-134652381D01*
X145770000Y-134652381D01*
X145912858Y-134700000D01*
X146008096Y-134795238D01*
X146055715Y-134890476D01*
X146103334Y-135080952D01*
X146103334Y-135223810D01*
X146055715Y-135414286D01*
X146008096Y-135509524D01*
X145912858Y-135604762D01*
X145770000Y-135652381D01*
X145531905Y-135652381D01*
X147103334Y-135557143D02*
X147055715Y-135604762D01*
X146912858Y-135652381D01*
X146817620Y-135652381D01*
X146674762Y-135604762D01*
X146579524Y-135509524D01*
X146531905Y-135414286D01*
X146484286Y-135223810D01*
X146484286Y-135080952D01*
X146531905Y-134890476D01*
X146579524Y-134795238D01*
X146674762Y-134700000D01*
X146817620Y-134652381D01*
X146912858Y-134652381D01*
X147055715Y-134700000D01*
X147103334Y-134747619D01*
X147484286Y-134747619D02*
X147531905Y-134700000D01*
X147627143Y-134652381D01*
X147865239Y-134652381D01*
X147960477Y-134700000D01*
X148008096Y-134747619D01*
X148055715Y-134842857D01*
X148055715Y-134938095D01*
X148008096Y-135080952D01*
X147436667Y-135652381D01*
X148055715Y-135652381D01*
X152531905Y-135652381D02*
X152531905Y-134652381D01*
X152770000Y-134652381D01*
X152912858Y-134700000D01*
X153008096Y-134795238D01*
X153055715Y-134890476D01*
X153103334Y-135080952D01*
X153103334Y-135223810D01*
X153055715Y-135414286D01*
X153008096Y-135509524D01*
X152912858Y-135604762D01*
X152770000Y-135652381D01*
X152531905Y-135652381D01*
X154103334Y-135557143D02*
X154055715Y-135604762D01*
X153912858Y-135652381D01*
X153817620Y-135652381D01*
X153674762Y-135604762D01*
X153579524Y-135509524D01*
X153531905Y-135414286D01*
X153484286Y-135223810D01*
X153484286Y-135080952D01*
X153531905Y-134890476D01*
X153579524Y-134795238D01*
X153674762Y-134700000D01*
X153817620Y-134652381D01*
X153912858Y-134652381D01*
X154055715Y-134700000D01*
X154103334Y-134747619D01*
X154436667Y-134652381D02*
X155055715Y-134652381D01*
X154722381Y-135033333D01*
X154865239Y-135033333D01*
X154960477Y-135080952D01*
X155008096Y-135128571D01*
X155055715Y-135223810D01*
X155055715Y-135461905D01*
X155008096Y-135557143D01*
X154960477Y-135604762D01*
X154865239Y-135652381D01*
X154579524Y-135652381D01*
X154484286Y-135604762D01*
X154436667Y-135557143D01*
X124908096Y-134700000D02*
X124812858Y-134652381D01*
X124670001Y-134652381D01*
X124527143Y-134700000D01*
X124431905Y-134795238D01*
X124384286Y-134890476D01*
X124336667Y-135080952D01*
X124336667Y-135223810D01*
X124384286Y-135414286D01*
X124431905Y-135509524D01*
X124527143Y-135604762D01*
X124670001Y-135652381D01*
X124765239Y-135652381D01*
X124908096Y-135604762D01*
X124955715Y-135557143D01*
X124955715Y-135223810D01*
X124765239Y-135223810D01*
X125384286Y-135652381D02*
X125384286Y-134652381D01*
X125955715Y-135652381D01*
X125955715Y-134652381D01*
X126431905Y-135652381D02*
X126431905Y-134652381D01*
X126670000Y-134652381D01*
X126812858Y-134700000D01*
X126908096Y-134795238D01*
X126955715Y-134890476D01*
X127003334Y-135080952D01*
X127003334Y-135223810D01*
X126955715Y-135414286D01*
X126908096Y-135509524D01*
X126812858Y-135604762D01*
X126670000Y-135652381D01*
X126431905Y-135652381D01*
X140022619Y-117413095D02*
X139975000Y-117365476D01*
X139927381Y-117270238D01*
X139927381Y-117032142D01*
X139975000Y-116936904D01*
X140022619Y-116889285D01*
X140117857Y-116841666D01*
X140213095Y-116841666D01*
X140355952Y-116889285D01*
X140927381Y-117460714D01*
X140927381Y-116841666D01*
X140260714Y-115984523D02*
X140927381Y-115984523D01*
X139879762Y-116222619D02*
X140594048Y-116460714D01*
X140594048Y-115841666D01*
X139927381Y-115270238D02*
X139927381Y-115174999D01*
X139975000Y-115079761D01*
X140022619Y-115032142D01*
X140117857Y-114984523D01*
X140308333Y-114936904D01*
X140546429Y-114936904D01*
X140736905Y-114984523D01*
X140832143Y-115032142D01*
X140879762Y-115079761D01*
X140927381Y-115174999D01*
X140927381Y-115270238D01*
X140879762Y-115365476D01*
X140832143Y-115413095D01*
X140736905Y-115460714D01*
X140546429Y-115508333D01*
X140308333Y-115508333D01*
X140117857Y-115460714D01*
X140022619Y-115413095D01*
X139975000Y-115365476D01*
X139927381Y-115270238D01*
X140927381Y-113936904D02*
X140451190Y-114270238D01*
X140927381Y-114508333D02*
X139927381Y-114508333D01*
X139927381Y-114127380D01*
X139975000Y-114032142D01*
X140022619Y-113984523D01*
X140117857Y-113936904D01*
X140260714Y-113936904D01*
X140355952Y-113984523D01*
X140403571Y-114032142D01*
X140451190Y-114127380D01*
X140451190Y-114508333D01*
X153014286Y-109547619D02*
X153061905Y-109500000D01*
X153157143Y-109452381D01*
X153395239Y-109452381D01*
X153490477Y-109500000D01*
X153538096Y-109547619D01*
X153585715Y-109642857D01*
X153585715Y-109738095D01*
X153538096Y-109880952D01*
X152966667Y-110452381D01*
X153585715Y-110452381D01*
X154014286Y-110452381D02*
X154014286Y-109452381D01*
X154585715Y-110452381D02*
X154157143Y-109880952D01*
X154585715Y-109452381D02*
X154014286Y-110023810D01*
X147727381Y-99565476D02*
X147727381Y-100041667D01*
X146727381Y-100041667D01*
X147727381Y-99232143D02*
X146727381Y-99232143D01*
X147441667Y-98898809D01*
X146727381Y-98565476D01*
X147727381Y-98565476D01*
X146727381Y-98184524D02*
X146727381Y-97565476D01*
X147108333Y-97898810D01*
X147108333Y-97755952D01*
X147155952Y-97660714D01*
X147203571Y-97613095D01*
X147298810Y-97565476D01*
X147536905Y-97565476D01*
X147632143Y-97613095D01*
X147679762Y-97660714D01*
X147727381Y-97755952D01*
X147727381Y-98041667D01*
X147679762Y-98136905D01*
X147632143Y-98184524D01*
X147727381Y-96613095D02*
X147727381Y-97184524D01*
X147727381Y-96898810D02*
X146727381Y-96898810D01*
X146870238Y-96994048D01*
X146965476Y-97089286D01*
X147013095Y-97184524D01*
X146727381Y-96279762D02*
X146727381Y-95613095D01*
X147727381Y-96041667D01*
X159377381Y-99540476D02*
X159377381Y-100016667D01*
X158377381Y-100016667D01*
X159377381Y-99207143D02*
X158377381Y-99207143D01*
X159091667Y-98873809D01*
X158377381Y-98540476D01*
X159377381Y-98540476D01*
X158377381Y-98159524D02*
X158377381Y-97540476D01*
X158758333Y-97873810D01*
X158758333Y-97730952D01*
X158805952Y-97635714D01*
X158853571Y-97588095D01*
X158948810Y-97540476D01*
X159186905Y-97540476D01*
X159282143Y-97588095D01*
X159329762Y-97635714D01*
X159377381Y-97730952D01*
X159377381Y-98016667D01*
X159329762Y-98111905D01*
X159282143Y-98159524D01*
X158377381Y-97207143D02*
X158377381Y-96588095D01*
X158758333Y-96921429D01*
X158758333Y-96778571D01*
X158805952Y-96683333D01*
X158853571Y-96635714D01*
X158948810Y-96588095D01*
X159186905Y-96588095D01*
X159282143Y-96635714D01*
X159329762Y-96683333D01*
X159377381Y-96778571D01*
X159377381Y-97064286D01*
X159329762Y-97159524D01*
X159282143Y-97207143D01*
X158377381Y-96254762D02*
X158377381Y-95588095D01*
X159377381Y-96016667D01*
X142866667Y-63147619D02*
X142914286Y-63100000D01*
X143009524Y-63052381D01*
X143247620Y-63052381D01*
X143342858Y-63100000D01*
X143390477Y-63147619D01*
X143438096Y-63242857D01*
X143438096Y-63338095D01*
X143390477Y-63480952D01*
X142819048Y-64052381D01*
X143438096Y-64052381D01*
X144057143Y-63052381D02*
X144152382Y-63052381D01*
X144247620Y-63100000D01*
X144295239Y-63147619D01*
X144342858Y-63242857D01*
X144390477Y-63433333D01*
X144390477Y-63671429D01*
X144342858Y-63861905D01*
X144295239Y-63957143D01*
X144247620Y-64004762D01*
X144152382Y-64052381D01*
X144057143Y-64052381D01*
X143961905Y-64004762D01*
X143914286Y-63957143D01*
X143866667Y-63861905D01*
X143819048Y-63671429D01*
X143819048Y-63433333D01*
X143866667Y-63242857D01*
X143914286Y-63147619D01*
X143961905Y-63100000D01*
X144057143Y-63052381D01*
X145009524Y-63052381D02*
X145104763Y-63052381D01*
X145200001Y-63100000D01*
X145247620Y-63147619D01*
X145295239Y-63242857D01*
X145342858Y-63433333D01*
X145342858Y-63671429D01*
X145295239Y-63861905D01*
X145247620Y-63957143D01*
X145200001Y-64004762D01*
X145104763Y-64052381D01*
X145009524Y-64052381D01*
X144914286Y-64004762D01*
X144866667Y-63957143D01*
X144819048Y-63861905D01*
X144771429Y-63671429D01*
X144771429Y-63433333D01*
X144819048Y-63242857D01*
X144866667Y-63147619D01*
X144914286Y-63100000D01*
X145009524Y-63052381D01*
X145771429Y-64052381D02*
X145771429Y-63385714D01*
X145771429Y-63480952D02*
X145819048Y-63433333D01*
X145914286Y-63385714D01*
X146057144Y-63385714D01*
X146152382Y-63433333D01*
X146200001Y-63528571D01*
X146200001Y-64052381D01*
X146200001Y-63528571D02*
X146247620Y-63433333D01*
X146342858Y-63385714D01*
X146485715Y-63385714D01*
X146580953Y-63433333D01*
X146628572Y-63528571D01*
X146628572Y-64052381D01*
X147057143Y-63766667D02*
X147533334Y-63766667D01*
X146961905Y-64052381D02*
X147295238Y-63052381D01*
X147628572Y-64052381D01*
X128163095Y-101335714D02*
X128163095Y-102002381D01*
X127734523Y-101335714D02*
X127734523Y-101859524D01*
X127782142Y-101954762D01*
X127877380Y-102002381D01*
X128020238Y-102002381D01*
X128115476Y-101954762D01*
X128163095Y-101907143D01*
X128639285Y-101335714D02*
X128639285Y-102002381D01*
X128639285Y-101430952D02*
X128686904Y-101383333D01*
X128782142Y-101335714D01*
X128925000Y-101335714D01*
X129020238Y-101383333D01*
X129067857Y-101478571D01*
X129067857Y-102002381D01*
X129544047Y-102002381D02*
X129544047Y-101335714D01*
X129544047Y-101526190D02*
X129591666Y-101430952D01*
X129639285Y-101383333D01*
X129734523Y-101335714D01*
X129829762Y-101335714D01*
X130544048Y-101954762D02*
X130448810Y-102002381D01*
X130258333Y-102002381D01*
X130163095Y-101954762D01*
X130115476Y-101859524D01*
X130115476Y-101478571D01*
X130163095Y-101383333D01*
X130258333Y-101335714D01*
X130448810Y-101335714D01*
X130544048Y-101383333D01*
X130591667Y-101478571D01*
X130591667Y-101573810D01*
X130115476Y-101669048D01*
X131448810Y-101335714D02*
X131448810Y-102145238D01*
X131401191Y-102240476D01*
X131353572Y-102288095D01*
X131258333Y-102335714D01*
X131115476Y-102335714D01*
X131020238Y-102288095D01*
X131448810Y-101954762D02*
X131353572Y-102002381D01*
X131163095Y-102002381D01*
X131067857Y-101954762D01*
X131020238Y-101907143D01*
X130972619Y-101811905D01*
X130972619Y-101526190D01*
X131020238Y-101430952D01*
X131067857Y-101383333D01*
X131163095Y-101335714D01*
X131353572Y-101335714D01*
X131448810Y-101383333D01*
X132353572Y-101335714D02*
X132353572Y-102002381D01*
X131925000Y-101335714D02*
X131925000Y-101859524D01*
X131972619Y-101954762D01*
X132067857Y-102002381D01*
X132210715Y-102002381D01*
X132305953Y-101954762D01*
X132353572Y-101907143D01*
X132972619Y-102002381D02*
X132877381Y-101954762D01*
X132829762Y-101859524D01*
X132829762Y-101002381D01*
X133782144Y-102002381D02*
X133782144Y-101478571D01*
X133734525Y-101383333D01*
X133639287Y-101335714D01*
X133448810Y-101335714D01*
X133353572Y-101383333D01*
X133782144Y-101954762D02*
X133686906Y-102002381D01*
X133448810Y-102002381D01*
X133353572Y-101954762D01*
X133305953Y-101859524D01*
X133305953Y-101764286D01*
X133353572Y-101669048D01*
X133448810Y-101621429D01*
X133686906Y-101621429D01*
X133782144Y-101573810D01*
X134115477Y-101335714D02*
X134496429Y-101335714D01*
X134258334Y-101002381D02*
X134258334Y-101859524D01*
X134305953Y-101954762D01*
X134401191Y-102002381D01*
X134496429Y-102002381D01*
X135210716Y-101954762D02*
X135115478Y-102002381D01*
X134925001Y-102002381D01*
X134829763Y-101954762D01*
X134782144Y-101859524D01*
X134782144Y-101478571D01*
X134829763Y-101383333D01*
X134925001Y-101335714D01*
X135115478Y-101335714D01*
X135210716Y-101383333D01*
X135258335Y-101478571D01*
X135258335Y-101573810D01*
X134782144Y-101669048D01*
X136115478Y-102002381D02*
X136115478Y-101002381D01*
X136115478Y-101954762D02*
X136020240Y-102002381D01*
X135829763Y-102002381D01*
X135734525Y-101954762D01*
X135686906Y-101907143D01*
X135639287Y-101811905D01*
X135639287Y-101526190D01*
X135686906Y-101430952D01*
X135734525Y-101383333D01*
X135829763Y-101335714D01*
X136020240Y-101335714D01*
X136115478Y-101383333D01*
M02*
