G04 #@! TF.FileFunction,Copper,L2,Bot,Signal*
%FSLAX46Y46*%
G04 Gerber Fmt 4.6, Leading zero omitted, Abs format (unit mm)*
G04 Created by KiCad (PCBNEW 4.0.7) date 03/19/18 23:16:35*
%MOMM*%
%LPD*%
G01*
G04 APERTURE LIST*
%ADD10C,0.100000*%
%ADD11C,0.300000*%
%ADD12C,2.100000*%
%ADD13R,2.100000X2.100000*%
%ADD14C,1.600000*%
%ADD15R,2.400000X2.400000*%
%ADD16C,2.400000*%
%ADD17R,1.600000X1.600000*%
%ADD18R,2.200000X2.200000*%
%ADD19O,2.200000X2.200000*%
%ADD20R,3.000000X3.000000*%
%ADD21C,3.000000*%
%ADD22R,2.000000X2.600000*%
%ADD23O,2.000000X2.600000*%
%ADD24O,1.600000X1.600000*%
%ADD25C,1.440000*%
%ADD26R,1.800000X1.800000*%
%ADD27O,1.800000X1.800000*%
%ADD28C,3.700000*%
%ADD29C,5.600000*%
%ADD30C,0.600000*%
%ADD31C,1.000000*%
G04 APERTURE END LIST*
D10*
D11*
X152761905Y-55952976D02*
X152761905Y-54702976D01*
X152285714Y-54702976D01*
X152166667Y-54762500D01*
X152107143Y-54822024D01*
X152047619Y-54941071D01*
X152047619Y-55119643D01*
X152107143Y-55238690D01*
X152166667Y-55298214D01*
X152285714Y-55357738D01*
X152761905Y-55357738D01*
X151333334Y-55952976D02*
X151452381Y-55893452D01*
X151511905Y-55833929D01*
X151571429Y-55714881D01*
X151571429Y-55357738D01*
X151511905Y-55238690D01*
X151452381Y-55179167D01*
X151333334Y-55119643D01*
X151154762Y-55119643D01*
X151035714Y-55179167D01*
X150976191Y-55238690D01*
X150916667Y-55357738D01*
X150916667Y-55714881D01*
X150976191Y-55833929D01*
X151035714Y-55893452D01*
X151154762Y-55952976D01*
X151333334Y-55952976D01*
X150440477Y-55893452D02*
X150321429Y-55952976D01*
X150083334Y-55952976D01*
X149964286Y-55893452D01*
X149904762Y-55774405D01*
X149904762Y-55714881D01*
X149964286Y-55595833D01*
X150083334Y-55536310D01*
X150261905Y-55536310D01*
X150380953Y-55476786D01*
X150440477Y-55357738D01*
X150440477Y-55298214D01*
X150380953Y-55179167D01*
X150261905Y-55119643D01*
X150083334Y-55119643D01*
X149964286Y-55179167D01*
X149369048Y-55952976D02*
X149369048Y-55119643D01*
X149369048Y-54702976D02*
X149428572Y-54762500D01*
X149369048Y-54822024D01*
X149309524Y-54762500D01*
X149369048Y-54702976D01*
X149369048Y-54822024D01*
X148952381Y-55119643D02*
X148476191Y-55119643D01*
X148773810Y-54702976D02*
X148773810Y-55774405D01*
X148714286Y-55893452D01*
X148595239Y-55952976D01*
X148476191Y-55952976D01*
X148059524Y-55952976D02*
X148059524Y-55119643D01*
X148059524Y-54702976D02*
X148119048Y-54762500D01*
X148059524Y-54822024D01*
X148000000Y-54762500D01*
X148059524Y-54702976D01*
X148059524Y-54822024D01*
X147583334Y-55119643D02*
X147285715Y-55952976D01*
X146988095Y-55119643D01*
X146035714Y-55893452D02*
X146154762Y-55952976D01*
X146392857Y-55952976D01*
X146511905Y-55893452D01*
X146571429Y-55774405D01*
X146571429Y-55298214D01*
X146511905Y-55179167D01*
X146392857Y-55119643D01*
X146154762Y-55119643D01*
X146035714Y-55179167D01*
X145976191Y-55298214D01*
X145976191Y-55417262D01*
X146571429Y-55536310D01*
X144547619Y-54643452D02*
X145619047Y-56250595D01*
X144130952Y-55952976D02*
X144130952Y-54702976D01*
X143416666Y-55952976D01*
X143416666Y-54702976D01*
X142345237Y-55893452D02*
X142464285Y-55952976D01*
X142702380Y-55952976D01*
X142821428Y-55893452D01*
X142880952Y-55774405D01*
X142880952Y-55298214D01*
X142821428Y-55179167D01*
X142702380Y-55119643D01*
X142464285Y-55119643D01*
X142345237Y-55179167D01*
X142285714Y-55298214D01*
X142285714Y-55417262D01*
X142880952Y-55536310D01*
X141214285Y-55119643D02*
X141214285Y-56131548D01*
X141273808Y-56250595D01*
X141333332Y-56310119D01*
X141452380Y-56369643D01*
X141630951Y-56369643D01*
X141749999Y-56310119D01*
X141214285Y-55893452D02*
X141333332Y-55952976D01*
X141571428Y-55952976D01*
X141690475Y-55893452D01*
X141749999Y-55833929D01*
X141809523Y-55714881D01*
X141809523Y-55357738D01*
X141749999Y-55238690D01*
X141690475Y-55179167D01*
X141571428Y-55119643D01*
X141333332Y-55119643D01*
X141214285Y-55179167D01*
X140083333Y-55952976D02*
X140083333Y-55298214D01*
X140142856Y-55179167D01*
X140261904Y-55119643D01*
X140499999Y-55119643D01*
X140619047Y-55179167D01*
X140083333Y-55893452D02*
X140202380Y-55952976D01*
X140499999Y-55952976D01*
X140619047Y-55893452D01*
X140678571Y-55774405D01*
X140678571Y-55655357D01*
X140619047Y-55536310D01*
X140499999Y-55476786D01*
X140202380Y-55476786D01*
X140083333Y-55417262D01*
X139666666Y-55119643D02*
X139190476Y-55119643D01*
X139488095Y-54702976D02*
X139488095Y-55774405D01*
X139428571Y-55893452D01*
X139309524Y-55952976D01*
X139190476Y-55952976D01*
X138773809Y-55952976D02*
X138773809Y-55119643D01*
X138773809Y-54702976D02*
X138833333Y-54762500D01*
X138773809Y-54822024D01*
X138714285Y-54762500D01*
X138773809Y-54702976D01*
X138773809Y-54822024D01*
X138297619Y-55119643D02*
X138000000Y-55952976D01*
X137702380Y-55119643D01*
X136749999Y-55893452D02*
X136869047Y-55952976D01*
X137107142Y-55952976D01*
X137226190Y-55893452D01*
X137285714Y-55774405D01*
X137285714Y-55298214D01*
X137226190Y-55179167D01*
X137107142Y-55119643D01*
X136869047Y-55119643D01*
X136749999Y-55179167D01*
X136690476Y-55298214D01*
X136690476Y-55417262D01*
X137285714Y-55536310D01*
X135202380Y-55952976D02*
X135202380Y-55119643D01*
X135202380Y-55357738D02*
X135142856Y-55238690D01*
X135083332Y-55179167D01*
X134964285Y-55119643D01*
X134845237Y-55119643D01*
X133952379Y-55893452D02*
X134071427Y-55952976D01*
X134309522Y-55952976D01*
X134428570Y-55893452D01*
X134488094Y-55774405D01*
X134488094Y-55298214D01*
X134428570Y-55179167D01*
X134309522Y-55119643D01*
X134071427Y-55119643D01*
X133952379Y-55179167D01*
X133892856Y-55298214D01*
X133892856Y-55417262D01*
X134488094Y-55536310D01*
X132821427Y-55119643D02*
X132821427Y-56131548D01*
X132880950Y-56250595D01*
X132940474Y-56310119D01*
X133059522Y-56369643D01*
X133238093Y-56369643D01*
X133357141Y-56310119D01*
X132821427Y-55893452D02*
X132940474Y-55952976D01*
X133178570Y-55952976D01*
X133297617Y-55893452D01*
X133357141Y-55833929D01*
X133416665Y-55714881D01*
X133416665Y-55357738D01*
X133357141Y-55238690D01*
X133297617Y-55179167D01*
X133178570Y-55119643D01*
X132940474Y-55119643D01*
X132821427Y-55179167D01*
X131690475Y-55119643D02*
X131690475Y-55952976D01*
X132226189Y-55119643D02*
X132226189Y-55774405D01*
X132166665Y-55893452D01*
X132047618Y-55952976D01*
X131869046Y-55952976D01*
X131749998Y-55893452D01*
X131690475Y-55833929D01*
X130916666Y-55952976D02*
X131035713Y-55893452D01*
X131095237Y-55774405D01*
X131095237Y-54702976D01*
X129904761Y-55952976D02*
X129904761Y-55298214D01*
X129964284Y-55179167D01*
X130083332Y-55119643D01*
X130321427Y-55119643D01*
X130440475Y-55179167D01*
X129904761Y-55893452D02*
X130023808Y-55952976D01*
X130321427Y-55952976D01*
X130440475Y-55893452D01*
X130499999Y-55774405D01*
X130499999Y-55655357D01*
X130440475Y-55536310D01*
X130321427Y-55476786D01*
X130023808Y-55476786D01*
X129904761Y-55417262D01*
X129488094Y-55119643D02*
X129011904Y-55119643D01*
X129309523Y-54702976D02*
X129309523Y-55774405D01*
X129249999Y-55893452D01*
X129130952Y-55952976D01*
X129011904Y-55952976D01*
X128119046Y-55893452D02*
X128238094Y-55952976D01*
X128476189Y-55952976D01*
X128595237Y-55893452D01*
X128654761Y-55774405D01*
X128654761Y-55298214D01*
X128595237Y-55179167D01*
X128476189Y-55119643D01*
X128238094Y-55119643D01*
X128119046Y-55179167D01*
X128059523Y-55298214D01*
X128059523Y-55417262D01*
X128654761Y-55536310D01*
X126988094Y-55952976D02*
X126988094Y-54702976D01*
X126988094Y-55893452D02*
X127107141Y-55952976D01*
X127345237Y-55952976D01*
X127464284Y-55893452D01*
X127523808Y-55833929D01*
X127583332Y-55714881D01*
X127583332Y-55357738D01*
X127523808Y-55238690D01*
X127464284Y-55179167D01*
X127345237Y-55119643D01*
X127107141Y-55119643D01*
X126988094Y-55179167D01*
X145916666Y-58127976D02*
X145916666Y-56877976D01*
X145440475Y-56877976D01*
X145321428Y-56937500D01*
X145261904Y-56997024D01*
X145202380Y-57116071D01*
X145202380Y-57294643D01*
X145261904Y-57413690D01*
X145321428Y-57473214D01*
X145440475Y-57532738D01*
X145916666Y-57532738D01*
X144488095Y-58127976D02*
X144607142Y-58068452D01*
X144666666Y-58008929D01*
X144726190Y-57889881D01*
X144726190Y-57532738D01*
X144666666Y-57413690D01*
X144607142Y-57354167D01*
X144488095Y-57294643D01*
X144309523Y-57294643D01*
X144190475Y-57354167D01*
X144130952Y-57413690D01*
X144071428Y-57532738D01*
X144071428Y-57889881D01*
X144130952Y-58008929D01*
X144190475Y-58068452D01*
X144309523Y-58127976D01*
X144488095Y-58127976D01*
X143654762Y-57294643D02*
X143416666Y-58127976D01*
X143178571Y-57532738D01*
X142940476Y-58127976D01*
X142702381Y-57294643D01*
X141749999Y-58068452D02*
X141869047Y-58127976D01*
X142107142Y-58127976D01*
X142226190Y-58068452D01*
X142285714Y-57949405D01*
X142285714Y-57473214D01*
X142226190Y-57354167D01*
X142107142Y-57294643D01*
X141869047Y-57294643D01*
X141749999Y-57354167D01*
X141690476Y-57473214D01*
X141690476Y-57592262D01*
X142285714Y-57711310D01*
X141154761Y-58127976D02*
X141154761Y-57294643D01*
X141154761Y-57532738D02*
X141095237Y-57413690D01*
X141035713Y-57354167D01*
X140916666Y-57294643D01*
X140797618Y-57294643D01*
X139488094Y-58068452D02*
X139309522Y-58127976D01*
X139011903Y-58127976D01*
X138892856Y-58068452D01*
X138833332Y-58008929D01*
X138773808Y-57889881D01*
X138773808Y-57770833D01*
X138833332Y-57651786D01*
X138892856Y-57592262D01*
X139011903Y-57532738D01*
X139249999Y-57473214D01*
X139369046Y-57413690D01*
X139428570Y-57354167D01*
X139488094Y-57235119D01*
X139488094Y-57116071D01*
X139428570Y-56997024D01*
X139369046Y-56937500D01*
X139249999Y-56877976D01*
X138952379Y-56877976D01*
X138773808Y-56937500D01*
X137702380Y-57294643D02*
X137702380Y-58127976D01*
X138238094Y-57294643D02*
X138238094Y-57949405D01*
X138178570Y-58068452D01*
X138059523Y-58127976D01*
X137880951Y-58127976D01*
X137761903Y-58068452D01*
X137702380Y-58008929D01*
X137107142Y-57294643D02*
X137107142Y-58544643D01*
X137107142Y-57354167D02*
X136988094Y-57294643D01*
X136749999Y-57294643D01*
X136630951Y-57354167D01*
X136571428Y-57413690D01*
X136511904Y-57532738D01*
X136511904Y-57889881D01*
X136571428Y-58008929D01*
X136630951Y-58068452D01*
X136749999Y-58127976D01*
X136988094Y-58127976D01*
X137107142Y-58068452D01*
X135976190Y-57294643D02*
X135976190Y-58544643D01*
X135976190Y-57354167D02*
X135857142Y-57294643D01*
X135619047Y-57294643D01*
X135499999Y-57354167D01*
X135440476Y-57413690D01*
X135380952Y-57532738D01*
X135380952Y-57889881D01*
X135440476Y-58008929D01*
X135499999Y-58068452D01*
X135619047Y-58127976D01*
X135857142Y-58127976D01*
X135976190Y-58068452D01*
X134666667Y-58127976D02*
X134785714Y-58068452D01*
X134845238Y-57949405D01*
X134845238Y-56877976D01*
X134309524Y-57294643D02*
X134011905Y-58127976D01*
X133714285Y-57294643D02*
X134011905Y-58127976D01*
X134130952Y-58425595D01*
X134190476Y-58485119D01*
X134309524Y-58544643D01*
X151902381Y-137027976D02*
X151902381Y-137920833D01*
X151961905Y-138099405D01*
X152080953Y-138218452D01*
X152259524Y-138277976D01*
X152378572Y-138277976D01*
X151128572Y-138277976D02*
X151247619Y-138218452D01*
X151307143Y-138158929D01*
X151366667Y-138039881D01*
X151366667Y-137682738D01*
X151307143Y-137563690D01*
X151247619Y-137504167D01*
X151128572Y-137444643D01*
X150950000Y-137444643D01*
X150830952Y-137504167D01*
X150771429Y-137563690D01*
X150711905Y-137682738D01*
X150711905Y-138039881D01*
X150771429Y-138158929D01*
X150830952Y-138218452D01*
X150950000Y-138277976D01*
X151128572Y-138277976D01*
X150235715Y-138218452D02*
X150116667Y-138277976D01*
X149878572Y-138277976D01*
X149759524Y-138218452D01*
X149700000Y-138099405D01*
X149700000Y-138039881D01*
X149759524Y-137920833D01*
X149878572Y-137861310D01*
X150057143Y-137861310D01*
X150176191Y-137801786D01*
X150235715Y-137682738D01*
X150235715Y-137623214D01*
X150176191Y-137504167D01*
X150057143Y-137444643D01*
X149878572Y-137444643D01*
X149759524Y-137504167D01*
X148688095Y-138218452D02*
X148807143Y-138277976D01*
X149045238Y-138277976D01*
X149164286Y-138218452D01*
X149223810Y-138099405D01*
X149223810Y-137623214D01*
X149164286Y-137504167D01*
X149045238Y-137444643D01*
X148807143Y-137444643D01*
X148688095Y-137504167D01*
X148628572Y-137623214D01*
X148628572Y-137742262D01*
X149223810Y-137861310D01*
X148807143Y-136968452D02*
X148985715Y-137147024D01*
X146723809Y-137623214D02*
X147140476Y-137623214D01*
X147140476Y-138277976D02*
X147140476Y-137027976D01*
X146545238Y-137027976D01*
X145592856Y-138218452D02*
X145711904Y-138277976D01*
X145949999Y-138277976D01*
X146069047Y-138218452D01*
X146128571Y-138099405D01*
X146128571Y-137623214D01*
X146069047Y-137504167D01*
X145949999Y-137444643D01*
X145711904Y-137444643D01*
X145592856Y-137504167D01*
X145533333Y-137623214D01*
X145533333Y-137742262D01*
X146128571Y-137861310D01*
X144997618Y-138277976D02*
X144997618Y-137444643D01*
X144997618Y-137682738D02*
X144938094Y-137563690D01*
X144878570Y-137504167D01*
X144759523Y-137444643D01*
X144640475Y-137444643D01*
X144223808Y-137444643D02*
X144223808Y-138277976D01*
X144223808Y-137563690D02*
X144164284Y-137504167D01*
X144045237Y-137444643D01*
X143866665Y-137444643D01*
X143747617Y-137504167D01*
X143688094Y-137623214D01*
X143688094Y-138277976D01*
X142557142Y-138277976D02*
X142557142Y-137623214D01*
X142616665Y-137504167D01*
X142735713Y-137444643D01*
X142973808Y-137444643D01*
X143092856Y-137504167D01*
X142557142Y-138218452D02*
X142676189Y-138277976D01*
X142973808Y-138277976D01*
X143092856Y-138218452D01*
X143152380Y-138099405D01*
X143152380Y-137980357D01*
X143092856Y-137861310D01*
X142973808Y-137801786D01*
X142676189Y-137801786D01*
X142557142Y-137742262D01*
X141961904Y-137444643D02*
X141961904Y-138277976D01*
X141961904Y-137563690D02*
X141902380Y-137504167D01*
X141783333Y-137444643D01*
X141604761Y-137444643D01*
X141485713Y-137504167D01*
X141426190Y-137623214D01*
X141426190Y-138277976D01*
X140295238Y-138277976D02*
X140295238Y-137027976D01*
X140295238Y-138218452D02*
X140414285Y-138277976D01*
X140652381Y-138277976D01*
X140771428Y-138218452D01*
X140830952Y-138158929D01*
X140890476Y-138039881D01*
X140890476Y-137682738D01*
X140830952Y-137563690D01*
X140771428Y-137504167D01*
X140652381Y-137444643D01*
X140414285Y-137444643D01*
X140295238Y-137504167D01*
X139521429Y-138277976D02*
X139640476Y-138218452D01*
X139700000Y-138158929D01*
X139759524Y-138039881D01*
X139759524Y-137682738D01*
X139700000Y-137563690D01*
X139640476Y-137504167D01*
X139521429Y-137444643D01*
X139342857Y-137444643D01*
X139223809Y-137504167D01*
X139164286Y-137563690D01*
X139104762Y-137682738D01*
X139104762Y-138039881D01*
X139164286Y-138158929D01*
X139223809Y-138218452D01*
X139342857Y-138277976D01*
X139521429Y-138277976D01*
X136961905Y-137087500D02*
X137080953Y-137027976D01*
X137259524Y-137027976D01*
X137438096Y-137087500D01*
X137557143Y-137206548D01*
X137616667Y-137325595D01*
X137676191Y-137563690D01*
X137676191Y-137742262D01*
X137616667Y-137980357D01*
X137557143Y-138099405D01*
X137438096Y-138218452D01*
X137259524Y-138277976D01*
X137140476Y-138277976D01*
X136961905Y-138218452D01*
X136902381Y-138158929D01*
X136902381Y-137742262D01*
X137140476Y-137742262D01*
X136188096Y-138277976D02*
X136307143Y-138218452D01*
X136366667Y-138158929D01*
X136426191Y-138039881D01*
X136426191Y-137682738D01*
X136366667Y-137563690D01*
X136307143Y-137504167D01*
X136188096Y-137444643D01*
X136009524Y-137444643D01*
X135890476Y-137504167D01*
X135830953Y-137563690D01*
X135771429Y-137682738D01*
X135771429Y-138039881D01*
X135830953Y-138158929D01*
X135890476Y-138218452D01*
X136009524Y-138277976D01*
X136188096Y-138277976D01*
X135950000Y-136968452D02*
X136128572Y-137147024D01*
X135235715Y-138277976D02*
X135235715Y-137444643D01*
X135235715Y-137563690D02*
X135176191Y-137504167D01*
X135057144Y-137444643D01*
X134878572Y-137444643D01*
X134759524Y-137504167D01*
X134700001Y-137623214D01*
X134700001Y-138277976D01*
X134700001Y-137623214D02*
X134640477Y-137504167D01*
X134521429Y-137444643D01*
X134342858Y-137444643D01*
X134223810Y-137504167D01*
X134164286Y-137623214D01*
X134164286Y-138277976D01*
X133092857Y-138218452D02*
X133211905Y-138277976D01*
X133450000Y-138277976D01*
X133569048Y-138218452D01*
X133628572Y-138099405D01*
X133628572Y-137623214D01*
X133569048Y-137504167D01*
X133450000Y-137444643D01*
X133211905Y-137444643D01*
X133092857Y-137504167D01*
X133033334Y-137623214D01*
X133033334Y-137742262D01*
X133628572Y-137861310D01*
X132616667Y-137444643D02*
X131961905Y-137444643D01*
X132616667Y-138277976D01*
X131961905Y-138277976D01*
X130533333Y-138277976D02*
X130533333Y-137027976D01*
X130235714Y-137027976D01*
X130057142Y-137087500D01*
X129938095Y-137206548D01*
X129878571Y-137325595D01*
X129819047Y-137563690D01*
X129819047Y-137742262D01*
X129878571Y-137980357D01*
X129938095Y-138099405D01*
X130057142Y-138218452D01*
X130235714Y-138277976D01*
X130533333Y-138277976D01*
X129283333Y-138277976D02*
X129283333Y-137444643D01*
X129164285Y-136968452D02*
X129342857Y-137147024D01*
X128152381Y-138277976D02*
X128152381Y-137623214D01*
X128211904Y-137504167D01*
X128330952Y-137444643D01*
X128569047Y-137444643D01*
X128688095Y-137504167D01*
X128152381Y-138218452D02*
X128271428Y-138277976D01*
X128569047Y-138277976D01*
X128688095Y-138218452D01*
X128747619Y-138099405D01*
X128747619Y-137980357D01*
X128688095Y-137861310D01*
X128569047Y-137801786D01*
X128271428Y-137801786D01*
X128152381Y-137742262D01*
X127676191Y-137444643D02*
X127021429Y-137444643D01*
X127676191Y-138277976D01*
X127021429Y-138277976D01*
X141842857Y-139322024D02*
X141783333Y-139262500D01*
X141664285Y-139202976D01*
X141366666Y-139202976D01*
X141247619Y-139262500D01*
X141188095Y-139322024D01*
X141128571Y-139441071D01*
X141128571Y-139560119D01*
X141188095Y-139738690D01*
X141902381Y-140452976D01*
X141128571Y-140452976D01*
X140354762Y-139202976D02*
X140235714Y-139202976D01*
X140116666Y-139262500D01*
X140057143Y-139322024D01*
X139997619Y-139441071D01*
X139938095Y-139679167D01*
X139938095Y-139976786D01*
X139997619Y-140214881D01*
X140057143Y-140333929D01*
X140116666Y-140393452D01*
X140235714Y-140452976D01*
X140354762Y-140452976D01*
X140473809Y-140393452D01*
X140533333Y-140333929D01*
X140592857Y-140214881D01*
X140652381Y-139976786D01*
X140652381Y-139679167D01*
X140592857Y-139441071D01*
X140533333Y-139322024D01*
X140473809Y-139262500D01*
X140354762Y-139202976D01*
X138747619Y-140452976D02*
X139461905Y-140452976D01*
X139104762Y-140452976D02*
X139104762Y-139202976D01*
X139223810Y-139381548D01*
X139342857Y-139500595D01*
X139461905Y-139560119D01*
X138033334Y-139738690D02*
X138152381Y-139679167D01*
X138211905Y-139619643D01*
X138271429Y-139500595D01*
X138271429Y-139441071D01*
X138211905Y-139322024D01*
X138152381Y-139262500D01*
X138033334Y-139202976D01*
X137795238Y-139202976D01*
X137676191Y-139262500D01*
X137616667Y-139322024D01*
X137557143Y-139441071D01*
X137557143Y-139500595D01*
X137616667Y-139619643D01*
X137676191Y-139679167D01*
X137795238Y-139738690D01*
X138033334Y-139738690D01*
X138152381Y-139798214D01*
X138211905Y-139857738D01*
X138271429Y-139976786D01*
X138271429Y-140214881D01*
X138211905Y-140333929D01*
X138152381Y-140393452D01*
X138033334Y-140452976D01*
X137795238Y-140452976D01*
X137676191Y-140393452D01*
X137616667Y-140333929D01*
X137557143Y-140214881D01*
X137557143Y-139976786D01*
X137616667Y-139857738D01*
X137676191Y-139798214D01*
X137795238Y-139738690D01*
D10*
X159800000Y-142400000D02*
X119800000Y-142400000D01*
X159800000Y-52400000D02*
X159800000Y-142400000D01*
X119800000Y-52400000D02*
X159800000Y-52400000D01*
X119800000Y-142400000D02*
X119800000Y-52400000D01*
D12*
X145400000Y-74000000D03*
X145400000Y-84800000D03*
D13*
X156200000Y-84800000D03*
D12*
X156200000Y-74000000D03*
D14*
X126600000Y-89600000D03*
X121600000Y-89600000D03*
D15*
X132600000Y-82000000D03*
D16*
X132600000Y-74500000D03*
D17*
X146500000Y-112700000D03*
D14*
X146500000Y-115200000D03*
X130950000Y-106150000D03*
X125950000Y-106150000D03*
D15*
X133150000Y-117250000D03*
D16*
X125650000Y-117250000D03*
D18*
X126200000Y-92800000D03*
D19*
X126200000Y-102960000D03*
D18*
X154000000Y-123325000D03*
D19*
X143840000Y-123325000D03*
D20*
X123400000Y-64900000D03*
D21*
X128480000Y-64900000D03*
D22*
X131500000Y-130700000D03*
D23*
X134040000Y-130700000D03*
D22*
X138500000Y-130700000D03*
D23*
X141040000Y-130700000D03*
D22*
X145500000Y-130700000D03*
D23*
X148040000Y-130700000D03*
D22*
X152500000Y-130700000D03*
D23*
X155040000Y-130700000D03*
D22*
X124400000Y-130700000D03*
D23*
X126940000Y-130700000D03*
D14*
X140450000Y-120825000D03*
D24*
X140450000Y-110665000D03*
D25*
X152300000Y-116980000D03*
X154840000Y-114440000D03*
X152300000Y-111900000D03*
D26*
X150850000Y-100650000D03*
D27*
X150850000Y-98110000D03*
X150850000Y-95570000D03*
D26*
X155900000Y-100650000D03*
D27*
X155900000Y-98110000D03*
X155900000Y-95570000D03*
D28*
X135500000Y-64800000D03*
X154900000Y-64800000D03*
X140540000Y-67360000D03*
X140540000Y-62250000D03*
X149860000Y-67340000D03*
X149860000Y-62240000D03*
D29*
X156000000Y-57500000D03*
X123500000Y-57500000D03*
X156000000Y-138000000D03*
X123500000Y-138000000D03*
D22*
X130700000Y-97400000D03*
D23*
X133240000Y-97400000D03*
D30*
X121600000Y-79200000D03*
D31*
X132600000Y-82000000D02*
X132600000Y-90450000D01*
X133240000Y-91090000D02*
X133240000Y-97400000D01*
X132600000Y-90450000D02*
X133240000Y-91090000D01*
X133240000Y-82640000D02*
X132600000Y-82000000D01*
X126600000Y-89600000D02*
X126600000Y-92400000D01*
X126600000Y-92400000D02*
X126200000Y-92800000D01*
X132600000Y-82000000D02*
X132600000Y-82000000D01*
X133400000Y-81550000D02*
X139825000Y-87975000D01*
X153025000Y-87975000D02*
X156200000Y-84800000D01*
X139825000Y-87975000D02*
X153025000Y-87975000D01*
X155900000Y-98110000D02*
X157290000Y-98110000D01*
X158100000Y-86700000D02*
X156200000Y-84800000D01*
X158100000Y-97300000D02*
X158100000Y-86700000D01*
X157290000Y-98110000D02*
X158100000Y-97300000D01*
X132600000Y-82000000D02*
X130975000Y-82000000D01*
X126600000Y-86375000D02*
X126600000Y-89600000D01*
X130975000Y-82000000D02*
X126600000Y-86375000D01*
X150850000Y-95570000D02*
X152370000Y-95570000D01*
X154910000Y-98110000D02*
X156250000Y-98110000D01*
X152370000Y-95570000D02*
X154910000Y-98110000D01*
X130700000Y-97400000D02*
X122925000Y-97400000D01*
X122925000Y-97400000D02*
X121600000Y-96075000D01*
X152500000Y-130700000D02*
X152500000Y-132800000D01*
X158000000Y-117600000D02*
X154840000Y-114440000D01*
X158000000Y-132700000D02*
X158000000Y-117600000D01*
X157000000Y-133700000D02*
X158000000Y-132700000D01*
X153400000Y-133700000D02*
X157000000Y-133700000D01*
X152500000Y-132800000D02*
X153400000Y-133700000D01*
X154840000Y-114440000D02*
X152160000Y-114440000D01*
X152160000Y-114440000D02*
X151400000Y-115200000D01*
X151400000Y-115200000D02*
X146500000Y-115200000D01*
X125950000Y-106150000D02*
X123450000Y-106150000D01*
X123450000Y-106150000D02*
X121600000Y-108000000D01*
X125650000Y-117250000D02*
X124350000Y-117250000D01*
X124350000Y-117250000D02*
X121600000Y-120000000D01*
X131500000Y-130700000D02*
X131500000Y-132500000D01*
X131500000Y-132500000D02*
X130400000Y-133600000D01*
X126940000Y-130700000D02*
X126940000Y-132060000D01*
X126940000Y-132060000D02*
X125400000Y-133600000D01*
X124400000Y-130700000D02*
X124400000Y-132100000D01*
X124400000Y-132100000D02*
X122900000Y-133600000D01*
X138500000Y-130700000D02*
X138500000Y-132200000D01*
X138500000Y-132200000D02*
X137100000Y-133600000D01*
X145500000Y-130700000D02*
X145500000Y-132100000D01*
X145500000Y-132100000D02*
X144000000Y-133600000D01*
X121600000Y-89600000D02*
X121600000Y-96075000D01*
X121600000Y-96075000D02*
X121600000Y-108000000D01*
X121600000Y-108000000D02*
X121600000Y-119000000D01*
X121600000Y-119000000D02*
X121600000Y-120000000D01*
X121600000Y-120000000D02*
X121600000Y-132300000D01*
X152500000Y-132900000D02*
X152500000Y-130700000D01*
X151800000Y-133600000D02*
X152500000Y-132900000D01*
X122900000Y-133600000D02*
X125400000Y-133600000D01*
X125400000Y-133600000D02*
X130400000Y-133600000D01*
X130400000Y-133600000D02*
X137100000Y-133600000D01*
X137100000Y-133600000D02*
X144000000Y-133600000D01*
X144000000Y-133600000D02*
X151800000Y-133600000D01*
X121600000Y-132300000D02*
X122900000Y-133600000D01*
X121600000Y-89600000D02*
X121600000Y-79200000D01*
X121600000Y-79200000D02*
X121600000Y-78400000D01*
X125500000Y-74500000D02*
X132600000Y-74500000D01*
X121600000Y-78400000D02*
X125500000Y-74500000D01*
X145400000Y-74000000D02*
X133100000Y-74000000D01*
X133100000Y-74000000D02*
X132600000Y-74500000D01*
X146500000Y-112700000D02*
X145425000Y-112700000D01*
X143840000Y-114285000D02*
X143840000Y-123325000D01*
X145425000Y-112700000D02*
X143840000Y-114285000D01*
X146500000Y-112700000D02*
X142485000Y-112700000D01*
X142485000Y-112700000D02*
X140450000Y-110665000D01*
X152300000Y-111900000D02*
X150500000Y-111900000D01*
X149700000Y-112700000D02*
X146500000Y-112700000D01*
X150500000Y-111900000D02*
X149700000Y-112700000D01*
X155900000Y-100650000D02*
X155900000Y-108300000D01*
X155900000Y-108300000D02*
X152300000Y-111900000D01*
X156250000Y-100650000D02*
X150850000Y-100650000D01*
X154000000Y-123325000D02*
X150175000Y-123325000D01*
X148040000Y-125460000D02*
X148040000Y-126550000D01*
X150175000Y-123325000D02*
X148040000Y-125460000D01*
X150850000Y-98110000D02*
X136940000Y-98110000D01*
X130950000Y-104100000D02*
X130950000Y-106150000D01*
X136940000Y-98110000D02*
X130950000Y-104100000D01*
X140450000Y-120825000D02*
X140450000Y-126150000D01*
X140450000Y-126150000D02*
X140050000Y-126550000D01*
X129710000Y-102960000D02*
X130950000Y-104200000D01*
X130950000Y-104200000D02*
X130950000Y-106150000D01*
X126200000Y-102960000D02*
X129710000Y-102960000D01*
X134040000Y-130700000D02*
X134040000Y-127360000D01*
X134040000Y-127360000D02*
X134850000Y-126550000D01*
X141040000Y-130700000D02*
X141040000Y-127540000D01*
X141040000Y-127540000D02*
X140050000Y-126550000D01*
X148040000Y-130700000D02*
X148040000Y-126550000D01*
X147850000Y-126600000D02*
X147850000Y-126550000D01*
X147990000Y-126600000D02*
X147850000Y-126600000D01*
X148040000Y-126550000D02*
X147990000Y-126600000D01*
X133150000Y-117250000D02*
X133150000Y-124850000D01*
X155040000Y-127990000D02*
X155040000Y-130700000D01*
X153600000Y-126550000D02*
X155040000Y-127990000D01*
X134850000Y-126550000D02*
X140050000Y-126550000D01*
X140050000Y-126550000D02*
X147850000Y-126550000D01*
X147850000Y-126550000D02*
X153600000Y-126550000D01*
X133150000Y-124850000D02*
X134850000Y-126550000D01*
X130950000Y-106150000D02*
X130950000Y-109300000D01*
X130950000Y-109300000D02*
X133150000Y-111500000D01*
X133150000Y-111500000D02*
X133150000Y-117250000D01*
X153730000Y-93050000D02*
X156250000Y-95570000D01*
X150850000Y-98110000D02*
X149810000Y-98110000D01*
X149810000Y-98110000D02*
X148850000Y-97150000D01*
X148850000Y-97150000D02*
X148850000Y-93850000D01*
X148850000Y-93850000D02*
X149650000Y-93050000D01*
X149650000Y-93050000D02*
X153730000Y-93050000D01*
X123400000Y-64900000D02*
X123400000Y-66100000D01*
X123400000Y-66100000D02*
X127050000Y-69750000D01*
X127050000Y-69750000D02*
X136925000Y-69750000D01*
X136925000Y-69750000D02*
X138525000Y-71350000D01*
X138525000Y-71350000D02*
X143300000Y-71350000D01*
X143300000Y-71350000D02*
X144925000Y-69725000D01*
X144925000Y-69725000D02*
X146650000Y-69725000D01*
X146650000Y-69725000D02*
X149250000Y-72325000D01*
X149250000Y-72325000D02*
X149250000Y-80950000D01*
X149250000Y-80950000D02*
X145400000Y-84800000D01*
X156200000Y-74000000D02*
X156200000Y-66100000D01*
X156200000Y-66100000D02*
X154900000Y-64800000D01*
X154900000Y-64800000D02*
X152400000Y-64800000D01*
X152400000Y-64800000D02*
X149860000Y-67340000D01*
X154900000Y-64800000D02*
X152420000Y-64800000D01*
X152420000Y-64800000D02*
X149860000Y-62240000D01*
X135500000Y-64800000D02*
X128580000Y-64800000D01*
X128580000Y-64800000D02*
X128480000Y-64900000D01*
X135500000Y-64800000D02*
X137980000Y-64800000D01*
X137980000Y-64800000D02*
X140540000Y-67360000D01*
X135500000Y-64800000D02*
X137990000Y-64800000D01*
X137990000Y-64800000D02*
X140540000Y-62250000D01*
X135300000Y-64600000D02*
X135500000Y-64800000D01*
M02*
