G04 #@! TF.FileFunction,Copper,L1,Top,Signal*
%FSLAX46Y46*%
G04 Gerber Fmt 4.6, Leading zero omitted, Abs format (unit mm)*
G04 Created by KiCad (PCBNEW 4.0.7) date 03/19/18 23:16:35*
%MOMM*%
%LPD*%
G01*
G04 APERTURE LIST*
%ADD10C,0.100000*%
%ADD11C,2.100000*%
%ADD12R,2.100000X2.100000*%
%ADD13C,1.600000*%
%ADD14R,2.400000X2.400000*%
%ADD15C,2.400000*%
%ADD16R,1.600000X1.600000*%
%ADD17R,2.200000X2.200000*%
%ADD18O,2.200000X2.200000*%
%ADD19R,3.000000X3.000000*%
%ADD20C,3.000000*%
%ADD21R,2.000000X2.600000*%
%ADD22O,2.000000X2.600000*%
%ADD23O,1.600000X1.600000*%
%ADD24C,1.440000*%
%ADD25R,1.800000X1.800000*%
%ADD26O,1.800000X1.800000*%
%ADD27C,3.700000*%
%ADD28C,5.600000*%
%ADD29C,0.600000*%
%ADD30C,0.254000*%
G04 APERTURE END LIST*
D10*
X159800000Y-142400000D02*
X119800000Y-142400000D01*
X159800000Y-52400000D02*
X159800000Y-142400000D01*
X119800000Y-52400000D02*
X159800000Y-52400000D01*
X119800000Y-142400000D02*
X119800000Y-52400000D01*
D11*
X145400000Y-74000000D03*
X145400000Y-84800000D03*
D12*
X156200000Y-84800000D03*
D11*
X156200000Y-74000000D03*
D13*
X126600000Y-89600000D03*
X121600000Y-89600000D03*
D14*
X132600000Y-82000000D03*
D15*
X132600000Y-74500000D03*
D16*
X146500000Y-112700000D03*
D13*
X146500000Y-115200000D03*
X130950000Y-106150000D03*
X125950000Y-106150000D03*
D14*
X133150000Y-117250000D03*
D15*
X125650000Y-117250000D03*
D17*
X126200000Y-92800000D03*
D18*
X126200000Y-102960000D03*
D17*
X154000000Y-123325000D03*
D18*
X143840000Y-123325000D03*
D19*
X123400000Y-64900000D03*
D20*
X128480000Y-64900000D03*
D21*
X131500000Y-130700000D03*
D22*
X134040000Y-130700000D03*
D21*
X138500000Y-130700000D03*
D22*
X141040000Y-130700000D03*
D21*
X145500000Y-130700000D03*
D22*
X148040000Y-130700000D03*
D21*
X152500000Y-130700000D03*
D22*
X155040000Y-130700000D03*
D21*
X124400000Y-130700000D03*
D22*
X126940000Y-130700000D03*
D13*
X140450000Y-120825000D03*
D23*
X140450000Y-110665000D03*
D24*
X152300000Y-116980000D03*
X154840000Y-114440000D03*
X152300000Y-111900000D03*
D25*
X150850000Y-100650000D03*
D26*
X150850000Y-98110000D03*
X150850000Y-95570000D03*
D25*
X155900000Y-100650000D03*
D26*
X155900000Y-98110000D03*
X155900000Y-95570000D03*
D27*
X135500000Y-64800000D03*
X154900000Y-64800000D03*
X140540000Y-67360000D03*
X140540000Y-62250000D03*
X149860000Y-67340000D03*
X149860000Y-62240000D03*
D28*
X156000000Y-57500000D03*
X123500000Y-57500000D03*
X156000000Y-138000000D03*
X123500000Y-138000000D03*
D21*
X130700000Y-97400000D03*
D22*
X133240000Y-97400000D03*
D29*
X121600000Y-79200000D03*
D30*
G36*
X159115000Y-56043834D02*
X158913750Y-55556771D01*
X157948312Y-54589646D01*
X156686261Y-54065597D01*
X155319734Y-54064405D01*
X154056771Y-54586250D01*
X153089646Y-55551688D01*
X152565597Y-56813739D01*
X152564405Y-58180266D01*
X153086250Y-59443229D01*
X154051688Y-60410354D01*
X155313739Y-60934403D01*
X156680266Y-60935595D01*
X157943229Y-60413750D01*
X158910354Y-59448312D01*
X159115000Y-58955469D01*
X159115000Y-136543834D01*
X158913750Y-136056771D01*
X157948312Y-135089646D01*
X156686261Y-134565597D01*
X155319734Y-134564405D01*
X154056771Y-135086250D01*
X153089646Y-136051688D01*
X152565597Y-137313739D01*
X152564405Y-138680266D01*
X153086250Y-139943229D01*
X154051688Y-140910354D01*
X155313739Y-141434403D01*
X156680266Y-141435595D01*
X157943229Y-140913750D01*
X158910354Y-139948312D01*
X159115000Y-139455469D01*
X159115000Y-141715000D01*
X120485000Y-141715000D01*
X120485000Y-139698185D01*
X120586250Y-139943229D01*
X121551688Y-140910354D01*
X122813739Y-141434403D01*
X124180266Y-141435595D01*
X125443229Y-140913750D01*
X126410354Y-139948312D01*
X126934403Y-138686261D01*
X126935595Y-137319734D01*
X126413750Y-136056771D01*
X125448312Y-135089646D01*
X124186261Y-134565597D01*
X122819734Y-134564405D01*
X121556771Y-135086250D01*
X120589646Y-136051688D01*
X120485000Y-136303704D01*
X120485000Y-129400000D01*
X122752560Y-129400000D01*
X122752560Y-132000000D01*
X122796838Y-132235317D01*
X122935910Y-132451441D01*
X123148110Y-132596431D01*
X123400000Y-132647440D01*
X125400000Y-132647440D01*
X125635317Y-132603162D01*
X125851441Y-132464090D01*
X125956951Y-132309671D01*
X126314313Y-132548452D01*
X126940000Y-132672909D01*
X127565687Y-132548452D01*
X128096120Y-132194029D01*
X128450543Y-131663596D01*
X128575000Y-131037909D01*
X128575000Y-130362091D01*
X128450543Y-129736404D01*
X128225766Y-129400000D01*
X129852560Y-129400000D01*
X129852560Y-132000000D01*
X129896838Y-132235317D01*
X130035910Y-132451441D01*
X130248110Y-132596431D01*
X130500000Y-132647440D01*
X132500000Y-132647440D01*
X132735317Y-132603162D01*
X132951441Y-132464090D01*
X133056951Y-132309671D01*
X133414313Y-132548452D01*
X134040000Y-132672909D01*
X134665687Y-132548452D01*
X135196120Y-132194029D01*
X135550543Y-131663596D01*
X135675000Y-131037909D01*
X135675000Y-130362091D01*
X135550543Y-129736404D01*
X135325766Y-129400000D01*
X136852560Y-129400000D01*
X136852560Y-132000000D01*
X136896838Y-132235317D01*
X137035910Y-132451441D01*
X137248110Y-132596431D01*
X137500000Y-132647440D01*
X139500000Y-132647440D01*
X139735317Y-132603162D01*
X139951441Y-132464090D01*
X140056951Y-132309671D01*
X140414313Y-132548452D01*
X141040000Y-132672909D01*
X141665687Y-132548452D01*
X142196120Y-132194029D01*
X142550543Y-131663596D01*
X142675000Y-131037909D01*
X142675000Y-130362091D01*
X142550543Y-129736404D01*
X142325766Y-129400000D01*
X143852560Y-129400000D01*
X143852560Y-132000000D01*
X143896838Y-132235317D01*
X144035910Y-132451441D01*
X144248110Y-132596431D01*
X144500000Y-132647440D01*
X146500000Y-132647440D01*
X146735317Y-132603162D01*
X146951441Y-132464090D01*
X147056951Y-132309671D01*
X147414313Y-132548452D01*
X148040000Y-132672909D01*
X148665687Y-132548452D01*
X149196120Y-132194029D01*
X149550543Y-131663596D01*
X149675000Y-131037909D01*
X149675000Y-130362091D01*
X149550543Y-129736404D01*
X149325766Y-129400000D01*
X150852560Y-129400000D01*
X150852560Y-132000000D01*
X150896838Y-132235317D01*
X151035910Y-132451441D01*
X151248110Y-132596431D01*
X151500000Y-132647440D01*
X153500000Y-132647440D01*
X153735317Y-132603162D01*
X153951441Y-132464090D01*
X154056951Y-132309671D01*
X154414313Y-132548452D01*
X155040000Y-132672909D01*
X155665687Y-132548452D01*
X156196120Y-132194029D01*
X156550543Y-131663596D01*
X156675000Y-131037909D01*
X156675000Y-130362091D01*
X156550543Y-129736404D01*
X156196120Y-129205971D01*
X155665687Y-128851548D01*
X155040000Y-128727091D01*
X154414313Y-128851548D01*
X154055808Y-129091093D01*
X153964090Y-128948559D01*
X153751890Y-128803569D01*
X153500000Y-128752560D01*
X151500000Y-128752560D01*
X151264683Y-128796838D01*
X151048559Y-128935910D01*
X150903569Y-129148110D01*
X150852560Y-129400000D01*
X149325766Y-129400000D01*
X149196120Y-129205971D01*
X148665687Y-128851548D01*
X148040000Y-128727091D01*
X147414313Y-128851548D01*
X147055808Y-129091093D01*
X146964090Y-128948559D01*
X146751890Y-128803569D01*
X146500000Y-128752560D01*
X144500000Y-128752560D01*
X144264683Y-128796838D01*
X144048559Y-128935910D01*
X143903569Y-129148110D01*
X143852560Y-129400000D01*
X142325766Y-129400000D01*
X142196120Y-129205971D01*
X141665687Y-128851548D01*
X141040000Y-128727091D01*
X140414313Y-128851548D01*
X140055808Y-129091093D01*
X139964090Y-128948559D01*
X139751890Y-128803569D01*
X139500000Y-128752560D01*
X137500000Y-128752560D01*
X137264683Y-128796838D01*
X137048559Y-128935910D01*
X136903569Y-129148110D01*
X136852560Y-129400000D01*
X135325766Y-129400000D01*
X135196120Y-129205971D01*
X134665687Y-128851548D01*
X134040000Y-128727091D01*
X133414313Y-128851548D01*
X133055808Y-129091093D01*
X132964090Y-128948559D01*
X132751890Y-128803569D01*
X132500000Y-128752560D01*
X130500000Y-128752560D01*
X130264683Y-128796838D01*
X130048559Y-128935910D01*
X129903569Y-129148110D01*
X129852560Y-129400000D01*
X128225766Y-129400000D01*
X128096120Y-129205971D01*
X127565687Y-128851548D01*
X126940000Y-128727091D01*
X126314313Y-128851548D01*
X125955808Y-129091093D01*
X125864090Y-128948559D01*
X125651890Y-128803569D01*
X125400000Y-128752560D01*
X123400000Y-128752560D01*
X123164683Y-128796838D01*
X122948559Y-128935910D01*
X122803569Y-129148110D01*
X122752560Y-129400000D01*
X120485000Y-129400000D01*
X120485000Y-123325000D01*
X142071009Y-123325000D01*
X142203078Y-123988956D01*
X142579179Y-124551830D01*
X143142053Y-124927931D01*
X143806009Y-125060000D01*
X143873991Y-125060000D01*
X144537947Y-124927931D01*
X145100821Y-124551830D01*
X145476922Y-123988956D01*
X145608991Y-123325000D01*
X145476922Y-122661044D01*
X145185567Y-122225000D01*
X152252560Y-122225000D01*
X152252560Y-124425000D01*
X152296838Y-124660317D01*
X152435910Y-124876441D01*
X152648110Y-125021431D01*
X152900000Y-125072440D01*
X155100000Y-125072440D01*
X155335317Y-125028162D01*
X155551441Y-124889090D01*
X155696431Y-124676890D01*
X155747440Y-124425000D01*
X155747440Y-122225000D01*
X155703162Y-121989683D01*
X155564090Y-121773559D01*
X155351890Y-121628569D01*
X155100000Y-121577560D01*
X152900000Y-121577560D01*
X152664683Y-121621838D01*
X152448559Y-121760910D01*
X152303569Y-121973110D01*
X152252560Y-122225000D01*
X145185567Y-122225000D01*
X145100821Y-122098170D01*
X144537947Y-121722069D01*
X143873991Y-121590000D01*
X143806009Y-121590000D01*
X143142053Y-121722069D01*
X142579179Y-122098170D01*
X142203078Y-122661044D01*
X142071009Y-123325000D01*
X120485000Y-123325000D01*
X120485000Y-121109187D01*
X139014752Y-121109187D01*
X139232757Y-121636800D01*
X139636077Y-122040824D01*
X140163309Y-122259750D01*
X140734187Y-122260248D01*
X141261800Y-122042243D01*
X141665824Y-121638923D01*
X141884750Y-121111691D01*
X141885248Y-120540813D01*
X141667243Y-120013200D01*
X141263923Y-119609176D01*
X140736691Y-119390250D01*
X140165813Y-119389752D01*
X139638200Y-119607757D01*
X139234176Y-120011077D01*
X139015250Y-120538309D01*
X139014752Y-121109187D01*
X120485000Y-121109187D01*
X120485000Y-117613403D01*
X123814682Y-117613403D01*
X124093455Y-118288086D01*
X124609199Y-118804730D01*
X125283395Y-119084681D01*
X126013403Y-119085318D01*
X126688086Y-118806545D01*
X127204730Y-118290801D01*
X127484681Y-117616605D01*
X127485318Y-116886597D01*
X127206545Y-116211914D01*
X127044914Y-116050000D01*
X131302560Y-116050000D01*
X131302560Y-118450000D01*
X131346838Y-118685317D01*
X131485910Y-118901441D01*
X131698110Y-119046431D01*
X131950000Y-119097440D01*
X134350000Y-119097440D01*
X134585317Y-119053162D01*
X134801441Y-118914090D01*
X134946431Y-118701890D01*
X134997440Y-118450000D01*
X134997440Y-117248344D01*
X150944765Y-117248344D01*
X151150617Y-117746543D01*
X151531452Y-118128043D01*
X152029291Y-118334764D01*
X152568344Y-118335235D01*
X153066543Y-118129383D01*
X153448043Y-117748548D01*
X153654764Y-117250709D01*
X153655235Y-116711656D01*
X153449383Y-116213457D01*
X153068548Y-115831957D01*
X152570709Y-115625236D01*
X152031656Y-115624765D01*
X151533457Y-115830617D01*
X151151957Y-116211452D01*
X150945236Y-116709291D01*
X150944765Y-117248344D01*
X134997440Y-117248344D01*
X134997440Y-116050000D01*
X134953162Y-115814683D01*
X134814090Y-115598559D01*
X134601890Y-115453569D01*
X134350000Y-115402560D01*
X131950000Y-115402560D01*
X131714683Y-115446838D01*
X131498559Y-115585910D01*
X131353569Y-115798110D01*
X131302560Y-116050000D01*
X127044914Y-116050000D01*
X126690801Y-115695270D01*
X126016605Y-115415319D01*
X125286597Y-115414682D01*
X124611914Y-115693455D01*
X124095270Y-116209199D01*
X123815319Y-116883395D01*
X123814682Y-117613403D01*
X120485000Y-117613403D01*
X120485000Y-110636887D01*
X139015000Y-110636887D01*
X139015000Y-110693113D01*
X139124233Y-111242264D01*
X139435302Y-111707811D01*
X139900849Y-112018880D01*
X140450000Y-112128113D01*
X140999151Y-112018880D01*
X141177067Y-111900000D01*
X145052560Y-111900000D01*
X145052560Y-113500000D01*
X145096838Y-113735317D01*
X145235910Y-113951441D01*
X145448110Y-114096431D01*
X145553041Y-114117680D01*
X145284176Y-114386077D01*
X145065250Y-114913309D01*
X145064752Y-115484187D01*
X145282757Y-116011800D01*
X145686077Y-116415824D01*
X146213309Y-116634750D01*
X146784187Y-116635248D01*
X147311800Y-116417243D01*
X147715824Y-116013923D01*
X147934750Y-115486691D01*
X147935248Y-114915813D01*
X147849524Y-114708344D01*
X153484765Y-114708344D01*
X153690617Y-115206543D01*
X154071452Y-115588043D01*
X154569291Y-115794764D01*
X155108344Y-115795235D01*
X155606543Y-115589383D01*
X155988043Y-115208548D01*
X156194764Y-114710709D01*
X156195235Y-114171656D01*
X155989383Y-113673457D01*
X155608548Y-113291957D01*
X155110709Y-113085236D01*
X154571656Y-113084765D01*
X154073457Y-113290617D01*
X153691957Y-113671452D01*
X153485236Y-114169291D01*
X153484765Y-114708344D01*
X147849524Y-114708344D01*
X147717243Y-114388200D01*
X147448928Y-114119417D01*
X147535317Y-114103162D01*
X147751441Y-113964090D01*
X147896431Y-113751890D01*
X147947440Y-113500000D01*
X147947440Y-112168344D01*
X150944765Y-112168344D01*
X151150617Y-112666543D01*
X151531452Y-113048043D01*
X152029291Y-113254764D01*
X152568344Y-113255235D01*
X153066543Y-113049383D01*
X153448043Y-112668548D01*
X153654764Y-112170709D01*
X153655235Y-111631656D01*
X153449383Y-111133457D01*
X153068548Y-110751957D01*
X152570709Y-110545236D01*
X152031656Y-110544765D01*
X151533457Y-110750617D01*
X151151957Y-111131452D01*
X150945236Y-111629291D01*
X150944765Y-112168344D01*
X147947440Y-112168344D01*
X147947440Y-111900000D01*
X147903162Y-111664683D01*
X147764090Y-111448559D01*
X147551890Y-111303569D01*
X147300000Y-111252560D01*
X145700000Y-111252560D01*
X145464683Y-111296838D01*
X145248559Y-111435910D01*
X145103569Y-111648110D01*
X145052560Y-111900000D01*
X141177067Y-111900000D01*
X141464698Y-111707811D01*
X141775767Y-111242264D01*
X141885000Y-110693113D01*
X141885000Y-110636887D01*
X141775767Y-110087736D01*
X141464698Y-109622189D01*
X140999151Y-109311120D01*
X140450000Y-109201887D01*
X139900849Y-109311120D01*
X139435302Y-109622189D01*
X139124233Y-110087736D01*
X139015000Y-110636887D01*
X120485000Y-110636887D01*
X120485000Y-102926009D01*
X124465000Y-102926009D01*
X124465000Y-102993991D01*
X124597069Y-103657947D01*
X124973170Y-104220821D01*
X125536044Y-104596922D01*
X126130453Y-104715157D01*
X125665813Y-104714752D01*
X125138200Y-104932757D01*
X124734176Y-105336077D01*
X124515250Y-105863309D01*
X124514752Y-106434187D01*
X124732757Y-106961800D01*
X125136077Y-107365824D01*
X125663309Y-107584750D01*
X126234187Y-107585248D01*
X126761800Y-107367243D01*
X127165824Y-106963923D01*
X127384750Y-106436691D01*
X127384752Y-106434187D01*
X129514752Y-106434187D01*
X129732757Y-106961800D01*
X130136077Y-107365824D01*
X130663309Y-107584750D01*
X131234187Y-107585248D01*
X131761800Y-107367243D01*
X132165824Y-106963923D01*
X132384750Y-106436691D01*
X132385248Y-105865813D01*
X132167243Y-105338200D01*
X131763923Y-104934176D01*
X131236691Y-104715250D01*
X130665813Y-104714752D01*
X130138200Y-104932757D01*
X129734176Y-105336077D01*
X129515250Y-105863309D01*
X129514752Y-106434187D01*
X127384752Y-106434187D01*
X127385248Y-105865813D01*
X127167243Y-105338200D01*
X126763923Y-104934176D01*
X126247181Y-104719606D01*
X126863956Y-104596922D01*
X127426830Y-104220821D01*
X127802931Y-103657947D01*
X127935000Y-102993991D01*
X127935000Y-102926009D01*
X127802931Y-102262053D01*
X127426830Y-101699179D01*
X126863956Y-101323078D01*
X126200000Y-101191009D01*
X125536044Y-101323078D01*
X124973170Y-101699179D01*
X124597069Y-102262053D01*
X124465000Y-102926009D01*
X120485000Y-102926009D01*
X120485000Y-99750000D01*
X149302560Y-99750000D01*
X149302560Y-101550000D01*
X149346838Y-101785317D01*
X149485910Y-102001441D01*
X149698110Y-102146431D01*
X149950000Y-102197440D01*
X151750000Y-102197440D01*
X151985317Y-102153162D01*
X152201441Y-102014090D01*
X152346431Y-101801890D01*
X152397440Y-101550000D01*
X152397440Y-99750000D01*
X154352560Y-99750000D01*
X154352560Y-101550000D01*
X154396838Y-101785317D01*
X154535910Y-102001441D01*
X154748110Y-102146431D01*
X155000000Y-102197440D01*
X156800000Y-102197440D01*
X157035317Y-102153162D01*
X157251441Y-102014090D01*
X157396431Y-101801890D01*
X157447440Y-101550000D01*
X157447440Y-99750000D01*
X157403162Y-99514683D01*
X157264090Y-99298559D01*
X157051890Y-99153569D01*
X157035656Y-99150281D01*
X157318155Y-98727491D01*
X157435000Y-98140072D01*
X157435000Y-98079928D01*
X157318155Y-97492509D01*
X156985409Y-96994519D01*
X156754155Y-96840000D01*
X156985409Y-96685481D01*
X157318155Y-96187491D01*
X157435000Y-95600072D01*
X157435000Y-95539928D01*
X157318155Y-94952509D01*
X156985409Y-94454519D01*
X156487419Y-94121773D01*
X155900000Y-94004928D01*
X155312581Y-94121773D01*
X154814591Y-94454519D01*
X154481845Y-94952509D01*
X154365000Y-95539928D01*
X154365000Y-95600072D01*
X154481845Y-96187491D01*
X154814591Y-96685481D01*
X155045845Y-96840000D01*
X154814591Y-96994519D01*
X154481845Y-97492509D01*
X154365000Y-98079928D01*
X154365000Y-98140072D01*
X154481845Y-98727491D01*
X154762837Y-99148026D01*
X154548559Y-99285910D01*
X154403569Y-99498110D01*
X154352560Y-99750000D01*
X152397440Y-99750000D01*
X152353162Y-99514683D01*
X152214090Y-99298559D01*
X152001890Y-99153569D01*
X151985656Y-99150281D01*
X152268155Y-98727491D01*
X152385000Y-98140072D01*
X152385000Y-98079928D01*
X152268155Y-97492509D01*
X151935409Y-96994519D01*
X151704155Y-96840000D01*
X151935409Y-96685481D01*
X152268155Y-96187491D01*
X152385000Y-95600072D01*
X152385000Y-95539928D01*
X152268155Y-94952509D01*
X151935409Y-94454519D01*
X151437419Y-94121773D01*
X150850000Y-94004928D01*
X150262581Y-94121773D01*
X149764591Y-94454519D01*
X149431845Y-94952509D01*
X149315000Y-95539928D01*
X149315000Y-95600072D01*
X149431845Y-96187491D01*
X149764591Y-96685481D01*
X149995845Y-96840000D01*
X149764591Y-96994519D01*
X149431845Y-97492509D01*
X149315000Y-98079928D01*
X149315000Y-98140072D01*
X149431845Y-98727491D01*
X149712837Y-99148026D01*
X149498559Y-99285910D01*
X149353569Y-99498110D01*
X149302560Y-99750000D01*
X120485000Y-99750000D01*
X120485000Y-96100000D01*
X129052560Y-96100000D01*
X129052560Y-98700000D01*
X129096838Y-98935317D01*
X129235910Y-99151441D01*
X129448110Y-99296431D01*
X129700000Y-99347440D01*
X131700000Y-99347440D01*
X131935317Y-99303162D01*
X132151441Y-99164090D01*
X132256951Y-99009671D01*
X132614313Y-99248452D01*
X133240000Y-99372909D01*
X133865687Y-99248452D01*
X134396120Y-98894029D01*
X134750543Y-98363596D01*
X134875000Y-97737909D01*
X134875000Y-97062091D01*
X134750543Y-96436404D01*
X134396120Y-95905971D01*
X133865687Y-95551548D01*
X133240000Y-95427091D01*
X132614313Y-95551548D01*
X132255808Y-95791093D01*
X132164090Y-95648559D01*
X131951890Y-95503569D01*
X131700000Y-95452560D01*
X129700000Y-95452560D01*
X129464683Y-95496838D01*
X129248559Y-95635910D01*
X129103569Y-95848110D01*
X129052560Y-96100000D01*
X120485000Y-96100000D01*
X120485000Y-91700000D01*
X124452560Y-91700000D01*
X124452560Y-93900000D01*
X124496838Y-94135317D01*
X124635910Y-94351441D01*
X124848110Y-94496431D01*
X125100000Y-94547440D01*
X127300000Y-94547440D01*
X127535317Y-94503162D01*
X127751441Y-94364090D01*
X127896431Y-94151890D01*
X127947440Y-93900000D01*
X127947440Y-91700000D01*
X127903162Y-91464683D01*
X127764090Y-91248559D01*
X127551890Y-91103569D01*
X127300000Y-91052560D01*
X125100000Y-91052560D01*
X124864683Y-91096838D01*
X124648559Y-91235910D01*
X124503569Y-91448110D01*
X124452560Y-91700000D01*
X120485000Y-91700000D01*
X120485000Y-90514221D01*
X120786077Y-90815824D01*
X121313309Y-91034750D01*
X121884187Y-91035248D01*
X122411800Y-90817243D01*
X122815824Y-90413923D01*
X123034750Y-89886691D01*
X123034752Y-89884187D01*
X125164752Y-89884187D01*
X125382757Y-90411800D01*
X125786077Y-90815824D01*
X126313309Y-91034750D01*
X126884187Y-91035248D01*
X127411800Y-90817243D01*
X127815824Y-90413923D01*
X128034750Y-89886691D01*
X128035248Y-89315813D01*
X127817243Y-88788200D01*
X127413923Y-88384176D01*
X126886691Y-88165250D01*
X126315813Y-88164752D01*
X125788200Y-88382757D01*
X125384176Y-88786077D01*
X125165250Y-89313309D01*
X125164752Y-89884187D01*
X123034752Y-89884187D01*
X123035248Y-89315813D01*
X122817243Y-88788200D01*
X122413923Y-88384176D01*
X121886691Y-88165250D01*
X121315813Y-88164752D01*
X120788200Y-88382757D01*
X120485000Y-88685429D01*
X120485000Y-85133697D01*
X143714708Y-85133697D01*
X143970694Y-85753229D01*
X144444278Y-86227640D01*
X145063362Y-86484707D01*
X145733697Y-86485292D01*
X146353229Y-86229306D01*
X146827640Y-85755722D01*
X147084707Y-85136638D01*
X147085292Y-84466303D01*
X146829306Y-83846771D01*
X146732704Y-83750000D01*
X154502560Y-83750000D01*
X154502560Y-85850000D01*
X154546838Y-86085317D01*
X154685910Y-86301441D01*
X154898110Y-86446431D01*
X155150000Y-86497440D01*
X157250000Y-86497440D01*
X157485317Y-86453162D01*
X157701441Y-86314090D01*
X157846431Y-86101890D01*
X157897440Y-85850000D01*
X157897440Y-83750000D01*
X157853162Y-83514683D01*
X157714090Y-83298559D01*
X157501890Y-83153569D01*
X157250000Y-83102560D01*
X155150000Y-83102560D01*
X154914683Y-83146838D01*
X154698559Y-83285910D01*
X154553569Y-83498110D01*
X154502560Y-83750000D01*
X146732704Y-83750000D01*
X146355722Y-83372360D01*
X145736638Y-83115293D01*
X145066303Y-83114708D01*
X144446771Y-83370694D01*
X143972360Y-83844278D01*
X143715293Y-84463362D01*
X143714708Y-85133697D01*
X120485000Y-85133697D01*
X120485000Y-80800000D01*
X130752560Y-80800000D01*
X130752560Y-83200000D01*
X130796838Y-83435317D01*
X130935910Y-83651441D01*
X131148110Y-83796431D01*
X131400000Y-83847440D01*
X133800000Y-83847440D01*
X134035317Y-83803162D01*
X134251441Y-83664090D01*
X134396431Y-83451890D01*
X134447440Y-83200000D01*
X134447440Y-80800000D01*
X134403162Y-80564683D01*
X134264090Y-80348559D01*
X134051890Y-80203569D01*
X133800000Y-80152560D01*
X131400000Y-80152560D01*
X131164683Y-80196838D01*
X130948559Y-80335910D01*
X130803569Y-80548110D01*
X130752560Y-80800000D01*
X120485000Y-80800000D01*
X120485000Y-74863403D01*
X130764682Y-74863403D01*
X131043455Y-75538086D01*
X131559199Y-76054730D01*
X132233395Y-76334681D01*
X132963403Y-76335318D01*
X133638086Y-76056545D01*
X134154730Y-75540801D01*
X134434681Y-74866605D01*
X134435146Y-74333697D01*
X143714708Y-74333697D01*
X143970694Y-74953229D01*
X144444278Y-75427640D01*
X145063362Y-75684707D01*
X145733697Y-75685292D01*
X146353229Y-75429306D01*
X146827640Y-74955722D01*
X147084707Y-74336638D01*
X147084709Y-74333697D01*
X154514708Y-74333697D01*
X154770694Y-74953229D01*
X155244278Y-75427640D01*
X155863362Y-75684707D01*
X156533697Y-75685292D01*
X157153229Y-75429306D01*
X157627640Y-74955722D01*
X157884707Y-74336638D01*
X157885292Y-73666303D01*
X157629306Y-73046771D01*
X157155722Y-72572360D01*
X156536638Y-72315293D01*
X155866303Y-72314708D01*
X155246771Y-72570694D01*
X154772360Y-73044278D01*
X154515293Y-73663362D01*
X154514708Y-74333697D01*
X147084709Y-74333697D01*
X147085292Y-73666303D01*
X146829306Y-73046771D01*
X146355722Y-72572360D01*
X145736638Y-72315293D01*
X145066303Y-72314708D01*
X144446771Y-72570694D01*
X143972360Y-73044278D01*
X143715293Y-73663362D01*
X143714708Y-74333697D01*
X134435146Y-74333697D01*
X134435318Y-74136597D01*
X134156545Y-73461914D01*
X133640801Y-72945270D01*
X132966605Y-72665319D01*
X132236597Y-72664682D01*
X131561914Y-72943455D01*
X131045270Y-73459199D01*
X130765319Y-74133395D01*
X130764682Y-74863403D01*
X120485000Y-74863403D01*
X120485000Y-67852128D01*
X138054570Y-67852128D01*
X138432091Y-68765800D01*
X139130523Y-69465452D01*
X140043534Y-69844568D01*
X141032128Y-69845430D01*
X141945800Y-69467909D01*
X142645452Y-68769477D01*
X143024568Y-67856466D01*
X143024589Y-67832128D01*
X147374570Y-67832128D01*
X147752091Y-68745800D01*
X148450523Y-69445452D01*
X149363534Y-69824568D01*
X150352128Y-69825430D01*
X151265800Y-69447909D01*
X151965452Y-68749477D01*
X152344568Y-67836466D01*
X152345430Y-66847872D01*
X151967909Y-65934200D01*
X151326957Y-65292128D01*
X152414570Y-65292128D01*
X152792091Y-66205800D01*
X153490523Y-66905452D01*
X154403534Y-67284568D01*
X155392128Y-67285430D01*
X156305800Y-66907909D01*
X157005452Y-66209477D01*
X157384568Y-65296466D01*
X157385430Y-64307872D01*
X157007909Y-63394200D01*
X156309477Y-62694548D01*
X155396466Y-62315432D01*
X154407872Y-62314570D01*
X153494200Y-62692091D01*
X152794548Y-63390523D01*
X152415432Y-64303534D01*
X152414570Y-65292128D01*
X151326957Y-65292128D01*
X151269477Y-65234548D01*
X150356466Y-64855432D01*
X149367872Y-64854570D01*
X148454200Y-65232091D01*
X147754548Y-65930523D01*
X147375432Y-66843534D01*
X147374570Y-67832128D01*
X143024589Y-67832128D01*
X143025430Y-66867872D01*
X142647909Y-65954200D01*
X141949477Y-65254548D01*
X141036466Y-64875432D01*
X140047872Y-64874570D01*
X139134200Y-65252091D01*
X138434548Y-65950523D01*
X138055432Y-66863534D01*
X138054570Y-67852128D01*
X120485000Y-67852128D01*
X120485000Y-63400000D01*
X121252560Y-63400000D01*
X121252560Y-66400000D01*
X121296838Y-66635317D01*
X121435910Y-66851441D01*
X121648110Y-66996431D01*
X121900000Y-67047440D01*
X124900000Y-67047440D01*
X125135317Y-67003162D01*
X125351441Y-66864090D01*
X125496431Y-66651890D01*
X125547440Y-66400000D01*
X125547440Y-65322815D01*
X126344630Y-65322815D01*
X126668980Y-66107800D01*
X127269041Y-66708909D01*
X128053459Y-67034628D01*
X128902815Y-67035370D01*
X129687800Y-66711020D01*
X130288909Y-66110959D01*
X130614628Y-65326541D01*
X130614658Y-65292128D01*
X133014570Y-65292128D01*
X133392091Y-66205800D01*
X134090523Y-66905452D01*
X135003534Y-67284568D01*
X135992128Y-67285430D01*
X136905800Y-66907909D01*
X137605452Y-66209477D01*
X137984568Y-65296466D01*
X137985430Y-64307872D01*
X137607909Y-63394200D01*
X136956975Y-62742128D01*
X138054570Y-62742128D01*
X138432091Y-63655800D01*
X139130523Y-64355452D01*
X140043534Y-64734568D01*
X141032128Y-64735430D01*
X141945800Y-64357909D01*
X142645452Y-63659477D01*
X143024568Y-62746466D01*
X143024580Y-62732128D01*
X147374570Y-62732128D01*
X147752091Y-63645800D01*
X148450523Y-64345452D01*
X149363534Y-64724568D01*
X150352128Y-64725430D01*
X151265800Y-64347909D01*
X151965452Y-63649477D01*
X152344568Y-62736466D01*
X152345430Y-61747872D01*
X151967909Y-60834200D01*
X151269477Y-60134548D01*
X150356466Y-59755432D01*
X149367872Y-59754570D01*
X148454200Y-60132091D01*
X147754548Y-60830523D01*
X147375432Y-61743534D01*
X147374570Y-62732128D01*
X143024580Y-62732128D01*
X143025430Y-61757872D01*
X142647909Y-60844200D01*
X141949477Y-60144548D01*
X141036466Y-59765432D01*
X140047872Y-59764570D01*
X139134200Y-60142091D01*
X138434548Y-60840523D01*
X138055432Y-61753534D01*
X138054570Y-62742128D01*
X136956975Y-62742128D01*
X136909477Y-62694548D01*
X135996466Y-62315432D01*
X135007872Y-62314570D01*
X134094200Y-62692091D01*
X133394548Y-63390523D01*
X133015432Y-64303534D01*
X133014570Y-65292128D01*
X130614658Y-65292128D01*
X130615370Y-64477185D01*
X130291020Y-63692200D01*
X129690959Y-63091091D01*
X128906541Y-62765372D01*
X128057185Y-62764630D01*
X127272200Y-63088980D01*
X126671091Y-63689041D01*
X126345372Y-64473459D01*
X126344630Y-65322815D01*
X125547440Y-65322815D01*
X125547440Y-63400000D01*
X125503162Y-63164683D01*
X125364090Y-62948559D01*
X125151890Y-62803569D01*
X124900000Y-62752560D01*
X121900000Y-62752560D01*
X121664683Y-62796838D01*
X121448559Y-62935910D01*
X121303569Y-63148110D01*
X121252560Y-63400000D01*
X120485000Y-63400000D01*
X120485000Y-59198185D01*
X120586250Y-59443229D01*
X121551688Y-60410354D01*
X122813739Y-60934403D01*
X124180266Y-60935595D01*
X125443229Y-60413750D01*
X126410354Y-59448312D01*
X126934403Y-58186261D01*
X126935595Y-56819734D01*
X126413750Y-55556771D01*
X125448312Y-54589646D01*
X124186261Y-54065597D01*
X122819734Y-54064405D01*
X121556771Y-54586250D01*
X120589646Y-55551688D01*
X120485000Y-55803704D01*
X120485000Y-53085000D01*
X159115000Y-53085000D01*
X159115000Y-56043834D01*
X159115000Y-56043834D01*
G37*
X159115000Y-56043834D02*
X158913750Y-55556771D01*
X157948312Y-54589646D01*
X156686261Y-54065597D01*
X155319734Y-54064405D01*
X154056771Y-54586250D01*
X153089646Y-55551688D01*
X152565597Y-56813739D01*
X152564405Y-58180266D01*
X153086250Y-59443229D01*
X154051688Y-60410354D01*
X155313739Y-60934403D01*
X156680266Y-60935595D01*
X157943229Y-60413750D01*
X158910354Y-59448312D01*
X159115000Y-58955469D01*
X159115000Y-136543834D01*
X158913750Y-136056771D01*
X157948312Y-135089646D01*
X156686261Y-134565597D01*
X155319734Y-134564405D01*
X154056771Y-135086250D01*
X153089646Y-136051688D01*
X152565597Y-137313739D01*
X152564405Y-138680266D01*
X153086250Y-139943229D01*
X154051688Y-140910354D01*
X155313739Y-141434403D01*
X156680266Y-141435595D01*
X157943229Y-140913750D01*
X158910354Y-139948312D01*
X159115000Y-139455469D01*
X159115000Y-141715000D01*
X120485000Y-141715000D01*
X120485000Y-139698185D01*
X120586250Y-139943229D01*
X121551688Y-140910354D01*
X122813739Y-141434403D01*
X124180266Y-141435595D01*
X125443229Y-140913750D01*
X126410354Y-139948312D01*
X126934403Y-138686261D01*
X126935595Y-137319734D01*
X126413750Y-136056771D01*
X125448312Y-135089646D01*
X124186261Y-134565597D01*
X122819734Y-134564405D01*
X121556771Y-135086250D01*
X120589646Y-136051688D01*
X120485000Y-136303704D01*
X120485000Y-129400000D01*
X122752560Y-129400000D01*
X122752560Y-132000000D01*
X122796838Y-132235317D01*
X122935910Y-132451441D01*
X123148110Y-132596431D01*
X123400000Y-132647440D01*
X125400000Y-132647440D01*
X125635317Y-132603162D01*
X125851441Y-132464090D01*
X125956951Y-132309671D01*
X126314313Y-132548452D01*
X126940000Y-132672909D01*
X127565687Y-132548452D01*
X128096120Y-132194029D01*
X128450543Y-131663596D01*
X128575000Y-131037909D01*
X128575000Y-130362091D01*
X128450543Y-129736404D01*
X128225766Y-129400000D01*
X129852560Y-129400000D01*
X129852560Y-132000000D01*
X129896838Y-132235317D01*
X130035910Y-132451441D01*
X130248110Y-132596431D01*
X130500000Y-132647440D01*
X132500000Y-132647440D01*
X132735317Y-132603162D01*
X132951441Y-132464090D01*
X133056951Y-132309671D01*
X133414313Y-132548452D01*
X134040000Y-132672909D01*
X134665687Y-132548452D01*
X135196120Y-132194029D01*
X135550543Y-131663596D01*
X135675000Y-131037909D01*
X135675000Y-130362091D01*
X135550543Y-129736404D01*
X135325766Y-129400000D01*
X136852560Y-129400000D01*
X136852560Y-132000000D01*
X136896838Y-132235317D01*
X137035910Y-132451441D01*
X137248110Y-132596431D01*
X137500000Y-132647440D01*
X139500000Y-132647440D01*
X139735317Y-132603162D01*
X139951441Y-132464090D01*
X140056951Y-132309671D01*
X140414313Y-132548452D01*
X141040000Y-132672909D01*
X141665687Y-132548452D01*
X142196120Y-132194029D01*
X142550543Y-131663596D01*
X142675000Y-131037909D01*
X142675000Y-130362091D01*
X142550543Y-129736404D01*
X142325766Y-129400000D01*
X143852560Y-129400000D01*
X143852560Y-132000000D01*
X143896838Y-132235317D01*
X144035910Y-132451441D01*
X144248110Y-132596431D01*
X144500000Y-132647440D01*
X146500000Y-132647440D01*
X146735317Y-132603162D01*
X146951441Y-132464090D01*
X147056951Y-132309671D01*
X147414313Y-132548452D01*
X148040000Y-132672909D01*
X148665687Y-132548452D01*
X149196120Y-132194029D01*
X149550543Y-131663596D01*
X149675000Y-131037909D01*
X149675000Y-130362091D01*
X149550543Y-129736404D01*
X149325766Y-129400000D01*
X150852560Y-129400000D01*
X150852560Y-132000000D01*
X150896838Y-132235317D01*
X151035910Y-132451441D01*
X151248110Y-132596431D01*
X151500000Y-132647440D01*
X153500000Y-132647440D01*
X153735317Y-132603162D01*
X153951441Y-132464090D01*
X154056951Y-132309671D01*
X154414313Y-132548452D01*
X155040000Y-132672909D01*
X155665687Y-132548452D01*
X156196120Y-132194029D01*
X156550543Y-131663596D01*
X156675000Y-131037909D01*
X156675000Y-130362091D01*
X156550543Y-129736404D01*
X156196120Y-129205971D01*
X155665687Y-128851548D01*
X155040000Y-128727091D01*
X154414313Y-128851548D01*
X154055808Y-129091093D01*
X153964090Y-128948559D01*
X153751890Y-128803569D01*
X153500000Y-128752560D01*
X151500000Y-128752560D01*
X151264683Y-128796838D01*
X151048559Y-128935910D01*
X150903569Y-129148110D01*
X150852560Y-129400000D01*
X149325766Y-129400000D01*
X149196120Y-129205971D01*
X148665687Y-128851548D01*
X148040000Y-128727091D01*
X147414313Y-128851548D01*
X147055808Y-129091093D01*
X146964090Y-128948559D01*
X146751890Y-128803569D01*
X146500000Y-128752560D01*
X144500000Y-128752560D01*
X144264683Y-128796838D01*
X144048559Y-128935910D01*
X143903569Y-129148110D01*
X143852560Y-129400000D01*
X142325766Y-129400000D01*
X142196120Y-129205971D01*
X141665687Y-128851548D01*
X141040000Y-128727091D01*
X140414313Y-128851548D01*
X140055808Y-129091093D01*
X139964090Y-128948559D01*
X139751890Y-128803569D01*
X139500000Y-128752560D01*
X137500000Y-128752560D01*
X137264683Y-128796838D01*
X137048559Y-128935910D01*
X136903569Y-129148110D01*
X136852560Y-129400000D01*
X135325766Y-129400000D01*
X135196120Y-129205971D01*
X134665687Y-128851548D01*
X134040000Y-128727091D01*
X133414313Y-128851548D01*
X133055808Y-129091093D01*
X132964090Y-128948559D01*
X132751890Y-128803569D01*
X132500000Y-128752560D01*
X130500000Y-128752560D01*
X130264683Y-128796838D01*
X130048559Y-128935910D01*
X129903569Y-129148110D01*
X129852560Y-129400000D01*
X128225766Y-129400000D01*
X128096120Y-129205971D01*
X127565687Y-128851548D01*
X126940000Y-128727091D01*
X126314313Y-128851548D01*
X125955808Y-129091093D01*
X125864090Y-128948559D01*
X125651890Y-128803569D01*
X125400000Y-128752560D01*
X123400000Y-128752560D01*
X123164683Y-128796838D01*
X122948559Y-128935910D01*
X122803569Y-129148110D01*
X122752560Y-129400000D01*
X120485000Y-129400000D01*
X120485000Y-123325000D01*
X142071009Y-123325000D01*
X142203078Y-123988956D01*
X142579179Y-124551830D01*
X143142053Y-124927931D01*
X143806009Y-125060000D01*
X143873991Y-125060000D01*
X144537947Y-124927931D01*
X145100821Y-124551830D01*
X145476922Y-123988956D01*
X145608991Y-123325000D01*
X145476922Y-122661044D01*
X145185567Y-122225000D01*
X152252560Y-122225000D01*
X152252560Y-124425000D01*
X152296838Y-124660317D01*
X152435910Y-124876441D01*
X152648110Y-125021431D01*
X152900000Y-125072440D01*
X155100000Y-125072440D01*
X155335317Y-125028162D01*
X155551441Y-124889090D01*
X155696431Y-124676890D01*
X155747440Y-124425000D01*
X155747440Y-122225000D01*
X155703162Y-121989683D01*
X155564090Y-121773559D01*
X155351890Y-121628569D01*
X155100000Y-121577560D01*
X152900000Y-121577560D01*
X152664683Y-121621838D01*
X152448559Y-121760910D01*
X152303569Y-121973110D01*
X152252560Y-122225000D01*
X145185567Y-122225000D01*
X145100821Y-122098170D01*
X144537947Y-121722069D01*
X143873991Y-121590000D01*
X143806009Y-121590000D01*
X143142053Y-121722069D01*
X142579179Y-122098170D01*
X142203078Y-122661044D01*
X142071009Y-123325000D01*
X120485000Y-123325000D01*
X120485000Y-121109187D01*
X139014752Y-121109187D01*
X139232757Y-121636800D01*
X139636077Y-122040824D01*
X140163309Y-122259750D01*
X140734187Y-122260248D01*
X141261800Y-122042243D01*
X141665824Y-121638923D01*
X141884750Y-121111691D01*
X141885248Y-120540813D01*
X141667243Y-120013200D01*
X141263923Y-119609176D01*
X140736691Y-119390250D01*
X140165813Y-119389752D01*
X139638200Y-119607757D01*
X139234176Y-120011077D01*
X139015250Y-120538309D01*
X139014752Y-121109187D01*
X120485000Y-121109187D01*
X120485000Y-117613403D01*
X123814682Y-117613403D01*
X124093455Y-118288086D01*
X124609199Y-118804730D01*
X125283395Y-119084681D01*
X126013403Y-119085318D01*
X126688086Y-118806545D01*
X127204730Y-118290801D01*
X127484681Y-117616605D01*
X127485318Y-116886597D01*
X127206545Y-116211914D01*
X127044914Y-116050000D01*
X131302560Y-116050000D01*
X131302560Y-118450000D01*
X131346838Y-118685317D01*
X131485910Y-118901441D01*
X131698110Y-119046431D01*
X131950000Y-119097440D01*
X134350000Y-119097440D01*
X134585317Y-119053162D01*
X134801441Y-118914090D01*
X134946431Y-118701890D01*
X134997440Y-118450000D01*
X134997440Y-117248344D01*
X150944765Y-117248344D01*
X151150617Y-117746543D01*
X151531452Y-118128043D01*
X152029291Y-118334764D01*
X152568344Y-118335235D01*
X153066543Y-118129383D01*
X153448043Y-117748548D01*
X153654764Y-117250709D01*
X153655235Y-116711656D01*
X153449383Y-116213457D01*
X153068548Y-115831957D01*
X152570709Y-115625236D01*
X152031656Y-115624765D01*
X151533457Y-115830617D01*
X151151957Y-116211452D01*
X150945236Y-116709291D01*
X150944765Y-117248344D01*
X134997440Y-117248344D01*
X134997440Y-116050000D01*
X134953162Y-115814683D01*
X134814090Y-115598559D01*
X134601890Y-115453569D01*
X134350000Y-115402560D01*
X131950000Y-115402560D01*
X131714683Y-115446838D01*
X131498559Y-115585910D01*
X131353569Y-115798110D01*
X131302560Y-116050000D01*
X127044914Y-116050000D01*
X126690801Y-115695270D01*
X126016605Y-115415319D01*
X125286597Y-115414682D01*
X124611914Y-115693455D01*
X124095270Y-116209199D01*
X123815319Y-116883395D01*
X123814682Y-117613403D01*
X120485000Y-117613403D01*
X120485000Y-110636887D01*
X139015000Y-110636887D01*
X139015000Y-110693113D01*
X139124233Y-111242264D01*
X139435302Y-111707811D01*
X139900849Y-112018880D01*
X140450000Y-112128113D01*
X140999151Y-112018880D01*
X141177067Y-111900000D01*
X145052560Y-111900000D01*
X145052560Y-113500000D01*
X145096838Y-113735317D01*
X145235910Y-113951441D01*
X145448110Y-114096431D01*
X145553041Y-114117680D01*
X145284176Y-114386077D01*
X145065250Y-114913309D01*
X145064752Y-115484187D01*
X145282757Y-116011800D01*
X145686077Y-116415824D01*
X146213309Y-116634750D01*
X146784187Y-116635248D01*
X147311800Y-116417243D01*
X147715824Y-116013923D01*
X147934750Y-115486691D01*
X147935248Y-114915813D01*
X147849524Y-114708344D01*
X153484765Y-114708344D01*
X153690617Y-115206543D01*
X154071452Y-115588043D01*
X154569291Y-115794764D01*
X155108344Y-115795235D01*
X155606543Y-115589383D01*
X155988043Y-115208548D01*
X156194764Y-114710709D01*
X156195235Y-114171656D01*
X155989383Y-113673457D01*
X155608548Y-113291957D01*
X155110709Y-113085236D01*
X154571656Y-113084765D01*
X154073457Y-113290617D01*
X153691957Y-113671452D01*
X153485236Y-114169291D01*
X153484765Y-114708344D01*
X147849524Y-114708344D01*
X147717243Y-114388200D01*
X147448928Y-114119417D01*
X147535317Y-114103162D01*
X147751441Y-113964090D01*
X147896431Y-113751890D01*
X147947440Y-113500000D01*
X147947440Y-112168344D01*
X150944765Y-112168344D01*
X151150617Y-112666543D01*
X151531452Y-113048043D01*
X152029291Y-113254764D01*
X152568344Y-113255235D01*
X153066543Y-113049383D01*
X153448043Y-112668548D01*
X153654764Y-112170709D01*
X153655235Y-111631656D01*
X153449383Y-111133457D01*
X153068548Y-110751957D01*
X152570709Y-110545236D01*
X152031656Y-110544765D01*
X151533457Y-110750617D01*
X151151957Y-111131452D01*
X150945236Y-111629291D01*
X150944765Y-112168344D01*
X147947440Y-112168344D01*
X147947440Y-111900000D01*
X147903162Y-111664683D01*
X147764090Y-111448559D01*
X147551890Y-111303569D01*
X147300000Y-111252560D01*
X145700000Y-111252560D01*
X145464683Y-111296838D01*
X145248559Y-111435910D01*
X145103569Y-111648110D01*
X145052560Y-111900000D01*
X141177067Y-111900000D01*
X141464698Y-111707811D01*
X141775767Y-111242264D01*
X141885000Y-110693113D01*
X141885000Y-110636887D01*
X141775767Y-110087736D01*
X141464698Y-109622189D01*
X140999151Y-109311120D01*
X140450000Y-109201887D01*
X139900849Y-109311120D01*
X139435302Y-109622189D01*
X139124233Y-110087736D01*
X139015000Y-110636887D01*
X120485000Y-110636887D01*
X120485000Y-102926009D01*
X124465000Y-102926009D01*
X124465000Y-102993991D01*
X124597069Y-103657947D01*
X124973170Y-104220821D01*
X125536044Y-104596922D01*
X126130453Y-104715157D01*
X125665813Y-104714752D01*
X125138200Y-104932757D01*
X124734176Y-105336077D01*
X124515250Y-105863309D01*
X124514752Y-106434187D01*
X124732757Y-106961800D01*
X125136077Y-107365824D01*
X125663309Y-107584750D01*
X126234187Y-107585248D01*
X126761800Y-107367243D01*
X127165824Y-106963923D01*
X127384750Y-106436691D01*
X127384752Y-106434187D01*
X129514752Y-106434187D01*
X129732757Y-106961800D01*
X130136077Y-107365824D01*
X130663309Y-107584750D01*
X131234187Y-107585248D01*
X131761800Y-107367243D01*
X132165824Y-106963923D01*
X132384750Y-106436691D01*
X132385248Y-105865813D01*
X132167243Y-105338200D01*
X131763923Y-104934176D01*
X131236691Y-104715250D01*
X130665813Y-104714752D01*
X130138200Y-104932757D01*
X129734176Y-105336077D01*
X129515250Y-105863309D01*
X129514752Y-106434187D01*
X127384752Y-106434187D01*
X127385248Y-105865813D01*
X127167243Y-105338200D01*
X126763923Y-104934176D01*
X126247181Y-104719606D01*
X126863956Y-104596922D01*
X127426830Y-104220821D01*
X127802931Y-103657947D01*
X127935000Y-102993991D01*
X127935000Y-102926009D01*
X127802931Y-102262053D01*
X127426830Y-101699179D01*
X126863956Y-101323078D01*
X126200000Y-101191009D01*
X125536044Y-101323078D01*
X124973170Y-101699179D01*
X124597069Y-102262053D01*
X124465000Y-102926009D01*
X120485000Y-102926009D01*
X120485000Y-99750000D01*
X149302560Y-99750000D01*
X149302560Y-101550000D01*
X149346838Y-101785317D01*
X149485910Y-102001441D01*
X149698110Y-102146431D01*
X149950000Y-102197440D01*
X151750000Y-102197440D01*
X151985317Y-102153162D01*
X152201441Y-102014090D01*
X152346431Y-101801890D01*
X152397440Y-101550000D01*
X152397440Y-99750000D01*
X154352560Y-99750000D01*
X154352560Y-101550000D01*
X154396838Y-101785317D01*
X154535910Y-102001441D01*
X154748110Y-102146431D01*
X155000000Y-102197440D01*
X156800000Y-102197440D01*
X157035317Y-102153162D01*
X157251441Y-102014090D01*
X157396431Y-101801890D01*
X157447440Y-101550000D01*
X157447440Y-99750000D01*
X157403162Y-99514683D01*
X157264090Y-99298559D01*
X157051890Y-99153569D01*
X157035656Y-99150281D01*
X157318155Y-98727491D01*
X157435000Y-98140072D01*
X157435000Y-98079928D01*
X157318155Y-97492509D01*
X156985409Y-96994519D01*
X156754155Y-96840000D01*
X156985409Y-96685481D01*
X157318155Y-96187491D01*
X157435000Y-95600072D01*
X157435000Y-95539928D01*
X157318155Y-94952509D01*
X156985409Y-94454519D01*
X156487419Y-94121773D01*
X155900000Y-94004928D01*
X155312581Y-94121773D01*
X154814591Y-94454519D01*
X154481845Y-94952509D01*
X154365000Y-95539928D01*
X154365000Y-95600072D01*
X154481845Y-96187491D01*
X154814591Y-96685481D01*
X155045845Y-96840000D01*
X154814591Y-96994519D01*
X154481845Y-97492509D01*
X154365000Y-98079928D01*
X154365000Y-98140072D01*
X154481845Y-98727491D01*
X154762837Y-99148026D01*
X154548559Y-99285910D01*
X154403569Y-99498110D01*
X154352560Y-99750000D01*
X152397440Y-99750000D01*
X152353162Y-99514683D01*
X152214090Y-99298559D01*
X152001890Y-99153569D01*
X151985656Y-99150281D01*
X152268155Y-98727491D01*
X152385000Y-98140072D01*
X152385000Y-98079928D01*
X152268155Y-97492509D01*
X151935409Y-96994519D01*
X151704155Y-96840000D01*
X151935409Y-96685481D01*
X152268155Y-96187491D01*
X152385000Y-95600072D01*
X152385000Y-95539928D01*
X152268155Y-94952509D01*
X151935409Y-94454519D01*
X151437419Y-94121773D01*
X150850000Y-94004928D01*
X150262581Y-94121773D01*
X149764591Y-94454519D01*
X149431845Y-94952509D01*
X149315000Y-95539928D01*
X149315000Y-95600072D01*
X149431845Y-96187491D01*
X149764591Y-96685481D01*
X149995845Y-96840000D01*
X149764591Y-96994519D01*
X149431845Y-97492509D01*
X149315000Y-98079928D01*
X149315000Y-98140072D01*
X149431845Y-98727491D01*
X149712837Y-99148026D01*
X149498559Y-99285910D01*
X149353569Y-99498110D01*
X149302560Y-99750000D01*
X120485000Y-99750000D01*
X120485000Y-96100000D01*
X129052560Y-96100000D01*
X129052560Y-98700000D01*
X129096838Y-98935317D01*
X129235910Y-99151441D01*
X129448110Y-99296431D01*
X129700000Y-99347440D01*
X131700000Y-99347440D01*
X131935317Y-99303162D01*
X132151441Y-99164090D01*
X132256951Y-99009671D01*
X132614313Y-99248452D01*
X133240000Y-99372909D01*
X133865687Y-99248452D01*
X134396120Y-98894029D01*
X134750543Y-98363596D01*
X134875000Y-97737909D01*
X134875000Y-97062091D01*
X134750543Y-96436404D01*
X134396120Y-95905971D01*
X133865687Y-95551548D01*
X133240000Y-95427091D01*
X132614313Y-95551548D01*
X132255808Y-95791093D01*
X132164090Y-95648559D01*
X131951890Y-95503569D01*
X131700000Y-95452560D01*
X129700000Y-95452560D01*
X129464683Y-95496838D01*
X129248559Y-95635910D01*
X129103569Y-95848110D01*
X129052560Y-96100000D01*
X120485000Y-96100000D01*
X120485000Y-91700000D01*
X124452560Y-91700000D01*
X124452560Y-93900000D01*
X124496838Y-94135317D01*
X124635910Y-94351441D01*
X124848110Y-94496431D01*
X125100000Y-94547440D01*
X127300000Y-94547440D01*
X127535317Y-94503162D01*
X127751441Y-94364090D01*
X127896431Y-94151890D01*
X127947440Y-93900000D01*
X127947440Y-91700000D01*
X127903162Y-91464683D01*
X127764090Y-91248559D01*
X127551890Y-91103569D01*
X127300000Y-91052560D01*
X125100000Y-91052560D01*
X124864683Y-91096838D01*
X124648559Y-91235910D01*
X124503569Y-91448110D01*
X124452560Y-91700000D01*
X120485000Y-91700000D01*
X120485000Y-90514221D01*
X120786077Y-90815824D01*
X121313309Y-91034750D01*
X121884187Y-91035248D01*
X122411800Y-90817243D01*
X122815824Y-90413923D01*
X123034750Y-89886691D01*
X123034752Y-89884187D01*
X125164752Y-89884187D01*
X125382757Y-90411800D01*
X125786077Y-90815824D01*
X126313309Y-91034750D01*
X126884187Y-91035248D01*
X127411800Y-90817243D01*
X127815824Y-90413923D01*
X128034750Y-89886691D01*
X128035248Y-89315813D01*
X127817243Y-88788200D01*
X127413923Y-88384176D01*
X126886691Y-88165250D01*
X126315813Y-88164752D01*
X125788200Y-88382757D01*
X125384176Y-88786077D01*
X125165250Y-89313309D01*
X125164752Y-89884187D01*
X123034752Y-89884187D01*
X123035248Y-89315813D01*
X122817243Y-88788200D01*
X122413923Y-88384176D01*
X121886691Y-88165250D01*
X121315813Y-88164752D01*
X120788200Y-88382757D01*
X120485000Y-88685429D01*
X120485000Y-85133697D01*
X143714708Y-85133697D01*
X143970694Y-85753229D01*
X144444278Y-86227640D01*
X145063362Y-86484707D01*
X145733697Y-86485292D01*
X146353229Y-86229306D01*
X146827640Y-85755722D01*
X147084707Y-85136638D01*
X147085292Y-84466303D01*
X146829306Y-83846771D01*
X146732704Y-83750000D01*
X154502560Y-83750000D01*
X154502560Y-85850000D01*
X154546838Y-86085317D01*
X154685910Y-86301441D01*
X154898110Y-86446431D01*
X155150000Y-86497440D01*
X157250000Y-86497440D01*
X157485317Y-86453162D01*
X157701441Y-86314090D01*
X157846431Y-86101890D01*
X157897440Y-85850000D01*
X157897440Y-83750000D01*
X157853162Y-83514683D01*
X157714090Y-83298559D01*
X157501890Y-83153569D01*
X157250000Y-83102560D01*
X155150000Y-83102560D01*
X154914683Y-83146838D01*
X154698559Y-83285910D01*
X154553569Y-83498110D01*
X154502560Y-83750000D01*
X146732704Y-83750000D01*
X146355722Y-83372360D01*
X145736638Y-83115293D01*
X145066303Y-83114708D01*
X144446771Y-83370694D01*
X143972360Y-83844278D01*
X143715293Y-84463362D01*
X143714708Y-85133697D01*
X120485000Y-85133697D01*
X120485000Y-80800000D01*
X130752560Y-80800000D01*
X130752560Y-83200000D01*
X130796838Y-83435317D01*
X130935910Y-83651441D01*
X131148110Y-83796431D01*
X131400000Y-83847440D01*
X133800000Y-83847440D01*
X134035317Y-83803162D01*
X134251441Y-83664090D01*
X134396431Y-83451890D01*
X134447440Y-83200000D01*
X134447440Y-80800000D01*
X134403162Y-80564683D01*
X134264090Y-80348559D01*
X134051890Y-80203569D01*
X133800000Y-80152560D01*
X131400000Y-80152560D01*
X131164683Y-80196838D01*
X130948559Y-80335910D01*
X130803569Y-80548110D01*
X130752560Y-80800000D01*
X120485000Y-80800000D01*
X120485000Y-74863403D01*
X130764682Y-74863403D01*
X131043455Y-75538086D01*
X131559199Y-76054730D01*
X132233395Y-76334681D01*
X132963403Y-76335318D01*
X133638086Y-76056545D01*
X134154730Y-75540801D01*
X134434681Y-74866605D01*
X134435146Y-74333697D01*
X143714708Y-74333697D01*
X143970694Y-74953229D01*
X144444278Y-75427640D01*
X145063362Y-75684707D01*
X145733697Y-75685292D01*
X146353229Y-75429306D01*
X146827640Y-74955722D01*
X147084707Y-74336638D01*
X147084709Y-74333697D01*
X154514708Y-74333697D01*
X154770694Y-74953229D01*
X155244278Y-75427640D01*
X155863362Y-75684707D01*
X156533697Y-75685292D01*
X157153229Y-75429306D01*
X157627640Y-74955722D01*
X157884707Y-74336638D01*
X157885292Y-73666303D01*
X157629306Y-73046771D01*
X157155722Y-72572360D01*
X156536638Y-72315293D01*
X155866303Y-72314708D01*
X155246771Y-72570694D01*
X154772360Y-73044278D01*
X154515293Y-73663362D01*
X154514708Y-74333697D01*
X147084709Y-74333697D01*
X147085292Y-73666303D01*
X146829306Y-73046771D01*
X146355722Y-72572360D01*
X145736638Y-72315293D01*
X145066303Y-72314708D01*
X144446771Y-72570694D01*
X143972360Y-73044278D01*
X143715293Y-73663362D01*
X143714708Y-74333697D01*
X134435146Y-74333697D01*
X134435318Y-74136597D01*
X134156545Y-73461914D01*
X133640801Y-72945270D01*
X132966605Y-72665319D01*
X132236597Y-72664682D01*
X131561914Y-72943455D01*
X131045270Y-73459199D01*
X130765319Y-74133395D01*
X130764682Y-74863403D01*
X120485000Y-74863403D01*
X120485000Y-67852128D01*
X138054570Y-67852128D01*
X138432091Y-68765800D01*
X139130523Y-69465452D01*
X140043534Y-69844568D01*
X141032128Y-69845430D01*
X141945800Y-69467909D01*
X142645452Y-68769477D01*
X143024568Y-67856466D01*
X143024589Y-67832128D01*
X147374570Y-67832128D01*
X147752091Y-68745800D01*
X148450523Y-69445452D01*
X149363534Y-69824568D01*
X150352128Y-69825430D01*
X151265800Y-69447909D01*
X151965452Y-68749477D01*
X152344568Y-67836466D01*
X152345430Y-66847872D01*
X151967909Y-65934200D01*
X151326957Y-65292128D01*
X152414570Y-65292128D01*
X152792091Y-66205800D01*
X153490523Y-66905452D01*
X154403534Y-67284568D01*
X155392128Y-67285430D01*
X156305800Y-66907909D01*
X157005452Y-66209477D01*
X157384568Y-65296466D01*
X157385430Y-64307872D01*
X157007909Y-63394200D01*
X156309477Y-62694548D01*
X155396466Y-62315432D01*
X154407872Y-62314570D01*
X153494200Y-62692091D01*
X152794548Y-63390523D01*
X152415432Y-64303534D01*
X152414570Y-65292128D01*
X151326957Y-65292128D01*
X151269477Y-65234548D01*
X150356466Y-64855432D01*
X149367872Y-64854570D01*
X148454200Y-65232091D01*
X147754548Y-65930523D01*
X147375432Y-66843534D01*
X147374570Y-67832128D01*
X143024589Y-67832128D01*
X143025430Y-66867872D01*
X142647909Y-65954200D01*
X141949477Y-65254548D01*
X141036466Y-64875432D01*
X140047872Y-64874570D01*
X139134200Y-65252091D01*
X138434548Y-65950523D01*
X138055432Y-66863534D01*
X138054570Y-67852128D01*
X120485000Y-67852128D01*
X120485000Y-63400000D01*
X121252560Y-63400000D01*
X121252560Y-66400000D01*
X121296838Y-66635317D01*
X121435910Y-66851441D01*
X121648110Y-66996431D01*
X121900000Y-67047440D01*
X124900000Y-67047440D01*
X125135317Y-67003162D01*
X125351441Y-66864090D01*
X125496431Y-66651890D01*
X125547440Y-66400000D01*
X125547440Y-65322815D01*
X126344630Y-65322815D01*
X126668980Y-66107800D01*
X127269041Y-66708909D01*
X128053459Y-67034628D01*
X128902815Y-67035370D01*
X129687800Y-66711020D01*
X130288909Y-66110959D01*
X130614628Y-65326541D01*
X130614658Y-65292128D01*
X133014570Y-65292128D01*
X133392091Y-66205800D01*
X134090523Y-66905452D01*
X135003534Y-67284568D01*
X135992128Y-67285430D01*
X136905800Y-66907909D01*
X137605452Y-66209477D01*
X137984568Y-65296466D01*
X137985430Y-64307872D01*
X137607909Y-63394200D01*
X136956975Y-62742128D01*
X138054570Y-62742128D01*
X138432091Y-63655800D01*
X139130523Y-64355452D01*
X140043534Y-64734568D01*
X141032128Y-64735430D01*
X141945800Y-64357909D01*
X142645452Y-63659477D01*
X143024568Y-62746466D01*
X143024580Y-62732128D01*
X147374570Y-62732128D01*
X147752091Y-63645800D01*
X148450523Y-64345452D01*
X149363534Y-64724568D01*
X150352128Y-64725430D01*
X151265800Y-64347909D01*
X151965452Y-63649477D01*
X152344568Y-62736466D01*
X152345430Y-61747872D01*
X151967909Y-60834200D01*
X151269477Y-60134548D01*
X150356466Y-59755432D01*
X149367872Y-59754570D01*
X148454200Y-60132091D01*
X147754548Y-60830523D01*
X147375432Y-61743534D01*
X147374570Y-62732128D01*
X143024580Y-62732128D01*
X143025430Y-61757872D01*
X142647909Y-60844200D01*
X141949477Y-60144548D01*
X141036466Y-59765432D01*
X140047872Y-59764570D01*
X139134200Y-60142091D01*
X138434548Y-60840523D01*
X138055432Y-61753534D01*
X138054570Y-62742128D01*
X136956975Y-62742128D01*
X136909477Y-62694548D01*
X135996466Y-62315432D01*
X135007872Y-62314570D01*
X134094200Y-62692091D01*
X133394548Y-63390523D01*
X133015432Y-64303534D01*
X133014570Y-65292128D01*
X130614658Y-65292128D01*
X130615370Y-64477185D01*
X130291020Y-63692200D01*
X129690959Y-63091091D01*
X128906541Y-62765372D01*
X128057185Y-62764630D01*
X127272200Y-63088980D01*
X126671091Y-63689041D01*
X126345372Y-64473459D01*
X126344630Y-65322815D01*
X125547440Y-65322815D01*
X125547440Y-63400000D01*
X125503162Y-63164683D01*
X125364090Y-62948559D01*
X125151890Y-62803569D01*
X124900000Y-62752560D01*
X121900000Y-62752560D01*
X121664683Y-62796838D01*
X121448559Y-62935910D01*
X121303569Y-63148110D01*
X121252560Y-63400000D01*
X120485000Y-63400000D01*
X120485000Y-59198185D01*
X120586250Y-59443229D01*
X121551688Y-60410354D01*
X122813739Y-60934403D01*
X124180266Y-60935595D01*
X125443229Y-60413750D01*
X126410354Y-59448312D01*
X126934403Y-58186261D01*
X126935595Y-56819734D01*
X126413750Y-55556771D01*
X125448312Y-54589646D01*
X124186261Y-54065597D01*
X122819734Y-54064405D01*
X121556771Y-54586250D01*
X120589646Y-55551688D01*
X120485000Y-55803704D01*
X120485000Y-53085000D01*
X159115000Y-53085000D01*
X159115000Y-56043834D01*
M02*
