%TF.GenerationSoftware,KiCad,Pcbnew,4.0.7*%
%TF.CreationDate,2018-02-19T16:18:31+01:00*%
%TF.ProjectId,IRS2092_board_H61M,495253323039325F626F6172645F4836,beta_v1*%
%TF.FileFunction,Copper,L2,Bot,Signal*%
%FSLAX46Y46*%
G04 Gerber Fmt 4.6, Leading zero omitted, Abs format (unit mm)*
G04 Created by KiCad (PCBNEW 4.0.7) date 02/19/18 16:18:31*
%MOMM*%
%LPD*%
G01*
G04 APERTURE LIST*
%ADD10C,0.100000*%
%ADD11C,0.300000*%
%ADD12C,0.280000*%
%ADD13R,1.500000X0.600000*%
%ADD14R,4.000000X4.000000*%
%ADD15C,4.000000*%
%ADD16R,1.600000X1.600000*%
%ADD17C,1.600000*%
%ADD18C,2.200000*%
%ADD19R,2.200000X2.200000*%
%ADD20O,2.200000X2.200000*%
%ADD21O,1.600000X1.600000*%
%ADD22R,2.600000X2.000000*%
%ADD23O,2.600000X2.000000*%
%ADD24R,2.000000X2.600000*%
%ADD25O,2.000000X2.600000*%
%ADD26C,3.000000*%
%ADD27O,0.900000X1.500000*%
%ADD28R,0.900000X1.500000*%
%ADD29R,1.800000X1.800000*%
%ADD30O,1.800000X1.800000*%
%ADD31C,2.400000*%
%ADD32O,2.400000X2.400000*%
%ADD33C,1.440000*%
%ADD34C,1.143000*%
%ADD35R,3.000000X3.000000*%
%ADD36C,1.000000*%
%ADD37C,0.500000*%
%ADD38C,0.450000*%
%ADD39C,1.200000*%
%ADD40C,1.800000*%
%ADD41C,0.750000*%
%ADD42C,1.500000*%
%ADD43C,1.000000*%
G04 APERTURE END LIST*
D10*
D11*
X148250001Y-31754762D02*
X148250001Y-33183333D01*
X148345239Y-33469048D01*
X148535715Y-33659524D01*
X148821430Y-33754762D01*
X149011906Y-33754762D01*
X146916667Y-31754762D02*
X146535715Y-31754762D01*
X146345239Y-31850000D01*
X146154762Y-32040476D01*
X146059524Y-32421429D01*
X146059524Y-33088095D01*
X146154762Y-33469048D01*
X146345239Y-33659524D01*
X146535715Y-33754762D01*
X146916667Y-33754762D01*
X147107143Y-33659524D01*
X147297620Y-33469048D01*
X147392858Y-33088095D01*
X147392858Y-32421429D01*
X147297620Y-32040476D01*
X147107143Y-31850000D01*
X146916667Y-31754762D01*
X145297620Y-33659524D02*
X145011905Y-33754762D01*
X144535715Y-33754762D01*
X144345239Y-33659524D01*
X144250001Y-33564286D01*
X144154762Y-33373810D01*
X144154762Y-33183333D01*
X144250001Y-32992857D01*
X144345239Y-32897619D01*
X144535715Y-32802381D01*
X144916667Y-32707143D01*
X145107143Y-32611905D01*
X145202382Y-32516667D01*
X145297620Y-32326190D01*
X145297620Y-32135714D01*
X145202382Y-31945238D01*
X145107143Y-31850000D01*
X144916667Y-31754762D01*
X144440477Y-31754762D01*
X144154762Y-31850000D01*
X143297620Y-32707143D02*
X142630953Y-32707143D01*
X142345239Y-33754762D02*
X143297620Y-33754762D01*
X143297620Y-31754762D01*
X142345239Y-31754762D01*
X142630953Y-30992857D02*
X142916667Y-31278571D01*
X139297619Y-32707143D02*
X139964286Y-32707143D01*
X139964286Y-33754762D02*
X139964286Y-31754762D01*
X139011905Y-31754762D01*
X138250000Y-32707143D02*
X137583333Y-32707143D01*
X137297619Y-33754762D02*
X138250000Y-33754762D01*
X138250000Y-31754762D01*
X137297619Y-31754762D01*
X135297618Y-33754762D02*
X135964285Y-32802381D01*
X136440476Y-33754762D02*
X136440476Y-31754762D01*
X135678571Y-31754762D01*
X135488095Y-31850000D01*
X135392856Y-31945238D01*
X135297618Y-32135714D01*
X135297618Y-32421429D01*
X135392856Y-32611905D01*
X135488095Y-32707143D01*
X135678571Y-32802381D01*
X136440476Y-32802381D01*
X134440476Y-33754762D02*
X134440476Y-31754762D01*
X133297618Y-33754762D01*
X133297618Y-31754762D01*
X132440476Y-33183333D02*
X131488095Y-33183333D01*
X132630952Y-33754762D02*
X131964285Y-31754762D01*
X131297618Y-33754762D01*
X130630952Y-33754762D02*
X130630952Y-31754762D01*
X129488094Y-33754762D01*
X129488094Y-31754762D01*
X128535714Y-33754762D02*
X128535714Y-31754762D01*
X128059523Y-31754762D01*
X127773809Y-31850000D01*
X127583333Y-32040476D01*
X127488094Y-32230952D01*
X127392856Y-32611905D01*
X127392856Y-32897619D01*
X127488094Y-33278571D01*
X127583333Y-33469048D01*
X127773809Y-33659524D01*
X128059523Y-33754762D01*
X128535714Y-33754762D01*
X126154761Y-31754762D02*
X125773809Y-31754762D01*
X125583333Y-31850000D01*
X125392856Y-32040476D01*
X125297618Y-32421429D01*
X125297618Y-33088095D01*
X125392856Y-33469048D01*
X125583333Y-33659524D01*
X125773809Y-33754762D01*
X126154761Y-33754762D01*
X126345237Y-33659524D01*
X126535714Y-33469048D01*
X126630952Y-33088095D01*
X126630952Y-32421429D01*
X126535714Y-32040476D01*
X126345237Y-31850000D01*
X126154761Y-31754762D01*
X121869046Y-31850000D02*
X122059523Y-31754762D01*
X122345237Y-31754762D01*
X122630951Y-31850000D01*
X122821427Y-32040476D01*
X122916666Y-32230952D01*
X123011904Y-32611905D01*
X123011904Y-32897619D01*
X122916666Y-33278571D01*
X122821427Y-33469048D01*
X122630951Y-33659524D01*
X122345237Y-33754762D01*
X122154761Y-33754762D01*
X121869046Y-33659524D01*
X121773808Y-33564286D01*
X121773808Y-32897619D01*
X122154761Y-32897619D01*
X120535713Y-31754762D02*
X120154761Y-31754762D01*
X119964285Y-31850000D01*
X119773808Y-32040476D01*
X119678570Y-32421429D01*
X119678570Y-33088095D01*
X119773808Y-33469048D01*
X119964285Y-33659524D01*
X120154761Y-33754762D01*
X120535713Y-33754762D01*
X120726189Y-33659524D01*
X120916666Y-33469048D01*
X121011904Y-33088095D01*
X121011904Y-32421429D01*
X120916666Y-32040476D01*
X120726189Y-31850000D01*
X120535713Y-31754762D01*
X120154761Y-30992857D02*
X120440475Y-31278571D01*
X118821428Y-33754762D02*
X118821428Y-31754762D01*
X118154761Y-33183333D01*
X117488094Y-31754762D01*
X117488094Y-33754762D01*
X116535714Y-32707143D02*
X115869047Y-32707143D01*
X115583333Y-33754762D02*
X116535714Y-33754762D01*
X116535714Y-31754762D01*
X115583333Y-31754762D01*
X114916666Y-31754762D02*
X113583332Y-31754762D01*
X114916666Y-33754762D01*
X113583332Y-33754762D01*
X111297618Y-33754762D02*
X111297618Y-31754762D01*
X110821427Y-31754762D01*
X110535713Y-31850000D01*
X110345237Y-32040476D01*
X110249998Y-32230952D01*
X110154760Y-32611905D01*
X110154760Y-32897619D01*
X110249998Y-33278571D01*
X110345237Y-33469048D01*
X110535713Y-33659524D01*
X110821427Y-33754762D01*
X111297618Y-33754762D01*
X109297618Y-33754762D02*
X109297618Y-31754762D01*
X109107141Y-30992857D02*
X109392856Y-31278571D01*
X108440475Y-33183333D02*
X107488094Y-33183333D01*
X108630951Y-33754762D02*
X107964284Y-31754762D01*
X107297617Y-33754762D01*
X106821427Y-31754762D02*
X105488093Y-31754762D01*
X106821427Y-33754762D01*
X105488093Y-33754762D01*
X130678572Y-35245238D02*
X130583334Y-35150000D01*
X130392857Y-35054762D01*
X129916667Y-35054762D01*
X129726191Y-35150000D01*
X129630953Y-35245238D01*
X129535714Y-35435714D01*
X129535714Y-35626190D01*
X129630953Y-35911905D01*
X130773810Y-37054762D01*
X129535714Y-37054762D01*
X128297619Y-35054762D02*
X128107143Y-35054762D01*
X127916667Y-35150000D01*
X127821429Y-35245238D01*
X127726191Y-35435714D01*
X127630952Y-35816667D01*
X127630952Y-36292857D01*
X127726191Y-36673810D01*
X127821429Y-36864286D01*
X127916667Y-36959524D01*
X128107143Y-37054762D01*
X128297619Y-37054762D01*
X128488095Y-36959524D01*
X128583333Y-36864286D01*
X128678572Y-36673810D01*
X128773810Y-36292857D01*
X128773810Y-35816667D01*
X128678572Y-35435714D01*
X128583333Y-35245238D01*
X128488095Y-35150000D01*
X128297619Y-35054762D01*
X125726190Y-37054762D02*
X126869048Y-37054762D01*
X126297619Y-37054762D02*
X126297619Y-35054762D01*
X126488095Y-35340476D01*
X126678571Y-35530952D01*
X126869048Y-35626190D01*
X124583333Y-35911905D02*
X124773809Y-35816667D01*
X124869048Y-35721429D01*
X124964286Y-35530952D01*
X124964286Y-35435714D01*
X124869048Y-35245238D01*
X124773809Y-35150000D01*
X124583333Y-35054762D01*
X124202381Y-35054762D01*
X124011905Y-35150000D01*
X123916667Y-35245238D01*
X123821428Y-35435714D01*
X123821428Y-35530952D01*
X123916667Y-35721429D01*
X124011905Y-35816667D01*
X124202381Y-35911905D01*
X124583333Y-35911905D01*
X124773809Y-36007143D01*
X124869048Y-36102381D01*
X124964286Y-36292857D01*
X124964286Y-36673810D01*
X124869048Y-36864286D01*
X124773809Y-36959524D01*
X124583333Y-37054762D01*
X124202381Y-37054762D01*
X124011905Y-36959524D01*
X123916667Y-36864286D01*
X123821428Y-36673810D01*
X123821428Y-36292857D01*
X123916667Y-36102381D01*
X124011905Y-36007143D01*
X124202381Y-35911905D01*
D12*
X103057141Y-32796190D02*
X102871427Y-32858095D01*
X102561903Y-32858095D01*
X102438093Y-32796190D01*
X102376189Y-32734286D01*
X102314284Y-32610476D01*
X102314284Y-32486667D01*
X102376189Y-32362857D01*
X102438093Y-32300952D01*
X102561903Y-32239048D01*
X102809522Y-32177143D01*
X102933331Y-32115238D01*
X102995236Y-32053333D01*
X103057141Y-31929524D01*
X103057141Y-31805714D01*
X102995236Y-31681905D01*
X102933331Y-31620000D01*
X102809522Y-31558095D01*
X102499998Y-31558095D01*
X102314284Y-31620000D01*
X101757141Y-32858095D02*
X101757141Y-31991429D01*
X101757141Y-31558095D02*
X101819046Y-31620000D01*
X101757141Y-31681905D01*
X101695236Y-31620000D01*
X101757141Y-31558095D01*
X101757141Y-31681905D01*
X101138093Y-31991429D02*
X101138093Y-32858095D01*
X101138093Y-32115238D02*
X101076188Y-32053333D01*
X100952379Y-31991429D01*
X100766665Y-31991429D01*
X100642855Y-32053333D01*
X100580950Y-32177143D01*
X100580950Y-32858095D01*
X99404760Y-31991429D02*
X99404760Y-33043810D01*
X99466665Y-33167619D01*
X99528570Y-33229524D01*
X99652379Y-33291429D01*
X99838094Y-33291429D01*
X99961903Y-33229524D01*
X99404760Y-32796190D02*
X99528570Y-32858095D01*
X99776189Y-32858095D01*
X99899998Y-32796190D01*
X99961903Y-32734286D01*
X100023808Y-32610476D01*
X100023808Y-32239048D01*
X99961903Y-32115238D01*
X99899998Y-32053333D01*
X99776189Y-31991429D01*
X99528570Y-31991429D01*
X99404760Y-32053333D01*
X98599999Y-32858095D02*
X98723808Y-32796190D01*
X98785713Y-32672381D01*
X98785713Y-31558095D01*
X97609523Y-32796190D02*
X97733333Y-32858095D01*
X97980952Y-32858095D01*
X98104761Y-32796190D01*
X98166666Y-32672381D01*
X98166666Y-32177143D01*
X98104761Y-32053333D01*
X97980952Y-31991429D01*
X97733333Y-31991429D01*
X97609523Y-32053333D01*
X97547618Y-32177143D01*
X97547618Y-32300952D01*
X98166666Y-32424762D01*
X95442856Y-32796190D02*
X95566666Y-32858095D01*
X95814285Y-32858095D01*
X95938094Y-32796190D01*
X95999999Y-32734286D01*
X96061904Y-32610476D01*
X96061904Y-32239048D01*
X95999999Y-32115238D01*
X95938094Y-32053333D01*
X95814285Y-31991429D01*
X95566666Y-31991429D01*
X95442856Y-32053333D01*
X94885713Y-32858095D02*
X94885713Y-31558095D01*
X94328570Y-32858095D02*
X94328570Y-32177143D01*
X94390475Y-32053333D01*
X94514285Y-31991429D01*
X94699999Y-31991429D01*
X94823808Y-32053333D01*
X94885713Y-32115238D01*
X93152380Y-32858095D02*
X93152380Y-32177143D01*
X93214285Y-32053333D01*
X93338095Y-31991429D01*
X93585714Y-31991429D01*
X93709523Y-32053333D01*
X93152380Y-32796190D02*
X93276190Y-32858095D01*
X93585714Y-32858095D01*
X93709523Y-32796190D01*
X93771428Y-32672381D01*
X93771428Y-32548571D01*
X93709523Y-32424762D01*
X93585714Y-32362857D01*
X93276190Y-32362857D01*
X93152380Y-32300952D01*
X92533333Y-31991429D02*
X92533333Y-32858095D01*
X92533333Y-32115238D02*
X92471428Y-32053333D01*
X92347619Y-31991429D01*
X92161905Y-31991429D01*
X92038095Y-32053333D01*
X91976190Y-32177143D01*
X91976190Y-32858095D01*
X91357143Y-31991429D02*
X91357143Y-32858095D01*
X91357143Y-32115238D02*
X91295238Y-32053333D01*
X91171429Y-31991429D01*
X90985715Y-31991429D01*
X90861905Y-32053333D01*
X90800000Y-32177143D01*
X90800000Y-32858095D01*
X89685715Y-32796190D02*
X89809525Y-32858095D01*
X90057144Y-32858095D01*
X90180953Y-32796190D01*
X90242858Y-32672381D01*
X90242858Y-32177143D01*
X90180953Y-32053333D01*
X90057144Y-31991429D01*
X89809525Y-31991429D01*
X89685715Y-32053333D01*
X89623810Y-32177143D01*
X89623810Y-32300952D01*
X90242858Y-32424762D01*
X88880953Y-32858095D02*
X89004762Y-32796190D01*
X89066667Y-32672381D01*
X89066667Y-31558095D01*
X104016665Y-35088095D02*
X104016665Y-33788095D01*
X102654760Y-35088095D02*
X103088093Y-34469048D01*
X103397617Y-35088095D02*
X103397617Y-33788095D01*
X102902379Y-33788095D01*
X102778570Y-33850000D01*
X102716665Y-33911905D01*
X102654760Y-34035714D01*
X102654760Y-34221429D01*
X102716665Y-34345238D01*
X102778570Y-34407143D01*
X102902379Y-34469048D01*
X103397617Y-34469048D01*
X102159522Y-35026190D02*
X101973808Y-35088095D01*
X101664284Y-35088095D01*
X101540474Y-35026190D01*
X101478570Y-34964286D01*
X101416665Y-34840476D01*
X101416665Y-34716667D01*
X101478570Y-34592857D01*
X101540474Y-34530952D01*
X101664284Y-34469048D01*
X101911903Y-34407143D01*
X102035712Y-34345238D01*
X102097617Y-34283333D01*
X102159522Y-34159524D01*
X102159522Y-34035714D01*
X102097617Y-33911905D01*
X102035712Y-33850000D01*
X101911903Y-33788095D01*
X101602379Y-33788095D01*
X101416665Y-33850000D01*
X100921427Y-33911905D02*
X100859522Y-33850000D01*
X100735713Y-33788095D01*
X100426189Y-33788095D01*
X100302379Y-33850000D01*
X100240475Y-33911905D01*
X100178570Y-34035714D01*
X100178570Y-34159524D01*
X100240475Y-34345238D01*
X100983332Y-35088095D01*
X100178570Y-35088095D01*
X99373808Y-33788095D02*
X99249999Y-33788095D01*
X99126189Y-33850000D01*
X99064284Y-33911905D01*
X99002380Y-34035714D01*
X98940475Y-34283333D01*
X98940475Y-34592857D01*
X99002380Y-34840476D01*
X99064284Y-34964286D01*
X99126189Y-35026190D01*
X99249999Y-35088095D01*
X99373808Y-35088095D01*
X99497618Y-35026190D01*
X99559522Y-34964286D01*
X99621427Y-34840476D01*
X99683332Y-34592857D01*
X99683332Y-34283333D01*
X99621427Y-34035714D01*
X99559522Y-33911905D01*
X99497618Y-33850000D01*
X99373808Y-33788095D01*
X98321427Y-35088095D02*
X98073808Y-35088095D01*
X97949999Y-35026190D01*
X97888094Y-34964286D01*
X97764285Y-34778571D01*
X97702380Y-34530952D01*
X97702380Y-34035714D01*
X97764285Y-33911905D01*
X97826189Y-33850000D01*
X97949999Y-33788095D01*
X98197618Y-33788095D01*
X98321427Y-33850000D01*
X98383332Y-33911905D01*
X98445237Y-34035714D01*
X98445237Y-34345238D01*
X98383332Y-34469048D01*
X98321427Y-34530952D01*
X98197618Y-34592857D01*
X97949999Y-34592857D01*
X97826189Y-34530952D01*
X97764285Y-34469048D01*
X97702380Y-34345238D01*
X97207142Y-33911905D02*
X97145237Y-33850000D01*
X97021428Y-33788095D01*
X96711904Y-33788095D01*
X96588094Y-33850000D01*
X96526190Y-33911905D01*
X96464285Y-34035714D01*
X96464285Y-34159524D01*
X96526190Y-34345238D01*
X97269047Y-35088095D01*
X96464285Y-35088095D01*
X94173809Y-34964286D02*
X94235714Y-35026190D01*
X94421428Y-35088095D01*
X94545238Y-35088095D01*
X94730952Y-35026190D01*
X94854761Y-34902381D01*
X94916666Y-34778571D01*
X94978571Y-34530952D01*
X94978571Y-34345238D01*
X94916666Y-34097619D01*
X94854761Y-33973810D01*
X94730952Y-33850000D01*
X94545238Y-33788095D01*
X94421428Y-33788095D01*
X94235714Y-33850000D01*
X94173809Y-33911905D01*
X93430952Y-35088095D02*
X93554761Y-35026190D01*
X93616666Y-34902381D01*
X93616666Y-33788095D01*
X92378571Y-35088095D02*
X92378571Y-34407143D01*
X92440476Y-34283333D01*
X92564286Y-34221429D01*
X92811905Y-34221429D01*
X92935714Y-34283333D01*
X92378571Y-35026190D02*
X92502381Y-35088095D01*
X92811905Y-35088095D01*
X92935714Y-35026190D01*
X92997619Y-34902381D01*
X92997619Y-34778571D01*
X92935714Y-34654762D01*
X92811905Y-34592857D01*
X92502381Y-34592857D01*
X92378571Y-34530952D01*
X91821429Y-35026190D02*
X91697619Y-35088095D01*
X91450000Y-35088095D01*
X91326191Y-35026190D01*
X91264286Y-34902381D01*
X91264286Y-34840476D01*
X91326191Y-34716667D01*
X91450000Y-34654762D01*
X91635715Y-34654762D01*
X91759524Y-34592857D01*
X91821429Y-34469048D01*
X91821429Y-34407143D01*
X91759524Y-34283333D01*
X91635715Y-34221429D01*
X91450000Y-34221429D01*
X91326191Y-34283333D01*
X90769048Y-35026190D02*
X90645238Y-35088095D01*
X90397619Y-35088095D01*
X90273810Y-35026190D01*
X90211905Y-34902381D01*
X90211905Y-34840476D01*
X90273810Y-34716667D01*
X90397619Y-34654762D01*
X90583334Y-34654762D01*
X90707143Y-34592857D01*
X90769048Y-34469048D01*
X90769048Y-34407143D01*
X90707143Y-34283333D01*
X90583334Y-34221429D01*
X90397619Y-34221429D01*
X90273810Y-34283333D01*
X88664286Y-35088095D02*
X88664286Y-33788095D01*
X88354762Y-33788095D01*
X88169048Y-33850000D01*
X88045239Y-33973810D01*
X87983334Y-34097619D01*
X87921429Y-34345238D01*
X87921429Y-34530952D01*
X87983334Y-34778571D01*
X88045239Y-34902381D01*
X88169048Y-35026190D01*
X88354762Y-35088095D01*
X88664286Y-35088095D01*
X103180952Y-36946667D02*
X102561904Y-36946667D01*
X103304761Y-37318095D02*
X102871428Y-36018095D01*
X102438095Y-37318095D01*
X101447618Y-36451429D02*
X101447618Y-37318095D01*
X102004761Y-36451429D02*
X102004761Y-37132381D01*
X101942856Y-37256190D01*
X101819047Y-37318095D01*
X101633333Y-37318095D01*
X101509523Y-37256190D01*
X101447618Y-37194286D01*
X100271428Y-37318095D02*
X100271428Y-36018095D01*
X100271428Y-37256190D02*
X100395238Y-37318095D01*
X100642857Y-37318095D01*
X100766666Y-37256190D01*
X100828571Y-37194286D01*
X100890476Y-37070476D01*
X100890476Y-36699048D01*
X100828571Y-36575238D01*
X100766666Y-36513333D01*
X100642857Y-36451429D01*
X100395238Y-36451429D01*
X100271428Y-36513333D01*
X99652381Y-37318095D02*
X99652381Y-36451429D01*
X99652381Y-36018095D02*
X99714286Y-36080000D01*
X99652381Y-36141905D01*
X99590476Y-36080000D01*
X99652381Y-36018095D01*
X99652381Y-36141905D01*
X98847619Y-37318095D02*
X98971428Y-37256190D01*
X99033333Y-37194286D01*
X99095238Y-37070476D01*
X99095238Y-36699048D01*
X99033333Y-36575238D01*
X98971428Y-36513333D01*
X98847619Y-36451429D01*
X98661905Y-36451429D01*
X98538095Y-36513333D01*
X98476190Y-36575238D01*
X98414286Y-36699048D01*
X98414286Y-37070476D01*
X98476190Y-37194286D01*
X98538095Y-37256190D01*
X98661905Y-37318095D01*
X98847619Y-37318095D01*
X96928572Y-36946667D02*
X96309524Y-36946667D01*
X97052381Y-37318095D02*
X96619048Y-36018095D01*
X96185715Y-37318095D01*
X95752381Y-37318095D02*
X95752381Y-36451429D01*
X95752381Y-36575238D02*
X95690476Y-36513333D01*
X95566667Y-36451429D01*
X95380953Y-36451429D01*
X95257143Y-36513333D01*
X95195238Y-36637143D01*
X95195238Y-37318095D01*
X95195238Y-36637143D02*
X95133334Y-36513333D01*
X95009524Y-36451429D01*
X94823810Y-36451429D01*
X94700000Y-36513333D01*
X94638095Y-36637143D01*
X94638095Y-37318095D01*
X94019048Y-36451429D02*
X94019048Y-37751429D01*
X94019048Y-36513333D02*
X93895239Y-36451429D01*
X93647620Y-36451429D01*
X93523810Y-36513333D01*
X93461905Y-36575238D01*
X93400001Y-36699048D01*
X93400001Y-37070476D01*
X93461905Y-37194286D01*
X93523810Y-37256190D01*
X93647620Y-37318095D01*
X93895239Y-37318095D01*
X94019048Y-37256190D01*
X92657144Y-37318095D02*
X92780953Y-37256190D01*
X92842858Y-37132381D01*
X92842858Y-36018095D01*
X92161906Y-37318095D02*
X92161906Y-36451429D01*
X92161906Y-36018095D02*
X92223811Y-36080000D01*
X92161906Y-36141905D01*
X92100001Y-36080000D01*
X92161906Y-36018095D01*
X92161906Y-36141905D01*
X91728572Y-36451429D02*
X91233334Y-36451429D01*
X91542858Y-37318095D02*
X91542858Y-36203810D01*
X91480953Y-36080000D01*
X91357144Y-36018095D01*
X91233334Y-36018095D01*
X90800001Y-37318095D02*
X90800001Y-36451429D01*
X90800001Y-36018095D02*
X90861906Y-36080000D01*
X90800001Y-36141905D01*
X90738096Y-36080000D01*
X90800001Y-36018095D01*
X90800001Y-36141905D01*
X89685715Y-37256190D02*
X89809525Y-37318095D01*
X90057144Y-37318095D01*
X90180953Y-37256190D01*
X90242858Y-37132381D01*
X90242858Y-36637143D01*
X90180953Y-36513333D01*
X90057144Y-36451429D01*
X89809525Y-36451429D01*
X89685715Y-36513333D01*
X89623810Y-36637143D01*
X89623810Y-36760952D01*
X90242858Y-36884762D01*
X89066667Y-37318095D02*
X89066667Y-36451429D01*
X89066667Y-36699048D02*
X89004762Y-36575238D01*
X88942858Y-36513333D01*
X88819048Y-36451429D01*
X88695239Y-36451429D01*
D13*
X111900000Y-115045000D03*
X111900000Y-113775000D03*
X111900000Y-112505000D03*
X111900000Y-111235000D03*
X111900000Y-109965000D03*
X111900000Y-108695000D03*
X111900000Y-107425000D03*
X111900000Y-106155000D03*
X117300000Y-106155000D03*
X117300000Y-107425000D03*
X117300000Y-108695000D03*
X117300000Y-109965000D03*
X117300000Y-111235000D03*
X117300000Y-112505000D03*
X117300000Y-113775000D03*
X117300000Y-115045000D03*
D14*
X199500000Y-40250000D03*
D15*
X199500000Y-50250000D03*
D16*
X128600000Y-107400000D03*
D17*
X128600000Y-104900000D03*
X90750000Y-106000000D03*
X95750000Y-106000000D03*
D16*
X103500000Y-100000000D03*
D17*
X101000000Y-100000000D03*
D16*
X89500000Y-127000000D03*
D17*
X89500000Y-124500000D03*
X99500000Y-106000000D03*
X104500000Y-106000000D03*
X102500000Y-114500000D03*
X102500000Y-119500000D03*
X105750000Y-119500000D03*
X105750000Y-114500000D03*
X106000000Y-111500000D03*
X101000000Y-111500000D03*
X125500000Y-60750000D03*
X130500000Y-60750000D03*
D16*
X92000000Y-100000000D03*
D17*
X94500000Y-100000000D03*
D16*
X98400000Y-128200000D03*
D17*
X98400000Y-130700000D03*
X105000000Y-122800000D03*
X105000000Y-127800000D03*
D16*
X127000000Y-54250000D03*
D17*
X129500000Y-54250000D03*
D16*
X121800000Y-120800000D03*
D17*
X119300000Y-120800000D03*
X95750000Y-145000000D03*
X95750000Y-140000000D03*
D16*
X142230000Y-79134000D03*
D17*
X142230000Y-77134000D03*
X146802000Y-75832000D03*
X146802000Y-80832000D03*
D16*
X101750000Y-141250000D03*
D17*
X101750000Y-143750000D03*
X146000000Y-131500000D03*
X146000000Y-141500000D03*
D16*
X150750000Y-61500000D03*
D17*
X148250000Y-61500000D03*
D14*
X200250000Y-129250000D03*
D15*
X200250000Y-139250000D03*
D17*
X146250000Y-109500000D03*
X146250000Y-99500000D03*
X150250000Y-122750000D03*
X150250000Y-112750000D03*
X145250000Y-122750000D03*
X145250000Y-112750000D03*
D16*
X139500000Y-61500000D03*
D17*
X142000000Y-61500000D03*
X140200000Y-141600000D03*
X140200000Y-131600000D03*
D18*
X209600000Y-98000000D03*
X209600000Y-83000000D03*
D17*
X223600000Y-67000000D03*
X223600000Y-77000000D03*
X119800000Y-130000000D03*
X114800000Y-130000000D03*
D19*
X104000000Y-93000000D03*
D20*
X114160000Y-93000000D03*
D19*
X122250000Y-47750000D03*
D20*
X132410000Y-47750000D03*
D19*
X125900000Y-126800000D03*
D20*
X125900000Y-116640000D03*
D16*
X136200000Y-141800000D03*
D21*
X136200000Y-131640000D03*
D19*
X117250000Y-147000000D03*
D20*
X127410000Y-147000000D03*
D19*
X146000000Y-44750000D03*
D20*
X146000000Y-54910000D03*
D19*
X208000000Y-115000000D03*
D20*
X208000000Y-104840000D03*
D19*
X207000000Y-77000000D03*
D20*
X207000000Y-66840000D03*
D22*
X89500000Y-111000000D03*
D23*
X89500000Y-113540000D03*
D22*
X93250000Y-75500000D03*
D23*
X93250000Y-78040000D03*
D22*
X94250000Y-60250000D03*
D23*
X94250000Y-62790000D03*
D24*
X132250000Y-84500000D03*
D25*
X129710000Y-84500000D03*
D26*
X186000000Y-91000000D03*
X201800000Y-91000000D03*
D27*
X96230000Y-92500000D03*
X94960000Y-92500000D03*
D28*
X97500000Y-92500000D03*
D29*
X151000000Y-129000000D03*
D30*
X151000000Y-131540000D03*
X151000000Y-134080000D03*
D29*
X151000000Y-102500000D03*
D30*
X151000000Y-105040000D03*
X151000000Y-107580000D03*
D29*
X151000000Y-46000000D03*
D30*
X151000000Y-48540000D03*
X151000000Y-51080000D03*
D17*
X114000000Y-88500000D03*
D21*
X103840000Y-88500000D03*
D17*
X100750000Y-82000000D03*
D21*
X100750000Y-92160000D03*
D17*
X95500000Y-110500000D03*
D21*
X95500000Y-120660000D03*
D17*
X99250000Y-124000000D03*
D21*
X99250000Y-113840000D03*
D17*
X121750000Y-61250000D03*
D21*
X121750000Y-51090000D03*
D17*
X113200000Y-96900000D03*
D21*
X123360000Y-96900000D03*
D17*
X109100000Y-107000000D03*
D21*
X109100000Y-96840000D03*
D17*
X87500000Y-72000000D03*
D21*
X87500000Y-61840000D03*
D17*
X119600000Y-110000000D03*
D21*
X119600000Y-99840000D03*
D17*
X92250000Y-141500000D03*
D21*
X92250000Y-131340000D03*
D17*
X108900000Y-122800000D03*
D21*
X108900000Y-112640000D03*
D17*
X101000000Y-68750000D03*
D21*
X101000000Y-78910000D03*
D31*
X115000000Y-42000000D03*
D32*
X135320000Y-42000000D03*
D17*
X134400000Y-100500000D03*
D21*
X134400000Y-110660000D03*
D17*
X138800000Y-100400000D03*
D21*
X138800000Y-90240000D03*
D17*
X122800000Y-105800000D03*
D21*
X122800000Y-115960000D03*
D17*
X129100000Y-121700000D03*
D21*
X129100000Y-111540000D03*
D17*
X129300000Y-136300000D03*
D21*
X129300000Y-126140000D03*
D17*
X132700000Y-136300000D03*
D21*
X132700000Y-126140000D03*
D17*
X132700000Y-123800000D03*
D21*
X132700000Y-113640000D03*
D17*
X146000000Y-128200000D03*
D21*
X135840000Y-128200000D03*
D17*
X142000000Y-101750000D03*
D21*
X142000000Y-91590000D03*
D31*
X113000000Y-141500000D03*
D32*
X133320000Y-141500000D03*
D17*
X141000000Y-44500000D03*
D21*
X141000000Y-54660000D03*
D31*
X138600000Y-124100000D03*
D32*
X138600000Y-103780000D03*
D31*
X217600000Y-87800000D03*
D32*
X217600000Y-67480000D03*
D31*
X217600000Y-91800000D03*
D32*
X217600000Y-112120000D03*
D17*
X115000000Y-127200000D03*
D21*
X115000000Y-117040000D03*
D33*
X86920000Y-117000000D03*
X89460000Y-119540000D03*
X92000000Y-117000000D03*
D16*
X97500000Y-87000000D03*
D21*
X89880000Y-81920000D03*
X97500000Y-84460000D03*
X89880000Y-84460000D03*
X97500000Y-81920000D03*
X89880000Y-87000000D03*
D29*
X111500000Y-50750000D03*
D30*
X108960000Y-50750000D03*
X106420000Y-50750000D03*
D16*
X90500000Y-66500000D03*
D21*
X98120000Y-71580000D03*
X90500000Y-69040000D03*
X98120000Y-69040000D03*
X90500000Y-71580000D03*
X98120000Y-66500000D03*
D16*
X127250000Y-97250000D03*
D21*
X134870000Y-89630000D03*
X129790000Y-97250000D03*
X132330000Y-89630000D03*
X132330000Y-97250000D03*
X129790000Y-89630000D03*
X134870000Y-97250000D03*
X127250000Y-89630000D03*
D29*
X113250000Y-146750000D03*
D30*
X110710000Y-146750000D03*
X108170000Y-146750000D03*
D29*
X151000000Y-72500000D03*
D30*
X151000000Y-75040000D03*
X151000000Y-77580000D03*
D34*
X140800000Y-85600000D03*
X146800000Y-85000000D03*
X86400000Y-100200000D03*
X106200000Y-45600000D03*
X91400000Y-146200000D03*
X186000000Y-115200000D03*
X87600000Y-131000000D03*
X212800000Y-101800000D03*
D35*
X221400000Y-131200000D03*
D26*
X221400000Y-126120000D03*
D35*
X224400000Y-92800000D03*
D26*
X224400000Y-87720000D03*
D35*
X221200000Y-51800000D03*
D26*
X221200000Y-46720000D03*
D36*
X129850000Y-147000000D03*
X228000000Y-89950000D03*
X155700000Y-96100000D03*
D37*
X118950000Y-107425000D03*
D38*
X94960000Y-92500000D02*
X85500000Y-92500000D01*
X84400000Y-106000000D02*
X87200000Y-106000000D01*
X83000000Y-104600000D02*
X84400000Y-106000000D01*
X83000000Y-95000000D02*
X83000000Y-104600000D01*
X85500000Y-92500000D02*
X83000000Y-95000000D01*
X94960000Y-92500000D02*
X94700000Y-92500000D01*
X92250000Y-131340000D02*
X92250000Y-131550000D01*
X84000000Y-108800000D02*
X86800000Y-106000000D01*
X84000000Y-131000000D02*
X84000000Y-108800000D01*
X85600000Y-132600000D02*
X84000000Y-131000000D01*
X91200000Y-132600000D02*
X85600000Y-132600000D01*
X92250000Y-131550000D02*
X91200000Y-132600000D01*
X92250000Y-131340000D02*
X92660000Y-131340000D01*
X92660000Y-131340000D02*
X95800000Y-128200000D01*
X95800000Y-128200000D02*
X98400000Y-128200000D01*
X98800000Y-128200000D02*
X104200000Y-122800000D01*
X111900000Y-115100000D02*
X110000000Y-117000000D01*
X110000000Y-117000000D02*
X110000000Y-119000000D01*
X110000000Y-119000000D02*
X106200000Y-122800000D01*
X106200000Y-122800000D02*
X104200000Y-122800000D01*
X111900000Y-115045000D02*
X111900000Y-115100000D01*
X90750000Y-106000000D02*
X87200000Y-106000000D01*
X87200000Y-106000000D02*
X86800000Y-106000000D01*
X86800000Y-106000000D02*
X86750000Y-106000000D01*
X86750000Y-106000000D02*
X86750000Y-106000000D01*
X95750000Y-106000000D02*
X99500000Y-106000000D01*
X111900000Y-108695000D02*
X104695000Y-108695000D01*
X104695000Y-108695000D02*
X102000000Y-106000000D01*
X102000000Y-106000000D02*
X99500000Y-106000000D01*
X99500000Y-106000000D02*
X99500000Y-105000000D01*
X99500000Y-105000000D02*
X94500000Y-100000000D01*
X99500000Y-106000000D02*
X99500000Y-101500000D01*
X99500000Y-101500000D02*
X101000000Y-100000000D01*
X101000000Y-100000000D02*
X101000000Y-96000000D01*
X101000000Y-96000000D02*
X104000000Y-93000000D01*
X98120000Y-71580000D02*
X98120000Y-72370000D01*
X98120000Y-72370000D02*
X103840000Y-78090000D01*
X103840000Y-78090000D02*
X103840000Y-88500000D01*
X104000000Y-93000000D02*
X104000000Y-88660000D01*
X104000000Y-88660000D02*
X103840000Y-88500000D01*
D39*
X129850000Y-147000000D02*
X192500000Y-147000000D01*
D38*
X139300163Y-43494291D02*
X139305709Y-43494291D01*
X152660000Y-48540000D02*
X151000000Y-48540000D01*
X155000000Y-46200000D02*
X152660000Y-48540000D01*
X155000000Y-44000000D02*
X155000000Y-46200000D01*
X153200000Y-42200000D02*
X155000000Y-44000000D01*
X140600000Y-42200000D02*
X153200000Y-42200000D01*
X139305709Y-43494291D02*
X140600000Y-42200000D01*
X103500000Y-100000000D02*
X104200000Y-100000000D01*
X104200000Y-100000000D02*
X106600000Y-97600000D01*
X106600000Y-66400000D02*
X99600000Y-59400000D01*
X106600000Y-97600000D02*
X106600000Y-66400000D01*
D40*
X224400000Y-92800000D02*
X226950000Y-92800000D01*
X226950000Y-92800000D02*
X228000000Y-91750000D01*
X221200000Y-51800000D02*
X224600000Y-51800000D01*
X227400000Y-49000000D02*
X228000000Y-49000000D01*
X228000000Y-48400000D02*
X227400000Y-49000000D01*
X224600000Y-51800000D02*
X228000000Y-48400000D01*
X223600000Y-77000000D02*
X226600000Y-77000000D01*
X227400000Y-76400000D02*
X228000000Y-76400000D01*
X228000000Y-75800000D02*
X227400000Y-76400000D01*
X228000000Y-75600000D02*
X228000000Y-75800000D01*
X226600000Y-77000000D02*
X228000000Y-75600000D01*
X217600000Y-112120000D02*
X226630000Y-112120000D01*
X226630000Y-112120000D02*
X228000000Y-110750000D01*
X209600000Y-83000000D02*
X226600000Y-83000000D01*
X226600000Y-83000000D02*
X228000000Y-81600000D01*
D38*
X127410000Y-147000000D02*
X127410000Y-146990000D01*
X127410000Y-146990000D02*
X129400000Y-145000000D01*
X119800000Y-131400000D02*
X119800000Y-130000000D01*
X129400000Y-141000000D02*
X119800000Y-131400000D01*
X129400000Y-145000000D02*
X129400000Y-141000000D01*
X105000000Y-127800000D02*
X108600000Y-127800000D01*
X127410000Y-142610000D02*
X127410000Y-147000000D01*
X118400000Y-133600000D02*
X127410000Y-142610000D01*
X114400000Y-133600000D02*
X118400000Y-133600000D01*
X108600000Y-127800000D02*
X114400000Y-133600000D01*
X98400000Y-130700000D02*
X102100000Y-130700000D01*
X102100000Y-130700000D02*
X105000000Y-127800000D01*
D39*
X127410000Y-147000000D02*
X129850000Y-147000000D01*
X192500000Y-147000000D02*
X200250000Y-139250000D01*
D38*
X97500000Y-84460000D02*
X97340000Y-84460000D01*
X95300000Y-133800000D02*
X98400000Y-130700000D01*
X85200000Y-133800000D02*
X95300000Y-133800000D01*
X82000000Y-130600000D02*
X85200000Y-133800000D01*
X82000000Y-94200000D02*
X82000000Y-130600000D01*
X86000000Y-90200000D02*
X82000000Y-94200000D01*
X91600000Y-90200000D02*
X86000000Y-90200000D01*
X97340000Y-84460000D02*
X91600000Y-90200000D01*
X110710000Y-146750000D02*
X110710000Y-148510000D01*
X110710000Y-148510000D02*
X111200000Y-149000000D01*
X111200000Y-149000000D02*
X125410000Y-149000000D01*
X125410000Y-149000000D02*
X127410000Y-147000000D01*
X119800000Y-130000000D02*
X119800000Y-127800000D01*
X113175000Y-113775000D02*
X111900000Y-113775000D01*
X113800000Y-114400000D02*
X113175000Y-113775000D01*
X113800000Y-115600000D02*
X113800000Y-114400000D01*
X112600000Y-116800000D02*
X113800000Y-115600000D01*
X112600000Y-120600000D02*
X112600000Y-116800000D01*
X119800000Y-127800000D02*
X112600000Y-120600000D01*
X119800000Y-130000000D02*
X119800000Y-130000000D01*
X99600000Y-59400000D02*
X99600000Y-59400000D01*
X99600000Y-59400000D02*
X97800000Y-57600000D01*
X97800000Y-57600000D02*
X93200000Y-57600000D01*
X93200000Y-57600000D02*
X87400000Y-57600000D01*
X87400000Y-57600000D02*
X81000000Y-64000000D01*
X81000000Y-64000000D02*
X81000000Y-136200000D01*
X81000000Y-136200000D02*
X83000000Y-138200000D01*
X83000000Y-138200000D02*
X119600000Y-138200000D01*
X127410000Y-146010000D02*
X127410000Y-147000000D01*
X119600000Y-138200000D02*
X127410000Y-146010000D01*
X127000000Y-54250000D02*
X127000000Y-55400000D01*
X199500000Y-37900000D02*
X199500000Y-40250000D01*
X197000000Y-35400000D02*
X199500000Y-37900000D01*
X134800000Y-35400000D02*
X197000000Y-35400000D01*
X131000000Y-39200000D02*
X134800000Y-35400000D01*
X131000000Y-43200000D02*
X131000000Y-39200000D01*
X134400000Y-46600000D02*
X131000000Y-43200000D01*
X134400000Y-54200000D02*
X134400000Y-46600000D01*
X132000000Y-56600000D02*
X134400000Y-54200000D01*
X128200000Y-56600000D02*
X132000000Y-56600000D01*
X127000000Y-55400000D02*
X128200000Y-56600000D01*
X111900000Y-113775000D02*
X111225000Y-113775000D01*
X99250000Y-114000000D02*
X99250000Y-113840000D01*
X102750000Y-117500000D02*
X99250000Y-114000000D01*
X107500000Y-117500000D02*
X102750000Y-117500000D01*
X111225000Y-113775000D02*
X107500000Y-117500000D01*
X89500000Y-111000000D02*
X91250000Y-111000000D01*
X94090000Y-113840000D02*
X99250000Y-113840000D01*
X91250000Y-111000000D02*
X94090000Y-113840000D01*
X104500000Y-106000000D02*
X104500000Y-101000000D01*
X104500000Y-101000000D02*
X103500000Y-100000000D01*
X105000000Y-106000000D02*
X104750000Y-106000000D01*
X133300000Y-40500000D02*
X134400000Y-39400000D01*
X133300000Y-42900000D02*
X133300000Y-40500000D01*
X134650000Y-44250000D02*
X133300000Y-42900000D01*
X138500000Y-44250000D02*
X134650000Y-44250000D01*
X139400000Y-43400000D02*
X139300163Y-43494291D01*
X139300163Y-43494291D02*
X138500000Y-44250000D01*
X198650000Y-39400000D02*
X199500000Y-40250000D01*
X134400000Y-39400000D02*
X198650000Y-39400000D01*
D40*
X146250000Y-99500000D02*
X166250000Y-99500000D01*
X193500000Y-72250000D02*
X228000000Y-72250000D01*
X166250000Y-99500000D02*
X193500000Y-72250000D01*
X200250000Y-139250000D02*
X167250000Y-139250000D01*
X165000000Y-141500000D02*
X146000000Y-141500000D01*
X167250000Y-139250000D02*
X165000000Y-141500000D01*
X218250000Y-42095000D02*
X224095000Y-42095000D01*
X228000000Y-46000000D02*
X228000000Y-49000000D01*
X228000000Y-49000000D02*
X228000000Y-72250000D01*
X228000000Y-72250000D02*
X228000000Y-76400000D01*
X228000000Y-76400000D02*
X228000000Y-77250000D01*
X224095000Y-42095000D02*
X228000000Y-46000000D01*
X218250000Y-42095000D02*
X209845000Y-42095000D01*
X208000000Y-40250000D02*
X199500000Y-40250000D01*
X209845000Y-42095000D02*
X208000000Y-40250000D01*
X220000000Y-131155000D02*
X224845000Y-131155000D01*
X228000000Y-128000000D02*
X228000000Y-110750000D01*
X228000000Y-110750000D02*
X228000000Y-91750000D01*
X228000000Y-91750000D02*
X228000000Y-89950000D01*
X228000000Y-89950000D02*
X228000000Y-89600000D01*
X228000000Y-89600000D02*
X228000000Y-86000000D01*
X228000000Y-86000000D02*
X228000000Y-81600000D01*
X228000000Y-81600000D02*
X228000000Y-81250000D01*
X228000000Y-81250000D02*
X228000000Y-77250000D01*
X224845000Y-131155000D02*
X228000000Y-128000000D01*
X220000000Y-131155000D02*
X218095000Y-131155000D01*
X210000000Y-139250000D02*
X200250000Y-139250000D01*
X218095000Y-131155000D02*
X210000000Y-139250000D01*
D38*
X101750000Y-143750000D02*
X99500000Y-143750000D01*
X99500000Y-143750000D02*
X95750000Y-140000000D01*
X139400000Y-43400000D02*
X139400000Y-43400000D01*
X121750000Y-51090000D02*
X121750000Y-53750000D01*
X128750000Y-59000000D02*
X130500000Y-60750000D01*
X127000000Y-59000000D02*
X128750000Y-59000000D01*
X121750000Y-53750000D02*
X127000000Y-59000000D01*
X122250000Y-47750000D02*
X126000000Y-47750000D01*
X127000000Y-48750000D02*
X127000000Y-54250000D01*
X126000000Y-47750000D02*
X127000000Y-48750000D01*
X122250000Y-47750000D02*
X122250000Y-50590000D01*
X122250000Y-50590000D02*
X121750000Y-51090000D01*
X111500000Y-50750000D02*
X116750000Y-50750000D01*
X119750000Y-47750000D02*
X122250000Y-47750000D01*
X116750000Y-50750000D02*
X119750000Y-47750000D01*
X101750000Y-143750000D02*
X107460000Y-143750000D01*
X107460000Y-143750000D02*
X110710000Y-147000000D01*
X127410000Y-147000000D02*
X127410000Y-147340000D01*
X99250000Y-113250000D02*
X101000000Y-111500000D01*
X99250000Y-113750000D02*
X99250000Y-113250000D01*
X141000000Y-54660000D02*
X141000000Y-51250000D01*
X143710000Y-48540000D02*
X151000000Y-48540000D01*
X141000000Y-51250000D02*
X143710000Y-48540000D01*
X89500000Y-127000000D02*
X89500000Y-129100000D01*
X89500000Y-129100000D02*
X87600000Y-131000000D01*
X89500000Y-127000000D02*
X87500000Y-127000000D01*
X86920000Y-126420000D02*
X86920000Y-117000000D01*
X87500000Y-127000000D02*
X86920000Y-126420000D01*
X95500000Y-120660000D02*
X95340000Y-120660000D01*
X95340000Y-120660000D02*
X91500000Y-124500000D01*
X91500000Y-124500000D02*
X89500000Y-124500000D01*
X102500000Y-114500000D02*
X102500000Y-112500000D01*
X96250000Y-109750000D02*
X95500000Y-110500000D01*
X101750000Y-109750000D02*
X96250000Y-109750000D01*
X103000000Y-111000000D02*
X101750000Y-109750000D01*
X103000000Y-112000000D02*
X103000000Y-111000000D01*
X102500000Y-112500000D02*
X103000000Y-112000000D01*
X108900000Y-112640000D02*
X108900000Y-113850000D01*
X104250000Y-116250000D02*
X102500000Y-114500000D01*
X106500000Y-116250000D02*
X104250000Y-116250000D01*
X108900000Y-113850000D02*
X106500000Y-116250000D01*
X111900000Y-112505000D02*
X109035000Y-112505000D01*
X109035000Y-112505000D02*
X108900000Y-112640000D01*
X99250000Y-124000000D02*
X99250000Y-122750000D01*
X99250000Y-122750000D02*
X102500000Y-119500000D01*
X102500000Y-119500000D02*
X105750000Y-119500000D01*
X105750000Y-114500000D02*
X105750000Y-111750000D01*
X105750000Y-111750000D02*
X106000000Y-111500000D01*
X111900000Y-111235000D02*
X109515000Y-111235000D01*
X108000000Y-111250000D02*
X106250000Y-111250000D01*
X108250000Y-111000000D02*
X108000000Y-111250000D01*
X109280000Y-111000000D02*
X108250000Y-111000000D01*
X109515000Y-111235000D02*
X109280000Y-111000000D01*
X106250000Y-111250000D02*
X106000000Y-111500000D01*
X106420000Y-50750000D02*
X106420000Y-45820000D01*
X106420000Y-45820000D02*
X106200000Y-45600000D01*
X114000000Y-88500000D02*
X114000000Y-87600000D01*
X121750000Y-79850000D02*
X121750000Y-61250000D01*
X114000000Y-87600000D02*
X121750000Y-79850000D01*
X106420000Y-50750000D02*
X106420000Y-52420000D01*
X116250000Y-55750000D02*
X121750000Y-61250000D01*
X109750000Y-55750000D02*
X116250000Y-55750000D01*
X106420000Y-52420000D02*
X109750000Y-55750000D01*
X125500000Y-60750000D02*
X122250000Y-60750000D01*
X122250000Y-60750000D02*
X121750000Y-61250000D01*
X92000000Y-100000000D02*
X86600000Y-100000000D01*
X86600000Y-100000000D02*
X86200000Y-100400000D01*
X111900000Y-109965000D02*
X104215000Y-109965000D01*
X104215000Y-109965000D02*
X102500000Y-108250000D01*
X102500000Y-108250000D02*
X95750000Y-108250000D01*
X95750000Y-108250000D02*
X92000000Y-104500000D01*
X92000000Y-104500000D02*
X92000000Y-100000000D01*
X92000000Y-100000000D02*
X92000000Y-98750000D01*
X92000000Y-98750000D02*
X96230000Y-94520000D01*
X96230000Y-94520000D02*
X96230000Y-92500000D01*
X96230000Y-92500000D02*
X96230000Y-91020000D01*
X96230000Y-91020000D02*
X97500000Y-89750000D01*
X97500000Y-89750000D02*
X101000000Y-89750000D01*
X101000000Y-89750000D02*
X102500000Y-88250000D01*
X102500000Y-88250000D02*
X102500000Y-80410000D01*
X102500000Y-80410000D02*
X101000000Y-78910000D01*
X115000000Y-42000000D02*
X114250000Y-42000000D01*
X114250000Y-42000000D02*
X108960000Y-47290000D01*
X108960000Y-47290000D02*
X108960000Y-50750000D01*
X132410000Y-47750000D02*
X132410000Y-47840000D01*
X132410000Y-47840000D02*
X129500000Y-50750000D01*
X129500000Y-50750000D02*
X129500000Y-54250000D01*
X115000000Y-42000000D02*
X126660000Y-42000000D01*
X126660000Y-42000000D02*
X132410000Y-47750000D01*
X121800000Y-120800000D02*
X121800000Y-118100000D01*
X116225000Y-113775000D02*
X117300000Y-113775000D01*
X116000000Y-114000000D02*
X116225000Y-113775000D01*
X116000000Y-115800000D02*
X116000000Y-114000000D01*
X116800000Y-116600000D02*
X116000000Y-115800000D01*
X120300000Y-116600000D02*
X116800000Y-116600000D01*
X121800000Y-118100000D02*
X120300000Y-116600000D01*
X125900000Y-126800000D02*
X125900000Y-121800000D01*
X124900000Y-120800000D02*
X121800000Y-120800000D01*
X125900000Y-121800000D02*
X124900000Y-120800000D01*
X125900000Y-126800000D02*
X128640000Y-126800000D01*
X128640000Y-126800000D02*
X129300000Y-126140000D01*
D41*
X186000000Y-115200000D02*
X186000000Y-91000000D01*
D38*
X186000000Y-115000000D02*
X186200000Y-115200000D01*
D42*
X151000000Y-105040000D02*
X171960000Y-105040000D01*
X171960000Y-105040000D02*
X186000000Y-91000000D01*
D38*
X117300000Y-111235000D02*
X116065000Y-111235000D01*
X115100000Y-117200000D02*
X118900000Y-121000000D01*
X115100000Y-112200000D02*
X115100000Y-117200000D01*
X116065000Y-111235000D02*
X115100000Y-112200000D01*
X129100000Y-111540000D02*
X132940000Y-111540000D01*
X153600000Y-115400000D02*
X155400000Y-113600000D01*
X136800000Y-115400000D02*
X153600000Y-115400000D01*
X132940000Y-111540000D02*
X136800000Y-115400000D01*
X117300000Y-111235000D02*
X118735000Y-111235000D01*
X119040000Y-111540000D02*
X129100000Y-111540000D01*
X118735000Y-111235000D02*
X119040000Y-111540000D01*
D40*
X151000000Y-105040000D02*
X154040000Y-105040000D01*
X153120000Y-134080000D02*
X151000000Y-134080000D01*
X155400000Y-114200000D02*
X155400000Y-131800000D01*
X155400000Y-113600000D02*
X155400000Y-114200000D01*
X155400000Y-131800000D02*
X153120000Y-134080000D01*
X155400000Y-106400000D02*
X155400000Y-108400000D01*
X155400000Y-108400000D02*
X155400000Y-113600000D01*
X154040000Y-105040000D02*
X155400000Y-106400000D01*
D38*
X128600000Y-107400000D02*
X131140000Y-107400000D01*
X131140000Y-107400000D02*
X134400000Y-110660000D01*
X119600000Y-110000000D02*
X124250000Y-110000000D01*
X126850000Y-107400000D02*
X128600000Y-107400000D01*
X124250000Y-110000000D02*
X126850000Y-107400000D01*
X119600000Y-110000000D02*
X117335000Y-110000000D01*
X117335000Y-110000000D02*
X117300000Y-109965000D01*
X118950000Y-107425000D02*
X120425000Y-107425000D01*
X155400000Y-96550000D02*
X155400000Y-96600000D01*
X155150000Y-96100000D02*
X155150000Y-95850000D01*
X155400000Y-95600000D02*
X155400000Y-96100000D01*
X155150000Y-95850000D02*
X155400000Y-95600000D01*
D40*
X159100000Y-96100000D02*
X176950000Y-78250000D01*
X155150000Y-96100000D02*
X155700000Y-96100000D01*
X155700000Y-96100000D02*
X159100000Y-96100000D01*
X221200000Y-46720000D02*
X213480000Y-46720000D01*
X209950000Y-50250000D02*
X199500000Y-50250000D01*
X213480000Y-46720000D02*
X209950000Y-50250000D01*
D38*
X151000000Y-75040000D02*
X156040000Y-75040000D01*
X159250000Y-78250000D02*
X176950000Y-78250000D01*
X156040000Y-75040000D02*
X159250000Y-78250000D01*
X135320000Y-42000000D02*
X138500000Y-42000000D01*
X138500000Y-42000000D02*
X139500000Y-41000000D01*
X139500000Y-41000000D02*
X171000000Y-41000000D01*
X171000000Y-41000000D02*
X180250000Y-50250000D01*
X180250000Y-50250000D02*
X199500000Y-50250000D01*
D40*
X145250000Y-112750000D02*
X145250000Y-110500000D01*
X145250000Y-110500000D02*
X146250000Y-109500000D01*
X146250000Y-109500000D02*
X146660000Y-109500000D01*
X146660000Y-109500000D02*
X148580000Y-107580000D01*
X148580000Y-107580000D02*
X151000000Y-107580000D01*
X150250000Y-112750000D02*
X145250000Y-112750000D01*
D43*
X207000000Y-66840000D02*
X207000000Y-57750000D01*
X207000000Y-57750000D02*
X199500000Y-50250000D01*
D40*
X199500000Y-50250000D02*
X199500000Y-55700000D01*
X143150000Y-96100000D02*
X155400000Y-96100000D01*
X138600000Y-100650000D02*
X143150000Y-96100000D01*
X199500000Y-55700000D02*
X176950000Y-78250000D01*
D38*
X142230000Y-77134000D02*
X145500000Y-77134000D01*
X145500000Y-77134000D02*
X146802000Y-75832000D01*
X151000000Y-75040000D02*
X147594000Y-75040000D01*
X147594000Y-75040000D02*
X146802000Y-75832000D01*
X142230000Y-77134000D02*
X140616000Y-77134000D01*
X140616000Y-77134000D02*
X136750000Y-81000000D01*
X136750000Y-81000000D02*
X136750000Y-91250000D01*
X136750000Y-91250000D02*
X135250000Y-92750000D01*
X135250000Y-92750000D02*
X114410000Y-92750000D01*
X114410000Y-92750000D02*
X114160000Y-93000000D01*
X142000000Y-61500000D02*
X148250000Y-61500000D01*
X146000000Y-54910000D02*
X147160000Y-54910000D01*
X148250000Y-56000000D02*
X148250000Y-61500000D01*
X147160000Y-54910000D02*
X148250000Y-56000000D01*
X148250000Y-61500000D02*
X148250000Y-73500000D01*
X149790000Y-75040000D02*
X151000000Y-75040000D01*
X148250000Y-73500000D02*
X149790000Y-75040000D01*
X117300000Y-107425000D02*
X118275000Y-107425000D01*
X123360000Y-100640000D02*
X123360000Y-96900000D01*
X119800000Y-104200000D02*
X123360000Y-100640000D01*
X119800000Y-105900000D02*
X119800000Y-104200000D01*
X118275000Y-107425000D02*
X119800000Y-105900000D01*
X128600000Y-104900000D02*
X136780000Y-104900000D01*
X136780000Y-104900000D02*
X138600000Y-103780000D01*
X117300000Y-107425000D02*
X118950000Y-107425000D01*
X126800000Y-104900000D02*
X128600000Y-104900000D01*
X123400000Y-108300000D02*
X126800000Y-104900000D01*
X121300000Y-108300000D02*
X123400000Y-108300000D01*
X120425000Y-107425000D02*
X121300000Y-108300000D01*
D40*
X138600000Y-103780000D02*
X138600000Y-100650000D01*
X146250000Y-105250000D02*
X140850000Y-105250000D01*
X140850000Y-105250000D02*
X138680000Y-103780000D01*
X138680000Y-103780000D02*
X138600000Y-103780000D01*
D42*
X150250000Y-112750000D02*
X150250000Y-112650000D01*
D40*
X151000000Y-107580000D02*
X148580000Y-107580000D01*
X148580000Y-107580000D02*
X146250000Y-105250000D01*
D38*
X92250000Y-141500000D02*
X92250000Y-145350000D01*
X92250000Y-145350000D02*
X91400000Y-146200000D01*
X95750000Y-145000000D02*
X92250000Y-141500000D01*
X108170000Y-147000000D02*
X97750000Y-147000000D01*
X97750000Y-147000000D02*
X95750000Y-145000000D01*
X146750000Y-85000000D02*
X150800000Y-85000000D01*
X150800000Y-85000000D02*
X151008000Y-85208000D01*
X151000000Y-77580000D02*
X150054000Y-77580000D01*
X150054000Y-77580000D02*
X146802000Y-80832000D01*
X146802000Y-80832000D02*
X143928000Y-80832000D01*
X143928000Y-80832000D02*
X142230000Y-79134000D01*
X134400000Y-100500000D02*
X136000000Y-100500000D01*
X151008000Y-86192000D02*
X151008000Y-85208000D01*
X151008000Y-85208000D02*
X151008000Y-77572000D01*
X142800000Y-94400000D02*
X151008000Y-86192000D01*
X142100000Y-94400000D02*
X142800000Y-94400000D01*
X136000000Y-100500000D02*
X142100000Y-94400000D01*
X151008000Y-77572000D02*
X151000000Y-77580000D01*
X134400000Y-100500000D02*
X128100000Y-100500000D01*
X128100000Y-100500000D02*
X122800000Y-105800000D01*
X113250000Y-146750000D02*
X113250000Y-141750000D01*
X113250000Y-141750000D02*
X113000000Y-141500000D01*
X113000000Y-141500000D02*
X102000000Y-141500000D01*
X102000000Y-141500000D02*
X101750000Y-141250000D01*
X117250000Y-147000000D02*
X113250000Y-147000000D01*
X113250000Y-147000000D02*
X112750000Y-146500000D01*
D40*
X200250000Y-129250000D02*
X208350000Y-129250000D01*
X211480000Y-126120000D02*
X221400000Y-126120000D01*
X208350000Y-129250000D02*
X211480000Y-126120000D01*
D42*
X136200000Y-141800000D02*
X133620000Y-141800000D01*
X133620000Y-141800000D02*
X133320000Y-141500000D01*
D38*
X129300000Y-136300000D02*
X131250000Y-138250000D01*
X136850000Y-138250000D02*
X140200000Y-141600000D01*
X131250000Y-138250000D02*
X136850000Y-138250000D01*
X135900000Y-141500000D02*
X136200000Y-141800000D01*
D43*
X208000000Y-115000000D02*
X208000000Y-121500000D01*
X208000000Y-121500000D02*
X200250000Y-129250000D01*
D40*
X200250000Y-129250000D02*
X166750000Y-129250000D01*
X146300000Y-133050000D02*
X146300000Y-131500000D01*
X151000000Y-137750000D02*
X146300000Y-133050000D01*
X158250000Y-137750000D02*
X151000000Y-137750000D01*
X166750000Y-129250000D02*
X158250000Y-137750000D01*
X146300000Y-131500000D02*
X146000000Y-131500000D01*
D42*
X136200000Y-141800000D02*
X140000000Y-141800000D01*
X140000000Y-141800000D02*
X140200000Y-141600000D01*
X146000000Y-131500000D02*
X146300000Y-131500000D01*
X146300000Y-131500000D02*
X147000000Y-132200000D01*
X147000000Y-132200000D02*
X147000000Y-131500000D01*
X140200000Y-141600000D02*
X140200000Y-138400000D01*
X146000000Y-132600000D02*
X146000000Y-131500000D01*
X140200000Y-138400000D02*
X146000000Y-132600000D01*
X150250000Y-122750000D02*
X145250000Y-122750000D01*
X146000000Y-131500000D02*
X145900000Y-131500000D01*
X145900000Y-131500000D02*
X143200000Y-128800000D01*
X143200000Y-124800000D02*
X145250000Y-122750000D01*
X143200000Y-128800000D02*
X143200000Y-124800000D01*
D40*
X146000000Y-131500000D02*
X147000000Y-131500000D01*
X147000000Y-131500000D02*
X150960000Y-131500000D01*
X150960000Y-131500000D02*
X151000000Y-131540000D01*
D38*
X150750000Y-61500000D02*
X150750000Y-51330000D01*
X150750000Y-51330000D02*
X151000000Y-51080000D01*
X151000000Y-72500000D02*
X151000000Y-61750000D01*
X151000000Y-61750000D02*
X150750000Y-61500000D01*
X139500000Y-61500000D02*
X139500000Y-56750000D01*
X141000000Y-47000000D02*
X141000000Y-44500000D01*
X138750000Y-49250000D02*
X141000000Y-47000000D01*
X138750000Y-56000000D02*
X138750000Y-49250000D01*
X139500000Y-56750000D02*
X138750000Y-56000000D01*
X146000000Y-44750000D02*
X149750000Y-44750000D01*
X149750000Y-44750000D02*
X151000000Y-46000000D01*
X146000000Y-44750000D02*
X141250000Y-44750000D01*
X141250000Y-44750000D02*
X141000000Y-44500000D01*
D42*
X140200000Y-131600000D02*
X140200000Y-129800000D01*
X138600000Y-128200000D02*
X138600000Y-124100000D01*
X140200000Y-129800000D02*
X138600000Y-128200000D01*
D40*
X224400000Y-87720000D02*
X217680000Y-87720000D01*
X217680000Y-87720000D02*
X217600000Y-87800000D01*
D39*
X212800000Y-101800000D02*
X212800000Y-101200000D01*
X212800000Y-101200000D02*
X209600000Y-98000000D01*
D40*
X209600000Y-98000000D02*
X209600000Y-93800000D01*
X206800000Y-91000000D02*
X201800000Y-91000000D01*
X209600000Y-93800000D02*
X206800000Y-91000000D01*
X217600000Y-87800000D02*
X217600000Y-91800000D01*
X217600000Y-91800000D02*
X211400000Y-98000000D01*
X211400000Y-98000000D02*
X209600000Y-98000000D01*
D43*
X201800000Y-91000000D02*
X201800000Y-98640000D01*
X201800000Y-98640000D02*
X208000000Y-104840000D01*
X201800000Y-91000000D02*
X201800000Y-82200000D01*
X201800000Y-82200000D02*
X207000000Y-77000000D01*
D40*
X217600000Y-67480000D02*
X223120000Y-67480000D01*
X223120000Y-67480000D02*
X223600000Y-67000000D01*
X217520000Y-67400000D02*
X217600000Y-67480000D01*
D38*
X115000000Y-127200000D02*
X115000000Y-129800000D01*
X115000000Y-129800000D02*
X114800000Y-130000000D01*
X108900000Y-122800000D02*
X110600000Y-122800000D01*
X110600000Y-122800000D02*
X114800000Y-127000000D01*
X108900000Y-123500000D02*
X108900000Y-122800000D01*
X122800000Y-115960000D02*
X125220000Y-115960000D01*
X125220000Y-115960000D02*
X125900000Y-116640000D01*
X132700000Y-136300000D02*
X132700000Y-131340000D01*
X132700000Y-131340000D02*
X134300000Y-129740000D01*
X132700000Y-123800000D02*
X133900000Y-123800000D01*
X134300000Y-129740000D02*
X136200000Y-131640000D01*
X134300000Y-124200000D02*
X134300000Y-129740000D01*
X133900000Y-123800000D02*
X134300000Y-124200000D01*
X89460000Y-119540000D02*
X89460000Y-113580000D01*
X89460000Y-113580000D02*
X89500000Y-113540000D01*
X89880000Y-81920000D02*
X89880000Y-77370000D01*
X91750000Y-75500000D02*
X93250000Y-75500000D01*
X89880000Y-77370000D02*
X91750000Y-75500000D01*
X93250000Y-78040000D02*
X93250000Y-81090000D01*
X93250000Y-81090000D02*
X89880000Y-84460000D01*
X93500000Y-78000000D02*
X93500000Y-78300000D01*
X94250000Y-60250000D02*
X96250000Y-60250000D01*
X92710000Y-69040000D02*
X90500000Y-69040000D01*
X96750000Y-65000000D02*
X92710000Y-69040000D01*
X96750000Y-60750000D02*
X96750000Y-65000000D01*
X96250000Y-60250000D02*
X96750000Y-60750000D01*
X94250000Y-62790000D02*
X88450000Y-62790000D01*
X88450000Y-62790000D02*
X87500000Y-61840000D01*
X132250000Y-84500000D02*
X132250000Y-86500000D01*
X132250000Y-86500000D02*
X134870000Y-89120000D01*
X134870000Y-89120000D02*
X134870000Y-89630000D01*
X129710000Y-84500000D02*
X129710000Y-86790000D01*
X129710000Y-86790000D02*
X128500000Y-88000000D01*
X132330000Y-89630000D02*
X132330000Y-88830000D01*
X132330000Y-88830000D02*
X131500000Y-88000000D01*
X131500000Y-88000000D02*
X128500000Y-88000000D01*
X128500000Y-88000000D02*
X128000000Y-88000000D01*
X128000000Y-88000000D02*
X127250000Y-88750000D01*
X127250000Y-88750000D02*
X127250000Y-89630000D01*
X140750000Y-85500000D02*
X140750000Y-85750000D01*
X140750000Y-85750000D02*
X142000000Y-87000000D01*
X142000000Y-87000000D02*
X142000000Y-91590000D01*
X127250000Y-99250000D02*
X132750000Y-99250000D01*
X142000000Y-92500000D02*
X142000000Y-91590000D01*
X135750000Y-98750000D02*
X142000000Y-92500000D01*
X133250000Y-98750000D02*
X135750000Y-98750000D01*
X132750000Y-99250000D02*
X133250000Y-98750000D01*
X117300000Y-108695000D02*
X115945000Y-108695000D01*
X127790000Y-99250000D02*
X129790000Y-97250000D01*
X125500000Y-99250000D02*
X127250000Y-99250000D01*
X127250000Y-99250000D02*
X127790000Y-99250000D01*
X125000000Y-98750000D02*
X125500000Y-99250000D01*
X125000000Y-95750000D02*
X125000000Y-98750000D01*
X124250000Y-95000000D02*
X125000000Y-95750000D01*
X122000000Y-95000000D02*
X124250000Y-95000000D01*
X115500000Y-101500000D02*
X122000000Y-95000000D01*
X115500000Y-108250000D02*
X115500000Y-101500000D01*
X115945000Y-108695000D02*
X115500000Y-108250000D01*
X142000000Y-91590000D02*
X141910000Y-91590000D01*
X97500000Y-92500000D02*
X100410000Y-92500000D01*
X100410000Y-92500000D02*
X100750000Y-92160000D01*
D41*
X151000000Y-129000000D02*
X150800000Y-129000000D01*
X150800000Y-129000000D02*
X150000000Y-128200000D01*
X150000000Y-128200000D02*
X146000000Y-128200000D01*
X151000000Y-102500000D02*
X142750000Y-102500000D01*
X142750000Y-102500000D02*
X142000000Y-101750000D01*
D38*
X100750000Y-82000000D02*
X100750000Y-86000000D01*
X99750000Y-87000000D02*
X97500000Y-87000000D01*
X100750000Y-86000000D02*
X99750000Y-87000000D01*
X113200000Y-96900000D02*
X109160000Y-96900000D01*
X109160000Y-96900000D02*
X109100000Y-96840000D01*
X109100000Y-96840000D02*
X109100000Y-97900000D01*
X111900000Y-100700000D02*
X111900000Y-106155000D01*
X109100000Y-97900000D02*
X111900000Y-100700000D01*
X111900000Y-107425000D02*
X109525000Y-107425000D01*
X109525000Y-107425000D02*
X109100000Y-107000000D01*
X90500000Y-66500000D02*
X88750000Y-66500000D01*
X87500000Y-67750000D02*
X87500000Y-72000000D01*
X88750000Y-66500000D02*
X87500000Y-67750000D01*
X119600000Y-99840000D02*
X119600000Y-101400000D01*
X117300000Y-103700000D02*
X117300000Y-106155000D01*
X119600000Y-101400000D02*
X117300000Y-103700000D01*
X98120000Y-69040000D02*
X100710000Y-69040000D01*
X100710000Y-69040000D02*
X101000000Y-68750000D01*
X97660000Y-68750000D02*
X97620000Y-68790000D01*
X132330000Y-97250000D02*
X132330000Y-96920000D01*
X132330000Y-96920000D02*
X134500000Y-94750000D01*
X134500000Y-94750000D02*
X136250000Y-94750000D01*
X136250000Y-94750000D02*
X138800000Y-92200000D01*
X138800000Y-92200000D02*
X138800000Y-90240000D01*
X117300000Y-115045000D02*
X119155000Y-115045000D01*
X129100000Y-116900000D02*
X129100000Y-121700000D01*
X125800000Y-113600000D02*
X129100000Y-116900000D01*
X120600000Y-113600000D02*
X125800000Y-113600000D01*
X119155000Y-115045000D02*
X120600000Y-113600000D01*
X129100000Y-121700000D02*
X129100000Y-122540000D01*
X129100000Y-122540000D02*
X132700000Y-126140000D01*
X132700000Y-113640000D02*
X132700000Y-113700000D01*
X132700000Y-113700000D02*
X135840000Y-116840000D01*
X135840000Y-116840000D02*
X135840000Y-128200000D01*
X117300000Y-112505000D02*
X126705000Y-112505000D01*
X127840000Y-113640000D02*
X132700000Y-113640000D01*
X126705000Y-112505000D02*
X127840000Y-113640000D01*
M02*
