M48
;DRILL file {KiCad 4.0.7} date 02/19/18 16:19:18
;FORMAT={-:-/ absolute / metric / decimal}
FMAT,2
METRIC,TZ
T1C0.300
T2C0.600
T3C0.635
T4C0.750
T5C0.800
T6C1.000
T7C1.100
T8C1.200
T9C1.500
T10C1.520
T11C2.000
%
G90
G05
M71
T1
X118.95Y-107.425
T2
X94.96Y-92.5
X96.23Y-92.5
X97.5Y-92.5
T3
X86.4Y-100.2
X87.6Y-131.
X91.4Y-146.2
X106.2Y-45.6
X140.8Y-85.6
X146.8Y-85.
X186.Y-115.2
X212.8Y-101.8
T4
X129.85Y-147.
X155.7Y-96.1
X228.Y-89.95
T5
X86.92Y-117.
X87.5Y-61.84
X87.5Y-72.
X89.46Y-119.54
X89.5Y-124.5
X89.5Y-127.
X89.88Y-81.92
X89.88Y-84.46
X89.88Y-87.
X90.5Y-66.5
X90.5Y-69.04
X90.5Y-71.58
X90.75Y-106.
X92.Y-100.
X92.Y-117.
X92.25Y-131.34
X92.25Y-141.5
X94.5Y-100.
X95.5Y-110.5
X95.5Y-120.66
X95.75Y-106.
X95.75Y-140.
X95.75Y-145.
X97.5Y-81.92
X97.5Y-84.46
X97.5Y-87.
X98.12Y-66.5
X98.12Y-69.04
X98.12Y-71.58
X98.4Y-128.2
X98.4Y-130.7
X99.25Y-113.84
X99.25Y-124.
X99.5Y-106.
X100.75Y-82.
X100.75Y-92.16
X101.Y-68.75
X101.Y-78.91
X101.Y-100.
X101.Y-111.5
X101.75Y-141.25
X101.75Y-143.75
X102.5Y-114.5
X102.5Y-119.5
X103.5Y-100.
X103.84Y-88.5
X104.5Y-106.
X105.Y-122.8
X105.Y-127.8
X105.75Y-114.5
X105.75Y-119.5
X106.Y-111.5
X108.9Y-112.64
X108.9Y-122.8
X109.1Y-96.84
X109.1Y-107.
X113.2Y-96.9
X114.Y-88.5
X114.8Y-130.
X115.Y-117.04
X115.Y-127.2
X119.3Y-120.8
X119.6Y-99.84
X119.6Y-110.
X119.8Y-130.
X121.75Y-51.09
X121.75Y-61.25
X121.8Y-120.8
X122.8Y-105.8
X122.8Y-115.96
X123.36Y-96.9
X125.5Y-60.75
X127.Y-54.25
X127.25Y-89.63
X127.25Y-97.25
X128.6Y-104.9
X128.6Y-107.4
X129.1Y-111.54
X129.1Y-121.7
X129.3Y-126.14
X129.3Y-136.3
X129.5Y-54.25
X129.79Y-89.63
X129.79Y-97.25
X130.5Y-60.75
X132.33Y-89.63
X132.33Y-97.25
X132.7Y-113.64
X132.7Y-123.8
X132.7Y-126.14
X132.7Y-136.3
X134.4Y-100.5
X134.4Y-110.66
X134.87Y-89.63
X134.87Y-97.25
X135.84Y-128.2
X136.2Y-131.64
X136.2Y-141.8
X138.8Y-90.24
X138.8Y-100.4
X139.5Y-61.5
X140.2Y-131.6
X140.2Y-141.6
X141.Y-44.5
X141.Y-54.66
X142.Y-61.5
X142.Y-91.59
X142.Y-101.75
X142.23Y-77.134
X142.23Y-79.134
X145.25Y-112.75
X145.25Y-122.75
X146.Y-128.2
X146.Y-131.5
X146.Y-141.5
X146.25Y-99.5
X146.25Y-109.5
X146.802Y-75.832
X146.802Y-80.832
X148.25Y-61.5
X150.25Y-112.75
X150.25Y-122.75
X150.75Y-61.5
X223.6Y-67.
X223.6Y-77.
T6
X106.42Y-50.75
X108.17Y-146.75
X108.96Y-50.75
X110.71Y-146.75
X111.5Y-50.75
X113.25Y-146.75
X151.Y-46.
X151.Y-48.54
X151.Y-51.08
X151.Y-72.5
X151.Y-75.04
X151.Y-77.58
X151.Y-102.5
X151.Y-105.04
X151.Y-107.58
X151.Y-129.
X151.Y-131.54
X151.Y-134.08
T7
X104.Y-93.
X114.16Y-93.
X117.25Y-147.
X122.25Y-47.75
X125.9Y-116.64
X125.9Y-126.8
X127.41Y-147.
X132.41Y-47.75
X146.Y-44.75
X146.Y-54.91
X207.Y-66.84
X207.Y-77.
X208.Y-104.84
X208.Y-115.
X209.6Y-83.
X209.6Y-98.
T8
X89.5Y-111.
X89.5Y-113.54
X93.25Y-75.5
X93.25Y-78.04
X94.25Y-60.25
X94.25Y-62.79
X113.Y-141.5
X115.Y-42.
X129.71Y-84.5
X132.25Y-84.5
X133.32Y-141.5
X135.32Y-42.
X138.6Y-103.78
X138.6Y-124.1
X217.6Y-67.48
X217.6Y-87.8
X217.6Y-91.8
X217.6Y-112.12
T9
X186.Y-91.
X201.8Y-91.
T10
X221.2Y-46.72
X221.2Y-51.8
X221.4Y-126.12
X221.4Y-131.2
X224.4Y-87.72
X224.4Y-92.8
T11
X199.5Y-40.25
X199.5Y-50.25
X200.25Y-129.25
X200.25Y-139.25
T0
M30
