%TF.GenerationSoftware,KiCad,Pcbnew,4.0.7*%
%TF.CreationDate,2018-02-19T16:18:31+01:00*%
%TF.ProjectId,IRS2092_board_H61M,495253323039325F626F6172645F4836,beta_v1*%
%TF.FileFunction,Soldermask,Top*%
%FSLAX46Y46*%
G04 Gerber Fmt 4.6, Leading zero omitted, Abs format (unit mm)*
G04 Created by KiCad (PCBNEW 4.0.7) date 02/19/18 16:18:31*
%MOMM*%
%LPD*%
G01*
G04 APERTURE LIST*
%ADD10C,0.100000*%
%ADD11R,4.400000X4.400000*%
%ADD12C,4.400000*%
%ADD13R,2.000000X2.000000*%
%ADD14C,2.000000*%
%ADD15C,2.600000*%
%ADD16R,2.600000X2.600000*%
%ADD17O,2.600000X2.600000*%
%ADD18O,2.000000X2.000000*%
%ADD19R,3.000000X2.400000*%
%ADD20O,3.000000X2.400000*%
%ADD21R,2.400000X3.000000*%
%ADD22O,2.400000X3.000000*%
%ADD23C,3.400000*%
%ADD24O,1.300000X1.900000*%
%ADD25R,1.300000X1.900000*%
%ADD26R,2.200000X2.200000*%
%ADD27O,2.200000X2.200000*%
%ADD28C,2.800000*%
%ADD29O,2.800000X2.800000*%
%ADD30C,1.840000*%
%ADD31C,3.600000*%
%ADD32C,1.543000*%
%ADD33R,3.400000X3.400000*%
G04 APERTURE END LIST*
D10*
D11*
X199500000Y-40250000D03*
D12*
X199500000Y-50250000D03*
D13*
X128600000Y-107400000D03*
D14*
X128600000Y-104900000D03*
X90750000Y-106000000D03*
X95750000Y-106000000D03*
D13*
X103500000Y-100000000D03*
D14*
X101000000Y-100000000D03*
D13*
X89500000Y-127000000D03*
D14*
X89500000Y-124500000D03*
X99500000Y-106000000D03*
X104500000Y-106000000D03*
X102500000Y-114500000D03*
X102500000Y-119500000D03*
X105750000Y-119500000D03*
X105750000Y-114500000D03*
X106000000Y-111500000D03*
X101000000Y-111500000D03*
X125500000Y-60750000D03*
X130500000Y-60750000D03*
D13*
X92000000Y-100000000D03*
D14*
X94500000Y-100000000D03*
D13*
X98400000Y-128200000D03*
D14*
X98400000Y-130700000D03*
X105000000Y-122800000D03*
X105000000Y-127800000D03*
D13*
X127000000Y-54250000D03*
D14*
X129500000Y-54250000D03*
D13*
X121800000Y-120800000D03*
D14*
X119300000Y-120800000D03*
X95750000Y-145000000D03*
X95750000Y-140000000D03*
D13*
X142230000Y-79134000D03*
D14*
X142230000Y-77134000D03*
X146802000Y-75832000D03*
X146802000Y-80832000D03*
D13*
X101750000Y-141250000D03*
D14*
X101750000Y-143750000D03*
X146000000Y-131500000D03*
X146000000Y-141500000D03*
D13*
X150750000Y-61500000D03*
D14*
X148250000Y-61500000D03*
D11*
X200250000Y-129250000D03*
D12*
X200250000Y-139250000D03*
D14*
X146250000Y-109500000D03*
X146250000Y-99500000D03*
X150250000Y-122750000D03*
X150250000Y-112750000D03*
X145250000Y-122750000D03*
X145250000Y-112750000D03*
D13*
X139500000Y-61500000D03*
D14*
X142000000Y-61500000D03*
X140200000Y-141600000D03*
X140200000Y-131600000D03*
D15*
X209600000Y-98000000D03*
X209600000Y-83000000D03*
D14*
X223600000Y-67000000D03*
X223600000Y-77000000D03*
X119800000Y-130000000D03*
X114800000Y-130000000D03*
D16*
X104000000Y-93000000D03*
D17*
X114160000Y-93000000D03*
D16*
X122250000Y-47750000D03*
D17*
X132410000Y-47750000D03*
D16*
X125900000Y-126800000D03*
D17*
X125900000Y-116640000D03*
D13*
X136200000Y-141800000D03*
D18*
X136200000Y-131640000D03*
D16*
X117250000Y-147000000D03*
D17*
X127410000Y-147000000D03*
D16*
X146000000Y-44750000D03*
D17*
X146000000Y-54910000D03*
D16*
X208000000Y-115000000D03*
D17*
X208000000Y-104840000D03*
D16*
X207000000Y-77000000D03*
D17*
X207000000Y-66840000D03*
D19*
X89500000Y-111000000D03*
D20*
X89500000Y-113540000D03*
D19*
X93250000Y-75500000D03*
D20*
X93250000Y-78040000D03*
D19*
X94250000Y-60250000D03*
D20*
X94250000Y-62790000D03*
D21*
X132250000Y-84500000D03*
D22*
X129710000Y-84500000D03*
D23*
X186000000Y-91000000D03*
X201800000Y-91000000D03*
D24*
X96230000Y-92500000D03*
X94960000Y-92500000D03*
D25*
X97500000Y-92500000D03*
D26*
X151000000Y-129000000D03*
D27*
X151000000Y-131540000D03*
X151000000Y-134080000D03*
D26*
X151000000Y-102500000D03*
D27*
X151000000Y-105040000D03*
X151000000Y-107580000D03*
D26*
X151000000Y-46000000D03*
D27*
X151000000Y-48540000D03*
X151000000Y-51080000D03*
D14*
X114000000Y-88500000D03*
D18*
X103840000Y-88500000D03*
D14*
X100750000Y-82000000D03*
D18*
X100750000Y-92160000D03*
D14*
X95500000Y-110500000D03*
D18*
X95500000Y-120660000D03*
D14*
X99250000Y-124000000D03*
D18*
X99250000Y-113840000D03*
D14*
X121750000Y-61250000D03*
D18*
X121750000Y-51090000D03*
D14*
X113200000Y-96900000D03*
D18*
X123360000Y-96900000D03*
D14*
X109100000Y-107000000D03*
D18*
X109100000Y-96840000D03*
D14*
X87500000Y-72000000D03*
D18*
X87500000Y-61840000D03*
D14*
X119600000Y-110000000D03*
D18*
X119600000Y-99840000D03*
D14*
X92250000Y-141500000D03*
D18*
X92250000Y-131340000D03*
D14*
X108900000Y-122800000D03*
D18*
X108900000Y-112640000D03*
D14*
X101000000Y-68750000D03*
D18*
X101000000Y-78910000D03*
D28*
X115000000Y-42000000D03*
D29*
X135320000Y-42000000D03*
D14*
X134400000Y-100500000D03*
D18*
X134400000Y-110660000D03*
D14*
X138800000Y-100400000D03*
D18*
X138800000Y-90240000D03*
D14*
X122800000Y-105800000D03*
D18*
X122800000Y-115960000D03*
D14*
X129100000Y-121700000D03*
D18*
X129100000Y-111540000D03*
D14*
X129300000Y-136300000D03*
D18*
X129300000Y-126140000D03*
D14*
X132700000Y-136300000D03*
D18*
X132700000Y-126140000D03*
D14*
X132700000Y-123800000D03*
D18*
X132700000Y-113640000D03*
D14*
X146000000Y-128200000D03*
D18*
X135840000Y-128200000D03*
D14*
X142000000Y-101750000D03*
D18*
X142000000Y-91590000D03*
D28*
X113000000Y-141500000D03*
D29*
X133320000Y-141500000D03*
D14*
X141000000Y-44500000D03*
D18*
X141000000Y-54660000D03*
D28*
X138600000Y-124100000D03*
D29*
X138600000Y-103780000D03*
D28*
X217600000Y-87800000D03*
D29*
X217600000Y-67480000D03*
D28*
X217600000Y-91800000D03*
D29*
X217600000Y-112120000D03*
D14*
X115000000Y-127200000D03*
D18*
X115000000Y-117040000D03*
D30*
X86920000Y-117000000D03*
X89460000Y-119540000D03*
X92000000Y-117000000D03*
D13*
X97500000Y-87000000D03*
D18*
X89880000Y-81920000D03*
X97500000Y-84460000D03*
X89880000Y-84460000D03*
X97500000Y-81920000D03*
X89880000Y-87000000D03*
D26*
X111500000Y-50750000D03*
D27*
X108960000Y-50750000D03*
X106420000Y-50750000D03*
D13*
X90500000Y-66500000D03*
D18*
X98120000Y-71580000D03*
X90500000Y-69040000D03*
X98120000Y-69040000D03*
X90500000Y-71580000D03*
X98120000Y-66500000D03*
D13*
X127250000Y-97250000D03*
D18*
X134870000Y-89630000D03*
X129790000Y-97250000D03*
X132330000Y-89630000D03*
X132330000Y-97250000D03*
X129790000Y-89630000D03*
X134870000Y-97250000D03*
X127250000Y-89630000D03*
D26*
X113250000Y-146750000D03*
D27*
X110710000Y-146750000D03*
X108170000Y-146750000D03*
D26*
X151000000Y-72500000D03*
D27*
X151000000Y-75040000D03*
X151000000Y-77580000D03*
D31*
X225000000Y-35000000D03*
X225000000Y-145000000D03*
X85000000Y-145000000D03*
X85000000Y-35000000D03*
D32*
X140800000Y-85600000D03*
X146800000Y-85000000D03*
X86400000Y-100200000D03*
X106200000Y-45600000D03*
X91400000Y-146200000D03*
X186000000Y-115200000D03*
X87600000Y-131000000D03*
X212800000Y-101800000D03*
D33*
X221400000Y-131200000D03*
D23*
X221400000Y-126120000D03*
D33*
X224400000Y-92800000D03*
D23*
X224400000Y-87720000D03*
D33*
X221200000Y-51800000D03*
D23*
X221200000Y-46720000D03*
M02*
