G04 #@! TF.FileFunction,Legend,Bot*
%FSLAX46Y46*%
G04 Gerber Fmt 4.6, Leading zero omitted, Abs format (unit mm)*
G04 Created by KiCad (PCBNEW 4.0.7) date 03/19/18 22:43:46*
%MOMM*%
%LPD*%
G01*
G04 APERTURE LIST*
%ADD10C,0.100000*%
%ADD11C,0.300000*%
%ADD12C,0.150000*%
%ADD13C,0.120000*%
G04 APERTURE END LIST*
D10*
D11*
X214941423Y-76433095D02*
X214941423Y-75133095D01*
X213579518Y-76433095D02*
X214012851Y-75814048D01*
X214322375Y-76433095D02*
X214322375Y-75133095D01*
X213827137Y-75133095D01*
X213703328Y-75195000D01*
X213641423Y-75256905D01*
X213579518Y-75380714D01*
X213579518Y-75566429D01*
X213641423Y-75690238D01*
X213703328Y-75752143D01*
X213827137Y-75814048D01*
X214322375Y-75814048D01*
X213084280Y-76371190D02*
X212898566Y-76433095D01*
X212589042Y-76433095D01*
X212465232Y-76371190D01*
X212403328Y-76309286D01*
X212341423Y-76185476D01*
X212341423Y-76061667D01*
X212403328Y-75937857D01*
X212465232Y-75875952D01*
X212589042Y-75814048D01*
X212836661Y-75752143D01*
X212960470Y-75690238D01*
X213022375Y-75628333D01*
X213084280Y-75504524D01*
X213084280Y-75380714D01*
X213022375Y-75256905D01*
X212960470Y-75195000D01*
X212836661Y-75133095D01*
X212527137Y-75133095D01*
X212341423Y-75195000D01*
X211846185Y-75256905D02*
X211784280Y-75195000D01*
X211660471Y-75133095D01*
X211350947Y-75133095D01*
X211227137Y-75195000D01*
X211165233Y-75256905D01*
X211103328Y-75380714D01*
X211103328Y-75504524D01*
X211165233Y-75690238D01*
X211908090Y-76433095D01*
X211103328Y-76433095D01*
X210298566Y-75133095D02*
X210174757Y-75133095D01*
X210050947Y-75195000D01*
X209989042Y-75256905D01*
X209927138Y-75380714D01*
X209865233Y-75628333D01*
X209865233Y-75937857D01*
X209927138Y-76185476D01*
X209989042Y-76309286D01*
X210050947Y-76371190D01*
X210174757Y-76433095D01*
X210298566Y-76433095D01*
X210422376Y-76371190D01*
X210484280Y-76309286D01*
X210546185Y-76185476D01*
X210608090Y-75937857D01*
X210608090Y-75628333D01*
X210546185Y-75380714D01*
X210484280Y-75256905D01*
X210422376Y-75195000D01*
X210298566Y-75133095D01*
X209246185Y-76433095D02*
X208998566Y-76433095D01*
X208874757Y-76371190D01*
X208812852Y-76309286D01*
X208689043Y-76123571D01*
X208627138Y-75875952D01*
X208627138Y-75380714D01*
X208689043Y-75256905D01*
X208750947Y-75195000D01*
X208874757Y-75133095D01*
X209122376Y-75133095D01*
X209246185Y-75195000D01*
X209308090Y-75256905D01*
X209369995Y-75380714D01*
X209369995Y-75690238D01*
X209308090Y-75814048D01*
X209246185Y-75875952D01*
X209122376Y-75937857D01*
X208874757Y-75937857D01*
X208750947Y-75875952D01*
X208689043Y-75814048D01*
X208627138Y-75690238D01*
X208131900Y-75256905D02*
X208069995Y-75195000D01*
X207946186Y-75133095D01*
X207636662Y-75133095D01*
X207512852Y-75195000D01*
X207450948Y-75256905D01*
X207389043Y-75380714D01*
X207389043Y-75504524D01*
X207450948Y-75690238D01*
X208193805Y-76433095D01*
X207389043Y-76433095D01*
X205841424Y-76433095D02*
X205841424Y-75133095D01*
X205841424Y-75628333D02*
X205717615Y-75566429D01*
X205469996Y-75566429D01*
X205346186Y-75628333D01*
X205284281Y-75690238D01*
X205222377Y-75814048D01*
X205222377Y-76185476D01*
X205284281Y-76309286D01*
X205346186Y-76371190D01*
X205469996Y-76433095D01*
X205717615Y-76433095D01*
X205841424Y-76371190D01*
X204108091Y-76433095D02*
X204108091Y-75752143D01*
X204169996Y-75628333D01*
X204293806Y-75566429D01*
X204541425Y-75566429D01*
X204665234Y-75628333D01*
X204108091Y-76371190D02*
X204231901Y-76433095D01*
X204541425Y-76433095D01*
X204665234Y-76371190D01*
X204727139Y-76247381D01*
X204727139Y-76123571D01*
X204665234Y-75999762D01*
X204541425Y-75937857D01*
X204231901Y-75937857D01*
X204108091Y-75875952D01*
X203303330Y-76433095D02*
X203427139Y-76371190D01*
X203489044Y-76247381D01*
X203489044Y-75133095D01*
X202250949Y-76433095D02*
X202250949Y-75752143D01*
X202312854Y-75628333D01*
X202436664Y-75566429D01*
X202684283Y-75566429D01*
X202808092Y-75628333D01*
X202250949Y-76371190D02*
X202374759Y-76433095D01*
X202684283Y-76433095D01*
X202808092Y-76371190D01*
X202869997Y-76247381D01*
X202869997Y-76123571D01*
X202808092Y-75999762D01*
X202684283Y-75937857D01*
X202374759Y-75937857D01*
X202250949Y-75875952D01*
X201631902Y-75566429D02*
X201631902Y-76433095D01*
X201631902Y-75690238D02*
X201569997Y-75628333D01*
X201446188Y-75566429D01*
X201260474Y-75566429D01*
X201136664Y-75628333D01*
X201074759Y-75752143D01*
X201074759Y-76433095D01*
X199898569Y-76371190D02*
X200022379Y-76433095D01*
X200269998Y-76433095D01*
X200393807Y-76371190D01*
X200455712Y-76309286D01*
X200517617Y-76185476D01*
X200517617Y-75814048D01*
X200455712Y-75690238D01*
X200393807Y-75628333D01*
X200269998Y-75566429D01*
X200022379Y-75566429D01*
X199898569Y-75628333D01*
X198846188Y-76371190D02*
X198969998Y-76433095D01*
X199217617Y-76433095D01*
X199341426Y-76371190D01*
X199403331Y-76247381D01*
X199403331Y-75752143D01*
X199341426Y-75628333D01*
X199217617Y-75566429D01*
X198969998Y-75566429D01*
X198846188Y-75628333D01*
X198784283Y-75752143D01*
X198784283Y-75875952D01*
X199403331Y-75999762D01*
X197669997Y-76433095D02*
X197669997Y-75133095D01*
X197669997Y-76371190D02*
X197793807Y-76433095D01*
X198041426Y-76433095D01*
X198165235Y-76371190D01*
X198227140Y-76309286D01*
X198289045Y-76185476D01*
X198289045Y-75814048D01*
X198227140Y-75690238D01*
X198165235Y-75628333D01*
X198041426Y-75566429D01*
X197793807Y-75566429D01*
X197669997Y-75628333D01*
X196060474Y-75566429D02*
X196060474Y-76866429D01*
X196060474Y-75628333D02*
X195936665Y-75566429D01*
X195689046Y-75566429D01*
X195565236Y-75628333D01*
X195503331Y-75690238D01*
X195441427Y-75814048D01*
X195441427Y-76185476D01*
X195503331Y-76309286D01*
X195565236Y-76371190D01*
X195689046Y-76433095D01*
X195936665Y-76433095D01*
X196060474Y-76371190D01*
X194884284Y-76433095D02*
X194884284Y-75566429D01*
X194884284Y-75814048D02*
X194822379Y-75690238D01*
X194760475Y-75628333D01*
X194636665Y-75566429D01*
X194512856Y-75566429D01*
X193584284Y-76371190D02*
X193708094Y-76433095D01*
X193955713Y-76433095D01*
X194079522Y-76371190D01*
X194141427Y-76247381D01*
X194141427Y-75752143D01*
X194079522Y-75628333D01*
X193955713Y-75566429D01*
X193708094Y-75566429D01*
X193584284Y-75628333D01*
X193522379Y-75752143D01*
X193522379Y-75875952D01*
X194141427Y-75999762D01*
X192408093Y-76433095D02*
X192408093Y-75752143D01*
X192469998Y-75628333D01*
X192593808Y-75566429D01*
X192841427Y-75566429D01*
X192965236Y-75628333D01*
X192408093Y-76371190D02*
X192531903Y-76433095D01*
X192841427Y-76433095D01*
X192965236Y-76371190D01*
X193027141Y-76247381D01*
X193027141Y-76123571D01*
X192965236Y-75999762D01*
X192841427Y-75937857D01*
X192531903Y-75937857D01*
X192408093Y-75875952D01*
X191789046Y-76433095D02*
X191789046Y-75566429D01*
X191789046Y-75690238D02*
X191727141Y-75628333D01*
X191603332Y-75566429D01*
X191417618Y-75566429D01*
X191293808Y-75628333D01*
X191231903Y-75752143D01*
X191231903Y-76433095D01*
X191231903Y-75752143D02*
X191169999Y-75628333D01*
X191046189Y-75566429D01*
X190860475Y-75566429D01*
X190736665Y-75628333D01*
X190674760Y-75752143D01*
X190674760Y-76433095D01*
X190055713Y-75566429D02*
X190055713Y-76866429D01*
X190055713Y-75628333D02*
X189931904Y-75566429D01*
X189684285Y-75566429D01*
X189560475Y-75628333D01*
X189498570Y-75690238D01*
X189436666Y-75814048D01*
X189436666Y-76185476D01*
X189498570Y-76309286D01*
X189560475Y-76371190D01*
X189684285Y-76433095D01*
X189931904Y-76433095D01*
X190055713Y-76371190D01*
X188693809Y-76433095D02*
X188817618Y-76371190D01*
X188879523Y-76247381D01*
X188879523Y-75133095D01*
X188198571Y-76433095D02*
X188198571Y-75566429D01*
X188198571Y-75133095D02*
X188260476Y-75195000D01*
X188198571Y-75256905D01*
X188136666Y-75195000D01*
X188198571Y-75133095D01*
X188198571Y-75256905D01*
X187765237Y-75566429D02*
X187269999Y-75566429D01*
X187579523Y-76433095D02*
X187579523Y-75318810D01*
X187517618Y-75195000D01*
X187393809Y-75133095D01*
X187269999Y-75133095D01*
X186836666Y-76433095D02*
X186836666Y-75566429D01*
X186836666Y-75133095D02*
X186898571Y-75195000D01*
X186836666Y-75256905D01*
X186774761Y-75195000D01*
X186836666Y-75133095D01*
X186836666Y-75256905D01*
X185722380Y-76371190D02*
X185846190Y-76433095D01*
X186093809Y-76433095D01*
X186217618Y-76371190D01*
X186279523Y-76247381D01*
X186279523Y-75752143D01*
X186217618Y-75628333D01*
X186093809Y-75566429D01*
X185846190Y-75566429D01*
X185722380Y-75628333D01*
X185660475Y-75752143D01*
X185660475Y-75875952D01*
X186279523Y-75999762D01*
X185103332Y-76433095D02*
X185103332Y-75566429D01*
X185103332Y-75814048D02*
X185041427Y-75690238D01*
X184979523Y-75628333D01*
X184855713Y-75566429D01*
X184731904Y-75566429D01*
X179965238Y-75133095D02*
X179965238Y-76061667D01*
X180027142Y-76247381D01*
X180150952Y-76371190D01*
X180336666Y-76433095D01*
X180460476Y-76433095D01*
X179160476Y-76433095D02*
X179284285Y-76371190D01*
X179346190Y-76309286D01*
X179408095Y-76185476D01*
X179408095Y-75814048D01*
X179346190Y-75690238D01*
X179284285Y-75628333D01*
X179160476Y-75566429D01*
X178974762Y-75566429D01*
X178850952Y-75628333D01*
X178789047Y-75690238D01*
X178727143Y-75814048D01*
X178727143Y-76185476D01*
X178789047Y-76309286D01*
X178850952Y-76371190D01*
X178974762Y-76433095D01*
X179160476Y-76433095D01*
X178231905Y-76371190D02*
X178108095Y-76433095D01*
X177860476Y-76433095D01*
X177736667Y-76371190D01*
X177674762Y-76247381D01*
X177674762Y-76185476D01*
X177736667Y-76061667D01*
X177860476Y-75999762D01*
X178046191Y-75999762D01*
X178170000Y-75937857D01*
X178231905Y-75814048D01*
X178231905Y-75752143D01*
X178170000Y-75628333D01*
X178046191Y-75566429D01*
X177860476Y-75566429D01*
X177736667Y-75628333D01*
X176622381Y-76371190D02*
X176746191Y-76433095D01*
X176993810Y-76433095D01*
X177117619Y-76371190D01*
X177179524Y-76247381D01*
X177179524Y-75752143D01*
X177117619Y-75628333D01*
X176993810Y-75566429D01*
X176746191Y-75566429D01*
X176622381Y-75628333D01*
X176560476Y-75752143D01*
X176560476Y-75875952D01*
X177179524Y-75999762D01*
X176746191Y-75071190D02*
X176931905Y-75256905D01*
X174579524Y-75752143D02*
X175012857Y-75752143D01*
X175012857Y-76433095D02*
X175012857Y-75133095D01*
X174393810Y-75133095D01*
X173403333Y-76371190D02*
X173527143Y-76433095D01*
X173774762Y-76433095D01*
X173898571Y-76371190D01*
X173960476Y-76247381D01*
X173960476Y-75752143D01*
X173898571Y-75628333D01*
X173774762Y-75566429D01*
X173527143Y-75566429D01*
X173403333Y-75628333D01*
X173341428Y-75752143D01*
X173341428Y-75875952D01*
X173960476Y-75999762D01*
X172784285Y-76433095D02*
X172784285Y-75566429D01*
X172784285Y-75814048D02*
X172722380Y-75690238D01*
X172660476Y-75628333D01*
X172536666Y-75566429D01*
X172412857Y-75566429D01*
X171979523Y-75566429D02*
X171979523Y-76433095D01*
X171979523Y-75690238D02*
X171917618Y-75628333D01*
X171793809Y-75566429D01*
X171608095Y-75566429D01*
X171484285Y-75628333D01*
X171422380Y-75752143D01*
X171422380Y-76433095D01*
X170246190Y-76433095D02*
X170246190Y-75752143D01*
X170308095Y-75628333D01*
X170431905Y-75566429D01*
X170679524Y-75566429D01*
X170803333Y-75628333D01*
X170246190Y-76371190D02*
X170370000Y-76433095D01*
X170679524Y-76433095D01*
X170803333Y-76371190D01*
X170865238Y-76247381D01*
X170865238Y-76123571D01*
X170803333Y-75999762D01*
X170679524Y-75937857D01*
X170370000Y-75937857D01*
X170246190Y-75875952D01*
X169627143Y-75566429D02*
X169627143Y-76433095D01*
X169627143Y-75690238D02*
X169565238Y-75628333D01*
X169441429Y-75566429D01*
X169255715Y-75566429D01*
X169131905Y-75628333D01*
X169070000Y-75752143D01*
X169070000Y-76433095D01*
X167893810Y-76433095D02*
X167893810Y-75133095D01*
X167893810Y-76371190D02*
X168017620Y-76433095D01*
X168265239Y-76433095D01*
X168389048Y-76371190D01*
X168450953Y-76309286D01*
X168512858Y-76185476D01*
X168512858Y-75814048D01*
X168450953Y-75690238D01*
X168389048Y-75628333D01*
X168265239Y-75566429D01*
X168017620Y-75566429D01*
X167893810Y-75628333D01*
X167089049Y-76433095D02*
X167212858Y-76371190D01*
X167274763Y-76309286D01*
X167336668Y-76185476D01*
X167336668Y-75814048D01*
X167274763Y-75690238D01*
X167212858Y-75628333D01*
X167089049Y-75566429D01*
X166903335Y-75566429D01*
X166779525Y-75628333D01*
X166717620Y-75690238D01*
X166655716Y-75814048D01*
X166655716Y-76185476D01*
X166717620Y-76309286D01*
X166779525Y-76371190D01*
X166903335Y-76433095D01*
X167089049Y-76433095D01*
X164427145Y-75195000D02*
X164550954Y-75133095D01*
X164736669Y-75133095D01*
X164922383Y-75195000D01*
X165046192Y-75318810D01*
X165108097Y-75442619D01*
X165170002Y-75690238D01*
X165170002Y-75875952D01*
X165108097Y-76123571D01*
X165046192Y-76247381D01*
X164922383Y-76371190D01*
X164736669Y-76433095D01*
X164612859Y-76433095D01*
X164427145Y-76371190D01*
X164365240Y-76309286D01*
X164365240Y-75875952D01*
X164612859Y-75875952D01*
X163622383Y-76433095D02*
X163746192Y-76371190D01*
X163808097Y-76309286D01*
X163870002Y-76185476D01*
X163870002Y-75814048D01*
X163808097Y-75690238D01*
X163746192Y-75628333D01*
X163622383Y-75566429D01*
X163436669Y-75566429D01*
X163312859Y-75628333D01*
X163250954Y-75690238D01*
X163189050Y-75814048D01*
X163189050Y-76185476D01*
X163250954Y-76309286D01*
X163312859Y-76371190D01*
X163436669Y-76433095D01*
X163622383Y-76433095D01*
X163374764Y-75071190D02*
X163560478Y-75256905D01*
X162631907Y-76433095D02*
X162631907Y-75566429D01*
X162631907Y-75690238D02*
X162570002Y-75628333D01*
X162446193Y-75566429D01*
X162260479Y-75566429D01*
X162136669Y-75628333D01*
X162074764Y-75752143D01*
X162074764Y-76433095D01*
X162074764Y-75752143D02*
X162012860Y-75628333D01*
X161889050Y-75566429D01*
X161703336Y-75566429D01*
X161579526Y-75628333D01*
X161517621Y-75752143D01*
X161517621Y-76433095D01*
X160403336Y-76371190D02*
X160527146Y-76433095D01*
X160774765Y-76433095D01*
X160898574Y-76371190D01*
X160960479Y-76247381D01*
X160960479Y-75752143D01*
X160898574Y-75628333D01*
X160774765Y-75566429D01*
X160527146Y-75566429D01*
X160403336Y-75628333D01*
X160341431Y-75752143D01*
X160341431Y-75875952D01*
X160960479Y-75999762D01*
X159908098Y-75566429D02*
X159227145Y-75566429D01*
X159908098Y-76433095D01*
X159227145Y-76433095D01*
X157741431Y-76433095D02*
X157741431Y-75133095D01*
X157431907Y-75133095D01*
X157246193Y-75195000D01*
X157122384Y-75318810D01*
X157060479Y-75442619D01*
X156998574Y-75690238D01*
X156998574Y-75875952D01*
X157060479Y-76123571D01*
X157122384Y-76247381D01*
X157246193Y-76371190D01*
X157431907Y-76433095D01*
X157741431Y-76433095D01*
X156441431Y-76433095D02*
X156441431Y-75566429D01*
X156317622Y-75071190D02*
X156503336Y-75256905D01*
X155265240Y-76433095D02*
X155265240Y-75752143D01*
X155327145Y-75628333D01*
X155450955Y-75566429D01*
X155698574Y-75566429D01*
X155822383Y-75628333D01*
X155265240Y-76371190D02*
X155389050Y-76433095D01*
X155698574Y-76433095D01*
X155822383Y-76371190D01*
X155884288Y-76247381D01*
X155884288Y-76123571D01*
X155822383Y-75999762D01*
X155698574Y-75937857D01*
X155389050Y-75937857D01*
X155265240Y-75875952D01*
X154770003Y-75566429D02*
X154089050Y-75566429D01*
X154770003Y-76433095D01*
X154089050Y-76433095D01*
X149693813Y-75256905D02*
X149631908Y-75195000D01*
X149508099Y-75133095D01*
X149198575Y-75133095D01*
X149074765Y-75195000D01*
X149012861Y-75256905D01*
X148950956Y-75380714D01*
X148950956Y-75504524D01*
X149012861Y-75690238D01*
X149755718Y-76433095D01*
X148950956Y-76433095D01*
X148146194Y-75133095D02*
X148022385Y-75133095D01*
X147898575Y-75195000D01*
X147836670Y-75256905D01*
X147774766Y-75380714D01*
X147712861Y-75628333D01*
X147712861Y-75937857D01*
X147774766Y-76185476D01*
X147836670Y-76309286D01*
X147898575Y-76371190D01*
X148022385Y-76433095D01*
X148146194Y-76433095D01*
X148270004Y-76371190D01*
X148331908Y-76309286D01*
X148393813Y-76185476D01*
X148455718Y-75937857D01*
X148455718Y-75628333D01*
X148393813Y-75380714D01*
X148331908Y-75256905D01*
X148270004Y-75195000D01*
X148146194Y-75133095D01*
X146474766Y-76433095D02*
X147217623Y-76433095D01*
X146846194Y-76433095D02*
X146846194Y-75133095D01*
X146970004Y-75318810D01*
X147093813Y-75442619D01*
X147217623Y-75504524D01*
X145731909Y-75690238D02*
X145855718Y-75628333D01*
X145917623Y-75566429D01*
X145979528Y-75442619D01*
X145979528Y-75380714D01*
X145917623Y-75256905D01*
X145855718Y-75195000D01*
X145731909Y-75133095D01*
X145484290Y-75133095D01*
X145360480Y-75195000D01*
X145298576Y-75256905D01*
X145236671Y-75380714D01*
X145236671Y-75442619D01*
X145298576Y-75566429D01*
X145360480Y-75628333D01*
X145484290Y-75690238D01*
X145731909Y-75690238D01*
X145855718Y-75752143D01*
X145917623Y-75814048D01*
X145979528Y-75937857D01*
X145979528Y-76185476D01*
X145917623Y-76309286D01*
X145855718Y-76371190D01*
X145731909Y-76433095D01*
X145484290Y-76433095D01*
X145360480Y-76371190D01*
X145298576Y-76309286D01*
X145236671Y-76185476D01*
X145236671Y-75937857D01*
X145298576Y-75814048D01*
X145360480Y-75752143D01*
X145484290Y-75690238D01*
D12*
X118725000Y-73910000D02*
X118725000Y-118910000D01*
X218725000Y-73910000D02*
X118725000Y-73910000D01*
X218725000Y-118910000D02*
X118725000Y-118910000D01*
X218725000Y-73910000D02*
X218725000Y-118910000D01*
D13*
X204200000Y-88780000D02*
X204200000Y-98430000D01*
X209151000Y-88780000D02*
X209151000Y-98430000D01*
X204200000Y-88780000D02*
X209151000Y-88780000D01*
X204200000Y-98430000D02*
X209151000Y-98430000D01*
X206665000Y-87260000D02*
X206665000Y-88779000D01*
X208975000Y-87260000D02*
X208975000Y-88779000D01*
X206665000Y-87260000D02*
X208975000Y-87260000D01*
X206665000Y-88779000D02*
X208975000Y-88779000D01*
X207820000Y-87260000D02*
X207820000Y-88020000D01*
X174800000Y-85805000D02*
X172140000Y-85805000D01*
X174800000Y-80665000D02*
X174800000Y-85805000D01*
X172140000Y-80665000D02*
X172140000Y-85805000D01*
X174800000Y-80665000D02*
X172140000Y-80665000D01*
X174800000Y-79395000D02*
X174800000Y-78065000D01*
X174800000Y-78065000D02*
X173470000Y-78065000D01*
X208060000Y-106975000D02*
X208060000Y-104315000D01*
X213200000Y-106975000D02*
X208060000Y-106975000D01*
X213200000Y-104315000D02*
X208060000Y-104315000D01*
X213200000Y-106975000D02*
X213200000Y-104315000D01*
X214470000Y-106975000D02*
X215800000Y-106975000D01*
X215800000Y-106975000D02*
X215800000Y-105645000D01*
X157649136Y-110377180D02*
G75*
G02X157650000Y-116412482I-1179136J-3017820D01*
G01*
X155290864Y-110377180D02*
G75*
G03X155290000Y-116412482I1179136J-3017820D01*
G01*
X155290864Y-110377180D02*
G75*
G02X157650000Y-110377518I1179136J-3017820D01*
G01*
X159670000Y-113395000D02*
X153270000Y-113395000D01*
X159670000Y-113355000D02*
X153270000Y-113355000D01*
X159670000Y-113315000D02*
X153270000Y-113315000D01*
X159668000Y-113275000D02*
X153272000Y-113275000D01*
X159667000Y-113235000D02*
X153273000Y-113235000D01*
X159664000Y-113195000D02*
X153276000Y-113195000D01*
X159662000Y-113155000D02*
X153278000Y-113155000D01*
X159658000Y-113115000D02*
X157450000Y-113115000D01*
X155490000Y-113115000D02*
X153282000Y-113115000D01*
X159655000Y-113075000D02*
X157450000Y-113075000D01*
X155490000Y-113075000D02*
X153285000Y-113075000D01*
X159650000Y-113035000D02*
X157450000Y-113035000D01*
X155490000Y-113035000D02*
X153290000Y-113035000D01*
X159646000Y-112995000D02*
X157450000Y-112995000D01*
X155490000Y-112995000D02*
X153294000Y-112995000D01*
X159640000Y-112955000D02*
X157450000Y-112955000D01*
X155490000Y-112955000D02*
X153300000Y-112955000D01*
X159635000Y-112915000D02*
X157450000Y-112915000D01*
X155490000Y-112915000D02*
X153305000Y-112915000D01*
X159628000Y-112875000D02*
X157450000Y-112875000D01*
X155490000Y-112875000D02*
X153312000Y-112875000D01*
X159622000Y-112835000D02*
X157450000Y-112835000D01*
X155490000Y-112835000D02*
X153318000Y-112835000D01*
X159614000Y-112795000D02*
X157450000Y-112795000D01*
X155490000Y-112795000D02*
X153326000Y-112795000D01*
X159607000Y-112755000D02*
X157450000Y-112755000D01*
X155490000Y-112755000D02*
X153333000Y-112755000D01*
X159598000Y-112715000D02*
X157450000Y-112715000D01*
X155490000Y-112715000D02*
X153342000Y-112715000D01*
X159589000Y-112674000D02*
X157450000Y-112674000D01*
X155490000Y-112674000D02*
X153351000Y-112674000D01*
X159580000Y-112634000D02*
X157450000Y-112634000D01*
X155490000Y-112634000D02*
X153360000Y-112634000D01*
X159570000Y-112594000D02*
X157450000Y-112594000D01*
X155490000Y-112594000D02*
X153370000Y-112594000D01*
X159560000Y-112554000D02*
X157450000Y-112554000D01*
X155490000Y-112554000D02*
X153380000Y-112554000D01*
X159549000Y-112514000D02*
X157450000Y-112514000D01*
X155490000Y-112514000D02*
X153391000Y-112514000D01*
X159537000Y-112474000D02*
X157450000Y-112474000D01*
X155490000Y-112474000D02*
X153403000Y-112474000D01*
X159525000Y-112434000D02*
X157450000Y-112434000D01*
X155490000Y-112434000D02*
X153415000Y-112434000D01*
X159512000Y-112394000D02*
X157450000Y-112394000D01*
X155490000Y-112394000D02*
X153428000Y-112394000D01*
X159499000Y-112354000D02*
X157450000Y-112354000D01*
X155490000Y-112354000D02*
X153441000Y-112354000D01*
X159485000Y-112314000D02*
X157450000Y-112314000D01*
X155490000Y-112314000D02*
X153455000Y-112314000D01*
X159471000Y-112274000D02*
X157450000Y-112274000D01*
X155490000Y-112274000D02*
X153469000Y-112274000D01*
X159456000Y-112234000D02*
X157450000Y-112234000D01*
X155490000Y-112234000D02*
X153484000Y-112234000D01*
X159440000Y-112194000D02*
X157450000Y-112194000D01*
X155490000Y-112194000D02*
X153500000Y-112194000D01*
X159424000Y-112154000D02*
X157450000Y-112154000D01*
X155490000Y-112154000D02*
X153516000Y-112154000D01*
X159407000Y-112114000D02*
X157450000Y-112114000D01*
X155490000Y-112114000D02*
X153533000Y-112114000D01*
X159389000Y-112074000D02*
X157450000Y-112074000D01*
X155490000Y-112074000D02*
X153551000Y-112074000D01*
X159371000Y-112034000D02*
X157450000Y-112034000D01*
X155490000Y-112034000D02*
X153569000Y-112034000D01*
X159352000Y-111994000D02*
X157450000Y-111994000D01*
X155490000Y-111994000D02*
X153588000Y-111994000D01*
X159333000Y-111954000D02*
X157450000Y-111954000D01*
X155490000Y-111954000D02*
X153607000Y-111954000D01*
X159313000Y-111914000D02*
X157450000Y-111914000D01*
X155490000Y-111914000D02*
X153627000Y-111914000D01*
X159292000Y-111874000D02*
X157450000Y-111874000D01*
X155490000Y-111874000D02*
X153648000Y-111874000D01*
X159270000Y-111834000D02*
X157450000Y-111834000D01*
X155490000Y-111834000D02*
X153670000Y-111834000D01*
X159248000Y-111794000D02*
X157450000Y-111794000D01*
X155490000Y-111794000D02*
X153692000Y-111794000D01*
X159225000Y-111754000D02*
X157450000Y-111754000D01*
X155490000Y-111754000D02*
X153715000Y-111754000D01*
X159201000Y-111714000D02*
X157450000Y-111714000D01*
X155490000Y-111714000D02*
X153739000Y-111714000D01*
X159176000Y-111674000D02*
X157450000Y-111674000D01*
X155490000Y-111674000D02*
X153764000Y-111674000D01*
X159151000Y-111634000D02*
X157450000Y-111634000D01*
X155490000Y-111634000D02*
X153789000Y-111634000D01*
X159124000Y-111594000D02*
X157450000Y-111594000D01*
X155490000Y-111594000D02*
X153816000Y-111594000D01*
X159097000Y-111554000D02*
X157450000Y-111554000D01*
X155490000Y-111554000D02*
X153843000Y-111554000D01*
X159069000Y-111514000D02*
X157450000Y-111514000D01*
X155490000Y-111514000D02*
X153871000Y-111514000D01*
X159040000Y-111474000D02*
X157450000Y-111474000D01*
X155490000Y-111474000D02*
X153900000Y-111474000D01*
X159010000Y-111434000D02*
X157450000Y-111434000D01*
X155490000Y-111434000D02*
X153930000Y-111434000D01*
X158980000Y-111394000D02*
X157450000Y-111394000D01*
X155490000Y-111394000D02*
X153960000Y-111394000D01*
X158948000Y-111354000D02*
X157450000Y-111354000D01*
X155490000Y-111354000D02*
X153992000Y-111354000D01*
X158915000Y-111314000D02*
X157450000Y-111314000D01*
X155490000Y-111314000D02*
X154025000Y-111314000D01*
X158881000Y-111274000D02*
X157450000Y-111274000D01*
X155490000Y-111274000D02*
X154059000Y-111274000D01*
X158845000Y-111234000D02*
X157450000Y-111234000D01*
X155490000Y-111234000D02*
X154095000Y-111234000D01*
X158809000Y-111194000D02*
X157450000Y-111194000D01*
X155490000Y-111194000D02*
X154131000Y-111194000D01*
X158771000Y-111154000D02*
X154169000Y-111154000D01*
X158732000Y-111114000D02*
X154208000Y-111114000D01*
X158692000Y-111074000D02*
X154248000Y-111074000D01*
X158650000Y-111034000D02*
X154290000Y-111034000D01*
X158607000Y-110994000D02*
X154333000Y-110994000D01*
X158562000Y-110954000D02*
X154378000Y-110954000D01*
X158515000Y-110914000D02*
X154425000Y-110914000D01*
X158467000Y-110874000D02*
X154473000Y-110874000D01*
X158416000Y-110834000D02*
X154524000Y-110834000D01*
X158364000Y-110794000D02*
X154576000Y-110794000D01*
X158309000Y-110754000D02*
X154631000Y-110754000D01*
X158251000Y-110714000D02*
X154689000Y-110714000D01*
X158191000Y-110674000D02*
X154749000Y-110674000D01*
X158128000Y-110634000D02*
X154812000Y-110634000D01*
X158061000Y-110594000D02*
X154879000Y-110594000D01*
X157990000Y-110554000D02*
X154950000Y-110554000D01*
X157915000Y-110514000D02*
X155025000Y-110514000D01*
X157834000Y-110474000D02*
X155106000Y-110474000D01*
X157748000Y-110434000D02*
X155192000Y-110434000D01*
X157654000Y-110394000D02*
X155286000Y-110394000D01*
X157551000Y-110354000D02*
X155389000Y-110354000D01*
X157436000Y-110314000D02*
X155504000Y-110314000D01*
X157304000Y-110274000D02*
X155636000Y-110274000D01*
X157146000Y-110234000D02*
X155794000Y-110234000D01*
X156938000Y-110194000D02*
X156002000Y-110194000D01*
X156470000Y-116845000D02*
X156470000Y-115645000D01*
X157120000Y-116245000D02*
X155820000Y-116245000D01*
X169489998Y-82576189D02*
G75*
G02X165449307Y-82575000I-2019998J1181189D01*
G01*
X169489998Y-80213811D02*
G75*
G03X165449307Y-80215000I-2019998J-1181189D01*
G01*
X162770000Y-81395000D02*
X163970000Y-81395000D01*
X163370000Y-82045000D02*
X163370000Y-80745000D01*
X176865507Y-94072013D02*
X173305507Y-100238114D01*
X179134493Y-95382013D02*
X175574493Y-101548114D01*
X176865507Y-94072013D02*
X179134493Y-95382013D01*
X173305507Y-100238114D02*
X175574493Y-101548114D01*
X204200002Y-100113811D02*
G75*
G02X208240693Y-100115000I2019998J-1181189D01*
G01*
X204200002Y-102476189D02*
G75*
G03X208240693Y-102475000I2019998J1181189D01*
G01*
X210920000Y-101295000D02*
X209720000Y-101295000D01*
X210320000Y-100645000D02*
X210320000Y-101945000D01*
X167115507Y-103072013D02*
X163555507Y-109238114D01*
X169384493Y-104382013D02*
X165824493Y-110548114D01*
X167115507Y-103072013D02*
X169384493Y-104382013D01*
X163555507Y-109238114D02*
X165824493Y-110548114D01*
X142902180Y-106665864D02*
G75*
G02X148937482Y-106665000I3017820J-1179136D01*
G01*
X142902180Y-109024136D02*
G75*
G03X148937482Y-109025000I3017820J1179136D01*
G01*
X142902180Y-109024136D02*
G75*
G02X142902518Y-106665000I3017820J1179136D01*
G01*
X145920000Y-104645000D02*
X145920000Y-111045000D01*
X145880000Y-104645000D02*
X145880000Y-111045000D01*
X145840000Y-104645000D02*
X145840000Y-111045000D01*
X145800000Y-104647000D02*
X145800000Y-111043000D01*
X145760000Y-104648000D02*
X145760000Y-111042000D01*
X145720000Y-104651000D02*
X145720000Y-111039000D01*
X145680000Y-104653000D02*
X145680000Y-111037000D01*
X145640000Y-104657000D02*
X145640000Y-106865000D01*
X145640000Y-108825000D02*
X145640000Y-111033000D01*
X145600000Y-104660000D02*
X145600000Y-106865000D01*
X145600000Y-108825000D02*
X145600000Y-111030000D01*
X145560000Y-104665000D02*
X145560000Y-106865000D01*
X145560000Y-108825000D02*
X145560000Y-111025000D01*
X145520000Y-104669000D02*
X145520000Y-106865000D01*
X145520000Y-108825000D02*
X145520000Y-111021000D01*
X145480000Y-104675000D02*
X145480000Y-106865000D01*
X145480000Y-108825000D02*
X145480000Y-111015000D01*
X145440000Y-104680000D02*
X145440000Y-106865000D01*
X145440000Y-108825000D02*
X145440000Y-111010000D01*
X145400000Y-104687000D02*
X145400000Y-106865000D01*
X145400000Y-108825000D02*
X145400000Y-111003000D01*
X145360000Y-104693000D02*
X145360000Y-106865000D01*
X145360000Y-108825000D02*
X145360000Y-110997000D01*
X145320000Y-104701000D02*
X145320000Y-106865000D01*
X145320000Y-108825000D02*
X145320000Y-110989000D01*
X145280000Y-104708000D02*
X145280000Y-106865000D01*
X145280000Y-108825000D02*
X145280000Y-110982000D01*
X145240000Y-104717000D02*
X145240000Y-106865000D01*
X145240000Y-108825000D02*
X145240000Y-110973000D01*
X145199000Y-104726000D02*
X145199000Y-106865000D01*
X145199000Y-108825000D02*
X145199000Y-110964000D01*
X145159000Y-104735000D02*
X145159000Y-106865000D01*
X145159000Y-108825000D02*
X145159000Y-110955000D01*
X145119000Y-104745000D02*
X145119000Y-106865000D01*
X145119000Y-108825000D02*
X145119000Y-110945000D01*
X145079000Y-104755000D02*
X145079000Y-106865000D01*
X145079000Y-108825000D02*
X145079000Y-110935000D01*
X145039000Y-104766000D02*
X145039000Y-106865000D01*
X145039000Y-108825000D02*
X145039000Y-110924000D01*
X144999000Y-104778000D02*
X144999000Y-106865000D01*
X144999000Y-108825000D02*
X144999000Y-110912000D01*
X144959000Y-104790000D02*
X144959000Y-106865000D01*
X144959000Y-108825000D02*
X144959000Y-110900000D01*
X144919000Y-104803000D02*
X144919000Y-106865000D01*
X144919000Y-108825000D02*
X144919000Y-110887000D01*
X144879000Y-104816000D02*
X144879000Y-106865000D01*
X144879000Y-108825000D02*
X144879000Y-110874000D01*
X144839000Y-104830000D02*
X144839000Y-106865000D01*
X144839000Y-108825000D02*
X144839000Y-110860000D01*
X144799000Y-104844000D02*
X144799000Y-106865000D01*
X144799000Y-108825000D02*
X144799000Y-110846000D01*
X144759000Y-104859000D02*
X144759000Y-106865000D01*
X144759000Y-108825000D02*
X144759000Y-110831000D01*
X144719000Y-104875000D02*
X144719000Y-106865000D01*
X144719000Y-108825000D02*
X144719000Y-110815000D01*
X144679000Y-104891000D02*
X144679000Y-106865000D01*
X144679000Y-108825000D02*
X144679000Y-110799000D01*
X144639000Y-104908000D02*
X144639000Y-106865000D01*
X144639000Y-108825000D02*
X144639000Y-110782000D01*
X144599000Y-104926000D02*
X144599000Y-106865000D01*
X144599000Y-108825000D02*
X144599000Y-110764000D01*
X144559000Y-104944000D02*
X144559000Y-106865000D01*
X144559000Y-108825000D02*
X144559000Y-110746000D01*
X144519000Y-104963000D02*
X144519000Y-106865000D01*
X144519000Y-108825000D02*
X144519000Y-110727000D01*
X144479000Y-104982000D02*
X144479000Y-106865000D01*
X144479000Y-108825000D02*
X144479000Y-110708000D01*
X144439000Y-105002000D02*
X144439000Y-106865000D01*
X144439000Y-108825000D02*
X144439000Y-110688000D01*
X144399000Y-105023000D02*
X144399000Y-106865000D01*
X144399000Y-108825000D02*
X144399000Y-110667000D01*
X144359000Y-105045000D02*
X144359000Y-106865000D01*
X144359000Y-108825000D02*
X144359000Y-110645000D01*
X144319000Y-105067000D02*
X144319000Y-106865000D01*
X144319000Y-108825000D02*
X144319000Y-110623000D01*
X144279000Y-105090000D02*
X144279000Y-106865000D01*
X144279000Y-108825000D02*
X144279000Y-110600000D01*
X144239000Y-105114000D02*
X144239000Y-106865000D01*
X144239000Y-108825000D02*
X144239000Y-110576000D01*
X144199000Y-105139000D02*
X144199000Y-106865000D01*
X144199000Y-108825000D02*
X144199000Y-110551000D01*
X144159000Y-105164000D02*
X144159000Y-106865000D01*
X144159000Y-108825000D02*
X144159000Y-110526000D01*
X144119000Y-105191000D02*
X144119000Y-106865000D01*
X144119000Y-108825000D02*
X144119000Y-110499000D01*
X144079000Y-105218000D02*
X144079000Y-106865000D01*
X144079000Y-108825000D02*
X144079000Y-110472000D01*
X144039000Y-105246000D02*
X144039000Y-106865000D01*
X144039000Y-108825000D02*
X144039000Y-110444000D01*
X143999000Y-105275000D02*
X143999000Y-106865000D01*
X143999000Y-108825000D02*
X143999000Y-110415000D01*
X143959000Y-105305000D02*
X143959000Y-106865000D01*
X143959000Y-108825000D02*
X143959000Y-110385000D01*
X143919000Y-105335000D02*
X143919000Y-106865000D01*
X143919000Y-108825000D02*
X143919000Y-110355000D01*
X143879000Y-105367000D02*
X143879000Y-106865000D01*
X143879000Y-108825000D02*
X143879000Y-110323000D01*
X143839000Y-105400000D02*
X143839000Y-106865000D01*
X143839000Y-108825000D02*
X143839000Y-110290000D01*
X143799000Y-105434000D02*
X143799000Y-106865000D01*
X143799000Y-108825000D02*
X143799000Y-110256000D01*
X143759000Y-105470000D02*
X143759000Y-106865000D01*
X143759000Y-108825000D02*
X143759000Y-110220000D01*
X143719000Y-105506000D02*
X143719000Y-106865000D01*
X143719000Y-108825000D02*
X143719000Y-110184000D01*
X143679000Y-105544000D02*
X143679000Y-110146000D01*
X143639000Y-105583000D02*
X143639000Y-110107000D01*
X143599000Y-105623000D02*
X143599000Y-110067000D01*
X143559000Y-105665000D02*
X143559000Y-110025000D01*
X143519000Y-105708000D02*
X143519000Y-109982000D01*
X143479000Y-105753000D02*
X143479000Y-109937000D01*
X143439000Y-105800000D02*
X143439000Y-109890000D01*
X143399000Y-105848000D02*
X143399000Y-109842000D01*
X143359000Y-105899000D02*
X143359000Y-109791000D01*
X143319000Y-105951000D02*
X143319000Y-109739000D01*
X143279000Y-106006000D02*
X143279000Y-109684000D01*
X143239000Y-106064000D02*
X143239000Y-109626000D01*
X143199000Y-106124000D02*
X143199000Y-109566000D01*
X143159000Y-106187000D02*
X143159000Y-109503000D01*
X143119000Y-106254000D02*
X143119000Y-109436000D01*
X143079000Y-106325000D02*
X143079000Y-109365000D01*
X143039000Y-106400000D02*
X143039000Y-109290000D01*
X142999000Y-106481000D02*
X142999000Y-109209000D01*
X142959000Y-106567000D02*
X142959000Y-109123000D01*
X142919000Y-106661000D02*
X142919000Y-109029000D01*
X142879000Y-106764000D02*
X142879000Y-108926000D01*
X142839000Y-106879000D02*
X142839000Y-108811000D01*
X142799000Y-107011000D02*
X142799000Y-108679000D01*
X142759000Y-107169000D02*
X142759000Y-108521000D01*
X142719000Y-107377000D02*
X142719000Y-108313000D01*
X149370000Y-107845000D02*
X148170000Y-107845000D01*
X148770000Y-107195000D02*
X148770000Y-108495000D01*
X125687820Y-94274136D02*
G75*
G02X119652518Y-94275000I-3017820J1179136D01*
G01*
X125687820Y-91915864D02*
G75*
G03X119652518Y-91915000I-3017820J-1179136D01*
G01*
X125687820Y-91915864D02*
G75*
G02X125687482Y-94275000I-3017820J-1179136D01*
G01*
X122670000Y-96295000D02*
X122670000Y-89895000D01*
X122710000Y-96295000D02*
X122710000Y-89895000D01*
X122750000Y-96295000D02*
X122750000Y-89895000D01*
X122790000Y-96293000D02*
X122790000Y-89897000D01*
X122830000Y-96292000D02*
X122830000Y-89898000D01*
X122870000Y-96289000D02*
X122870000Y-89901000D01*
X122910000Y-96287000D02*
X122910000Y-89903000D01*
X122950000Y-96283000D02*
X122950000Y-94075000D01*
X122950000Y-92115000D02*
X122950000Y-89907000D01*
X122990000Y-96280000D02*
X122990000Y-94075000D01*
X122990000Y-92115000D02*
X122990000Y-89910000D01*
X123030000Y-96275000D02*
X123030000Y-94075000D01*
X123030000Y-92115000D02*
X123030000Y-89915000D01*
X123070000Y-96271000D02*
X123070000Y-94075000D01*
X123070000Y-92115000D02*
X123070000Y-89919000D01*
X123110000Y-96265000D02*
X123110000Y-94075000D01*
X123110000Y-92115000D02*
X123110000Y-89925000D01*
X123150000Y-96260000D02*
X123150000Y-94075000D01*
X123150000Y-92115000D02*
X123150000Y-89930000D01*
X123190000Y-96253000D02*
X123190000Y-94075000D01*
X123190000Y-92115000D02*
X123190000Y-89937000D01*
X123230000Y-96247000D02*
X123230000Y-94075000D01*
X123230000Y-92115000D02*
X123230000Y-89943000D01*
X123270000Y-96239000D02*
X123270000Y-94075000D01*
X123270000Y-92115000D02*
X123270000Y-89951000D01*
X123310000Y-96232000D02*
X123310000Y-94075000D01*
X123310000Y-92115000D02*
X123310000Y-89958000D01*
X123350000Y-96223000D02*
X123350000Y-94075000D01*
X123350000Y-92115000D02*
X123350000Y-89967000D01*
X123391000Y-96214000D02*
X123391000Y-94075000D01*
X123391000Y-92115000D02*
X123391000Y-89976000D01*
X123431000Y-96205000D02*
X123431000Y-94075000D01*
X123431000Y-92115000D02*
X123431000Y-89985000D01*
X123471000Y-96195000D02*
X123471000Y-94075000D01*
X123471000Y-92115000D02*
X123471000Y-89995000D01*
X123511000Y-96185000D02*
X123511000Y-94075000D01*
X123511000Y-92115000D02*
X123511000Y-90005000D01*
X123551000Y-96174000D02*
X123551000Y-94075000D01*
X123551000Y-92115000D02*
X123551000Y-90016000D01*
X123591000Y-96162000D02*
X123591000Y-94075000D01*
X123591000Y-92115000D02*
X123591000Y-90028000D01*
X123631000Y-96150000D02*
X123631000Y-94075000D01*
X123631000Y-92115000D02*
X123631000Y-90040000D01*
X123671000Y-96137000D02*
X123671000Y-94075000D01*
X123671000Y-92115000D02*
X123671000Y-90053000D01*
X123711000Y-96124000D02*
X123711000Y-94075000D01*
X123711000Y-92115000D02*
X123711000Y-90066000D01*
X123751000Y-96110000D02*
X123751000Y-94075000D01*
X123751000Y-92115000D02*
X123751000Y-90080000D01*
X123791000Y-96096000D02*
X123791000Y-94075000D01*
X123791000Y-92115000D02*
X123791000Y-90094000D01*
X123831000Y-96081000D02*
X123831000Y-94075000D01*
X123831000Y-92115000D02*
X123831000Y-90109000D01*
X123871000Y-96065000D02*
X123871000Y-94075000D01*
X123871000Y-92115000D02*
X123871000Y-90125000D01*
X123911000Y-96049000D02*
X123911000Y-94075000D01*
X123911000Y-92115000D02*
X123911000Y-90141000D01*
X123951000Y-96032000D02*
X123951000Y-94075000D01*
X123951000Y-92115000D02*
X123951000Y-90158000D01*
X123991000Y-96014000D02*
X123991000Y-94075000D01*
X123991000Y-92115000D02*
X123991000Y-90176000D01*
X124031000Y-95996000D02*
X124031000Y-94075000D01*
X124031000Y-92115000D02*
X124031000Y-90194000D01*
X124071000Y-95977000D02*
X124071000Y-94075000D01*
X124071000Y-92115000D02*
X124071000Y-90213000D01*
X124111000Y-95958000D02*
X124111000Y-94075000D01*
X124111000Y-92115000D02*
X124111000Y-90232000D01*
X124151000Y-95938000D02*
X124151000Y-94075000D01*
X124151000Y-92115000D02*
X124151000Y-90252000D01*
X124191000Y-95917000D02*
X124191000Y-94075000D01*
X124191000Y-92115000D02*
X124191000Y-90273000D01*
X124231000Y-95895000D02*
X124231000Y-94075000D01*
X124231000Y-92115000D02*
X124231000Y-90295000D01*
X124271000Y-95873000D02*
X124271000Y-94075000D01*
X124271000Y-92115000D02*
X124271000Y-90317000D01*
X124311000Y-95850000D02*
X124311000Y-94075000D01*
X124311000Y-92115000D02*
X124311000Y-90340000D01*
X124351000Y-95826000D02*
X124351000Y-94075000D01*
X124351000Y-92115000D02*
X124351000Y-90364000D01*
X124391000Y-95801000D02*
X124391000Y-94075000D01*
X124391000Y-92115000D02*
X124391000Y-90389000D01*
X124431000Y-95776000D02*
X124431000Y-94075000D01*
X124431000Y-92115000D02*
X124431000Y-90414000D01*
X124471000Y-95749000D02*
X124471000Y-94075000D01*
X124471000Y-92115000D02*
X124471000Y-90441000D01*
X124511000Y-95722000D02*
X124511000Y-94075000D01*
X124511000Y-92115000D02*
X124511000Y-90468000D01*
X124551000Y-95694000D02*
X124551000Y-94075000D01*
X124551000Y-92115000D02*
X124551000Y-90496000D01*
X124591000Y-95665000D02*
X124591000Y-94075000D01*
X124591000Y-92115000D02*
X124591000Y-90525000D01*
X124631000Y-95635000D02*
X124631000Y-94075000D01*
X124631000Y-92115000D02*
X124631000Y-90555000D01*
X124671000Y-95605000D02*
X124671000Y-94075000D01*
X124671000Y-92115000D02*
X124671000Y-90585000D01*
X124711000Y-95573000D02*
X124711000Y-94075000D01*
X124711000Y-92115000D02*
X124711000Y-90617000D01*
X124751000Y-95540000D02*
X124751000Y-94075000D01*
X124751000Y-92115000D02*
X124751000Y-90650000D01*
X124791000Y-95506000D02*
X124791000Y-94075000D01*
X124791000Y-92115000D02*
X124791000Y-90684000D01*
X124831000Y-95470000D02*
X124831000Y-94075000D01*
X124831000Y-92115000D02*
X124831000Y-90720000D01*
X124871000Y-95434000D02*
X124871000Y-94075000D01*
X124871000Y-92115000D02*
X124871000Y-90756000D01*
X124911000Y-95396000D02*
X124911000Y-90794000D01*
X124951000Y-95357000D02*
X124951000Y-90833000D01*
X124991000Y-95317000D02*
X124991000Y-90873000D01*
X125031000Y-95275000D02*
X125031000Y-90915000D01*
X125071000Y-95232000D02*
X125071000Y-90958000D01*
X125111000Y-95187000D02*
X125111000Y-91003000D01*
X125151000Y-95140000D02*
X125151000Y-91050000D01*
X125191000Y-95092000D02*
X125191000Y-91098000D01*
X125231000Y-95041000D02*
X125231000Y-91149000D01*
X125271000Y-94989000D02*
X125271000Y-91201000D01*
X125311000Y-94934000D02*
X125311000Y-91256000D01*
X125351000Y-94876000D02*
X125351000Y-91314000D01*
X125391000Y-94816000D02*
X125391000Y-91374000D01*
X125431000Y-94753000D02*
X125431000Y-91437000D01*
X125471000Y-94686000D02*
X125471000Y-91504000D01*
X125511000Y-94615000D02*
X125511000Y-91575000D01*
X125551000Y-94540000D02*
X125551000Y-91650000D01*
X125591000Y-94459000D02*
X125591000Y-91731000D01*
X125631000Y-94373000D02*
X125631000Y-91817000D01*
X125671000Y-94279000D02*
X125671000Y-91911000D01*
X125711000Y-94176000D02*
X125711000Y-92014000D01*
X125751000Y-94061000D02*
X125751000Y-92129000D01*
X125791000Y-93929000D02*
X125791000Y-92261000D01*
X125831000Y-93771000D02*
X125831000Y-92419000D01*
X125871000Y-93563000D02*
X125871000Y-92627000D01*
X119220000Y-93095000D02*
X120420000Y-93095000D01*
X119820000Y-93745000D02*
X119820000Y-92445000D01*
X130410000Y-92205000D02*
X137530000Y-92205000D01*
X130410000Y-89585000D02*
X137530000Y-89585000D01*
X130410000Y-92205000D02*
X130410000Y-89585000D01*
X137530000Y-92205000D02*
X137530000Y-89585000D01*
X126160000Y-81335000D02*
X126160000Y-88455000D01*
X128780000Y-81335000D02*
X128780000Y-88455000D01*
X126160000Y-81335000D02*
X128780000Y-81335000D01*
X126160000Y-88455000D02*
X128780000Y-88455000D01*
X193030000Y-118555000D02*
X193030000Y-111435000D01*
X190410000Y-118555000D02*
X190410000Y-111435000D01*
X193030000Y-118555000D02*
X190410000Y-118555000D01*
X193030000Y-111435000D02*
X190410000Y-111435000D01*
X200780000Y-116135000D02*
X193660000Y-116135000D01*
X200780000Y-118755000D02*
X193660000Y-118755000D01*
X200780000Y-116135000D02*
X200780000Y-118755000D01*
X193660000Y-116135000D02*
X193660000Y-118755000D01*
X160450000Y-111025000D02*
X166450000Y-111025000D01*
X166450000Y-111025000D02*
X166450000Y-116305000D01*
X166450000Y-116305000D02*
X160450000Y-116305000D01*
X160450000Y-116305000D02*
X160450000Y-111025000D01*
X166450000Y-112395000D02*
X165450000Y-112395000D01*
X165450000Y-112395000D02*
X165450000Y-114935000D01*
X165450000Y-114935000D02*
X166450000Y-114935000D01*
X165450000Y-112395000D02*
X165020000Y-112645000D01*
X165020000Y-112645000D02*
X165020000Y-114685000D01*
X165020000Y-114685000D02*
X165450000Y-114935000D01*
X166450000Y-112645000D02*
X165450000Y-112645000D01*
X166450000Y-114685000D02*
X165450000Y-114685000D01*
X160450000Y-111595000D02*
X161070000Y-111595000D01*
X161070000Y-111595000D02*
X161070000Y-113195000D01*
X161070000Y-113195000D02*
X160450000Y-113195000D01*
X160450000Y-114135000D02*
X161070000Y-114135000D01*
X161070000Y-114135000D02*
X161070000Y-115735000D01*
X161070000Y-115735000D02*
X160450000Y-115735000D01*
X160090000Y-78875000D02*
X160090000Y-84875000D01*
X160090000Y-84875000D02*
X152270000Y-84875000D01*
X152270000Y-84875000D02*
X152270000Y-78875000D01*
X152270000Y-78875000D02*
X160090000Y-78875000D01*
X158720000Y-84875000D02*
X158720000Y-83875000D01*
X158720000Y-83875000D02*
X153640000Y-83875000D01*
X153640000Y-83875000D02*
X153640000Y-84875000D01*
X158720000Y-83875000D02*
X158470000Y-83445000D01*
X158470000Y-83445000D02*
X153890000Y-83445000D01*
X153890000Y-83445000D02*
X153640000Y-83875000D01*
X158470000Y-84875000D02*
X158470000Y-83875000D01*
X153890000Y-84875000D02*
X153890000Y-83875000D01*
X159520000Y-78875000D02*
X159520000Y-79495000D01*
X159520000Y-79495000D02*
X157920000Y-79495000D01*
X157920000Y-79495000D02*
X157920000Y-78875000D01*
X156980000Y-78875000D02*
X156980000Y-79495000D01*
X156980000Y-79495000D02*
X155380000Y-79495000D01*
X155380000Y-79495000D02*
X155380000Y-78875000D01*
X154440000Y-78875000D02*
X154440000Y-79495000D01*
X154440000Y-79495000D02*
X152840000Y-79495000D01*
X152840000Y-79495000D02*
X152840000Y-78875000D01*
X184350000Y-115915000D02*
X184350000Y-109915000D01*
X184350000Y-109915000D02*
X189630000Y-109915000D01*
X189630000Y-109915000D02*
X189630000Y-115915000D01*
X189630000Y-115915000D02*
X184350000Y-115915000D01*
X185720000Y-109915000D02*
X185720000Y-110915000D01*
X185720000Y-110915000D02*
X188260000Y-110915000D01*
X188260000Y-110915000D02*
X188260000Y-109915000D01*
X185720000Y-110915000D02*
X185970000Y-111345000D01*
X185970000Y-111345000D02*
X188010000Y-111345000D01*
X188010000Y-111345000D02*
X188260000Y-110915000D01*
X185970000Y-109915000D02*
X185970000Y-110915000D01*
X188010000Y-109915000D02*
X188010000Y-110915000D01*
X184920000Y-115915000D02*
X184920000Y-115295000D01*
X184920000Y-115295000D02*
X186520000Y-115295000D01*
X186520000Y-115295000D02*
X186520000Y-115915000D01*
X187460000Y-115915000D02*
X187460000Y-115295000D01*
X187460000Y-115295000D02*
X189060000Y-115295000D01*
X189060000Y-115295000D02*
X189060000Y-115915000D01*
X178100000Y-90665000D02*
X178100000Y-84665000D01*
X178100000Y-84665000D02*
X183380000Y-84665000D01*
X183380000Y-84665000D02*
X183380000Y-90665000D01*
X183380000Y-90665000D02*
X178100000Y-90665000D01*
X179470000Y-84665000D02*
X179470000Y-85665000D01*
X179470000Y-85665000D02*
X182010000Y-85665000D01*
X182010000Y-85665000D02*
X182010000Y-84665000D01*
X179470000Y-85665000D02*
X179720000Y-86095000D01*
X179720000Y-86095000D02*
X181760000Y-86095000D01*
X181760000Y-86095000D02*
X182010000Y-85665000D01*
X179720000Y-84665000D02*
X179720000Y-85665000D01*
X181760000Y-84665000D02*
X181760000Y-85665000D01*
X178670000Y-90665000D02*
X178670000Y-90045000D01*
X178670000Y-90045000D02*
X180270000Y-90045000D01*
X180270000Y-90045000D02*
X180270000Y-90665000D01*
X181210000Y-90665000D02*
X181210000Y-90045000D01*
X181210000Y-90045000D02*
X182810000Y-90045000D01*
X182810000Y-90045000D02*
X182810000Y-90665000D01*
X150740000Y-97425000D02*
X150740000Y-103425000D01*
X150740000Y-103425000D02*
X145460000Y-103425000D01*
X145460000Y-103425000D02*
X145460000Y-97425000D01*
X145460000Y-97425000D02*
X150740000Y-97425000D01*
X149370000Y-103425000D02*
X149370000Y-102425000D01*
X149370000Y-102425000D02*
X146830000Y-102425000D01*
X146830000Y-102425000D02*
X146830000Y-103425000D01*
X149370000Y-102425000D02*
X149120000Y-101995000D01*
X149120000Y-101995000D02*
X147080000Y-101995000D01*
X147080000Y-101995000D02*
X146830000Y-102425000D01*
X149120000Y-103425000D02*
X149120000Y-102425000D01*
X147080000Y-103425000D02*
X147080000Y-102425000D01*
X150170000Y-97425000D02*
X150170000Y-98045000D01*
X150170000Y-98045000D02*
X148570000Y-98045000D01*
X148570000Y-98045000D02*
X148570000Y-97425000D01*
X147630000Y-97425000D02*
X147630000Y-98045000D01*
X147630000Y-98045000D02*
X146030000Y-98045000D01*
X146030000Y-98045000D02*
X146030000Y-97425000D01*
X125140000Y-97975000D02*
X125140000Y-103975000D01*
X125140000Y-103975000D02*
X119860000Y-103975000D01*
X119860000Y-103975000D02*
X119860000Y-97975000D01*
X119860000Y-97975000D02*
X125140000Y-97975000D01*
X123770000Y-103975000D02*
X123770000Y-102975000D01*
X123770000Y-102975000D02*
X121230000Y-102975000D01*
X121230000Y-102975000D02*
X121230000Y-103975000D01*
X123770000Y-102975000D02*
X123520000Y-102545000D01*
X123520000Y-102545000D02*
X121480000Y-102545000D01*
X121480000Y-102545000D02*
X121230000Y-102975000D01*
X123520000Y-103975000D02*
X123520000Y-102975000D01*
X121480000Y-103975000D02*
X121480000Y-102975000D01*
X124570000Y-97975000D02*
X124570000Y-98595000D01*
X124570000Y-98595000D02*
X122970000Y-98595000D01*
X122970000Y-98595000D02*
X122970000Y-97975000D01*
X122030000Y-97975000D02*
X122030000Y-98595000D01*
X122030000Y-98595000D02*
X120430000Y-98595000D01*
X120430000Y-98595000D02*
X120430000Y-97975000D01*
X123850000Y-80665000D02*
X123850000Y-74665000D01*
X123850000Y-74665000D02*
X129130000Y-74665000D01*
X129130000Y-74665000D02*
X129130000Y-80665000D01*
X129130000Y-80665000D02*
X123850000Y-80665000D01*
X125220000Y-74665000D02*
X125220000Y-75665000D01*
X125220000Y-75665000D02*
X127760000Y-75665000D01*
X127760000Y-75665000D02*
X127760000Y-74665000D01*
X125220000Y-75665000D02*
X125470000Y-76095000D01*
X125470000Y-76095000D02*
X127510000Y-76095000D01*
X127510000Y-76095000D02*
X127760000Y-75665000D01*
X125470000Y-74665000D02*
X125470000Y-75665000D01*
X127510000Y-74665000D02*
X127510000Y-75665000D01*
X124420000Y-80665000D02*
X124420000Y-80045000D01*
X124420000Y-80045000D02*
X126020000Y-80045000D01*
X126020000Y-80045000D02*
X126020000Y-80665000D01*
X126960000Y-80665000D02*
X126960000Y-80045000D01*
X126960000Y-80045000D02*
X128560000Y-80045000D01*
X128560000Y-80045000D02*
X128560000Y-80665000D01*
X206500000Y-114115000D02*
X206500000Y-108115000D01*
X206500000Y-108115000D02*
X211780000Y-108115000D01*
X211780000Y-108115000D02*
X211780000Y-114115000D01*
X211780000Y-114115000D02*
X206500000Y-114115000D01*
X207870000Y-108115000D02*
X207870000Y-109115000D01*
X207870000Y-109115000D02*
X210410000Y-109115000D01*
X210410000Y-109115000D02*
X210410000Y-108115000D01*
X207870000Y-109115000D02*
X208120000Y-109545000D01*
X208120000Y-109545000D02*
X210160000Y-109545000D01*
X210160000Y-109545000D02*
X210410000Y-109115000D01*
X208120000Y-108115000D02*
X208120000Y-109115000D01*
X210160000Y-108115000D02*
X210160000Y-109115000D01*
X207070000Y-114115000D02*
X207070000Y-113495000D01*
X207070000Y-113495000D02*
X208670000Y-113495000D01*
X208670000Y-113495000D02*
X208670000Y-114115000D01*
X209610000Y-114115000D02*
X209610000Y-113495000D01*
X209610000Y-113495000D02*
X211210000Y-113495000D01*
X211210000Y-113495000D02*
X211210000Y-114115000D01*
X205000000Y-85815000D02*
X205000000Y-79815000D01*
X205000000Y-79815000D02*
X210280000Y-79815000D01*
X210280000Y-79815000D02*
X210280000Y-85815000D01*
X210280000Y-85815000D02*
X205000000Y-85815000D01*
X206370000Y-79815000D02*
X206370000Y-80815000D01*
X206370000Y-80815000D02*
X208910000Y-80815000D01*
X208910000Y-80815000D02*
X208910000Y-79815000D01*
X206370000Y-80815000D02*
X206620000Y-81245000D01*
X206620000Y-81245000D02*
X208660000Y-81245000D01*
X208660000Y-81245000D02*
X208910000Y-80815000D01*
X206620000Y-79815000D02*
X206620000Y-80815000D01*
X208660000Y-79815000D02*
X208660000Y-80815000D01*
X205570000Y-85815000D02*
X205570000Y-85195000D01*
X205570000Y-85195000D02*
X207170000Y-85195000D01*
X207170000Y-85195000D02*
X207170000Y-85815000D01*
X208110000Y-85815000D02*
X208110000Y-85195000D01*
X208110000Y-85195000D02*
X209710000Y-85195000D01*
X209710000Y-85195000D02*
X209710000Y-85815000D01*
X174090000Y-112705000D02*
X174090000Y-110085000D01*
X174090000Y-110085000D02*
X180510000Y-110085000D01*
X180510000Y-110085000D02*
X180510000Y-112705000D01*
X180510000Y-112705000D02*
X174090000Y-112705000D01*
X173200000Y-111395000D02*
X174090000Y-111395000D01*
X181400000Y-111395000D02*
X180510000Y-111395000D01*
X151280000Y-87775000D02*
X148660000Y-87775000D01*
X148660000Y-87775000D02*
X148660000Y-81355000D01*
X148660000Y-81355000D02*
X151280000Y-81355000D01*
X151280000Y-81355000D02*
X151280000Y-87775000D01*
X149970000Y-88665000D02*
X149970000Y-87775000D01*
X149970000Y-80465000D02*
X149970000Y-81355000D01*
X144030000Y-87775000D02*
X141410000Y-87775000D01*
X141410000Y-87775000D02*
X141410000Y-81355000D01*
X141410000Y-81355000D02*
X144030000Y-81355000D01*
X144030000Y-81355000D02*
X144030000Y-87775000D01*
X142720000Y-88665000D02*
X142720000Y-87775000D01*
X142720000Y-80465000D02*
X142720000Y-81355000D01*
X192780000Y-107275000D02*
X190160000Y-107275000D01*
X190160000Y-107275000D02*
X190160000Y-100855000D01*
X190160000Y-100855000D02*
X192780000Y-100855000D01*
X192780000Y-100855000D02*
X192780000Y-107275000D01*
X191470000Y-108165000D02*
X191470000Y-107275000D01*
X191470000Y-99965000D02*
X191470000Y-100855000D01*
X148850000Y-91085000D02*
X148850000Y-93705000D01*
X148850000Y-93705000D02*
X142430000Y-93705000D01*
X142430000Y-93705000D02*
X142430000Y-91085000D01*
X142430000Y-91085000D02*
X148850000Y-91085000D01*
X149740000Y-92395000D02*
X148850000Y-92395000D01*
X141540000Y-92395000D02*
X142430000Y-92395000D01*
X145160000Y-81265000D02*
X147780000Y-81265000D01*
X147780000Y-81265000D02*
X147780000Y-87685000D01*
X147780000Y-87685000D02*
X145160000Y-87685000D01*
X145160000Y-87685000D02*
X145160000Y-81265000D01*
X146470000Y-80375000D02*
X146470000Y-81265000D01*
X146470000Y-88575000D02*
X146470000Y-87685000D01*
X187150507Y-96859468D02*
X189419493Y-98169468D01*
X189419493Y-98169468D02*
X186209493Y-103729351D01*
X186209493Y-103729351D02*
X183940507Y-102419351D01*
X183940507Y-102419351D02*
X187150507Y-96859468D01*
X188730000Y-96743705D02*
X188285000Y-97514468D01*
X184630000Y-103845113D02*
X185075000Y-103074351D01*
X185100000Y-77835000D02*
X185100000Y-80455000D01*
X185100000Y-80455000D02*
X178680000Y-80455000D01*
X178680000Y-80455000D02*
X178680000Y-77835000D01*
X178680000Y-77835000D02*
X185100000Y-77835000D01*
X185990000Y-79145000D02*
X185100000Y-79145000D01*
X177790000Y-79145000D02*
X178680000Y-79145000D01*
X185100000Y-81085000D02*
X185100000Y-83705000D01*
X185100000Y-83705000D02*
X178680000Y-83705000D01*
X178680000Y-83705000D02*
X178680000Y-81085000D01*
X178680000Y-81085000D02*
X185100000Y-81085000D01*
X185990000Y-82395000D02*
X185100000Y-82395000D01*
X177790000Y-82395000D02*
X178680000Y-82395000D01*
X171400507Y-103359468D02*
X173669493Y-104669468D01*
X173669493Y-104669468D02*
X170459493Y-110229351D01*
X170459493Y-110229351D02*
X168190507Y-108919351D01*
X168190507Y-108919351D02*
X171400507Y-103359468D01*
X172980000Y-103243705D02*
X172535000Y-104014468D01*
X168880000Y-110345113D02*
X169325000Y-109574351D01*
X202530000Y-90775000D02*
X199910000Y-90775000D01*
X199910000Y-90775000D02*
X199910000Y-84355000D01*
X199910000Y-84355000D02*
X202530000Y-84355000D01*
X202530000Y-84355000D02*
X202530000Y-90775000D01*
X201220000Y-91665000D02*
X201220000Y-90775000D01*
X201220000Y-83465000D02*
X201220000Y-84355000D01*
X196530000Y-90775000D02*
X193910000Y-90775000D01*
X193910000Y-90775000D02*
X193910000Y-84355000D01*
X193910000Y-84355000D02*
X196530000Y-84355000D01*
X196530000Y-84355000D02*
X196530000Y-90775000D01*
X195220000Y-91665000D02*
X195220000Y-90775000D01*
X195220000Y-83465000D02*
X195220000Y-84355000D01*
X170434468Y-89214493D02*
X171744468Y-86945507D01*
X171744468Y-86945507D02*
X177304351Y-90155507D01*
X177304351Y-90155507D02*
X175994351Y-92424493D01*
X175994351Y-92424493D02*
X170434468Y-89214493D01*
X170318705Y-87635000D02*
X171089468Y-88080000D01*
X177420113Y-91735000D02*
X176649351Y-91290000D01*
X204040000Y-118405000D02*
X204040000Y-115785000D01*
X204040000Y-115785000D02*
X210460000Y-115785000D01*
X210460000Y-115785000D02*
X210460000Y-118405000D01*
X210460000Y-118405000D02*
X204040000Y-118405000D01*
X203150000Y-117095000D02*
X204040000Y-117095000D01*
X211350000Y-117095000D02*
X210460000Y-117095000D01*
X172150507Y-94359468D02*
X174419493Y-95669468D01*
X174419493Y-95669468D02*
X171209493Y-101229351D01*
X171209493Y-101229351D02*
X168940507Y-99919351D01*
X168940507Y-99919351D02*
X172150507Y-94359468D01*
X173730000Y-94243705D02*
X173285000Y-95014468D01*
X169630000Y-101345113D02*
X170075000Y-100574351D01*
X134410000Y-78565000D02*
G75*
G03X136410000Y-78565000I1000000J0D01*
G01*
X136410000Y-78565000D02*
X137660000Y-78565000D01*
X137660000Y-78565000D02*
X137660000Y-88845000D01*
X137660000Y-88845000D02*
X133160000Y-88845000D01*
X133160000Y-88845000D02*
X133160000Y-78565000D01*
X133160000Y-78565000D02*
X134410000Y-78565000D01*
X140660000Y-78505000D02*
X140660000Y-88905000D01*
X140660000Y-88905000D02*
X130160000Y-88905000D01*
X130160000Y-88905000D02*
X130160000Y-78505000D01*
X130160000Y-78505000D02*
X140660000Y-78505000D01*
D12*
X159397757Y-106579421D02*
X160003975Y-106929421D01*
X162342243Y-108279421D02*
X161736025Y-107929421D01*
X163747757Y-99045000D02*
X158147757Y-108744485D01*
X158147757Y-108744485D02*
X158407564Y-108894485D01*
X171859230Y-90795515D02*
X171686025Y-90695515D01*
X163747757Y-99045000D02*
X169347757Y-89345515D01*
X169347757Y-89345515D02*
X169953975Y-89695515D01*
X166742243Y-100658397D02*
X161092243Y-110444485D01*
X161092243Y-110444485D02*
X160832436Y-110294485D01*
X166692243Y-100745000D02*
X172292243Y-91045515D01*
X172292243Y-91045515D02*
X171772628Y-90745515D01*
D13*
X200830000Y-115225000D02*
G75*
G03X198830000Y-115225000I-1000000J0D01*
G01*
X198830000Y-115225000D02*
X197580000Y-115225000D01*
X197580000Y-115225000D02*
X197580000Y-104945000D01*
X197580000Y-104945000D02*
X202080000Y-104945000D01*
X202080000Y-104945000D02*
X202080000Y-115225000D01*
X202080000Y-115225000D02*
X200830000Y-115225000D01*
X194580000Y-115285000D02*
X194580000Y-104885000D01*
X194580000Y-104885000D02*
X205080000Y-104885000D01*
X205080000Y-104885000D02*
X205080000Y-115285000D01*
X205080000Y-115285000D02*
X194580000Y-115285000D01*
X185570000Y-108005000D02*
X185570000Y-104405000D01*
X186297205Y-108529184D02*
G75*
G02X185570000Y-108005000I1122795J2324184D01*
G01*
X188518807Y-108561400D02*
G75*
G03X190020000Y-106205000I-1098807J2356400D01*
G01*
X188518807Y-103848600D02*
G75*
G02X190020000Y-106205000I-1098807J-2356400D01*
G01*
X186297205Y-103880816D02*
G75*
G03X185570000Y-104405000I1122795J-2324184D01*
G01*
D12*
X161470001Y-88997381D02*
X161136668Y-89997381D01*
X160803334Y-88997381D01*
X160470001Y-88997381D02*
X160470001Y-89806905D01*
X160422382Y-89902143D01*
X160374763Y-89949762D01*
X160279525Y-89997381D01*
X160089048Y-89997381D01*
X159993810Y-89949762D01*
X159946191Y-89902143D01*
X159898572Y-89806905D01*
X159898572Y-88997381D01*
X158517620Y-89997381D02*
X158612858Y-89949762D01*
X158660477Y-89854524D01*
X158660477Y-88997381D01*
X157755714Y-89949762D02*
X157850952Y-89997381D01*
X158041429Y-89997381D01*
X158136667Y-89949762D01*
X158184286Y-89854524D01*
X158184286Y-89473571D01*
X158136667Y-89378333D01*
X158041429Y-89330714D01*
X157850952Y-89330714D01*
X157755714Y-89378333D01*
X157708095Y-89473571D01*
X157708095Y-89568810D01*
X158184286Y-89664048D01*
X157374762Y-89330714D02*
X157136667Y-89997381D01*
X156898571Y-89330714D01*
X156136666Y-89949762D02*
X156231904Y-89997381D01*
X156422381Y-89997381D01*
X156517619Y-89949762D01*
X156565238Y-89854524D01*
X156565238Y-89473571D01*
X156517619Y-89378333D01*
X156422381Y-89330714D01*
X156231904Y-89330714D01*
X156136666Y-89378333D01*
X156089047Y-89473571D01*
X156089047Y-89568810D01*
X156565238Y-89664048D01*
X155517619Y-89997381D02*
X155612857Y-89949762D01*
X155660476Y-89854524D01*
X155660476Y-88997381D01*
X134412858Y-95347381D02*
X134412858Y-94347381D01*
X134031905Y-94347381D01*
X133936667Y-94395000D01*
X133889048Y-94442619D01*
X133841429Y-94537857D01*
X133841429Y-94680714D01*
X133889048Y-94775952D01*
X133936667Y-94823571D01*
X134031905Y-94871190D01*
X134412858Y-94871190D01*
X133412858Y-95347381D02*
X133412858Y-94680714D01*
X133412858Y-94871190D02*
X133365239Y-94775952D01*
X133317620Y-94728333D01*
X133222382Y-94680714D01*
X133127143Y-94680714D01*
X132412857Y-95299762D02*
X132508095Y-95347381D01*
X132698572Y-95347381D01*
X132793810Y-95299762D01*
X132841429Y-95204524D01*
X132841429Y-94823571D01*
X132793810Y-94728333D01*
X132698572Y-94680714D01*
X132508095Y-94680714D01*
X132412857Y-94728333D01*
X132365238Y-94823571D01*
X132365238Y-94918810D01*
X132841429Y-95014048D01*
X131508095Y-95347381D02*
X131508095Y-94823571D01*
X131555714Y-94728333D01*
X131650952Y-94680714D01*
X131841429Y-94680714D01*
X131936667Y-94728333D01*
X131508095Y-95299762D02*
X131603333Y-95347381D01*
X131841429Y-95347381D01*
X131936667Y-95299762D01*
X131984286Y-95204524D01*
X131984286Y-95109286D01*
X131936667Y-95014048D01*
X131841429Y-94966429D01*
X131603333Y-94966429D01*
X131508095Y-94918810D01*
X131031905Y-95347381D02*
X131031905Y-94680714D01*
X131031905Y-94775952D02*
X130984286Y-94728333D01*
X130889048Y-94680714D01*
X130746190Y-94680714D01*
X130650952Y-94728333D01*
X130603333Y-94823571D01*
X130603333Y-95347381D01*
X130603333Y-94823571D02*
X130555714Y-94728333D01*
X130460476Y-94680714D01*
X130317619Y-94680714D01*
X130222381Y-94728333D01*
X130174762Y-94823571D01*
X130174762Y-95347381D01*
X129698572Y-94680714D02*
X129698572Y-95680714D01*
X129698572Y-94728333D02*
X129603334Y-94680714D01*
X129412857Y-94680714D01*
X129317619Y-94728333D01*
X129270000Y-94775952D01*
X129222381Y-94871190D01*
X129222381Y-95156905D01*
X129270000Y-95252143D01*
X129317619Y-95299762D01*
X129412857Y-95347381D01*
X129603334Y-95347381D01*
X129698572Y-95299762D01*
X127889048Y-95347381D02*
X127984286Y-95299762D01*
X128031905Y-95252143D01*
X128079524Y-95156905D01*
X128079524Y-94871190D01*
X128031905Y-94775952D01*
X127984286Y-94728333D01*
X127889048Y-94680714D01*
X127746190Y-94680714D01*
X127650952Y-94728333D01*
X127603333Y-94775952D01*
X127555714Y-94871190D01*
X127555714Y-95156905D01*
X127603333Y-95252143D01*
X127650952Y-95299762D01*
X127746190Y-95347381D01*
X127889048Y-95347381D01*
X126698571Y-94680714D02*
X126698571Y-95347381D01*
X127127143Y-94680714D02*
X127127143Y-95204524D01*
X127079524Y-95299762D01*
X126984286Y-95347381D01*
X126841428Y-95347381D01*
X126746190Y-95299762D01*
X126698571Y-95252143D01*
X126365238Y-94680714D02*
X125984286Y-94680714D01*
X126222381Y-94347381D02*
X126222381Y-95204524D01*
X126174762Y-95299762D01*
X126079524Y-95347381D01*
X125984286Y-95347381D01*
X208722381Y-95454524D02*
X208722381Y-94883095D01*
X208722381Y-95168809D02*
X207722381Y-95168809D01*
X207865238Y-95073571D01*
X207960476Y-94978333D01*
X208008095Y-94883095D01*
X207722381Y-96073571D02*
X207722381Y-96168810D01*
X207770000Y-96264048D01*
X207817619Y-96311667D01*
X207912857Y-96359286D01*
X208103333Y-96406905D01*
X208341429Y-96406905D01*
X208531905Y-96359286D01*
X208627143Y-96311667D01*
X208674762Y-96264048D01*
X208722381Y-96168810D01*
X208722381Y-96073571D01*
X208674762Y-95978333D01*
X208627143Y-95930714D01*
X208531905Y-95883095D01*
X208341429Y-95835476D01*
X208103333Y-95835476D01*
X207912857Y-95883095D01*
X207817619Y-95930714D01*
X207770000Y-95978333D01*
X207722381Y-96073571D01*
X208722381Y-96835476D02*
X207722381Y-96835476D01*
X208722381Y-97406905D02*
X208150952Y-96978333D01*
X207722381Y-97406905D02*
X208293810Y-96835476D01*
X170872381Y-78083095D02*
X170872381Y-78749762D01*
X171872381Y-78321190D01*
X170872381Y-79321190D02*
X170872381Y-79416429D01*
X170920000Y-79511667D01*
X170967619Y-79559286D01*
X171062857Y-79606905D01*
X171253333Y-79654524D01*
X171491429Y-79654524D01*
X171681905Y-79606905D01*
X171777143Y-79559286D01*
X171824762Y-79511667D01*
X171872381Y-79416429D01*
X171872381Y-79321190D01*
X171824762Y-79225952D01*
X171777143Y-79178333D01*
X171681905Y-79130714D01*
X171491429Y-79083095D01*
X171253333Y-79083095D01*
X171062857Y-79130714D01*
X170967619Y-79178333D01*
X170920000Y-79225952D01*
X170872381Y-79321190D01*
X170872381Y-79940238D02*
X171872381Y-80273571D01*
X170872381Y-80606905D01*
X170872381Y-83130715D02*
X170872381Y-83749763D01*
X171253333Y-83416429D01*
X171253333Y-83559287D01*
X171300952Y-83654525D01*
X171348571Y-83702144D01*
X171443810Y-83749763D01*
X171681905Y-83749763D01*
X171777143Y-83702144D01*
X171824762Y-83654525D01*
X171872381Y-83559287D01*
X171872381Y-83273572D01*
X171824762Y-83178334D01*
X171777143Y-83130715D01*
X170872381Y-84654525D02*
X170872381Y-84178334D01*
X171348571Y-84130715D01*
X171300952Y-84178334D01*
X171253333Y-84273572D01*
X171253333Y-84511668D01*
X171300952Y-84606906D01*
X171348571Y-84654525D01*
X171443810Y-84702144D01*
X171681905Y-84702144D01*
X171777143Y-84654525D01*
X171824762Y-84606906D01*
X171872381Y-84511668D01*
X171872381Y-84273572D01*
X171824762Y-84178334D01*
X171777143Y-84130715D01*
X170872381Y-84987858D02*
X171872381Y-85321191D01*
X170872381Y-85654525D01*
X217172382Y-102697381D02*
X216981905Y-102697381D01*
X216886667Y-102745000D01*
X216791429Y-102840238D01*
X216743810Y-103030714D01*
X216743810Y-103364048D01*
X216791429Y-103554524D01*
X216886667Y-103649762D01*
X216981905Y-103697381D01*
X217172382Y-103697381D01*
X217267620Y-103649762D01*
X217362858Y-103554524D01*
X217410477Y-103364048D01*
X217410477Y-103030714D01*
X217362858Y-102840238D01*
X217267620Y-102745000D01*
X217172382Y-102697381D01*
X215886667Y-103030714D02*
X215886667Y-103697381D01*
X216315239Y-103030714D02*
X216315239Y-103554524D01*
X216267620Y-103649762D01*
X216172382Y-103697381D01*
X216029524Y-103697381D01*
X215934286Y-103649762D01*
X215886667Y-103602143D01*
X215553334Y-103030714D02*
X215172382Y-103030714D01*
X215410477Y-102697381D02*
X215410477Y-103554524D01*
X215362858Y-103649762D01*
X215267620Y-103697381D01*
X215172382Y-103697381D01*
X215077143Y-103792619D02*
X214315238Y-103792619D01*
X214124762Y-103411667D02*
X213648571Y-103411667D01*
X214220000Y-103697381D02*
X213886667Y-102697381D01*
X213553333Y-103697381D01*
X212934285Y-104078333D02*
X212981905Y-104030714D01*
X213077143Y-103887857D01*
X213124762Y-103792619D01*
X213172381Y-103649762D01*
X213220000Y-103411667D01*
X213220000Y-103221190D01*
X213172381Y-102983095D01*
X213124762Y-102840238D01*
X213077143Y-102745000D01*
X212981905Y-102602143D01*
X212934285Y-102554524D01*
X212600952Y-103411667D02*
X212124761Y-103411667D01*
X212696190Y-103697381D02*
X212362857Y-102697381D01*
X212029523Y-103697381D01*
X211791428Y-104078333D02*
X211743809Y-104030714D01*
X211648571Y-103887857D01*
X211600952Y-103792619D01*
X211553333Y-103649762D01*
X211505714Y-103411667D01*
X211505714Y-103221190D01*
X211553333Y-102983095D01*
X211600952Y-102840238D01*
X211648571Y-102745000D01*
X211743809Y-102602143D01*
X211791428Y-102554524D01*
X210315237Y-102649762D02*
X211172380Y-103935476D01*
X209934285Y-103030714D02*
X209981904Y-103078333D01*
X210029523Y-103173571D01*
X210029523Y-103459286D01*
X209981904Y-103554524D01*
X209886666Y-103649762D01*
X209791428Y-103697381D01*
X209600951Y-103697381D01*
X209505713Y-103649762D01*
X209410475Y-103554524D01*
X209362856Y-103459286D01*
X209362856Y-103173571D01*
X209410475Y-103078333D01*
X209505713Y-103030714D01*
X209553332Y-103030714D01*
X209648570Y-103078333D01*
X209696189Y-103173571D01*
X209696189Y-104030714D01*
X208648570Y-104078333D02*
X208696190Y-104030714D01*
X208791428Y-103887857D01*
X208839047Y-103792619D01*
X208886666Y-103649762D01*
X208934285Y-103411667D01*
X208934285Y-103221190D01*
X208886666Y-102983095D01*
X208839047Y-102840238D01*
X208791428Y-102745000D01*
X208696190Y-102602143D01*
X208648570Y-102554524D01*
X207934284Y-103173571D02*
X207791427Y-103221190D01*
X207743808Y-103268810D01*
X207696189Y-103364048D01*
X207696189Y-103506905D01*
X207743808Y-103602143D01*
X207791427Y-103649762D01*
X207886665Y-103697381D01*
X208267618Y-103697381D01*
X208267618Y-102697381D01*
X207934284Y-102697381D01*
X207839046Y-102745000D01*
X207791427Y-102792619D01*
X207743808Y-102887857D01*
X207743808Y-102983095D01*
X207791427Y-103078333D01*
X207839046Y-103125952D01*
X207934284Y-103173571D01*
X208267618Y-103173571D01*
X207362856Y-104078333D02*
X207315237Y-104030714D01*
X207219999Y-103887857D01*
X207172380Y-103792619D01*
X207124761Y-103649762D01*
X207077142Y-103411667D01*
X207077142Y-103221190D01*
X207124761Y-102983095D01*
X207172380Y-102840238D01*
X207219999Y-102745000D01*
X207315237Y-102602143D01*
X207362856Y-102554524D01*
X157539047Y-118147381D02*
X158110476Y-118147381D01*
X157824762Y-118147381D02*
X157824762Y-117147381D01*
X157920000Y-117290238D01*
X158015238Y-117385476D01*
X158110476Y-117433095D01*
X156920000Y-117147381D02*
X156824761Y-117147381D01*
X156729523Y-117195000D01*
X156681904Y-117242619D01*
X156634285Y-117337857D01*
X156586666Y-117528333D01*
X156586666Y-117766429D01*
X156634285Y-117956905D01*
X156681904Y-118052143D01*
X156729523Y-118099762D01*
X156824761Y-118147381D01*
X156920000Y-118147381D01*
X157015238Y-118099762D01*
X157062857Y-118052143D01*
X157110476Y-117956905D01*
X157158095Y-117766429D01*
X157158095Y-117528333D01*
X157110476Y-117337857D01*
X157062857Y-117242619D01*
X157015238Y-117195000D01*
X156920000Y-117147381D01*
X155967619Y-117147381D02*
X155872380Y-117147381D01*
X155777142Y-117195000D01*
X155729523Y-117242619D01*
X155681904Y-117337857D01*
X155634285Y-117528333D01*
X155634285Y-117766429D01*
X155681904Y-117956905D01*
X155729523Y-118052143D01*
X155777142Y-118099762D01*
X155872380Y-118147381D01*
X155967619Y-118147381D01*
X156062857Y-118099762D01*
X156110476Y-118052143D01*
X156158095Y-117956905D01*
X156205714Y-117766429D01*
X156205714Y-117528333D01*
X156158095Y-117337857D01*
X156110476Y-117242619D01*
X156062857Y-117195000D01*
X155967619Y-117147381D01*
X154777142Y-117480714D02*
X154777142Y-118147381D01*
X155205714Y-117480714D02*
X155205714Y-118004524D01*
X155158095Y-118099762D01*
X155062857Y-118147381D01*
X154919999Y-118147381D01*
X154824761Y-118099762D01*
X154777142Y-118052143D01*
X168212857Y-81797381D02*
X168784286Y-81797381D01*
X168498572Y-81797381D02*
X168498572Y-80797381D01*
X168593810Y-80940238D01*
X168689048Y-81035476D01*
X168784286Y-81083095D01*
X167593810Y-80797381D02*
X167498571Y-80797381D01*
X167403333Y-80845000D01*
X167355714Y-80892619D01*
X167308095Y-80987857D01*
X167260476Y-81178333D01*
X167260476Y-81416429D01*
X167308095Y-81606905D01*
X167355714Y-81702143D01*
X167403333Y-81749762D01*
X167498571Y-81797381D01*
X167593810Y-81797381D01*
X167689048Y-81749762D01*
X167736667Y-81702143D01*
X167784286Y-81606905D01*
X167831905Y-81416429D01*
X167831905Y-81178333D01*
X167784286Y-80987857D01*
X167736667Y-80892619D01*
X167689048Y-80845000D01*
X167593810Y-80797381D01*
X166403333Y-81130714D02*
X166403333Y-81797381D01*
X166831905Y-81130714D02*
X166831905Y-81654524D01*
X166784286Y-81749762D01*
X166689048Y-81797381D01*
X166546190Y-81797381D01*
X166450952Y-81749762D01*
X166403333Y-81702143D01*
X176624533Y-97791627D02*
X176689582Y-97774197D01*
X176802249Y-97674289D01*
X176849868Y-97591811D01*
X176880058Y-97444282D01*
X176845199Y-97314185D01*
X176786530Y-97225327D01*
X176645382Y-97088849D01*
X176521663Y-97017420D01*
X176332897Y-96963422D01*
X176226609Y-96957042D01*
X176096511Y-96991901D01*
X175983843Y-97091811D01*
X175936224Y-97174289D01*
X175906035Y-97321816D01*
X175923465Y-97386865D01*
X206962857Y-101747381D02*
X207534286Y-101747381D01*
X207248572Y-101747381D02*
X207248572Y-100747381D01*
X207343810Y-100890238D01*
X207439048Y-100985476D01*
X207534286Y-101033095D01*
X206343810Y-100747381D02*
X206248571Y-100747381D01*
X206153333Y-100795000D01*
X206105714Y-100842619D01*
X206058095Y-100937857D01*
X206010476Y-101128333D01*
X206010476Y-101366429D01*
X206058095Y-101556905D01*
X206105714Y-101652143D01*
X206153333Y-101699762D01*
X206248571Y-101747381D01*
X206343810Y-101747381D01*
X206439048Y-101699762D01*
X206486667Y-101652143D01*
X206534286Y-101556905D01*
X206581905Y-101366429D01*
X206581905Y-101128333D01*
X206534286Y-100937857D01*
X206486667Y-100842619D01*
X206439048Y-100795000D01*
X206343810Y-100747381D01*
X205153333Y-101080714D02*
X205153333Y-101747381D01*
X205581905Y-101080714D02*
X205581905Y-101604524D01*
X205534286Y-101699762D01*
X205439048Y-101747381D01*
X205296190Y-101747381D01*
X205200952Y-101699762D01*
X205153333Y-101652143D01*
X166874534Y-106841627D02*
X166939583Y-106824197D01*
X167052250Y-106724289D01*
X167099869Y-106641811D01*
X167130059Y-106494282D01*
X167095200Y-106364185D01*
X167036531Y-106275327D01*
X166895383Y-106138849D01*
X166771664Y-106067420D01*
X166582898Y-106013422D01*
X166476610Y-106007042D01*
X166346512Y-106041901D01*
X166233844Y-106141811D01*
X166186225Y-106224289D01*
X166156036Y-106371816D01*
X166173466Y-106436865D01*
X147039047Y-112647381D02*
X147610476Y-112647381D01*
X147324762Y-112647381D02*
X147324762Y-111647381D01*
X147420000Y-111790238D01*
X147515238Y-111885476D01*
X147610476Y-111933095D01*
X146420000Y-111647381D02*
X146324761Y-111647381D01*
X146229523Y-111695000D01*
X146181904Y-111742619D01*
X146134285Y-111837857D01*
X146086666Y-112028333D01*
X146086666Y-112266429D01*
X146134285Y-112456905D01*
X146181904Y-112552143D01*
X146229523Y-112599762D01*
X146324761Y-112647381D01*
X146420000Y-112647381D01*
X146515238Y-112599762D01*
X146562857Y-112552143D01*
X146610476Y-112456905D01*
X146658095Y-112266429D01*
X146658095Y-112028333D01*
X146610476Y-111837857D01*
X146562857Y-111742619D01*
X146515238Y-111695000D01*
X146420000Y-111647381D01*
X145467619Y-111647381D02*
X145372380Y-111647381D01*
X145277142Y-111695000D01*
X145229523Y-111742619D01*
X145181904Y-111837857D01*
X145134285Y-112028333D01*
X145134285Y-112266429D01*
X145181904Y-112456905D01*
X145229523Y-112552143D01*
X145277142Y-112599762D01*
X145372380Y-112647381D01*
X145467619Y-112647381D01*
X145562857Y-112599762D01*
X145610476Y-112552143D01*
X145658095Y-112456905D01*
X145705714Y-112266429D01*
X145705714Y-112028333D01*
X145658095Y-111837857D01*
X145610476Y-111742619D01*
X145562857Y-111695000D01*
X145467619Y-111647381D01*
X144277142Y-111980714D02*
X144277142Y-112647381D01*
X144705714Y-111980714D02*
X144705714Y-112504524D01*
X144658095Y-112599762D01*
X144562857Y-112647381D01*
X144419999Y-112647381D01*
X144324761Y-112599762D01*
X144277142Y-112552143D01*
X123689047Y-89497381D02*
X124260476Y-89497381D01*
X123974762Y-89497381D02*
X123974762Y-88497381D01*
X124070000Y-88640238D01*
X124165238Y-88735476D01*
X124260476Y-88783095D01*
X123070000Y-88497381D02*
X122974761Y-88497381D01*
X122879523Y-88545000D01*
X122831904Y-88592619D01*
X122784285Y-88687857D01*
X122736666Y-88878333D01*
X122736666Y-89116429D01*
X122784285Y-89306905D01*
X122831904Y-89402143D01*
X122879523Y-89449762D01*
X122974761Y-89497381D01*
X123070000Y-89497381D01*
X123165238Y-89449762D01*
X123212857Y-89402143D01*
X123260476Y-89306905D01*
X123308095Y-89116429D01*
X123308095Y-88878333D01*
X123260476Y-88687857D01*
X123212857Y-88592619D01*
X123165238Y-88545000D01*
X123070000Y-88497381D01*
X122117619Y-88497381D02*
X122022380Y-88497381D01*
X121927142Y-88545000D01*
X121879523Y-88592619D01*
X121831904Y-88687857D01*
X121784285Y-88878333D01*
X121784285Y-89116429D01*
X121831904Y-89306905D01*
X121879523Y-89402143D01*
X121927142Y-89449762D01*
X122022380Y-89497381D01*
X122117619Y-89497381D01*
X122212857Y-89449762D01*
X122260476Y-89402143D01*
X122308095Y-89306905D01*
X122355714Y-89116429D01*
X122355714Y-88878333D01*
X122308095Y-88687857D01*
X122260476Y-88592619D01*
X122212857Y-88545000D01*
X122117619Y-88497381D01*
X120927142Y-88830714D02*
X120927142Y-89497381D01*
X121355714Y-88830714D02*
X121355714Y-89354524D01*
X121308095Y-89449762D01*
X121212857Y-89497381D01*
X121069999Y-89497381D01*
X120974761Y-89449762D01*
X120927142Y-89402143D01*
X135289047Y-93547381D02*
X135860476Y-93547381D01*
X135574762Y-93547381D02*
X135574762Y-92547381D01*
X135670000Y-92690238D01*
X135765238Y-92785476D01*
X135860476Y-92833095D01*
X134670000Y-92547381D02*
X134574761Y-92547381D01*
X134479523Y-92595000D01*
X134431904Y-92642619D01*
X134384285Y-92737857D01*
X134336666Y-92928333D01*
X134336666Y-93166429D01*
X134384285Y-93356905D01*
X134431904Y-93452143D01*
X134479523Y-93499762D01*
X134574761Y-93547381D01*
X134670000Y-93547381D01*
X134765238Y-93499762D01*
X134812857Y-93452143D01*
X134860476Y-93356905D01*
X134908095Y-93166429D01*
X134908095Y-92928333D01*
X134860476Y-92737857D01*
X134812857Y-92642619D01*
X134765238Y-92595000D01*
X134670000Y-92547381D01*
X133717619Y-92547381D02*
X133622380Y-92547381D01*
X133527142Y-92595000D01*
X133479523Y-92642619D01*
X133431904Y-92737857D01*
X133384285Y-92928333D01*
X133384285Y-93166429D01*
X133431904Y-93356905D01*
X133479523Y-93452143D01*
X133527142Y-93499762D01*
X133622380Y-93547381D01*
X133717619Y-93547381D01*
X133812857Y-93499762D01*
X133860476Y-93452143D01*
X133908095Y-93356905D01*
X133955714Y-93166429D01*
X133955714Y-92928333D01*
X133908095Y-92737857D01*
X133860476Y-92642619D01*
X133812857Y-92595000D01*
X133717619Y-92547381D01*
X132955714Y-92880714D02*
X132955714Y-93547381D01*
X132955714Y-92975952D02*
X132908095Y-92928333D01*
X132812857Y-92880714D01*
X132669999Y-92880714D01*
X132574761Y-92928333D01*
X132527142Y-93023571D01*
X132527142Y-93547381D01*
X125722381Y-83525953D02*
X125722381Y-82954524D01*
X125722381Y-83240238D02*
X124722381Y-83240238D01*
X124865238Y-83145000D01*
X124960476Y-83049762D01*
X125008095Y-82954524D01*
X124722381Y-84145000D02*
X124722381Y-84240239D01*
X124770000Y-84335477D01*
X124817619Y-84383096D01*
X124912857Y-84430715D01*
X125103333Y-84478334D01*
X125341429Y-84478334D01*
X125531905Y-84430715D01*
X125627143Y-84383096D01*
X125674762Y-84335477D01*
X125722381Y-84240239D01*
X125722381Y-84145000D01*
X125674762Y-84049762D01*
X125627143Y-84002143D01*
X125531905Y-83954524D01*
X125341429Y-83906905D01*
X125103333Y-83906905D01*
X124912857Y-83954524D01*
X124817619Y-84002143D01*
X124770000Y-84049762D01*
X124722381Y-84145000D01*
X124722381Y-85097381D02*
X124722381Y-85192620D01*
X124770000Y-85287858D01*
X124817619Y-85335477D01*
X124912857Y-85383096D01*
X125103333Y-85430715D01*
X125341429Y-85430715D01*
X125531905Y-85383096D01*
X125627143Y-85335477D01*
X125674762Y-85287858D01*
X125722381Y-85192620D01*
X125722381Y-85097381D01*
X125674762Y-85002143D01*
X125627143Y-84954524D01*
X125531905Y-84906905D01*
X125341429Y-84859286D01*
X125103333Y-84859286D01*
X124912857Y-84906905D01*
X124817619Y-84954524D01*
X124770000Y-85002143D01*
X124722381Y-85097381D01*
X125055714Y-85859286D02*
X125722381Y-85859286D01*
X125150952Y-85859286D02*
X125103333Y-85906905D01*
X125055714Y-86002143D01*
X125055714Y-86145001D01*
X125103333Y-86240239D01*
X125198571Y-86287858D01*
X125722381Y-86287858D01*
X192081905Y-114299762D02*
X192081905Y-113842619D01*
X192081905Y-114071190D02*
X191281905Y-114071190D01*
X191396190Y-113995000D01*
X191472381Y-113918809D01*
X191510476Y-113842619D01*
X191281905Y-114795000D02*
X191281905Y-114871191D01*
X191320000Y-114947381D01*
X191358095Y-114985476D01*
X191434286Y-115023572D01*
X191586667Y-115061667D01*
X191777143Y-115061667D01*
X191929524Y-115023572D01*
X192005714Y-114985476D01*
X192043810Y-114947381D01*
X192081905Y-114871191D01*
X192081905Y-114795000D01*
X192043810Y-114718810D01*
X192005714Y-114680714D01*
X191929524Y-114642619D01*
X191777143Y-114604524D01*
X191586667Y-114604524D01*
X191434286Y-114642619D01*
X191358095Y-114680714D01*
X191320000Y-114718810D01*
X191281905Y-114795000D01*
X191281905Y-115556905D02*
X191281905Y-115633096D01*
X191320000Y-115709286D01*
X191358095Y-115747381D01*
X191434286Y-115785477D01*
X191586667Y-115823572D01*
X191777143Y-115823572D01*
X191929524Y-115785477D01*
X192005714Y-115747381D01*
X192043810Y-115709286D01*
X192081905Y-115633096D01*
X192081905Y-115556905D01*
X192043810Y-115480715D01*
X192005714Y-115442619D01*
X191929524Y-115404524D01*
X191777143Y-115366429D01*
X191586667Y-115366429D01*
X191434286Y-115404524D01*
X191358095Y-115442619D01*
X191320000Y-115480715D01*
X191281905Y-115556905D01*
X191548571Y-116166429D02*
X192081905Y-116166429D01*
X191624762Y-116166429D02*
X191586667Y-116204524D01*
X191548571Y-116280715D01*
X191548571Y-116395001D01*
X191586667Y-116471191D01*
X191662857Y-116509286D01*
X192081905Y-116509286D01*
X198165238Y-117756905D02*
X198622381Y-117756905D01*
X198393810Y-117756905D02*
X198393810Y-116956905D01*
X198470000Y-117071190D01*
X198546191Y-117147381D01*
X198622381Y-117185476D01*
X197670000Y-116956905D02*
X197593809Y-116956905D01*
X197517619Y-116995000D01*
X197479524Y-117033095D01*
X197441428Y-117109286D01*
X197403333Y-117261667D01*
X197403333Y-117452143D01*
X197441428Y-117604524D01*
X197479524Y-117680714D01*
X197517619Y-117718810D01*
X197593809Y-117756905D01*
X197670000Y-117756905D01*
X197746190Y-117718810D01*
X197784286Y-117680714D01*
X197822381Y-117604524D01*
X197860476Y-117452143D01*
X197860476Y-117261667D01*
X197822381Y-117109286D01*
X197784286Y-117033095D01*
X197746190Y-116995000D01*
X197670000Y-116956905D01*
X196908095Y-116956905D02*
X196831904Y-116956905D01*
X196755714Y-116995000D01*
X196717619Y-117033095D01*
X196679523Y-117109286D01*
X196641428Y-117261667D01*
X196641428Y-117452143D01*
X196679523Y-117604524D01*
X196717619Y-117680714D01*
X196755714Y-117718810D01*
X196831904Y-117756905D01*
X196908095Y-117756905D01*
X196984285Y-117718810D01*
X197022381Y-117680714D01*
X197060476Y-117604524D01*
X197098571Y-117452143D01*
X197098571Y-117261667D01*
X197060476Y-117109286D01*
X197022381Y-117033095D01*
X196984285Y-116995000D01*
X196908095Y-116956905D01*
X196298571Y-117223571D02*
X196298571Y-117756905D01*
X196298571Y-117299762D02*
X196260476Y-117261667D01*
X196184285Y-117223571D01*
X196069999Y-117223571D01*
X195993809Y-117261667D01*
X195955714Y-117337857D01*
X195955714Y-117756905D01*
X164991428Y-117097381D02*
X165467619Y-117097381D01*
X165515238Y-117573571D01*
X165467619Y-117525952D01*
X165372381Y-117478333D01*
X165134285Y-117478333D01*
X165039047Y-117525952D01*
X164991428Y-117573571D01*
X164943809Y-117668810D01*
X164943809Y-117906905D01*
X164991428Y-118002143D01*
X165039047Y-118049762D01*
X165134285Y-118097381D01*
X165372381Y-118097381D01*
X165467619Y-118049762D01*
X165515238Y-118002143D01*
X164658095Y-117097381D02*
X164324762Y-118097381D01*
X163991428Y-117097381D01*
X163229523Y-118097381D02*
X163229523Y-117097381D01*
X163229523Y-118049762D02*
X163324761Y-118097381D01*
X163515238Y-118097381D01*
X163610476Y-118049762D01*
X163658095Y-118002143D01*
X163705714Y-117906905D01*
X163705714Y-117621190D01*
X163658095Y-117525952D01*
X163610476Y-117478333D01*
X163515238Y-117430714D01*
X163324761Y-117430714D01*
X163229523Y-117478333D01*
X162324761Y-118049762D02*
X162419999Y-118097381D01*
X162610476Y-118097381D01*
X162705714Y-118049762D01*
X162753333Y-118002143D01*
X162800952Y-117906905D01*
X162800952Y-117621190D01*
X162753333Y-117525952D01*
X162705714Y-117478333D01*
X162610476Y-117430714D01*
X162419999Y-117430714D01*
X162324761Y-117478333D01*
X159274762Y-85911667D02*
X158798571Y-85911667D01*
X159370000Y-86197381D02*
X159036667Y-85197381D01*
X158703333Y-86197381D01*
X157941428Y-85530714D02*
X157941428Y-86197381D01*
X158370000Y-85530714D02*
X158370000Y-86054524D01*
X158322381Y-86149762D01*
X158227143Y-86197381D01*
X158084285Y-86197381D01*
X157989047Y-86149762D01*
X157941428Y-86102143D01*
X157036666Y-86197381D02*
X157036666Y-85197381D01*
X157036666Y-86149762D02*
X157131904Y-86197381D01*
X157322381Y-86197381D01*
X157417619Y-86149762D01*
X157465238Y-86102143D01*
X157512857Y-86006905D01*
X157512857Y-85721190D01*
X157465238Y-85625952D01*
X157417619Y-85578333D01*
X157322381Y-85530714D01*
X157131904Y-85530714D01*
X157036666Y-85578333D01*
X156560476Y-86197381D02*
X156560476Y-85530714D01*
X156560476Y-85197381D02*
X156608095Y-85245000D01*
X156560476Y-85292619D01*
X156512857Y-85245000D01*
X156560476Y-85197381D01*
X156560476Y-85292619D01*
X155941429Y-86197381D02*
X156036667Y-86149762D01*
X156084286Y-86102143D01*
X156131905Y-86006905D01*
X156131905Y-85721190D01*
X156084286Y-85625952D01*
X156036667Y-85578333D01*
X155941429Y-85530714D01*
X155798571Y-85530714D01*
X155703333Y-85578333D01*
X155655714Y-85625952D01*
X155608095Y-85721190D01*
X155608095Y-86006905D01*
X155655714Y-86102143D01*
X155703333Y-86149762D01*
X155798571Y-86197381D01*
X155941429Y-86197381D01*
X154417619Y-86197381D02*
X154417619Y-85530714D01*
X154417619Y-85197381D02*
X154465238Y-85245000D01*
X154417619Y-85292619D01*
X154370000Y-85245000D01*
X154417619Y-85197381D01*
X154417619Y-85292619D01*
X153941429Y-85530714D02*
X153941429Y-86197381D01*
X153941429Y-85625952D02*
X153893810Y-85578333D01*
X153798572Y-85530714D01*
X153655714Y-85530714D01*
X153560476Y-85578333D01*
X153512857Y-85673571D01*
X153512857Y-86197381D01*
X189622382Y-116897381D02*
X189431905Y-116897381D01*
X189336667Y-116945000D01*
X189241429Y-117040238D01*
X189193810Y-117230714D01*
X189193810Y-117564048D01*
X189241429Y-117754524D01*
X189336667Y-117849762D01*
X189431905Y-117897381D01*
X189622382Y-117897381D01*
X189717620Y-117849762D01*
X189812858Y-117754524D01*
X189860477Y-117564048D01*
X189860477Y-117230714D01*
X189812858Y-117040238D01*
X189717620Y-116945000D01*
X189622382Y-116897381D01*
X188336667Y-117230714D02*
X188336667Y-117897381D01*
X188765239Y-117230714D02*
X188765239Y-117754524D01*
X188717620Y-117849762D01*
X188622382Y-117897381D01*
X188479524Y-117897381D01*
X188384286Y-117849762D01*
X188336667Y-117802143D01*
X188003334Y-117230714D02*
X187622382Y-117230714D01*
X187860477Y-116897381D02*
X187860477Y-117754524D01*
X187812858Y-117849762D01*
X187717620Y-117897381D01*
X187622382Y-117897381D01*
X187289048Y-117230714D02*
X187289048Y-118230714D01*
X187289048Y-117278333D02*
X187193810Y-117230714D01*
X187003333Y-117230714D01*
X186908095Y-117278333D01*
X186860476Y-117325952D01*
X186812857Y-117421190D01*
X186812857Y-117706905D01*
X186860476Y-117802143D01*
X186908095Y-117849762D01*
X187003333Y-117897381D01*
X187193810Y-117897381D01*
X187289048Y-117849762D01*
X185955714Y-117230714D02*
X185955714Y-117897381D01*
X186384286Y-117230714D02*
X186384286Y-117754524D01*
X186336667Y-117849762D01*
X186241429Y-117897381D01*
X186098571Y-117897381D01*
X186003333Y-117849762D01*
X185955714Y-117802143D01*
X185622381Y-117230714D02*
X185241429Y-117230714D01*
X185479524Y-116897381D02*
X185479524Y-117754524D01*
X185431905Y-117849762D01*
X185336667Y-117897381D01*
X185241429Y-117897381D01*
X183955714Y-116897381D02*
X183765237Y-116897381D01*
X183669999Y-116945000D01*
X183574761Y-117040238D01*
X183527142Y-117230714D01*
X183527142Y-117564048D01*
X183574761Y-117754524D01*
X183669999Y-117849762D01*
X183765237Y-117897381D01*
X183955714Y-117897381D01*
X184050952Y-117849762D01*
X184146190Y-117754524D01*
X184193809Y-117564048D01*
X184193809Y-117230714D01*
X184146190Y-117040238D01*
X184050952Y-116945000D01*
X183955714Y-116897381D01*
X183098571Y-117897381D02*
X183098571Y-116897381D01*
X182527142Y-117897381D01*
X182527142Y-116897381D01*
X185022381Y-84099761D02*
X184022381Y-84099761D01*
X184022381Y-84480714D01*
X184070000Y-84575952D01*
X184117619Y-84623571D01*
X184212857Y-84671190D01*
X184355714Y-84671190D01*
X184450952Y-84623571D01*
X184498571Y-84575952D01*
X184546190Y-84480714D01*
X184546190Y-84099761D01*
X185022381Y-85099761D02*
X184355714Y-85099761D01*
X184546190Y-85099761D02*
X184450952Y-85147380D01*
X184403333Y-85194999D01*
X184355714Y-85290237D01*
X184355714Y-85385476D01*
X185022381Y-85861666D02*
X184974762Y-85766428D01*
X184927143Y-85718809D01*
X184831905Y-85671190D01*
X184546190Y-85671190D01*
X184450952Y-85718809D01*
X184403333Y-85766428D01*
X184355714Y-85861666D01*
X184355714Y-86004524D01*
X184403333Y-86099762D01*
X184450952Y-86147381D01*
X184546190Y-86195000D01*
X184831905Y-86195000D01*
X184927143Y-86147381D01*
X184974762Y-86099762D01*
X185022381Y-86004524D01*
X185022381Y-85861666D01*
X184355714Y-86480714D02*
X184355714Y-86861666D01*
X184022381Y-86623571D02*
X184879524Y-86623571D01*
X184974762Y-86671190D01*
X185022381Y-86766428D01*
X185022381Y-86861666D01*
X184974762Y-87575953D02*
X185022381Y-87480715D01*
X185022381Y-87290238D01*
X184974762Y-87195000D01*
X184879524Y-87147381D01*
X184498571Y-87147381D01*
X184403333Y-87195000D01*
X184355714Y-87290238D01*
X184355714Y-87480715D01*
X184403333Y-87575953D01*
X184498571Y-87623572D01*
X184593810Y-87623572D01*
X184689048Y-87147381D01*
X184974762Y-88480715D02*
X185022381Y-88385477D01*
X185022381Y-88195000D01*
X184974762Y-88099762D01*
X184927143Y-88052143D01*
X184831905Y-88004524D01*
X184546190Y-88004524D01*
X184450952Y-88052143D01*
X184403333Y-88099762D01*
X184355714Y-88195000D01*
X184355714Y-88385477D01*
X184403333Y-88480715D01*
X184355714Y-88766429D02*
X184355714Y-89147381D01*
X184022381Y-88909286D02*
X184879524Y-88909286D01*
X184974762Y-88956905D01*
X185022381Y-89052143D01*
X185022381Y-89147381D01*
X185022381Y-89480715D02*
X184355714Y-89480715D01*
X184022381Y-89480715D02*
X184070000Y-89433096D01*
X184117619Y-89480715D01*
X184070000Y-89528334D01*
X184022381Y-89480715D01*
X184117619Y-89480715D01*
X185022381Y-90099762D02*
X184974762Y-90004524D01*
X184927143Y-89956905D01*
X184831905Y-89909286D01*
X184546190Y-89909286D01*
X184450952Y-89956905D01*
X184403333Y-90004524D01*
X184355714Y-90099762D01*
X184355714Y-90242620D01*
X184403333Y-90337858D01*
X184450952Y-90385477D01*
X184546190Y-90433096D01*
X184831905Y-90433096D01*
X184927143Y-90385477D01*
X184974762Y-90337858D01*
X185022381Y-90242620D01*
X185022381Y-90099762D01*
X184355714Y-90861667D02*
X185022381Y-90861667D01*
X184450952Y-90861667D02*
X184403333Y-90909286D01*
X184355714Y-91004524D01*
X184355714Y-91147382D01*
X184403333Y-91242620D01*
X184498571Y-91290239D01*
X185022381Y-91290239D01*
X150486667Y-96616429D02*
X149724762Y-96616429D01*
X149391429Y-95997381D02*
X149058096Y-96997381D01*
X148724762Y-95997381D01*
X147962857Y-96949762D02*
X148058095Y-96997381D01*
X148248572Y-96997381D01*
X148343810Y-96949762D01*
X148391429Y-96902143D01*
X148439048Y-96806905D01*
X148439048Y-96521190D01*
X148391429Y-96425952D01*
X148343810Y-96378333D01*
X148248572Y-96330714D01*
X148058095Y-96330714D01*
X147962857Y-96378333D01*
X147105714Y-96949762D02*
X147200952Y-96997381D01*
X147391429Y-96997381D01*
X147486667Y-96949762D01*
X147534286Y-96902143D01*
X147581905Y-96806905D01*
X147581905Y-96521190D01*
X147534286Y-96425952D01*
X147486667Y-96378333D01*
X147391429Y-96330714D01*
X147200952Y-96330714D01*
X147105714Y-96378333D01*
X124486667Y-105016429D02*
X123724762Y-105016429D01*
X124105714Y-105397381D02*
X124105714Y-104635476D01*
X123391429Y-104397381D02*
X123058096Y-105397381D01*
X122724762Y-104397381D01*
X121962857Y-105349762D02*
X122058095Y-105397381D01*
X122248572Y-105397381D01*
X122343810Y-105349762D01*
X122391429Y-105302143D01*
X122439048Y-105206905D01*
X122439048Y-104921190D01*
X122391429Y-104825952D01*
X122343810Y-104778333D01*
X122248572Y-104730714D01*
X122058095Y-104730714D01*
X121962857Y-104778333D01*
X121105714Y-105349762D02*
X121200952Y-105397381D01*
X121391429Y-105397381D01*
X121486667Y-105349762D01*
X121534286Y-105302143D01*
X121581905Y-105206905D01*
X121581905Y-104921190D01*
X121534286Y-104825952D01*
X121486667Y-104778333D01*
X121391429Y-104730714D01*
X121200952Y-104730714D01*
X121105714Y-104778333D01*
X143127144Y-74947381D02*
X142936667Y-74947381D01*
X142841429Y-74995000D01*
X142746191Y-75090238D01*
X142698572Y-75280714D01*
X142698572Y-75614048D01*
X142746191Y-75804524D01*
X142841429Y-75899762D01*
X142936667Y-75947381D01*
X143127144Y-75947381D01*
X143222382Y-75899762D01*
X143317620Y-75804524D01*
X143365239Y-75614048D01*
X143365239Y-75280714D01*
X143317620Y-75090238D01*
X143222382Y-74995000D01*
X143127144Y-74947381D01*
X141841429Y-75280714D02*
X141841429Y-75947381D01*
X142270001Y-75280714D02*
X142270001Y-75804524D01*
X142222382Y-75899762D01*
X142127144Y-75947381D01*
X141984286Y-75947381D01*
X141889048Y-75899762D01*
X141841429Y-75852143D01*
X141508096Y-75280714D02*
X141127144Y-75280714D01*
X141365239Y-74947381D02*
X141365239Y-75804524D01*
X141317620Y-75899762D01*
X141222382Y-75947381D01*
X141127144Y-75947381D01*
X141031905Y-76042619D02*
X140270000Y-76042619D01*
X140079524Y-75661667D02*
X139603333Y-75661667D01*
X140174762Y-75947381D02*
X139841429Y-74947381D01*
X139508095Y-75947381D01*
X138889047Y-76328333D02*
X138936667Y-76280714D01*
X139031905Y-76137857D01*
X139079524Y-76042619D01*
X139127143Y-75899762D01*
X139174762Y-75661667D01*
X139174762Y-75471190D01*
X139127143Y-75233095D01*
X139079524Y-75090238D01*
X139031905Y-74995000D01*
X138936667Y-74852143D01*
X138889047Y-74804524D01*
X138555714Y-75661667D02*
X138079523Y-75661667D01*
X138650952Y-75947381D02*
X138317619Y-74947381D01*
X137984285Y-75947381D01*
X137746190Y-76328333D02*
X137698571Y-76280714D01*
X137603333Y-76137857D01*
X137555714Y-76042619D01*
X137508095Y-75899762D01*
X137460476Y-75661667D01*
X137460476Y-75471190D01*
X137508095Y-75233095D01*
X137555714Y-75090238D01*
X137603333Y-74995000D01*
X137698571Y-74852143D01*
X137746190Y-74804524D01*
X136269999Y-74899762D02*
X137127142Y-76185476D01*
X135936666Y-75947381D02*
X135936666Y-74947381D01*
X135698571Y-74947381D01*
X135555713Y-74995000D01*
X135460475Y-75090238D01*
X135412856Y-75185476D01*
X135365237Y-75375952D01*
X135365237Y-75518810D01*
X135412856Y-75709286D01*
X135460475Y-75804524D01*
X135555713Y-75899762D01*
X135698571Y-75947381D01*
X135936666Y-75947381D01*
X134936666Y-75947381D02*
X134936666Y-75280714D01*
X134936666Y-74947381D02*
X134984285Y-74995000D01*
X134936666Y-75042619D01*
X134889047Y-74995000D01*
X134936666Y-74947381D01*
X134936666Y-75042619D01*
X134460476Y-75947381D02*
X134460476Y-75280714D01*
X134460476Y-75471190D02*
X134412857Y-75375952D01*
X134365238Y-75328333D01*
X134270000Y-75280714D01*
X134174761Y-75280714D01*
X134079523Y-76042619D02*
X133317618Y-76042619D01*
X132746189Y-75423571D02*
X132603332Y-75471190D01*
X132555713Y-75518810D01*
X132508094Y-75614048D01*
X132508094Y-75756905D01*
X132555713Y-75852143D01*
X132603332Y-75899762D01*
X132698570Y-75947381D01*
X133079523Y-75947381D01*
X133079523Y-74947381D01*
X132746189Y-74947381D01*
X132650951Y-74995000D01*
X132603332Y-75042619D01*
X132555713Y-75137857D01*
X132555713Y-75233095D01*
X132603332Y-75328333D01*
X132650951Y-75375952D01*
X132746189Y-75423571D01*
X133079523Y-75423571D01*
X131793808Y-76328333D02*
X131841428Y-76280714D01*
X131936666Y-76137857D01*
X131984285Y-76042619D01*
X132031904Y-75899762D01*
X132079523Y-75661667D01*
X132079523Y-75471190D01*
X132031904Y-75233095D01*
X131984285Y-75090238D01*
X131936666Y-74995000D01*
X131841428Y-74852143D01*
X131793808Y-74804524D01*
X131079522Y-75423571D02*
X130936665Y-75471190D01*
X130889046Y-75518810D01*
X130841427Y-75614048D01*
X130841427Y-75756905D01*
X130889046Y-75852143D01*
X130936665Y-75899762D01*
X131031903Y-75947381D01*
X131412856Y-75947381D01*
X131412856Y-74947381D01*
X131079522Y-74947381D01*
X130984284Y-74995000D01*
X130936665Y-75042619D01*
X130889046Y-75137857D01*
X130889046Y-75233095D01*
X130936665Y-75328333D01*
X130984284Y-75375952D01*
X131079522Y-75423571D01*
X131412856Y-75423571D01*
X130508094Y-76328333D02*
X130460475Y-76280714D01*
X130365237Y-76137857D01*
X130317618Y-76042619D01*
X130269999Y-75899762D01*
X130222380Y-75661667D01*
X130222380Y-75471190D01*
X130269999Y-75233095D01*
X130317618Y-75090238D01*
X130365237Y-74995000D01*
X130460475Y-74852143D01*
X130508094Y-74804524D01*
X213722381Y-108159286D02*
X212722381Y-108159286D01*
X212722381Y-108397381D01*
X212770000Y-108540239D01*
X212865238Y-108635477D01*
X212960476Y-108683096D01*
X213150952Y-108730715D01*
X213293810Y-108730715D01*
X213484286Y-108683096D01*
X213579524Y-108635477D01*
X213674762Y-108540239D01*
X213722381Y-108397381D01*
X213722381Y-108159286D01*
X213722381Y-109159286D02*
X213055714Y-109159286D01*
X212722381Y-109159286D02*
X212770000Y-109111667D01*
X212817619Y-109159286D01*
X212770000Y-109206905D01*
X212722381Y-109159286D01*
X212817619Y-109159286D01*
X213722381Y-109635476D02*
X213055714Y-109635476D01*
X213246190Y-109635476D02*
X213150952Y-109683095D01*
X213103333Y-109730714D01*
X213055714Y-109825952D01*
X213055714Y-109921191D01*
X213817619Y-110016429D02*
X213817619Y-110778334D01*
X213198571Y-111349763D02*
X213246190Y-111492620D01*
X213293810Y-111540239D01*
X213389048Y-111587858D01*
X213531905Y-111587858D01*
X213627143Y-111540239D01*
X213674762Y-111492620D01*
X213722381Y-111397382D01*
X213722381Y-111016429D01*
X212722381Y-111016429D01*
X212722381Y-111349763D01*
X212770000Y-111445001D01*
X212817619Y-111492620D01*
X212912857Y-111540239D01*
X213008095Y-111540239D01*
X213103333Y-111492620D01*
X213150952Y-111445001D01*
X213198571Y-111349763D01*
X213198571Y-111016429D01*
X212674762Y-112730715D02*
X213960476Y-111873572D01*
X213198571Y-113397382D02*
X213246190Y-113540239D01*
X213293810Y-113587858D01*
X213389048Y-113635477D01*
X213531905Y-113635477D01*
X213627143Y-113587858D01*
X213674762Y-113540239D01*
X213722381Y-113445001D01*
X213722381Y-113064048D01*
X212722381Y-113064048D01*
X212722381Y-113397382D01*
X212770000Y-113492620D01*
X212817619Y-113540239D01*
X212912857Y-113587858D01*
X213008095Y-113587858D01*
X213103333Y-113540239D01*
X213150952Y-113492620D01*
X213198571Y-113397382D01*
X213198571Y-113064048D01*
X213817619Y-113825953D02*
X213817619Y-114587858D01*
X213722381Y-114825953D02*
X213055714Y-114825953D01*
X212722381Y-114825953D02*
X212770000Y-114778334D01*
X212817619Y-114825953D01*
X212770000Y-114873572D01*
X212722381Y-114825953D01*
X212817619Y-114825953D01*
X213055714Y-115302143D02*
X213722381Y-115302143D01*
X213150952Y-115302143D02*
X213103333Y-115349762D01*
X213055714Y-115445000D01*
X213055714Y-115587858D01*
X213103333Y-115683096D01*
X213198571Y-115730715D01*
X213722381Y-115730715D01*
X213568572Y-78223571D02*
X213425715Y-78271190D01*
X213378096Y-78318810D01*
X213330477Y-78414048D01*
X213330477Y-78556905D01*
X213378096Y-78652143D01*
X213425715Y-78699762D01*
X213520953Y-78747381D01*
X213901906Y-78747381D01*
X213901906Y-77747381D01*
X213568572Y-77747381D01*
X213473334Y-77795000D01*
X213425715Y-77842619D01*
X213378096Y-77937857D01*
X213378096Y-78033095D01*
X213425715Y-78128333D01*
X213473334Y-78175952D01*
X213568572Y-78223571D01*
X213901906Y-78223571D01*
X213140001Y-78842619D02*
X212378096Y-78842619D01*
X212140001Y-78747381D02*
X212140001Y-78080714D01*
X212140001Y-77747381D02*
X212187620Y-77795000D01*
X212140001Y-77842619D01*
X212092382Y-77795000D01*
X212140001Y-77747381D01*
X212140001Y-77842619D01*
X211663811Y-78080714D02*
X211663811Y-78747381D01*
X211663811Y-78175952D02*
X211616192Y-78128333D01*
X211520954Y-78080714D01*
X211378096Y-78080714D01*
X211282858Y-78128333D01*
X211235239Y-78223571D01*
X211235239Y-78747381D01*
X210473334Y-79128333D02*
X210520954Y-79080714D01*
X210616192Y-78937857D01*
X210663811Y-78842619D01*
X210711430Y-78699762D01*
X210759049Y-78461667D01*
X210759049Y-78271190D01*
X210711430Y-78033095D01*
X210663811Y-77890238D01*
X210616192Y-77795000D01*
X210520954Y-77652143D01*
X210473334Y-77604524D01*
X210140001Y-78461667D02*
X209663810Y-78461667D01*
X210235239Y-78747381D02*
X209901906Y-77747381D01*
X209568572Y-78747381D01*
X209330477Y-79128333D02*
X209282858Y-79080714D01*
X209187620Y-78937857D01*
X209140001Y-78842619D01*
X209092382Y-78699762D01*
X209044763Y-78461667D01*
X209044763Y-78271190D01*
X209092382Y-78033095D01*
X209140001Y-77890238D01*
X209187620Y-77795000D01*
X209282858Y-77652143D01*
X209330477Y-77604524D01*
X207854286Y-77699762D02*
X208711429Y-78985476D01*
X207330477Y-77747381D02*
X207140000Y-77747381D01*
X207044762Y-77795000D01*
X206949524Y-77890238D01*
X206901905Y-78080714D01*
X206901905Y-78414048D01*
X206949524Y-78604524D01*
X207044762Y-78699762D01*
X207140000Y-78747381D01*
X207330477Y-78747381D01*
X207425715Y-78699762D01*
X207520953Y-78604524D01*
X207568572Y-78414048D01*
X207568572Y-78080714D01*
X207520953Y-77890238D01*
X207425715Y-77795000D01*
X207330477Y-77747381D01*
X206044762Y-78080714D02*
X206044762Y-78747381D01*
X206473334Y-78080714D02*
X206473334Y-78604524D01*
X206425715Y-78699762D01*
X206330477Y-78747381D01*
X206187619Y-78747381D01*
X206092381Y-78699762D01*
X206044762Y-78652143D01*
X205711429Y-78080714D02*
X205330477Y-78080714D01*
X205568572Y-77747381D02*
X205568572Y-78604524D01*
X205520953Y-78699762D01*
X205425715Y-78747381D01*
X205330477Y-78747381D01*
X205235238Y-78842619D02*
X204473333Y-78842619D01*
X203901904Y-78223571D02*
X203759047Y-78271190D01*
X203711428Y-78318810D01*
X203663809Y-78414048D01*
X203663809Y-78556905D01*
X203711428Y-78652143D01*
X203759047Y-78699762D01*
X203854285Y-78747381D01*
X204235238Y-78747381D01*
X204235238Y-77747381D01*
X203901904Y-77747381D01*
X203806666Y-77795000D01*
X203759047Y-77842619D01*
X203711428Y-77937857D01*
X203711428Y-78033095D01*
X203759047Y-78128333D01*
X203806666Y-78175952D01*
X203901904Y-78223571D01*
X204235238Y-78223571D01*
X202949523Y-79128333D02*
X202997143Y-79080714D01*
X203092381Y-78937857D01*
X203140000Y-78842619D01*
X203187619Y-78699762D01*
X203235238Y-78461667D01*
X203235238Y-78271190D01*
X203187619Y-78033095D01*
X203140000Y-77890238D01*
X203092381Y-77795000D01*
X202997143Y-77652143D01*
X202949523Y-77604524D01*
X202235237Y-78223571D02*
X202092380Y-78271190D01*
X202044761Y-78318810D01*
X201997142Y-78414048D01*
X201997142Y-78556905D01*
X202044761Y-78652143D01*
X202092380Y-78699762D01*
X202187618Y-78747381D01*
X202568571Y-78747381D01*
X202568571Y-77747381D01*
X202235237Y-77747381D01*
X202139999Y-77795000D01*
X202092380Y-77842619D01*
X202044761Y-77937857D01*
X202044761Y-78033095D01*
X202092380Y-78128333D01*
X202139999Y-78175952D01*
X202235237Y-78223571D01*
X202568571Y-78223571D01*
X201663809Y-79128333D02*
X201616190Y-79080714D01*
X201520952Y-78937857D01*
X201473333Y-78842619D01*
X201425714Y-78699762D01*
X201378095Y-78461667D01*
X201378095Y-78271190D01*
X201425714Y-78033095D01*
X201473333Y-77890238D01*
X201520952Y-77795000D01*
X201616190Y-77652143D01*
X201663809Y-77604524D01*
X179308095Y-111042619D02*
X179260476Y-110995000D01*
X179165238Y-110947381D01*
X178927142Y-110947381D01*
X178831904Y-110995000D01*
X178784285Y-111042619D01*
X178736666Y-111137857D01*
X178736666Y-111233095D01*
X178784285Y-111375952D01*
X179355714Y-111947381D01*
X178736666Y-111947381D01*
X178355714Y-111042619D02*
X178308095Y-110995000D01*
X178212857Y-110947381D01*
X177974761Y-110947381D01*
X177879523Y-110995000D01*
X177831904Y-111042619D01*
X177784285Y-111137857D01*
X177784285Y-111233095D01*
X177831904Y-111375952D01*
X178403333Y-111947381D01*
X177784285Y-111947381D01*
X177165238Y-110947381D02*
X177069999Y-110947381D01*
X176974761Y-110995000D01*
X176927142Y-111042619D01*
X176879523Y-111137857D01*
X176831904Y-111328333D01*
X176831904Y-111566429D01*
X176879523Y-111756905D01*
X176927142Y-111852143D01*
X176974761Y-111899762D01*
X177069999Y-111947381D01*
X177165238Y-111947381D01*
X177260476Y-111899762D01*
X177308095Y-111852143D01*
X177355714Y-111756905D01*
X177403333Y-111566429D01*
X177403333Y-111328333D01*
X177355714Y-111137857D01*
X177308095Y-111042619D01*
X177260476Y-110995000D01*
X177165238Y-110947381D01*
X175831904Y-111947381D02*
X176165238Y-111471190D01*
X176403333Y-111947381D02*
X176403333Y-110947381D01*
X176022380Y-110947381D01*
X175927142Y-110995000D01*
X175879523Y-111042619D01*
X175831904Y-111137857D01*
X175831904Y-111280714D01*
X175879523Y-111375952D01*
X175927142Y-111423571D01*
X176022380Y-111471190D01*
X176403333Y-111471190D01*
X150472381Y-83854524D02*
X150472381Y-83283095D01*
X150472381Y-83568809D02*
X149472381Y-83568809D01*
X149615238Y-83473571D01*
X149710476Y-83378333D01*
X149758095Y-83283095D01*
X149472381Y-84473571D02*
X149472381Y-84568810D01*
X149520000Y-84664048D01*
X149567619Y-84711667D01*
X149662857Y-84759286D01*
X149853333Y-84806905D01*
X150091429Y-84806905D01*
X150281905Y-84759286D01*
X150377143Y-84711667D01*
X150424762Y-84664048D01*
X150472381Y-84568810D01*
X150472381Y-84473571D01*
X150424762Y-84378333D01*
X150377143Y-84330714D01*
X150281905Y-84283095D01*
X150091429Y-84235476D01*
X149853333Y-84235476D01*
X149662857Y-84283095D01*
X149567619Y-84330714D01*
X149520000Y-84378333D01*
X149472381Y-84473571D01*
X150472381Y-85235476D02*
X149472381Y-85235476D01*
X150472381Y-85806905D02*
X149900952Y-85378333D01*
X149472381Y-85806905D02*
X150043810Y-85235476D01*
X143272381Y-83804524D02*
X143272381Y-83233095D01*
X143272381Y-83518809D02*
X142272381Y-83518809D01*
X142415238Y-83423571D01*
X142510476Y-83328333D01*
X142558095Y-83233095D01*
X142272381Y-84423571D02*
X142272381Y-84518810D01*
X142320000Y-84614048D01*
X142367619Y-84661667D01*
X142462857Y-84709286D01*
X142653333Y-84756905D01*
X142891429Y-84756905D01*
X143081905Y-84709286D01*
X143177143Y-84661667D01*
X143224762Y-84614048D01*
X143272381Y-84518810D01*
X143272381Y-84423571D01*
X143224762Y-84328333D01*
X143177143Y-84280714D01*
X143081905Y-84233095D01*
X142891429Y-84185476D01*
X142653333Y-84185476D01*
X142462857Y-84233095D01*
X142367619Y-84280714D01*
X142320000Y-84328333D01*
X142272381Y-84423571D01*
X143272381Y-85185476D02*
X142272381Y-85185476D01*
X143272381Y-85756905D02*
X142700952Y-85328333D01*
X142272381Y-85756905D02*
X142843810Y-85185476D01*
X191350952Y-102347381D02*
X191303333Y-102252143D01*
X191255714Y-102204524D01*
X191160476Y-102156905D01*
X191112857Y-102156905D01*
X191017619Y-102204524D01*
X190970000Y-102252143D01*
X190922381Y-102347381D01*
X190922381Y-102537858D01*
X190970000Y-102633096D01*
X191017619Y-102680715D01*
X191112857Y-102728334D01*
X191160476Y-102728334D01*
X191255714Y-102680715D01*
X191303333Y-102633096D01*
X191350952Y-102537858D01*
X191350952Y-102347381D01*
X191398571Y-102252143D01*
X191446190Y-102204524D01*
X191541429Y-102156905D01*
X191731905Y-102156905D01*
X191827143Y-102204524D01*
X191874762Y-102252143D01*
X191922381Y-102347381D01*
X191922381Y-102537858D01*
X191874762Y-102633096D01*
X191827143Y-102680715D01*
X191731905Y-102728334D01*
X191541429Y-102728334D01*
X191446190Y-102680715D01*
X191398571Y-102633096D01*
X191350952Y-102537858D01*
X191017619Y-103109286D02*
X190970000Y-103156905D01*
X190922381Y-103252143D01*
X190922381Y-103490239D01*
X190970000Y-103585477D01*
X191017619Y-103633096D01*
X191112857Y-103680715D01*
X191208095Y-103680715D01*
X191350952Y-103633096D01*
X191922381Y-103061667D01*
X191922381Y-103680715D01*
X191922381Y-104680715D02*
X191446190Y-104347381D01*
X191922381Y-104109286D02*
X190922381Y-104109286D01*
X190922381Y-104490239D01*
X190970000Y-104585477D01*
X191017619Y-104633096D01*
X191112857Y-104680715D01*
X191255714Y-104680715D01*
X191350952Y-104633096D01*
X191398571Y-104585477D01*
X191446190Y-104490239D01*
X191446190Y-104109286D01*
X190922381Y-105585477D02*
X190922381Y-105109286D01*
X191398571Y-105061667D01*
X191350952Y-105109286D01*
X191303333Y-105204524D01*
X191303333Y-105442620D01*
X191350952Y-105537858D01*
X191398571Y-105585477D01*
X191493810Y-105633096D01*
X191731905Y-105633096D01*
X191827143Y-105585477D01*
X191874762Y-105537858D01*
X191922381Y-105442620D01*
X191922381Y-105204524D01*
X191874762Y-105109286D01*
X191827143Y-105061667D01*
X146260476Y-92947381D02*
X146831905Y-92947381D01*
X146546191Y-92947381D02*
X146546191Y-91947381D01*
X146641429Y-92090238D01*
X146736667Y-92185476D01*
X146831905Y-92233095D01*
X145641429Y-91947381D02*
X145546190Y-91947381D01*
X145450952Y-91995000D01*
X145403333Y-92042619D01*
X145355714Y-92137857D01*
X145308095Y-92328333D01*
X145308095Y-92566429D01*
X145355714Y-92756905D01*
X145403333Y-92852143D01*
X145450952Y-92899762D01*
X145546190Y-92947381D01*
X145641429Y-92947381D01*
X145736667Y-92899762D01*
X145784286Y-92852143D01*
X145831905Y-92756905D01*
X145879524Y-92566429D01*
X145879524Y-92328333D01*
X145831905Y-92137857D01*
X145784286Y-92042619D01*
X145736667Y-91995000D01*
X145641429Y-91947381D01*
X144879524Y-92947381D02*
X144879524Y-91947381D01*
X144308095Y-92947381D02*
X144736667Y-92375952D01*
X144308095Y-91947381D02*
X144879524Y-92518810D01*
X147022381Y-83804524D02*
X147022381Y-83233095D01*
X147022381Y-83518809D02*
X146022381Y-83518809D01*
X146165238Y-83423571D01*
X146260476Y-83328333D01*
X146308095Y-83233095D01*
X146022381Y-84423571D02*
X146022381Y-84518810D01*
X146070000Y-84614048D01*
X146117619Y-84661667D01*
X146212857Y-84709286D01*
X146403333Y-84756905D01*
X146641429Y-84756905D01*
X146831905Y-84709286D01*
X146927143Y-84661667D01*
X146974762Y-84614048D01*
X147022381Y-84518810D01*
X147022381Y-84423571D01*
X146974762Y-84328333D01*
X146927143Y-84280714D01*
X146831905Y-84233095D01*
X146641429Y-84185476D01*
X146403333Y-84185476D01*
X146212857Y-84233095D01*
X146117619Y-84280714D01*
X146070000Y-84328333D01*
X146022381Y-84423571D01*
X147022381Y-85185476D02*
X146022381Y-85185476D01*
X147022381Y-85756905D02*
X146450952Y-85328333D01*
X146022381Y-85756905D02*
X146593810Y-85185476D01*
X186719558Y-99496940D02*
X186671938Y-99579419D01*
X186665558Y-99685707D01*
X186682988Y-99750756D01*
X186741657Y-99839614D01*
X186882805Y-99976091D01*
X187089002Y-100095139D01*
X187277768Y-100149138D01*
X187384056Y-100155518D01*
X187449105Y-100138088D01*
X187537963Y-100079419D01*
X187585583Y-99996940D01*
X187591963Y-99890652D01*
X187574533Y-99825603D01*
X187515864Y-99736744D01*
X187374716Y-99600267D01*
X187168519Y-99481219D01*
X186979753Y-99427220D01*
X186873465Y-99420841D01*
X186808416Y-99438271D01*
X186719558Y-99496940D01*
X186918916Y-101151641D02*
X186673189Y-100624869D01*
X187204630Y-100656769D02*
X186338605Y-100156769D01*
X186148129Y-100486684D01*
X186141749Y-100592972D01*
X186159179Y-100658020D01*
X186217848Y-100746879D01*
X186341565Y-100818307D01*
X186447853Y-100824687D01*
X186512902Y-100807257D01*
X186601760Y-100748588D01*
X186792237Y-100418673D01*
X182660476Y-79547381D02*
X183231905Y-79547381D01*
X182946191Y-79547381D02*
X182946191Y-78547381D01*
X183041429Y-78690238D01*
X183136667Y-78785476D01*
X183231905Y-78833095D01*
X182231905Y-79547381D02*
X182231905Y-78547381D01*
X181660476Y-79547381D02*
X182089048Y-78975952D01*
X181660476Y-78547381D02*
X182231905Y-79118810D01*
X180708095Y-79547381D02*
X181279524Y-79547381D01*
X180993810Y-79547381D02*
X180993810Y-78547381D01*
X181089048Y-78690238D01*
X181184286Y-78785476D01*
X181279524Y-78833095D01*
X183131905Y-81992619D02*
X183084286Y-81945000D01*
X182989048Y-81897381D01*
X182750952Y-81897381D01*
X182655714Y-81945000D01*
X182608095Y-81992619D01*
X182560476Y-82087857D01*
X182560476Y-82183095D01*
X182608095Y-82325952D01*
X183179524Y-82897381D01*
X182560476Y-82897381D01*
X182131905Y-82897381D02*
X182131905Y-81897381D01*
X181560476Y-82897381D02*
X181989048Y-82325952D01*
X181560476Y-81897381D02*
X182131905Y-82468810D01*
X181179524Y-81992619D02*
X181131905Y-81945000D01*
X181036667Y-81897381D01*
X180798571Y-81897381D01*
X180703333Y-81945000D01*
X180655714Y-81992619D01*
X180608095Y-82087857D01*
X180608095Y-82183095D01*
X180655714Y-82325952D01*
X181227143Y-82897381D01*
X180608095Y-82897381D01*
X171257011Y-107239247D02*
X171011285Y-106712476D01*
X171542726Y-106744375D02*
X170676701Y-106244375D01*
X170486224Y-106574290D01*
X170479844Y-106680578D01*
X170497274Y-106745627D01*
X170555943Y-106834485D01*
X170679661Y-106905914D01*
X170785949Y-106912293D01*
X170850998Y-106894864D01*
X170939856Y-106836195D01*
X171130332Y-106506280D01*
X200722381Y-86185476D02*
X200722381Y-86804524D01*
X201103333Y-86471190D01*
X201103333Y-86614048D01*
X201150952Y-86709286D01*
X201198571Y-86756905D01*
X201293810Y-86804524D01*
X201531905Y-86804524D01*
X201627143Y-86756905D01*
X201674762Y-86709286D01*
X201722381Y-86614048D01*
X201722381Y-86328333D01*
X201674762Y-86233095D01*
X201627143Y-86185476D01*
X201722381Y-87233095D02*
X200722381Y-87233095D01*
X201722381Y-87804524D02*
X201150952Y-87375952D01*
X200722381Y-87804524D02*
X201293810Y-87233095D01*
X200722381Y-88137857D02*
X200722381Y-88756905D01*
X201103333Y-88423571D01*
X201103333Y-88566429D01*
X201150952Y-88661667D01*
X201198571Y-88709286D01*
X201293810Y-88756905D01*
X201531905Y-88756905D01*
X201627143Y-88709286D01*
X201674762Y-88661667D01*
X201722381Y-88566429D01*
X201722381Y-88280714D01*
X201674762Y-88185476D01*
X201627143Y-88137857D01*
X194872381Y-86509286D02*
X194872381Y-86318809D01*
X194920000Y-86223571D01*
X194967619Y-86175952D01*
X195110476Y-86080714D01*
X195300952Y-86033095D01*
X195681905Y-86033095D01*
X195777143Y-86080714D01*
X195824762Y-86128333D01*
X195872381Y-86223571D01*
X195872381Y-86414048D01*
X195824762Y-86509286D01*
X195777143Y-86556905D01*
X195681905Y-86604524D01*
X195443810Y-86604524D01*
X195348571Y-86556905D01*
X195300952Y-86509286D01*
X195253333Y-86414048D01*
X195253333Y-86223571D01*
X195300952Y-86128333D01*
X195348571Y-86080714D01*
X195443810Y-86033095D01*
X195872381Y-87033095D02*
X194872381Y-87033095D01*
X195872381Y-87604524D02*
X195300952Y-87175952D01*
X194872381Y-87604524D02*
X195443810Y-87033095D01*
X195300952Y-88175952D02*
X195253333Y-88080714D01*
X195205714Y-88033095D01*
X195110476Y-87985476D01*
X195062857Y-87985476D01*
X194967619Y-88033095D01*
X194920000Y-88080714D01*
X194872381Y-88175952D01*
X194872381Y-88366429D01*
X194920000Y-88461667D01*
X194967619Y-88509286D01*
X195062857Y-88556905D01*
X195110476Y-88556905D01*
X195205714Y-88509286D01*
X195253333Y-88461667D01*
X195300952Y-88366429D01*
X195300952Y-88175952D01*
X195348571Y-88080714D01*
X195396190Y-88033095D01*
X195491429Y-87985476D01*
X195681905Y-87985476D01*
X195777143Y-88033095D01*
X195824762Y-88080714D01*
X195872381Y-88175952D01*
X195872381Y-88366429D01*
X195824762Y-88461667D01*
X195777143Y-88509286D01*
X195681905Y-88556905D01*
X195491429Y-88556905D01*
X195396190Y-88509286D01*
X195348571Y-88461667D01*
X195300952Y-88366429D01*
X174515497Y-90503440D02*
X175042268Y-90257713D01*
X175010369Y-90789154D02*
X175510369Y-89923129D01*
X175180454Y-89732653D01*
X175074166Y-89726273D01*
X175009117Y-89743703D01*
X174920259Y-89802372D01*
X174848831Y-89926089D01*
X174842451Y-90032377D01*
X174859881Y-90097426D01*
X174918550Y-90186284D01*
X175248465Y-90376761D01*
X174020626Y-90217726D02*
X174126914Y-90224106D01*
X174215772Y-90165437D01*
X174644344Y-89423129D01*
X173384605Y-89795534D02*
X173443274Y-89884392D01*
X173608232Y-89979630D01*
X173714520Y-89986010D01*
X173803379Y-89927341D01*
X173993855Y-89597426D01*
X174000235Y-89491138D01*
X173941566Y-89402280D01*
X173776608Y-89307041D01*
X173670320Y-89300662D01*
X173581462Y-89359331D01*
X173533842Y-89441810D01*
X173898617Y-89762384D01*
X172577249Y-89384392D02*
X173077249Y-88518367D01*
X172601059Y-89343153D02*
X172659728Y-89432011D01*
X172824686Y-89527249D01*
X172930974Y-89533629D01*
X172996022Y-89516199D01*
X173084881Y-89457530D01*
X173227738Y-89210094D01*
X173234118Y-89103806D01*
X173216688Y-89038757D01*
X173158019Y-88949899D01*
X172993061Y-88854660D01*
X172886773Y-88848281D01*
X208010476Y-117597381D02*
X208581905Y-117597381D01*
X208296191Y-117597381D02*
X208296191Y-116597381D01*
X208391429Y-116740238D01*
X208486667Y-116835476D01*
X208581905Y-116883095D01*
X207391429Y-116597381D02*
X207296190Y-116597381D01*
X207200952Y-116645000D01*
X207153333Y-116692619D01*
X207105714Y-116787857D01*
X207058095Y-116978333D01*
X207058095Y-117216429D01*
X207105714Y-117406905D01*
X207153333Y-117502143D01*
X207200952Y-117549762D01*
X207296190Y-117597381D01*
X207391429Y-117597381D01*
X207486667Y-117549762D01*
X207534286Y-117502143D01*
X207581905Y-117406905D01*
X207629524Y-117216429D01*
X207629524Y-116978333D01*
X207581905Y-116787857D01*
X207534286Y-116692619D01*
X207486667Y-116645000D01*
X207391429Y-116597381D01*
X206629524Y-117597381D02*
X206629524Y-116597381D01*
X206058095Y-117597381D02*
X206486667Y-117025952D01*
X206058095Y-116597381D02*
X206629524Y-117168810D01*
X172299868Y-97741811D02*
X172054142Y-97215039D01*
X172585583Y-97246939D02*
X171719558Y-96746939D01*
X171529081Y-97076854D01*
X171522701Y-97183142D01*
X171540131Y-97248190D01*
X171598800Y-97337049D01*
X171722518Y-97408477D01*
X171828806Y-97414857D01*
X171893855Y-97397427D01*
X171982713Y-97338758D01*
X172173189Y-97008843D01*
X171579661Y-97655913D02*
X171389185Y-97985827D01*
X172085583Y-98112964D02*
X171343275Y-97684392D01*
X171236987Y-97678013D01*
X171148129Y-97736682D01*
X171100510Y-97819160D01*
X134972381Y-81525952D02*
X134972381Y-82097381D01*
X135972381Y-81811666D02*
X134972381Y-81811666D01*
X135972381Y-82906905D02*
X135972381Y-82430714D01*
X134972381Y-82430714D01*
X134972381Y-83430714D02*
X134972381Y-83525953D01*
X135020000Y-83621191D01*
X135067619Y-83668810D01*
X135162857Y-83716429D01*
X135353333Y-83764048D01*
X135591429Y-83764048D01*
X135781905Y-83716429D01*
X135877143Y-83668810D01*
X135924762Y-83621191D01*
X135972381Y-83525953D01*
X135972381Y-83430714D01*
X135924762Y-83335476D01*
X135877143Y-83287857D01*
X135781905Y-83240238D01*
X135591429Y-83192619D01*
X135353333Y-83192619D01*
X135162857Y-83240238D01*
X135067619Y-83287857D01*
X135020000Y-83335476D01*
X134972381Y-83430714D01*
X134972381Y-84097381D02*
X134972381Y-84764048D01*
X135972381Y-84335476D01*
X135067619Y-85097381D02*
X135020000Y-85145000D01*
X134972381Y-85240238D01*
X134972381Y-85478334D01*
X135020000Y-85573572D01*
X135067619Y-85621191D01*
X135162857Y-85668810D01*
X135258095Y-85668810D01*
X135400952Y-85621191D01*
X135972381Y-85049762D01*
X135972381Y-85668810D01*
X164397671Y-96318932D02*
X164159576Y-96731326D01*
X164692726Y-96379311D02*
X163660034Y-96167985D01*
X164359392Y-96956661D01*
X164192726Y-97245336D02*
X163326701Y-96745336D01*
X163907011Y-97740208D01*
X163040986Y-97240208D01*
X162588605Y-98023755D02*
X162683844Y-97858797D01*
X162772702Y-97800128D01*
X162837751Y-97782698D01*
X163009087Y-97771648D01*
X163197854Y-97825647D01*
X163527769Y-98016123D01*
X163586438Y-98104982D01*
X163603868Y-98170030D01*
X163597488Y-98276318D01*
X163502249Y-98441276D01*
X163413391Y-98499945D01*
X163348342Y-98517375D01*
X163242054Y-98510995D01*
X163035858Y-98391948D01*
X162977188Y-98303089D01*
X162959758Y-98238040D01*
X162966138Y-98131752D01*
X163061377Y-97966794D01*
X163150235Y-97908125D01*
X163215284Y-97890696D01*
X163321573Y-97897076D01*
X162626425Y-98815390D02*
X162632805Y-98709102D01*
X162615375Y-98644053D01*
X162556706Y-98555195D01*
X162515467Y-98531386D01*
X162409179Y-98525006D01*
X162344130Y-98542436D01*
X162255272Y-98601105D01*
X162160034Y-98766063D01*
X162153654Y-98872351D01*
X162171084Y-98937399D01*
X162229753Y-99026258D01*
X162270992Y-99050067D01*
X162377280Y-99056447D01*
X162442329Y-99039017D01*
X162531187Y-98980348D01*
X162626425Y-98815390D01*
X162715284Y-98756721D01*
X162780332Y-98739291D01*
X162886621Y-98745672D01*
X163051578Y-98840910D01*
X163110247Y-98929768D01*
X163127677Y-98994817D01*
X163121297Y-99101105D01*
X163026059Y-99266063D01*
X162937201Y-99324732D01*
X162872152Y-99342161D01*
X162765864Y-99335782D01*
X162600907Y-99240544D01*
X162542237Y-99151685D01*
X162524807Y-99086636D01*
X162531187Y-98980348D01*
X162150235Y-99640176D02*
X162156615Y-99533888D01*
X162139185Y-99468839D01*
X162080516Y-99379981D01*
X162039277Y-99356172D01*
X161932989Y-99349792D01*
X161867940Y-99367222D01*
X161779082Y-99425891D01*
X161683843Y-99590849D01*
X161677463Y-99697137D01*
X161694893Y-99762185D01*
X161753562Y-99851044D01*
X161794801Y-99874853D01*
X161901089Y-99881233D01*
X161966138Y-99863803D01*
X162054996Y-99805134D01*
X162150235Y-99640176D01*
X162239093Y-99581507D01*
X162304142Y-99564077D01*
X162410431Y-99570458D01*
X162575388Y-99665696D01*
X162634057Y-99754554D01*
X162651487Y-99819603D01*
X162645107Y-99925891D01*
X162549868Y-100090849D01*
X162461010Y-100149518D01*
X162395961Y-100166947D01*
X162289673Y-100160568D01*
X162124716Y-100065330D01*
X162066046Y-99976471D01*
X162048617Y-99911422D01*
X162054996Y-99805134D01*
X161448708Y-100664780D02*
X162026059Y-100998113D01*
X161237842Y-100268107D02*
X161975480Y-100419053D01*
X161665956Y-100955165D01*
X199922381Y-108125952D02*
X199922381Y-108697381D01*
X200922381Y-108411666D02*
X199922381Y-108411666D01*
X200922381Y-109506905D02*
X200922381Y-109030714D01*
X199922381Y-109030714D01*
X199922381Y-110030714D02*
X199922381Y-110125953D01*
X199970000Y-110221191D01*
X200017619Y-110268810D01*
X200112857Y-110316429D01*
X200303333Y-110364048D01*
X200541429Y-110364048D01*
X200731905Y-110316429D01*
X200827143Y-110268810D01*
X200874762Y-110221191D01*
X200922381Y-110125953D01*
X200922381Y-110030714D01*
X200874762Y-109935476D01*
X200827143Y-109887857D01*
X200731905Y-109840238D01*
X200541429Y-109792619D01*
X200303333Y-109792619D01*
X200112857Y-109840238D01*
X200017619Y-109887857D01*
X199970000Y-109935476D01*
X199922381Y-110030714D01*
X199922381Y-110697381D02*
X199922381Y-111364048D01*
X200922381Y-110935476D01*
X200922381Y-112268810D02*
X200922381Y-111697381D01*
X200922381Y-111983095D02*
X199922381Y-111983095D01*
X200065238Y-111887857D01*
X200160476Y-111792619D01*
X200208095Y-111697381D01*
X184827142Y-106273571D02*
X184684285Y-106321190D01*
X184636666Y-106368810D01*
X184589047Y-106464048D01*
X184589047Y-106606905D01*
X184636666Y-106702143D01*
X184684285Y-106749762D01*
X184779523Y-106797381D01*
X185160476Y-106797381D01*
X185160476Y-105797381D01*
X184827142Y-105797381D01*
X184731904Y-105845000D01*
X184684285Y-105892619D01*
X184636666Y-105987857D01*
X184636666Y-106083095D01*
X184684285Y-106178333D01*
X184731904Y-106225952D01*
X184827142Y-106273571D01*
X185160476Y-106273571D01*
X183589047Y-106702143D02*
X183636666Y-106749762D01*
X183779523Y-106797381D01*
X183874761Y-106797381D01*
X184017619Y-106749762D01*
X184112857Y-106654524D01*
X184160476Y-106559286D01*
X184208095Y-106368810D01*
X184208095Y-106225952D01*
X184160476Y-106035476D01*
X184112857Y-105940238D01*
X184017619Y-105845000D01*
X183874761Y-105797381D01*
X183779523Y-105797381D01*
X183636666Y-105845000D01*
X183589047Y-105892619D01*
X182684285Y-105797381D02*
X183160476Y-105797381D01*
X183208095Y-106273571D01*
X183160476Y-106225952D01*
X183065238Y-106178333D01*
X182827142Y-106178333D01*
X182731904Y-106225952D01*
X182684285Y-106273571D01*
X182636666Y-106368810D01*
X182636666Y-106606905D01*
X182684285Y-106702143D01*
X182731904Y-106749762D01*
X182827142Y-106797381D01*
X183065238Y-106797381D01*
X183160476Y-106749762D01*
X183208095Y-106702143D01*
X181779523Y-106130714D02*
X181779523Y-106797381D01*
X182017619Y-105749762D02*
X182255714Y-106464048D01*
X181636666Y-106464048D01*
X181350952Y-105797381D02*
X180684285Y-105797381D01*
X181112857Y-106797381D01*
M02*
