M48
;DRILL file {KiCad 4.0.7} date 03/19/18 22:43:49
;FORMAT={-:-/ absolute / metric / decimal}
FMAT,2
METRIC,TZ
T1C0.400
T2C0.800
T3C0.900
T4C1.000
T5C1.200
T6C2.200
T7C3.200
%
G90
G05
M71
T1
X137.27Y-94.745
X175.67Y-113.945
X178.67Y-99.295
X189.97Y-90.595
X191.47Y-90.745
X215.37Y-89.595
T2
X121.42Y-93.095
X123.92Y-93.095
X127.47Y-82.395
X127.47Y-87.395
X131.47Y-90.895
X131.6Y-79.895
X131.6Y-82.435
X131.6Y-84.975
X131.6Y-87.515
X136.47Y-90.895
X139.22Y-79.895
X139.22Y-82.435
X139.22Y-84.975
X139.22Y-87.515
X140.56Y-92.395
X142.72Y-79.485
X142.72Y-89.645
X144.67Y-107.845
X146.47Y-79.395
X146.47Y-89.555
X147.17Y-107.845
X149.97Y-79.485
X149.97Y-89.645
X150.72Y-92.395
X156.47Y-112.145
X156.47Y-114.645
X164.97Y-81.395
X165.22Y-108.975
X167.72Y-104.645
X168.39Y-111.194
X169.14Y-102.194
X169.47Y-87.145
X169.97Y-81.395
X172.22Y-111.395
X173.47Y-102.395
X174.22Y-93.395
X174.97Y-99.975
X176.81Y-79.145
X176.81Y-82.395
X177.47Y-95.645
X178.269Y-92.225
X182.38Y-111.395
X184.14Y-104.694
X186.97Y-79.145
X186.97Y-82.395
X187.42Y-103.665
X187.42Y-106.205
X187.42Y-108.745
X189.22Y-95.895
X191.47Y-98.985
X191.47Y-109.145
X191.72Y-112.495
X191.72Y-117.495
X193.06Y-86.645
X194.72Y-117.445
X195.22Y-82.485
X195.22Y-92.645
X196.02Y-106.275
X196.02Y-108.815
X196.02Y-111.355
X196.02Y-113.895
X199.72Y-117.445
X200.42Y-104.845
X200.42Y-115.005
X201.22Y-82.485
X201.22Y-92.645
X202.17Y-117.095
X203.22Y-86.645
X203.64Y-106.275
X203.64Y-108.815
X203.64Y-111.355
X203.64Y-113.895
X203.72Y-101.295
X206.67Y-91.065
X206.67Y-93.605
X206.67Y-96.145
X208.72Y-101.295
X212.33Y-117.095
T3
X150.43Y-110.395
X152.97Y-110.395
X154.43Y-104.395
X156.97Y-104.395
X157.93Y-98.395
X160.47Y-98.395
X160.93Y-92.395
X163.47Y-92.395
X164.43Y-86.395
X166.97Y-86.395
X177.97Y-104.395
X180.51Y-104.395
X180.97Y-98.395
X183.51Y-98.395
X184.47Y-92.395
X187.01Y-92.395
X187.97Y-86.395
X190.51Y-86.395
X195.52Y-95.855
X195.52Y-98.395
X195.52Y-100.935
X200.92Y-95.855
X200.92Y-98.395
X200.92Y-100.935
X211.18Y-95.695
X211.18Y-101.095
X213.72Y-95.695
X213.72Y-101.095
X216.26Y-95.695
X216.26Y-101.095
T4
X130.745Y-109.42
X132.745Y-109.42
X134.745Y-109.42
X136.745Y-109.42
X138.745Y-109.42
X140.745Y-109.42
X160.14Y-108.694
X161.41Y-106.494
X162.68Y-104.294
X163.95Y-102.095
X165.22Y-99.895
X166.49Y-97.695
X167.76Y-95.496
X169.03Y-93.296
X170.3Y-91.096
X173.47Y-79.395
X173.47Y-81.935
X173.47Y-84.475
X209.39Y-105.645
X211.93Y-105.645
X214.47Y-105.645
T5
X121.23Y-100.995
X123.77Y-100.995
X125.22Y-77.645
X127.57Y-92.145
X127.76Y-77.645
X146.83Y-100.445
X149.37Y-100.445
X153.64Y-81.895
X156.18Y-81.895
X158.47Y-91.795
X158.72Y-81.895
X163.47Y-112.395
X163.47Y-114.935
X179.47Y-87.645
X182.01Y-87.645
X185.72Y-112.895
X188.26Y-112.895
X206.37Y-82.795
X207.87Y-111.095
X208.91Y-82.795
X210.41Y-111.095
T6
X129.245Y-98.32
X142.245Y-98.42
T7
X121.72Y-83.895
X121.72Y-113.895
X215.72Y-83.895
X215.72Y-113.895
T0
M30
