G04 #@! TF.FileFunction,Soldermask,Top*
%FSLAX46Y46*%
G04 Gerber Fmt 4.6, Leading zero omitted, Abs format (unit mm)*
G04 Created by KiCad (PCBNEW 4.0.7) date 03/19/18 22:43:47*
%MOMM*%
%LPD*%
G01*
G04 APERTURE LIST*
%ADD10C,0.100000*%
%ADD11C,0.150000*%
%ADD12C,2.200000*%
%ADD13C,4.400000*%
%ADD14C,2.800000*%
%ADD15C,2.000000*%
%ADD16R,2.200000X2.200000*%
%ADD17O,2.300000X2.300000*%
%ADD18O,2.000000X2.000000*%
%ADD19R,2.000000X2.000000*%
%ADD20R,3.000000X2.400000*%
%ADD21O,3.000000X2.400000*%
%ADD22R,2.400000X3.000000*%
%ADD23O,2.400000X3.000000*%
%ADD24C,2.000000*%
%ADD25C,2.400000*%
%ADD26R,2.800000X2.000000*%
%ADD27O,2.800000X2.000000*%
%ADD28C,6.000000*%
%ADD29C,1.920000*%
%ADD30R,1.920000X1.920000*%
G04 APERTURE END LIST*
D10*
D11*
X118725000Y-73910000D02*
X118725000Y-118910000D01*
X218725000Y-73910000D02*
X118725000Y-73910000D01*
X218725000Y-118910000D02*
X118725000Y-118910000D01*
X218725000Y-73910000D02*
X218725000Y-118910000D01*
D12*
X130745000Y-109420000D03*
X132745000Y-109420000D03*
X134745000Y-109420000D03*
X136745000Y-109420000D03*
X138745000Y-109420000D03*
X140745000Y-109420000D03*
D13*
X129245000Y-98320000D03*
X142245000Y-98420000D03*
D14*
X158470000Y-91795000D03*
X127570000Y-92145000D03*
D15*
X206670000Y-96145000D03*
X206670000Y-93605000D03*
X206670000Y-91065000D03*
D16*
X173470000Y-79395000D03*
D17*
X173470000Y-81935000D03*
X173470000Y-84475000D03*
D16*
X214470000Y-105645000D03*
D17*
X211930000Y-105645000D03*
X209390000Y-105645000D03*
D15*
X200420000Y-104845000D03*
D18*
X200420000Y-115005000D03*
D19*
X156470000Y-114645000D03*
D15*
X156470000Y-112145000D03*
D19*
X164970000Y-81395000D03*
D15*
X169970000Y-81395000D03*
X177470000Y-95645000D03*
X174970000Y-99975127D03*
D19*
X208720000Y-101295000D03*
D15*
X203720000Y-101295000D03*
X167720000Y-104645000D03*
X165220000Y-108975127D03*
D19*
X147170000Y-107845000D03*
D15*
X144670000Y-107845000D03*
D19*
X121420000Y-93095000D03*
D15*
X123920000Y-93095000D03*
X131470000Y-90895000D03*
X136470000Y-90895000D03*
X127470000Y-82395000D03*
X127470000Y-87395000D03*
X191720000Y-117495000D03*
X191720000Y-112495000D03*
X199720000Y-117445000D03*
X194720000Y-117445000D03*
D16*
X177970000Y-104395000D03*
D12*
X180510000Y-104395000D03*
D16*
X187970000Y-86395000D03*
D12*
X190510000Y-86395000D03*
D16*
X184470000Y-92395000D03*
D12*
X187010000Y-92395000D03*
D16*
X180970000Y-98395000D03*
D12*
X183510000Y-98395000D03*
D16*
X152970000Y-110395000D03*
D12*
X150430000Y-110395000D03*
D16*
X156970000Y-104395000D03*
D12*
X154430000Y-104395000D03*
D16*
X160470000Y-98395000D03*
D12*
X157930000Y-98395000D03*
D16*
X163470000Y-92395000D03*
D12*
X160930000Y-92395000D03*
D16*
X166970000Y-86395000D03*
D12*
X164430000Y-86395000D03*
D20*
X163470000Y-112395000D03*
D21*
X163470000Y-114935000D03*
D22*
X158720000Y-81895000D03*
D23*
X156180000Y-81895000D03*
X153640000Y-81895000D03*
D22*
X185720000Y-112895000D03*
D23*
X188260000Y-112895000D03*
D22*
X179470000Y-87645000D03*
D23*
X182010000Y-87645000D03*
D22*
X149370000Y-100445000D03*
D23*
X146830000Y-100445000D03*
D22*
X123770000Y-100995000D03*
D23*
X121230000Y-100995000D03*
D22*
X125220000Y-77645000D03*
D23*
X127760000Y-77645000D03*
D22*
X207870000Y-111095000D03*
D23*
X210410000Y-111095000D03*
D22*
X206370000Y-82795000D03*
D23*
X208910000Y-82795000D03*
D15*
X172220000Y-111395000D03*
D18*
X182380000Y-111395000D03*
D15*
X203220000Y-86645000D03*
D18*
X193060000Y-86645000D03*
D15*
X149970000Y-89645000D03*
D18*
X149970000Y-79485000D03*
D15*
X142720000Y-89645000D03*
D18*
X142720000Y-79485000D03*
D15*
X191470000Y-109145000D03*
D18*
X191470000Y-98985000D03*
D15*
X150720000Y-92395000D03*
D18*
X140560000Y-92395000D03*
D15*
X146470000Y-79395000D03*
D18*
X146470000Y-89555000D03*
D15*
X189220000Y-95895000D03*
D24*
X184140000Y-104693818D02*
X184140000Y-104693818D01*
D15*
X186970000Y-79145000D03*
D18*
X176810000Y-79145000D03*
D15*
X186970000Y-82395000D03*
D18*
X176810000Y-82395000D03*
D15*
X173470000Y-102395000D03*
D24*
X168390000Y-111193818D02*
X168390000Y-111193818D01*
D15*
X201220000Y-92645000D03*
D18*
X201220000Y-82485000D03*
D15*
X195220000Y-92645000D03*
D18*
X195220000Y-82485000D03*
D15*
X169470000Y-87145000D03*
D24*
X178268818Y-92225000D02*
X178268818Y-92225000D01*
D15*
X202170000Y-117095000D03*
D18*
X212330000Y-117095000D03*
D15*
X174220000Y-93395000D03*
D24*
X169140000Y-102193818D02*
X169140000Y-102193818D01*
D25*
X213720000Y-95695000D03*
X213720000Y-101095000D03*
X211180000Y-101095000D03*
X211180000Y-95695000D03*
X216260000Y-95695000D03*
X216260000Y-101095000D03*
X200920000Y-98395000D03*
X195520000Y-98395000D03*
X195520000Y-95855000D03*
X200920000Y-95855000D03*
X200920000Y-100935000D03*
X195520000Y-100935000D03*
D26*
X139220000Y-79895000D03*
D27*
X131600000Y-87515000D03*
X139220000Y-82435000D03*
X131600000Y-84975000D03*
X139220000Y-84975000D03*
X131600000Y-82435000D03*
X139220000Y-87515000D03*
X131600000Y-79895000D03*
D10*
G36*
X158297661Y-108784843D02*
X159297661Y-107052793D01*
X161982339Y-108602793D01*
X160982339Y-110334843D01*
X158297661Y-108784843D01*
X158297661Y-108784843D01*
G37*
D24*
X160933686Y-106219114D02*
X161886314Y-106769114D01*
X162203686Y-104019409D02*
X163156314Y-104569409D01*
X163473686Y-101819705D02*
X164426314Y-102369705D01*
X164743686Y-99620000D02*
X165696314Y-100170000D01*
X166013686Y-97420295D02*
X166966314Y-97970295D01*
X167283686Y-95220591D02*
X168236314Y-95770591D01*
X168553686Y-93020886D02*
X169506314Y-93570886D01*
X169823686Y-90821182D02*
X170776314Y-91371182D01*
D26*
X196020000Y-113895000D03*
D27*
X203640000Y-106275000D03*
X196020000Y-111355000D03*
X203640000Y-108815000D03*
X196020000Y-108815000D03*
X203640000Y-111355000D03*
X196020000Y-106275000D03*
X203640000Y-113895000D03*
D28*
X215720000Y-83895000D03*
X121720000Y-83895000D03*
X121720000Y-113895000D03*
X215720000Y-113895000D03*
D29*
X187420000Y-106205000D03*
X187420000Y-103665000D03*
D30*
X187420000Y-108745000D03*
M02*
