G04 #@! TF.FileFunction,Copper,L1,Top,Signal*
%FSLAX46Y46*%
G04 Gerber Fmt 4.6, Leading zero omitted, Abs format (unit mm)*
G04 Created by KiCad (PCBNEW 4.0.7) date 03/19/18 22:43:46*
%MOMM*%
%LPD*%
G01*
G04 APERTURE LIST*
%ADD10C,0.100000*%
%ADD11C,0.150000*%
%ADD12C,1.800000*%
%ADD13C,4.000000*%
%ADD14C,2.400000*%
%ADD15C,1.600000*%
%ADD16R,1.800000X1.800000*%
%ADD17O,1.900000X1.900000*%
%ADD18O,1.600000X1.600000*%
%ADD19R,1.600000X1.600000*%
%ADD20R,2.600000X2.000000*%
%ADD21O,2.600000X2.000000*%
%ADD22R,2.000000X2.600000*%
%ADD23O,2.000000X2.600000*%
%ADD24C,1.600000*%
%ADD25C,2.000000*%
%ADD26R,2.400000X1.600000*%
%ADD27O,2.400000X1.600000*%
%ADD28C,5.600000*%
%ADD29C,1.520000*%
%ADD30R,1.520000X1.520000*%
%ADD31C,0.600000*%
%ADD32C,0.700000*%
G04 APERTURE END LIST*
D10*
D11*
X118725000Y-73910000D02*
X118725000Y-118910000D01*
X218725000Y-73910000D02*
X118725000Y-73910000D01*
X218725000Y-118910000D02*
X118725000Y-118910000D01*
X218725000Y-73910000D02*
X218725000Y-118910000D01*
D12*
X130745000Y-109420000D03*
X132745000Y-109420000D03*
X134745000Y-109420000D03*
X136745000Y-109420000D03*
X138745000Y-109420000D03*
X140745000Y-109420000D03*
D13*
X129245000Y-98320000D03*
X142245000Y-98420000D03*
D14*
X158470000Y-91795000D03*
X127570000Y-92145000D03*
D15*
X206670000Y-96145000D03*
X206670000Y-93605000D03*
X206670000Y-91065000D03*
D16*
X173470000Y-79395000D03*
D17*
X173470000Y-81935000D03*
X173470000Y-84475000D03*
D16*
X214470000Y-105645000D03*
D17*
X211930000Y-105645000D03*
X209390000Y-105645000D03*
D15*
X200420000Y-104845000D03*
D18*
X200420000Y-115005000D03*
D19*
X156470000Y-114645000D03*
D15*
X156470000Y-112145000D03*
D19*
X164970000Y-81395000D03*
D15*
X169970000Y-81395000D03*
X177470000Y-95645000D03*
X174970000Y-99975127D03*
D19*
X208720000Y-101295000D03*
D15*
X203720000Y-101295000D03*
X167720000Y-104645000D03*
X165220000Y-108975127D03*
D19*
X147170000Y-107845000D03*
D15*
X144670000Y-107845000D03*
D19*
X121420000Y-93095000D03*
D15*
X123920000Y-93095000D03*
X131470000Y-90895000D03*
X136470000Y-90895000D03*
X127470000Y-82395000D03*
X127470000Y-87395000D03*
X191720000Y-117495000D03*
X191720000Y-112495000D03*
X199720000Y-117445000D03*
X194720000Y-117445000D03*
D16*
X177970000Y-104395000D03*
D12*
X180510000Y-104395000D03*
D16*
X187970000Y-86395000D03*
D12*
X190510000Y-86395000D03*
D16*
X184470000Y-92395000D03*
D12*
X187010000Y-92395000D03*
D16*
X180970000Y-98395000D03*
D12*
X183510000Y-98395000D03*
D16*
X152970000Y-110395000D03*
D12*
X150430000Y-110395000D03*
D16*
X156970000Y-104395000D03*
D12*
X154430000Y-104395000D03*
D16*
X160470000Y-98395000D03*
D12*
X157930000Y-98395000D03*
D16*
X163470000Y-92395000D03*
D12*
X160930000Y-92395000D03*
D16*
X166970000Y-86395000D03*
D12*
X164430000Y-86395000D03*
D20*
X163470000Y-112395000D03*
D21*
X163470000Y-114935000D03*
D22*
X158720000Y-81895000D03*
D23*
X156180000Y-81895000D03*
X153640000Y-81895000D03*
D22*
X185720000Y-112895000D03*
D23*
X188260000Y-112895000D03*
D22*
X179470000Y-87645000D03*
D23*
X182010000Y-87645000D03*
D22*
X149370000Y-100445000D03*
D23*
X146830000Y-100445000D03*
D22*
X123770000Y-100995000D03*
D23*
X121230000Y-100995000D03*
D22*
X125220000Y-77645000D03*
D23*
X127760000Y-77645000D03*
D22*
X207870000Y-111095000D03*
D23*
X210410000Y-111095000D03*
D22*
X206370000Y-82795000D03*
D23*
X208910000Y-82795000D03*
D15*
X172220000Y-111395000D03*
D18*
X182380000Y-111395000D03*
D15*
X203220000Y-86645000D03*
D18*
X193060000Y-86645000D03*
D15*
X149970000Y-89645000D03*
D18*
X149970000Y-79485000D03*
D15*
X142720000Y-89645000D03*
D18*
X142720000Y-79485000D03*
D15*
X191470000Y-109145000D03*
D18*
X191470000Y-98985000D03*
D15*
X150720000Y-92395000D03*
D18*
X140560000Y-92395000D03*
D15*
X146470000Y-79395000D03*
D18*
X146470000Y-89555000D03*
D15*
X189220000Y-95895000D03*
D24*
X184140000Y-104693818D02*
X184140000Y-104693818D01*
D15*
X186970000Y-79145000D03*
D18*
X176810000Y-79145000D03*
D15*
X186970000Y-82395000D03*
D18*
X176810000Y-82395000D03*
D15*
X173470000Y-102395000D03*
D24*
X168390000Y-111193818D02*
X168390000Y-111193818D01*
D15*
X201220000Y-92645000D03*
D18*
X201220000Y-82485000D03*
D15*
X195220000Y-92645000D03*
D18*
X195220000Y-82485000D03*
D15*
X169470000Y-87145000D03*
D24*
X178268818Y-92225000D02*
X178268818Y-92225000D01*
D15*
X202170000Y-117095000D03*
D18*
X212330000Y-117095000D03*
D15*
X174220000Y-93395000D03*
D24*
X169140000Y-102193818D02*
X169140000Y-102193818D01*
D25*
X213720000Y-95695000D03*
X213720000Y-101095000D03*
X211180000Y-101095000D03*
X211180000Y-95695000D03*
X216260000Y-95695000D03*
X216260000Y-101095000D03*
X200920000Y-98395000D03*
X195520000Y-98395000D03*
X195520000Y-95855000D03*
X200920000Y-95855000D03*
X200920000Y-100935000D03*
X195520000Y-100935000D03*
D26*
X139220000Y-79895000D03*
D27*
X131600000Y-87515000D03*
X139220000Y-82435000D03*
X131600000Y-84975000D03*
X139220000Y-84975000D03*
X131600000Y-82435000D03*
X139220000Y-87515000D03*
X131600000Y-79895000D03*
D10*
G36*
X158570866Y-108711638D02*
X159370866Y-107325998D01*
X161709134Y-108675998D01*
X160909134Y-110061638D01*
X158570866Y-108711638D01*
X158570866Y-108711638D01*
G37*
D24*
X160933686Y-106219114D02*
X161886314Y-106769114D01*
X162203686Y-104019409D02*
X163156314Y-104569409D01*
X163473686Y-101819705D02*
X164426314Y-102369705D01*
X164743686Y-99620000D02*
X165696314Y-100170000D01*
X166013686Y-97420295D02*
X166966314Y-97970295D01*
X167283686Y-95220591D02*
X168236314Y-95770591D01*
X168553686Y-93020886D02*
X169506314Y-93570886D01*
X169823686Y-90821182D02*
X170776314Y-91371182D01*
D26*
X196020000Y-113895000D03*
D27*
X203640000Y-106275000D03*
X196020000Y-111355000D03*
X203640000Y-108815000D03*
X196020000Y-108815000D03*
X203640000Y-111355000D03*
X196020000Y-106275000D03*
X203640000Y-113895000D03*
D28*
X215720000Y-83895000D03*
X121720000Y-83895000D03*
X121720000Y-113895000D03*
X215720000Y-113895000D03*
D29*
X187420000Y-106205000D03*
X187420000Y-103665000D03*
D30*
X187420000Y-108745000D03*
D31*
X175670000Y-113945000D03*
X137270000Y-94745000D03*
X215370000Y-89595000D03*
X191470000Y-90745000D03*
X178670000Y-99295000D03*
X189970000Y-90595000D03*
D32*
X187420000Y-108745000D02*
X186970000Y-108745000D01*
X186970000Y-108745000D02*
X185720000Y-109995000D01*
X185720000Y-109995000D02*
X185720000Y-112895000D01*
X156470000Y-114645000D02*
X163180000Y-114645000D01*
X163180000Y-114645000D02*
X163470000Y-114935000D01*
X163470000Y-114935000D02*
X168680000Y-114935000D01*
X168680000Y-114935000D02*
X172220000Y-111395000D01*
X178268818Y-92225000D02*
X176550000Y-92225000D01*
X175421182Y-91096182D02*
X170300000Y-91096182D01*
X176550000Y-92225000D02*
X175421182Y-91096182D01*
X206370000Y-82795000D02*
X206370000Y-81995000D01*
X206370000Y-81995000D02*
X204520000Y-80145000D01*
X194220000Y-80145000D02*
X187970000Y-86395000D01*
X204520000Y-80145000D02*
X194220000Y-80145000D01*
X206370000Y-82795000D02*
X206370000Y-90765000D01*
X206370000Y-90765000D02*
X206670000Y-91065000D01*
X127470000Y-87395000D02*
X131480000Y-87395000D01*
X131480000Y-87395000D02*
X131600000Y-87515000D01*
X196020000Y-108815000D02*
X197600000Y-108815000D01*
X206720000Y-109945000D02*
X207870000Y-111095000D01*
X206720000Y-105345000D02*
X206720000Y-109945000D01*
X205520000Y-104145000D02*
X206720000Y-105345000D01*
X202970000Y-104145000D02*
X205520000Y-104145000D01*
X201970000Y-103145000D02*
X202970000Y-104145000D01*
X199720000Y-103145000D02*
X201970000Y-103145000D01*
X198220000Y-104645000D02*
X199720000Y-103145000D01*
X198220000Y-108195000D02*
X198220000Y-104645000D01*
X197600000Y-108815000D02*
X198220000Y-108195000D01*
X127470000Y-87395000D02*
X127470000Y-86345000D01*
X125570000Y-84445000D02*
X125570000Y-77995000D01*
X127470000Y-86345000D02*
X125570000Y-84445000D01*
X125570000Y-77995000D02*
X125220000Y-77645000D01*
X174970000Y-99975127D02*
X175950127Y-99975127D01*
X175950127Y-99975127D02*
X178495000Y-102520000D01*
X180970000Y-98395000D02*
X180970000Y-100045000D01*
X177970000Y-103045000D02*
X177970000Y-104395000D01*
X180970000Y-100045000D02*
X178495000Y-102520000D01*
X178495000Y-102520000D02*
X177970000Y-103045000D01*
X184470000Y-92395000D02*
X183670000Y-92395000D01*
X183670000Y-92395000D02*
X180970000Y-95095000D01*
X180970000Y-95095000D02*
X180970000Y-98395000D01*
X187970000Y-86395000D02*
X187970000Y-86895000D01*
X187970000Y-86895000D02*
X184470000Y-90395000D01*
X184470000Y-90395000D02*
X184470000Y-92395000D01*
X165220000Y-99895000D02*
X165220000Y-100395000D01*
X144670000Y-107845000D02*
X145370000Y-108545000D01*
X145370000Y-109495000D02*
X145370000Y-108545000D01*
X152820000Y-116945000D02*
X145370000Y-109495000D01*
X172670000Y-116945000D02*
X152820000Y-116945000D01*
X175670000Y-113945000D02*
X172670000Y-116945000D01*
X196020000Y-106275000D02*
X195140000Y-106275000D01*
X195140000Y-106275000D02*
X193870000Y-107545000D01*
X193870000Y-110345000D02*
X191720000Y-112495000D01*
X193870000Y-107545000D02*
X193870000Y-110345000D01*
X145730000Y-101545000D02*
X146830000Y-100445000D01*
X140470000Y-101545000D02*
X145730000Y-101545000D01*
X138720000Y-99795000D02*
X140470000Y-101545000D01*
X138720000Y-96195000D02*
X138720000Y-99795000D01*
X137270000Y-94745000D02*
X138720000Y-96195000D01*
X139220000Y-87515000D02*
X139220000Y-88145000D01*
X139220000Y-88145000D02*
X136470000Y-90895000D01*
X174070000Y-117695000D02*
X174020000Y-117695000D01*
X193370000Y-115695000D02*
X190570000Y-115695000D01*
X190570000Y-115695000D02*
X189470000Y-116795000D01*
X189470000Y-116795000D02*
X188720000Y-117545000D01*
X188720000Y-117545000D02*
X174220000Y-117545000D01*
X174220000Y-117545000D02*
X174070000Y-117695000D01*
X198420000Y-115695000D02*
X193370000Y-115695000D01*
X121230000Y-104855000D02*
X121230000Y-100995000D01*
X134570000Y-118195000D02*
X121230000Y-104855000D01*
X173520000Y-118195000D02*
X134570000Y-118195000D01*
X174020000Y-117695000D02*
X173520000Y-118195000D01*
X203640000Y-111355000D02*
X199810000Y-111355000D01*
X198420000Y-116145000D02*
X199720000Y-117445000D01*
X198420000Y-112745000D02*
X198420000Y-115695000D01*
X198420000Y-115695000D02*
X198420000Y-116145000D01*
X199810000Y-111355000D02*
X198420000Y-112745000D01*
X127470000Y-82395000D02*
X129720000Y-80145000D01*
X129720000Y-80145000D02*
X131350000Y-80145000D01*
X131350000Y-80145000D02*
X131600000Y-79895000D01*
X173470000Y-102395000D02*
X169341182Y-102395000D01*
X169341182Y-102395000D02*
X169140000Y-102193818D01*
X169140000Y-102193818D02*
X169140000Y-102675000D01*
X169140000Y-102675000D02*
X167470000Y-104345000D01*
X169188818Y-102145000D02*
X169140000Y-102193818D01*
X167760000Y-95495591D02*
X168070591Y-95495591D01*
X168070591Y-95495591D02*
X169140000Y-96565000D01*
X169140000Y-96565000D02*
X169140000Y-102193818D01*
X180510000Y-104395000D02*
X180510000Y-108185000D01*
X182380000Y-110055000D02*
X182380000Y-111395000D01*
X180510000Y-108185000D02*
X182380000Y-110055000D01*
X190510000Y-86395000D02*
X192810000Y-86395000D01*
X192810000Y-86395000D02*
X193060000Y-86645000D01*
X187010000Y-92395000D02*
X187010000Y-98355000D01*
X187800000Y-99145000D02*
X191310000Y-99145000D01*
X187010000Y-98355000D02*
X187800000Y-99145000D01*
X191310000Y-99145000D02*
X191470000Y-98985000D01*
X183510000Y-98395000D02*
X183510000Y-104063818D01*
X183510000Y-104063818D02*
X184140000Y-104693818D01*
X160140000Y-108693818D02*
X154671182Y-108693818D01*
X154671182Y-108693818D02*
X152970000Y-110395000D01*
X169470000Y-87145000D02*
X169470000Y-85145000D01*
X164430000Y-85185000D02*
X164430000Y-86395000D01*
X165220000Y-84395000D02*
X164430000Y-85185000D01*
X168720000Y-84395000D02*
X165220000Y-84395000D01*
X169470000Y-85145000D02*
X168720000Y-84395000D01*
X160930000Y-92395000D02*
X160930000Y-89895000D01*
X160930000Y-89895000D02*
X164430000Y-86395000D01*
X157930000Y-98395000D02*
X157930000Y-95395000D01*
X157930000Y-95395000D02*
X160930000Y-92395000D01*
X154430000Y-104395000D02*
X154430000Y-101895000D01*
X154430000Y-101895000D02*
X157930000Y-98395000D01*
X150430000Y-110395000D02*
X150430000Y-108395000D01*
X150430000Y-108395000D02*
X154430000Y-104395000D01*
X156970000Y-104395000D02*
X159310886Y-104395000D01*
X159310886Y-104395000D02*
X161410000Y-106494114D01*
X160470000Y-98395000D02*
X160470000Y-102084409D01*
X160470000Y-102084409D02*
X162680000Y-104294409D01*
X163470000Y-92395000D02*
X163470000Y-96645000D01*
X162470000Y-100614705D02*
X163950000Y-102094705D01*
X162470000Y-97645000D02*
X162470000Y-100614705D01*
X163470000Y-96645000D02*
X162470000Y-97645000D01*
X166490000Y-97695295D02*
X166490000Y-97665000D01*
X166490000Y-97665000D02*
X165470000Y-96645000D01*
X165470000Y-96645000D02*
X165470000Y-91895000D01*
X165470000Y-91895000D02*
X166970000Y-90395000D01*
X166970000Y-90395000D02*
X166970000Y-86395000D01*
X187420000Y-106205000D02*
X188730000Y-106205000D01*
X189570000Y-111585000D02*
X188260000Y-112895000D01*
X189570000Y-107045000D02*
X189570000Y-111585000D01*
X188730000Y-106205000D02*
X189570000Y-107045000D01*
X214470000Y-105645000D02*
X216570000Y-105645000D01*
X218070000Y-92295000D02*
X215370000Y-89595000D01*
X218070000Y-104145000D02*
X218070000Y-92295000D01*
X216570000Y-105645000D02*
X218070000Y-104145000D01*
X208910000Y-82795000D02*
X208910000Y-96935000D01*
X208910000Y-96935000D02*
X210720000Y-98745000D01*
X210720000Y-98745000D02*
X212770000Y-98745000D01*
X212770000Y-98745000D02*
X213720000Y-99695000D01*
X213720000Y-99695000D02*
X213720000Y-101095000D01*
X174220000Y-93395000D02*
X174220000Y-94845000D01*
X202420000Y-89595000D02*
X206430000Y-93605000D01*
X192620000Y-89595000D02*
X202420000Y-89595000D01*
X191470000Y-90745000D02*
X192620000Y-89595000D01*
X174220000Y-94845000D02*
X178670000Y-99295000D01*
X206430000Y-93605000D02*
X206670000Y-93605000D01*
X174220000Y-93395000D02*
X173470000Y-93395000D01*
X173470000Y-93395000D02*
X173470000Y-93395000D01*
X173470000Y-93395000D02*
X169129114Y-93395000D01*
X169129114Y-93395000D02*
X169030000Y-93295886D01*
X187420000Y-103665000D02*
X189540000Y-103665000D01*
X191470000Y-105595000D02*
X191470000Y-109145000D01*
X189540000Y-103665000D02*
X191470000Y-105595000D01*
X189970000Y-91595000D02*
X189970000Y-90595000D01*
X191020000Y-92645000D02*
X189970000Y-91595000D01*
X195220000Y-92645000D02*
X191020000Y-92645000D01*
X201220000Y-92645000D02*
X195220000Y-92645000D01*
M02*
